<svg xmlns="http://www.w3.org/2000/svg" width="610" height="300" viewBox="0 0 610 300">
  <g fill="none" fill-rule="evenodd">
    <path stroke="#000" stroke-dasharray="3 4" stroke-linecap="square" stroke-opacity=".156" d="M177.5 81.3047661L177.5 221.304766M107.5 39.3047661L107.5 179.304766M37.5 81.3047661L37.5 221.304766"/>
    <path fill="#474747" fill-opacity=".5" stroke="#979797" d="M37.9573709,221.304766 L107.710678,264.023217 L177.463985,221.304766 L107.710678,178.586315 L37.9573709,221.304766 Z"/>
    <path fill="#E6E6E6" fill-opacity=".8" stroke="#979797" d="M37.9573709,151.304766 L107.710678,194.023217 L177.463985,151.304766 L107.710678,108.586315 L37.9573709,151.304766 Z"/>
    <path fill="#353535" fill-opacity=".2" stroke="#979797" d="M37.9573709,81.3047661 L107.710678,124.023217 L177.463985,81.3047661 L107.710678,38.5863149 L37.9573709,81.3047661 Z"/>
    <path stroke="#000" stroke-dasharray="3 4" stroke-linecap="square" stroke-opacity=".156" d="M107.5,124.304766 L107.5,264.304766"/>
    <path fill="#474747" fill-opacity=".497" stroke="#979797" d="M457.957371,221.304766 L527.710678,264.023217 L597.463985,221.304766 L527.710678,178.586315 L457.957371,221.304766 Z"/>
    <path fill="#E6E6E6" fill-opacity=".8" stroke="#979797" d="M457.957371,219.304766 L527.710678,262.023217 L597.463985,219.304766 L527.710678,176.586315 L457.957371,219.304766 Z"/>
    <path fill="#353535" fill-opacity=".2" stroke="#979797" d="M457.957371,217.304766 L527.710678,260.023217 L597.463985,217.304766 L527.710678,174.586315 L457.957371,217.304766 Z"/>
    <path stroke="#000" stroke-dasharray="3 4" stroke-linecap="square" stroke-opacity=".156" d="M317.5 109.304766L317.710678 178M247.5 152.5L247.5 221.304766M387.5 151.304766L387.5 221.304766"/>
    <path fill="#474747" fill-opacity=".5" stroke="#979797" d="M247.957371,221.304766 L317.710678,264.023217 L387.463985,221.304766 L317.710678,178.586315 L247.957371,221.304766 Z"/>
    <path fill="#E6E6E6" fill-opacity=".8" stroke="#979797" d="M247.957371,151.304766 L317.710678,194.023217 L387.463985,151.304766 L317.710678,108.586315 L247.957371,151.304766 Z"/>
    <path fill="#353535" fill-opacity=".2" stroke="#979797" d="M247.957371,149.304766 L317.710678,192.023217 L387.463985,149.304766 L317.710678,106.586315 L247.957371,149.304766 Z"/>
    <path stroke="#000" stroke-dasharray="3 4" stroke-linecap="square" stroke-opacity=".156" d="M317.5,194.609532 L317.5,264.304766"/>
    <rect width="26" height="26" y="138" fill="#333" rx="6"/>
    <rect width="26" height="26" x="95" fill="#333" rx="6"/>
    <rect width="26" height="26" x="304" y="274" fill="#333" rx="6"/>
    <rect width="26" height="26" x="95" y="274" fill="#333" rx="6"/>
    <rect width="26" height="26" x="276" y="73" fill="#333" rx="6"/>
    <rect width="26" height="26" x="462" y="274" fill="#333" rx="6"/>
    <rect width="26" height="26" x="520" y="274" fill="#333" rx="6"/>
    <rect width="26" height="26" x="583" y="274" fill="#333" rx="6"/>
    <rect width="26" height="26" x="334" y="73" fill="#333" rx="6"/>
    <g fill-rule="nonzero" transform="translate(7 5)">
      <path fill="#F8F8F8" d="M105.2975 16L103.88 11.7475 98.0075 11.7475 96.635 16 94.0475 16 99.4025.295 102.5975.295 107.9525 16 105.2975 16zM101 2.635L100.8875 2.635 98.615 9.565 103.25 9.565 101 2.635zM.52125 138.295L7.47375 138.295C8.77875652 138.295 9.80249629 138.662496 10.545 139.3975 11.2875037 140.132504 11.65875 141.114994 11.65875 142.345 11.65875 142.930003 11.5762508 143.428748 11.41125 143.84125 11.2462492 144.253752 11.0362513 144.591249 10.78125 144.85375 10.5262487 145.116251 10.2337517 145.311249 9.90375 145.43875 9.57374835 145.566251 9.25125158 145.645 8.93625 145.675L8.93625 145.81C9.25125158 145.825 9.59999809 145.899999 9.9825 146.035 10.3650019 146.170001 10.7212483 146.383749 11.05125 146.67625 11.3812517 146.968751 11.6587489 147.343748 11.88375 147.80125 12.1087511 148.258752 12.22125 148.817497 12.22125 149.4775 12.22125 150.107503 12.120001 150.699997 11.9175 151.255 11.714999 151.810003 11.4337518 152.289998 11.07375 152.695 10.7137482 153.100002 10.2862525 153.418749 9.79125 153.65125 9.29624753 153.883751 8.75625293 154 8.17125 154L.52125 154 .52125 138.295zM3.06375 151.8175L7.42875 151.8175C8.0887533 151.8175 8.60624813 151.645002 8.98125 151.3 9.35625187 150.954998 9.54375 150.460003 9.54375 149.815L9.54375 149.05C9.54375 148.404997 9.35625187 147.910002 8.98125 147.565 8.60624813 147.219998 8.0887533 147.0475 7.42875 147.0475L3.06375 147.0475 3.06375 151.8175zM3.06375 144.9325L7.00125 144.9325C7.63125315 144.9325 8.11874828 144.771252 8.46375 144.44875 8.80875173 144.126248 8.98125 143.665003 8.98125 143.065L8.98125 142.345C8.98125 141.744997 8.80875173 141.283752 8.46375 140.96125 8.11874828 140.638748 7.63125315 140.4775 7.00125 140.4775L3.06375 140.4775 3.06375 144.9325zM101.6975 290.27C99.6424897 290.27 98.0300058 289.576257 96.86 288.18875 95.6899942 286.801243 95.105 284.787513 95.105 282.1475 95.105 280.827493 95.2549985 279.665005 95.555 278.66 95.8550015 277.654995 96.2899972 276.807503 96.86 276.1175 97.4300028 275.427497 98.1237459 274.906252 98.94125 274.55375 99.7587541 274.201248 100.677495 274.025 101.6975 274.025 103.062507 274.025 104.206245 274.324997 105.12875 274.925 106.051255 275.525 106.774997 276.409994 107.3 277.58L105.1625 278.75C104.892499 277.999996 104.476253 277.403752 103.91375 276.96125 103.351247 276.518748 102.612505 276.2975 101.6975 276.2975 100.482494 276.2975 99.5300034 276.709996 98.84 277.535 98.1499965 278.360004 97.805 279.499993 97.805 280.955L97.805 283.34C97.805 284.795007 98.1499965 285.934996 98.84 286.76 99.5300034 287.585004 100.482494 287.9975 101.6975 287.9975 102.642505 287.9975 103.411247 287.753752 104.00375 287.26625 104.596253 286.778748 105.034999 286.152504 105.32 285.3875L107.3675 286.625C106.842497 287.765006 106.107505 288.657497 105.1625 289.3025 104.217495 289.947503 103.062507 290.27 101.6975 290.27zM310.6975 290.27C308.64249 290.27 307.030006 289.576257 305.86 288.18875 304.689994 286.801243 304.105 284.787513 304.105 282.1475 304.105 280.827493 304.254998 279.665005 304.555 278.66 304.855001 277.654995 305.289997 276.807503 305.86 276.1175 306.430003 275.427497 307.123746 274.906252 307.94125 274.55375 308.758754 274.201248 309.677495 274.025 310.6975 274.025 312.062507 274.025 313.206245 274.324997 314.12875 274.925 315.051255 275.525 315.774997 276.409994 316.3 277.58L314.1625 278.75C313.892499 277.999996 313.476253 277.403752 312.91375 276.96125 312.351247 276.518748 311.612505 276.2975 310.6975 276.2975 309.482494 276.2975 308.530003 276.709996 307.84 277.535 307.149997 278.360004 306.805 279.499993 306.805 280.955L306.805 283.34C306.805 284.795007 307.149997 285.934996 307.84 286.76 308.530003 287.585004 309.482494 287.9975 310.6975 287.9975 311.642505 287.9975 312.411247 287.753752 313.00375 287.26625 313.596253 286.778748 314.034999 286.152504 314.32 285.3875L316.3675 286.625C315.842497 287.765006 315.107505 288.657497 314.1625 289.3025 313.217495 289.947503 312.062507 290.27 310.6975 290.27z"/>
      <g transform="translate(274.764 72.128)">
        <path fill="#F8F8F8" d="M11.25,17.235 L9.8325,12.9825 L3.96,12.9825 L2.5875,17.235 L0,17.235 L5.355,1.53 L8.55,1.53 L13.905,17.235 L11.25,17.235 Z M6.9525,3.87 L6.84,3.87 L4.5675,10.8 L9.2025,10.8 L6.9525,3.87 Z"/>
        <path fill="#333" d="M37.575,7.10542736e-15 L46.395,9.135 L37.575,18.2925 L37.575,13.545 L26.145,13.545 L26.145,4.725 L37.575,4.725 L37.575,7.10542736e-15 Z M39.015,3.555 L39.015,6.255 L27.675,6.255 L27.675,12.015 L39.015,12.015 L39.015,14.715 L44.3925,9.135 L39.015,3.555 Z"/>
        <path fill="#F8F8F8" d="M60.075,1.53 L67.0275,1.53 C68.3325065,1.53 69.3562463,1.89749632 70.09875,2.6325 C70.8412537,3.36750368 71.2125,4.34999385 71.2125,5.58 C71.2125,6.16500292 71.1300008,6.66374794 70.965,7.07625 C70.7999992,7.48875206 70.5900013,7.82624869 70.335,8.08875 C70.0799987,8.35125131 69.7875017,8.54624936 69.4575,8.67375 C69.1274983,8.80125064 68.8050016,8.87999985 68.49,8.91 L68.49,9.045 C68.8050016,9.06000007 69.1537481,9.13499932 69.53625,9.27 C69.9187519,9.40500067 70.2749983,9.61874854 70.605,9.91125 C70.9350017,10.2037515 71.2124989,10.5787477 71.4375,11.03625 C71.6625011,11.4937523 71.775,12.0524967 71.775,12.7125 C71.775,13.3425031 71.673751,13.9349972 71.47125,14.49 C71.268749,15.0450028 70.9875018,15.524998 70.6275,15.93 C70.2674982,16.335002 69.8400025,16.6537488 69.345,16.88625 C68.8499975,17.1187512 68.3100029,17.235 67.725,17.235 L60.075,17.235 L60.075,1.53 Z M62.6175,15.0525 L66.9825,15.0525 C67.6425033,15.0525 68.1599981,14.8800017 68.535,14.535 C68.9100019,14.1899983 69.0975,13.6950032 69.0975,13.05 L69.0975,12.285 C69.0975,11.6399968 68.9100019,11.1450017 68.535,10.8 C68.1599981,10.4549983 67.6425033,10.2825 66.9825,10.2825 L62.6175,10.2825 L62.6175,15.0525 Z M62.6175,8.1675 L66.555,8.1675 C67.1850032,8.1675 67.6724983,8.00625161 68.0175,7.68375 C68.3625017,7.36124839 68.535,6.900003 68.535,6.3 L68.535,5.58 C68.535,4.979997 68.3625017,4.51875161 68.0175,4.19625 C67.6724983,3.87374839 67.1850032,3.7125 66.555,3.7125 L62.6175,3.7125 L62.6175,8.1675 Z"/>
      </g>
      <g transform="translate(447.039 272.765)">
        <path fill="#333" d="M0,10.2375 C0,9.14249453 0.101248988,8.09250503 0.30375,7.0875 C0.506251013,6.08249498 0.7874982,5.14500435 1.1475,4.275 C1.5075018,3.40499565 1.93124756,2.61750353 2.41875,1.9125 C2.90625244,1.20749648 3.43499715,0.6150024 4.005,0.135 L6.3225,0.135 C5.70749692,0.70500285 5.15250248,1.34249648 4.6575,2.0475 C4.16249752,2.75250353 3.74250173,3.50249603 3.3975,4.2975 C3.05249828,5.09250397 2.78625094,5.91749573 2.59875,6.7725 C2.41124906,7.62750428 2.3175,8.48249573 2.3175,9.3375 L2.3175,11.1375 C2.3175,11.9925043 2.41124906,12.8474957 2.59875,13.7025 C2.78625094,14.5575043 3.05249828,15.382496 3.3975,16.1775 C3.74250173,16.972504 4.16249752,17.7262464 4.6575,18.43875 C5.15250248,19.1512536 5.70749692,19.7849972 6.3225,20.34 L4.005,20.34 C3.43499715,19.8599976 2.90625244,19.2675035 2.41875,18.5625 C1.93124756,17.8574965 1.5075018,17.0700044 1.1475,16.2 C0.7874982,15.3299957 0.506251013,14.392505 0.30375,13.3875 C0.101248988,12.382495 0,11.3325055 0,10.2375 Z"/>
        <path fill="#F8F8F8" d="M24.9675,17.235 L23.55,12.9825 L17.6775,12.9825 L16.305,17.235 L13.7175,17.235 L19.0725,1.53 L22.2675,1.53 L27.6225,17.235 L24.9675,17.235 Z M20.67,3.87 L20.5575,3.87 L18.285,10.8 L22.92,10.8 L20.67,3.87 Z"/>
        <path fill="#333" d="M51.2925,0 L60.1125,9.135 L51.2925,18.2925 L51.2925,13.545 L39.8625,13.545 L39.8625,4.725 L51.2925,4.725 L51.2925,0 Z M52.7325,3.555 L52.7325,6.255 L41.3925,6.255 L41.3925,12.015 L52.7325,12.015 L52.7325,14.715 L58.11,9.135 L52.7325,3.555 Z"/>
        <path fill="#F8F8F8" d="M73.7925,1.53 L80.745,1.53 C82.0500065,1.53 83.0737463,1.89749633 83.81625,2.6325 C84.5587537,3.36750368 84.93,4.34999385 84.93,5.58 C84.93,6.16500293 84.8475008,6.66374794 84.6825,7.07625 C84.5174992,7.48875206 84.3075013,7.82624869 84.0525,8.08875 C83.7974987,8.35125131 83.5050016,8.54624936 83.175,8.67375 C82.8449984,8.80125064 82.5225016,8.87999985 82.2075,8.91 L82.2075,9.045 C82.5225016,9.06000008 82.8712481,9.13499933 83.25375,9.27 C83.6362519,9.40500068 83.9924983,9.61874854 84.3225,9.91125 C84.6525017,10.2037515 84.9299989,10.5787477 85.155,11.03625 C85.3800011,11.4937523 85.4925,12.0524967 85.4925,12.7125 C85.4925,13.3425032 85.391251,13.9349972 85.18875,14.49 C84.986249,15.0450028 84.7050018,15.524998 84.345,15.93 C83.9849982,16.335002 83.5575025,16.6537488 83.0625,16.88625 C82.5674975,17.1187512 82.0275029,17.235 81.4425,17.235 L73.7925,17.235 L73.7925,1.53 Z M76.335,15.0525 L80.7,15.0525 C81.3600033,15.0525 81.8774981,14.8800017 82.2525,14.535 C82.6275019,14.1899983 82.815,13.6950032 82.815,13.05 L82.815,12.285 C82.815,11.6399968 82.6275019,11.1450017 82.2525,10.8 C81.8774981,10.4549983 81.3600033,10.2825 80.7,10.2825 L76.335,10.2825 L76.335,15.0525 Z M76.335,8.1675 L80.2725,8.1675 C80.9025031,8.1675 81.3899983,8.00625161 81.735,7.68375 C82.0800017,7.36124839 82.2525,6.900003 82.2525,6.3 L82.2525,5.58 C82.2525,4.979997 82.0800017,4.51875161 81.735,4.19625 C81.3899983,3.87374839 80.9025031,3.7125 80.2725,3.7125 L76.335,3.7125 L76.335,8.1675 Z"/>
        <path fill="#333" d="M99.9075,10.2375 C99.9075,11.3325055 99.802501,12.382495 99.5925,13.3875 C99.3824989,14.392505 99.0975018,15.3299957 98.7375,16.2 C98.3774982,17.0700044 97.9537524,17.8574965 97.46625,18.5625 C96.9787476,19.2675035 96.4575028,19.8599976 95.9025,20.34 L93.585,20.34 C94.2000031,19.7849972 94.7549975,19.1512536 95.25,18.43875 C95.7450025,17.7262464 96.1649983,16.972504 96.51,16.1775 C96.8550017,15.382496 97.1212491,14.5575043 97.30875,13.7025 C97.4962509,12.8474957 97.59,11.9925043 97.59,11.1375 L97.59,9.3375 C97.59,8.48249573 97.4962509,7.62750428 97.30875,6.7725 C97.1212491,5.91749573 96.8550017,5.09250397 96.51,4.2975 C96.1649983,3.50249603 95.7450025,2.75250353 95.25,2.0475 C94.7549975,1.34249648 94.2000031,0.70500285 93.585,0.135 L95.9025,0.135 C96.4575028,0.6150024 96.9787476,1.20749648 97.46625,1.9125 C97.9537524,2.61750353 98.3774982,3.40499565 98.7375,4.275 C99.0975018,5.14500435 99.3824989,6.08249498 99.5925,7.0875 C99.802501,8.09250503 99.9075,9.14249453 99.9075,10.2375 Z M113.88,0 L122.7,9.135 L113.88,18.2925 L113.88,13.545 L102.45,13.545 L102.45,4.725 L113.88,4.725 L113.88,0 Z M115.32,3.555 L115.32,6.255 L103.98,6.255 L103.98,12.015 L115.32,12.015 L115.32,14.715 L120.6975,9.135 L115.32,3.555 Z"/>
        <path fill="#F8F8F8" d="M142.65875,17.505 C140.60374,17.505 138.991256,16.8112569 137.82125,15.42375 C136.651244,14.0362431 136.06625,12.0225132 136.06625,9.3825 C136.06625,8.0624934 136.216248,6.90000503 136.51625,5.895 C136.816251,4.88999498 137.251247,4.04250345 137.82125,3.3525 C138.391253,2.66249655 139.084996,2.14125176 139.9025,1.78875 C140.720004,1.43624824 141.638745,1.26 142.65875,1.26 C144.023757,1.26 145.167495,1.559997 146.09,2.16 C147.012505,2.76 147.736247,3.64499415 148.26125,4.815 L146.12375,5.985 C145.853749,5.23499625 145.437503,4.63875221 144.875,4.19625 C144.312497,3.75374779 143.573755,3.5325 142.65875,3.5325 C141.443744,3.5325 140.491253,3.94499588 139.80125,4.77 C139.111247,5.59500413 138.76625,6.73499273 138.76625,8.19 L138.76625,10.575 C138.76625,12.0300073 139.111247,13.1699959 139.80125,13.995 C140.491253,14.8200041 141.443744,15.2325 142.65875,15.2325 C143.603755,15.2325 144.372497,14.9887524 144.965,14.50125 C145.557503,14.0137476 145.996249,13.3875038 146.28125,12.6225 L148.32875,13.86 C147.803747,15.0000057 147.068755,15.8924968 146.12375,16.5375 C145.178745,17.1825032 144.023757,17.505 142.65875,17.505 Z"/>
      </g>
    </g>
  </g>
</svg>
