<svg xmlns="http://www.w3.org/2000/svg" width="610" height="300" viewBox="0 0 610 300">
  <g fill="none" fill-rule="evenodd">
    <path stroke="#000" stroke-dasharray="3 4" stroke-linecap="square" stroke-opacity=".156" d="M108.5 39.3047661L108.5 179.304766M38.5 81.3047661L38.5 221.304766M178.5 81.3047661L178.5 221.304766"/>
    <path fill="#474747" fill-opacity=".5" stroke="#979797" d="M38.9573709,221.304766 L108.710678,264.023217 L178.463985,221.304766 L108.710678,178.586315 L38.9573709,221.304766 Z"/>
    <path fill="#E6E6E6" fill-opacity=".8" stroke="#979797" d="M38.9573709,151.304766 L108.710678,194.023217 L178.463985,151.304766 L108.710678,108.586315 L38.9573709,151.304766 Z"/>
    <path fill="#353535" fill-opacity=".2" stroke="#979797" d="M38.9573709,81.3047661 L108.710678,124.023217 L178.463985,81.3047661 L108.710678,38.5863149 L38.9573709,81.3047661 Z"/>
    <path stroke="#000" stroke-dasharray="3 4" stroke-linecap="square" stroke-opacity=".156" d="M108.5 124.304766L108.5 264.304766M248.5 81.3047661L248 217.304766M318.5 39.3047661L318 174M388.5 81.3047661L388.5 217.304766"/>
    <path fill="#474747" fill-opacity=".5" stroke="#979797" d="M248.957371,221.304766 L318.710678,264.023217 L388.463985,221.304766 L318.710678,178.586315 L248.957371,221.304766 Z"/>
    <path fill="#E6E6E6" fill-opacity=".8" stroke="#979797" d="M248.957371,219.304766 L318.710678,262.023217 L388.463985,219.304766 L318.710678,176.586315 L248.957371,219.304766 Z"/>
    <path fill="#353535" fill-opacity=".2" stroke="#979797" d="M248.957371,81.3047661 L318.710678,124.023217 L388.463985,81.3047661 L318.710678,38.5863149 L248.957371,81.3047661 Z"/>
    <path stroke="#000" stroke-dasharray="3 4" stroke-linecap="square" stroke-opacity=".156" d="M318,124.304766 L318.5,263.304766"/>
    <path fill="#474747" fill-opacity=".5" stroke="#979797" d="M458.957371,221.304766 L528.710678,264.023217 L598.463985,221.304766 L528.710678,178.586315 L458.957371,221.304766 Z"/>
    <path fill="#E6E6E6" fill-opacity=".8" stroke="#979797" d="M458.957371,219.304766 L528.710678,262.023217 L598.463985,219.304766 L528.710678,176.586315 L458.957371,219.304766 Z"/>
    <path fill="#353535" fill-opacity=".2" stroke="#979797" d="M458.957371,217.304766 L528.710678,260.023217 L598.463985,217.304766 L528.710678,174.586315 L458.957371,217.304766 Z"/>
    <rect width="26" height="26" x="1" y="138" fill="#333" rx="6"/>
    <rect width="26" height="26" x="96" fill="#333" rx="6"/>
    <rect width="26" height="26" x="305" fill="#333" rx="6"/>
    <rect width="26" height="26" x="96" y="274" fill="#333" rx="6"/>
    <rect width="26" height="26" x="277" y="274" fill="#333" rx="6"/>
    <rect width="26" height="26" x="448" y="274" fill="#333" rx="6"/>
    <rect width="26" height="26" x="511" y="274" fill="#333" rx="6"/>
    <rect width="26" height="26" x="569" y="274" fill="#333" rx="6"/>
    <rect width="26" height="26" x="336" y="274" fill="#333" rx="6"/>
    <g fill-rule="nonzero" transform="translate(8 5)">
      <path fill="#F8F8F8" d="M105.2975 16L103.88 11.7475 98.0075 11.7475 96.635 16 94.0475 16 99.4025.295 102.5975.295 107.9525 16 105.2975 16zM101 2.635L100.8875 2.635 98.615 9.565 103.25 9.565 101 2.635zM.52125 138.295L7.47375 138.295C8.77875653 138.295 9.80249629 138.662496 10.545 139.3975 11.2875037 140.132504 11.65875 141.114994 11.65875 142.345 11.65875 142.930003 11.5762508 143.428748 11.41125 143.84125 11.2462492 144.253752 11.0362513 144.591249 10.78125 144.85375 10.5262487 145.116251 10.2337517 145.311249 9.90375 145.43875 9.57374835 145.566251 9.25125158 145.645 8.93625 145.675L8.93625 145.81C9.25125158 145.825 9.59999809 145.899999 9.9825 146.035 10.3650019 146.170001 10.7212484 146.383749 11.05125 146.67625 11.3812517 146.968751 11.6587489 147.343748 11.88375 147.80125 12.1087511 148.258752 12.22125 148.817497 12.22125 149.4775 12.22125 150.107503 12.120001 150.699997 11.9175 151.255 11.714999 151.810003 11.4337518 152.289998 11.07375 152.695 10.7137482 153.100002 10.2862525 153.418749 9.79125 153.65125 9.29624753 153.883751 8.75625293 154 8.17125 154L.52125 154 .52125 138.295zM3.06375 151.8175L7.42875 151.8175C8.0887533 151.8175 8.60624813 151.645002 8.98125 151.3 9.35625187 150.954998 9.54375 150.460003 9.54375 149.815L9.54375 149.05C9.54375 148.404997 9.35625187 147.910002 8.98125 147.565 8.60624813 147.219998 8.0887533 147.0475 7.42875 147.0475L3.06375 147.0475 3.06375 151.8175zM3.06375 144.9325L7.00125 144.9325C7.63125315 144.9325 8.11874828 144.771252 8.46375 144.44875 8.80875173 144.126248 8.98125 143.665003 8.98125 143.065L8.98125 142.345C8.98125 141.744997 8.80875173 141.283752 8.46375 140.96125 8.11874828 140.638748 7.63125315 140.4775 7.00125 140.4775L3.06375 140.4775 3.06375 144.9325zM101.6975 290.27C99.6424897 290.27 98.0300058 289.576257 96.86 288.18875 95.6899942 286.801243 95.105 284.787513 95.105 282.1475 95.105 280.827493 95.2549985 279.665005 95.555 278.66 95.8550015 277.654995 96.2899972 276.807503 96.86 276.1175 97.4300028 275.427497 98.1237459 274.906252 98.94125 274.55375 99.7587541 274.201248 100.677495 274.025 101.6975 274.025 103.062507 274.025 104.206245 274.324997 105.12875 274.925 106.051255 275.525 106.774997 276.409994 107.3 277.58L105.1625 278.75C104.892499 277.999996 104.476253 277.403752 103.91375 276.96125 103.351247 276.518748 102.612505 276.2975 101.6975 276.2975 100.482494 276.2975 99.5300034 276.709996 98.84 277.535 98.1499965 278.360004 97.805 279.499993 97.805 280.955L97.805 283.34C97.805 284.795007 98.1499965 285.934996 98.84 286.76 99.5300034 287.585004 100.482494 287.9975 101.6975 287.9975 102.642505 287.9975 103.411247 287.753752 104.00375 287.26625 104.596253 286.778748 105.034999 286.152504 105.32 285.3875L107.3675 286.625C106.842497 287.765006 106.107505 288.657497 105.1625 289.3025 104.217495 289.947503 103.062507 290.27 101.6975 290.27zM314.2975 16L312.88 11.7475 307.0075 11.7475 305.635 16 303.0475 16 308.4025.295 311.5975.295 316.9525 16 314.2975 16zM310 2.635L309.8875 2.635 307.615 9.565 312.25 9.565 310 2.635z"/>
      <g transform="translate(276.519 272.765)">
        <path fill="#F8F8F8" d="M-2.84217094e-14,1.53 L6.9525,1.53 C8.25750652,1.53 9.28124629,1.89749633 10.02375,2.6325 C10.7662537,3.36750368 11.1375,4.34999385 11.1375,5.58 C11.1375,6.16500293 11.0550008,6.66374794 10.89,7.07625 C10.7249992,7.48875206 10.5150013,7.82624869 10.26,8.08875 C10.0049987,8.35125131 9.71250165,8.54624936 9.3825,8.67375 C9.05249835,8.80125064 8.73000157,8.87999985 8.415,8.91 L8.415,9.045 C8.73000157,9.06000008 9.07874809,9.13499933 9.46125,9.27 C9.84375191,9.40500068 10.1999983,9.61874854 10.53,9.91125 C10.8600016,10.2037515 11.1374989,10.5787477 11.3625,11.03625 C11.5875011,11.4937523 11.7,12.0524967 11.7,12.7125 C11.7,13.3425032 11.598751,13.9349972 11.39625,14.49 C11.193749,15.0450028 10.9125018,15.524998 10.5525,15.93 C10.1924982,16.335002 9.76500247,16.6537488 9.27,16.88625 C8.77499752,17.1187512 8.23500292,17.235 7.65,17.235 L-2.84217094e-14,17.235 L-2.84217094e-14,1.53 Z M2.5425,15.0525 L6.9075,15.0525 C7.5675033,15.0525 8.08499812,14.8800017 8.46,14.535 C8.83500187,14.1899983 9.0225,13.6950032 9.0225,13.05 L9.0225,12.285 C9.0225,11.6399968 8.83500187,11.1450017 8.46,10.8 C8.08499812,10.4549983 7.5675033,10.2825 6.9075,10.2825 L2.5425,10.2825 L2.5425,15.0525 Z M2.5425,8.1675 L6.48,8.1675 C7.11000315,8.1675 7.59749827,8.00625161 7.9425,7.68375 C8.28750172,7.36124839 8.46,6.900003 8.46,6.3 L8.46,5.58 C8.46,4.979997 8.28750172,4.51875161 7.9425,4.19625 C7.59749827,3.87374839 7.11000315,3.7125 6.48,3.7125 L2.5425,3.7125 L2.5425,8.1675 Z"/>
        <path fill="#333" d="M36.0675,0 L44.8875,9.135 L36.0675,18.2925 L36.0675,13.545 L24.6375,13.545 L24.6375,4.725 L36.0675,4.725 L36.0675,0 Z M37.5075,3.555 L37.5075,6.255 L26.1675,6.255 L26.1675,12.015 L37.5075,12.015 L37.5075,14.715 L42.885,9.135 L37.5075,3.555 Z"/>
        <path fill="#F8F8F8" d="M64.4625,17.505 C62.4074897,17.505 60.7950058,16.8112569 59.625,15.42375 C58.4549941,14.0362431 57.87,12.0225132 57.87,9.3825 C57.87,8.0624934 58.0199985,6.90000503 58.32,5.895 C58.6200015,4.88999498 59.0549971,4.04250345 59.625,3.3525 C60.1950028,2.66249655 60.8887459,2.14125176 61.70625,1.78875 C62.5237541,1.43624824 63.4424949,1.26 64.4625,1.26 C65.8275068,1.26 66.9712454,1.559997 67.89375,2.16 C68.8162546,2.76 69.5399974,3.64499415 70.065,4.815 L67.9275,5.985 C67.6574986,5.23499625 67.2412528,4.63875221 66.67875,4.19625 C66.1162472,3.75374779 65.3775046,3.5325 64.4625,3.5325 C63.2474939,3.5325 62.2950034,3.94499588 61.605,4.77 C60.9149965,5.59500413 60.57,6.73499272 60.57,8.19 L60.57,10.575 C60.57,12.0300073 60.9149965,13.1699959 61.605,13.995 C62.2950034,14.8200041 63.2474939,15.2325 64.4625,15.2325 C65.4075047,15.2325 66.176247,14.9887524 66.76875,14.50125 C67.361253,14.0137476 67.7999986,13.3875038 68.085,12.6225 L70.1325,13.86 C69.6074974,15.0000057 68.8725047,15.8924968 67.9275,16.5375 C66.9824953,17.1825032 65.8275068,17.505 64.4625,17.505 Z"/>
      </g>
      <g transform="translate(446.431 272.765)">
        <path fill="#F8F8F8" d="M11.25,17.235 L9.8325,12.9825 L3.96,12.9825 L2.5875,17.235 L-2.84217094e-14,17.235 L5.355,1.53 L8.55,1.53 L13.905,17.235 L11.25,17.235 Z M6.9525,3.87 L6.84,3.87 L4.5675,10.8 L9.2025,10.8 L6.9525,3.87 Z"/>
        <path fill="#333" d="M37.575,0 L46.395,9.135 L37.575,18.2925 L37.575,13.545 L26.145,13.545 L26.145,4.725 L37.575,4.725 L37.575,0 Z M39.015,3.555 L39.015,6.255 L27.675,6.255 L27.675,12.015 L39.015,12.015 L39.015,14.715 L44.3925,9.135 L39.015,3.555 Z M48.9375,10.2375 C48.9375,9.14249453 49.038749,8.09250503 49.24125,7.0875 C49.443751,6.08249498 49.7249982,5.14500435 50.085,4.275 C50.4450018,3.40499565 50.8687476,2.61750353 51.35625,1.9125 C51.8437524,1.20749648 52.3724972,0.6150024 52.9425,0.135 L55.26,0.135 C54.6449969,0.70500285 54.0900025,1.34249648 53.595,2.0475 C53.0999975,2.75250353 52.6800017,3.50249603 52.335,4.2975 C51.9899983,5.09250397 51.7237509,5.91749573 51.53625,6.7725 C51.3487491,7.62750428 51.255,8.48249573 51.255,9.3375 L51.255,11.1375 C51.255,11.9925043 51.3487491,12.8474957 51.53625,13.7025 C51.7237509,14.5575043 51.9899983,15.382496 52.335,16.1775 C52.6800017,16.972504 53.0999975,17.7262464 53.595,18.43875 C54.0900025,19.1512536 54.6449969,19.7849972 55.26,20.34 L52.9425,20.34 C52.3724972,19.8599976 51.8437524,19.2675035 51.35625,18.5625 C50.8687476,17.8574965 50.4450018,17.0700044 50.085,16.2 C49.7249982,15.3299957 49.443751,14.392505 49.24125,13.3875 C49.038749,12.382495 48.9375,11.3325055 48.9375,10.2375 Z"/>
        <path fill="#F8F8F8" d="M64.095,1.53 L71.0475,1.53 C72.3525065,1.53 73.3762463,1.89749633 74.11875,2.6325 C74.8612537,3.36750368 75.2325,4.34999385 75.2325,5.58 C75.2325,6.16500293 75.1500008,6.66374794 74.985,7.07625 C74.8199992,7.48875206 74.6100013,7.82624869 74.355,8.08875 C74.0999987,8.35125131 73.8075017,8.54624936 73.4775,8.67375 C73.1474984,8.80125064 72.8250016,8.87999985 72.51,8.91 L72.51,9.045 C72.8250016,9.06000008 73.1737481,9.13499933 73.55625,9.27 C73.9387519,9.40500068 74.2949984,9.61874854 74.625,9.91125 C74.9550017,10.2037515 75.2324989,10.5787477 75.4575,11.03625 C75.6825011,11.4937523 75.795,12.0524967 75.795,12.7125 C75.795,13.3425032 75.693751,13.9349972 75.49125,14.49 C75.288749,15.0450028 75.0075018,15.524998 74.6475,15.93 C74.2874982,16.335002 73.8600025,16.6537488 73.365,16.88625 C72.8699975,17.1187512 72.3300029,17.235 71.745,17.235 L64.095,17.235 L64.095,1.53 Z M66.6375,15.0525 L71.0025,15.0525 C71.6625033,15.0525 72.1799981,14.8800017 72.555,14.535 C72.9300019,14.1899983 73.1175,13.6950032 73.1175,13.05 L73.1175,12.285 C73.1175,11.6399968 72.9300019,11.1450017 72.555,10.8 C72.1799981,10.4549983 71.6625033,10.2825 71.0025,10.2825 L66.6375,10.2825 L66.6375,15.0525 Z M66.6375,8.1675 L70.575,8.1675 C71.2050032,8.1675 71.6924983,8.00625161 72.0375,7.68375 C72.3825017,7.36124839 72.555,6.900003 72.555,6.3 L72.555,5.58 C72.555,4.979997 72.3825017,4.51875161 72.0375,4.19625 C71.6924983,3.87374839 71.2050032,3.7125 70.575,3.7125 L66.6375,3.7125 L66.6375,8.1675 Z"/>
        <path fill="#333" d="M100.1625,0 L108.9825,9.135 L100.1625,18.2925 L100.1625,13.545 L88.7325,13.545 L88.7325,4.725 L100.1625,4.725 L100.1625,0 Z M101.6025,3.555 L101.6025,6.255 L90.2625,6.255 L90.2625,12.015 L101.6025,12.015 L101.6025,14.715 L106.98,9.135 L101.6025,3.555 Z"/>
        <path fill="#F8F8F8" d="M128.5575,17.505 C126.50249,17.505 124.890006,16.8112569 123.72,15.42375 C122.549994,14.0362431 121.965,12.0225132 121.965,9.3825 C121.965,8.0624934 122.114999,6.90000503 122.415,5.895 C122.715002,4.88999498 123.149997,4.04250345 123.72,3.3525 C124.290003,2.66249655 124.983746,2.14125176 125.80125,1.78875 C126.618754,1.43624824 127.537495,1.26 128.5575,1.26 C129.922507,1.26 131.066245,1.559997 131.98875,2.16 C132.911255,2.76 133.634997,3.64499415 134.16,4.815 L132.0225,5.985 C131.752499,5.23499625 131.336253,4.63875221 130.77375,4.19625 C130.211247,3.75374779 129.472505,3.5325 128.5575,3.5325 C127.342494,3.5325 126.390003,3.94499588 125.7,4.77 C125.009997,5.59500413 124.665,6.73499272 124.665,8.19 L124.665,10.575 C124.665,12.0300073 125.009997,13.1699959 125.7,13.995 C126.390003,14.8200041 127.342494,15.2325 128.5575,15.2325 C129.502505,15.2325 130.271247,14.9887524 130.86375,14.50125 C131.456253,14.0137476 131.894999,13.3875038 132.18,12.6225 L134.2275,13.86 C133.702497,15.0000057 132.967505,15.8924968 132.0225,16.5375 C131.077495,17.1825032 129.922507,17.505 128.5575,17.505 Z"/>
        <path fill="#333" d="M148.215,10.2375 C148.215,11.3325055 148.110001,12.382495 147.9,13.3875 C147.689999,14.392505 147.405002,15.3299957 147.045,16.2 C146.684998,17.0700044 146.261252,17.8574965 145.77375,18.5625 C145.286248,19.2675035 144.765003,19.8599976 144.21,20.34 L141.8925,20.34 C142.507503,19.7849972 143.062498,19.1512536 143.5575,18.43875 C144.052502,17.7262464 144.472498,16.972504 144.8175,16.1775 C145.162502,15.382496 145.428749,14.5575043 145.61625,13.7025 C145.803751,12.8474957 145.8975,11.9925043 145.8975,11.1375 L145.8975,9.3375 C145.8975,8.48249573 145.803751,7.62750428 145.61625,6.7725 C145.428749,5.91749573 145.162502,5.09250397 144.8175,4.2975 C144.472498,3.50249603 144.052502,2.75250353 143.5575,2.0475 C143.062498,1.34249648 142.507503,0.70500285 141.8925,0.135 L144.21,0.135 C144.765003,0.6150024 145.286248,1.20749648 145.77375,1.9125 C146.261252,2.61750353 146.684998,3.40499565 147.045,4.275 C147.405002,5.14500435 147.689999,6.08249498 147.9,7.0875 C148.110001,8.09250503 148.215,9.14249453 148.215,10.2375 Z"/>
      </g>
    </g>
  </g>
</svg>
