<svg xmlns="http://www.w3.org/2000/svg" xmlns:xlink="http://www.w3.org/1999/xlink" width="280" height="306" viewBox="0 0 280 306">
  <defs>
    <rect id="alpha_convention_b-a" width="12" height="12" rx="3"/>
    <rect id="alpha_convention_b-c" width="12" height="12" rx="3"/>
  </defs>
  <g fill="none" fill-rule="evenodd">
    <g transform="translate(134 292)">
      <mask id="alpha_convention_b-b" fill="#fff">
        <use xlink:href="#alpha_convention_b-a"/>
      </mask>
      <use stroke="#000" stroke-opacity=".139" transform="matrix(1 0 0 -1 0 12)" xlink:href="#alpha_convention_b-a"/>
      <rect width="4" height="4" x="8" y="8" fill="#D8D8D8" mask="url(#alpha_convention_b-b)"/>
      <rect width="4" height="4" y="8" fill="#D8D8D8" mask="url(#alpha_convention_b-b)"/>
      <rect width="4" height="4" x="4" y="4" fill="#D8D8D8" mask="url(#alpha_convention_b-b)"/>
      <rect width="4" height="4" x="8" fill="#D8D8D8" mask="url(#alpha_convention_b-b)"/>
      <rect width="4" height="4" fill="#D8D8D8" mask="url(#alpha_convention_b-b)"/>
      <use stroke="#000" stroke-opacity=".139" transform="matrix(1 0 0 -1 0 12)" xlink:href="#alpha_convention_b-c"/>
    </g>
    <rect width="12" height="12" x="116" y="130" fill="#E74C3C" stroke="#000" stroke-opacity=".25" rx="3" transform="matrix(1 0 0 -1 0 272)"/>
    <rect width="12" height="12" x="152" y="130" fill="#5D76E8" stroke="#000" stroke-opacity=".25" rx="3" transform="matrix(1 0 0 -1 0 272)"/>
    <rect width="12" height="12" x="134" y="130" fill="#35C25B" stroke="#000" stroke-opacity=".25" rx="3" transform="matrix(1 0 0 -1 0 272)"/>
    <rect width="279" height="119" x=".5" y=".5" fill="#000" stroke="#979797"/>
    <g transform="translate(30 40)">
      <rect width="100" height="5" y="40" fill="#E74C3C" fill-opacity=".25"/>
      <rect width="100" height="5" x="120" y="40" fill="#3498DB" fill-opacity=".25"/>
      <path fill="#E74C3C" fill-rule="nonzero" d="M25.376,16.056 L14,16.056 L14,27 L9.932,27 L9.932,1.872 L14,1.872 L14,12.456 L25.376,12.456 L25.376,1.872 L29.444,1.872 L29.444,27 L25.376,27 L25.376,16.056 Z M42.692,27.432 C41.3479933,27.432 40.1480053,27.2040023 39.092,26.748 C38.0359947,26.2919977 37.1360037,25.6380043 36.392,24.786 C35.6479963,23.9339957 35.078002,22.9020061 34.682,21.69 C34.285998,20.4779939 34.088,19.1280074 34.088,17.64 C34.088,16.1519926 34.285998,14.8020061 34.682,13.59 C35.078002,12.3779939 35.6479963,11.3460043 36.392,10.494 C37.1360037,9.64199574 38.0359947,8.98800228 39.092,8.532 C40.1480053,8.07599772 41.3479933,7.848 42.692,7.848 C44.0600068,7.848 45.2659948,8.0879976 46.31,8.568 C47.3540052,9.0480024 48.2239965,9.71399574 48.92,10.566 C49.6160035,11.4180043 50.1379983,12.4079944 50.486,13.536 C50.8340017,14.6640056 51.008,15.8759935 51.008,17.172 L51.008,18.648 L38.156,18.648 L38.156,19.26 C38.156,20.7000072 38.5819957,21.8819954 39.434,22.806 C40.2860043,23.7300046 41.5039921,24.192 43.088,24.192 C44.2400058,24.192 45.211996,23.9400025 46.004,23.436 C46.796004,22.9319975 47.4679972,22.2480043 48.02,21.384 L50.324,23.652 C49.6279965,24.8040058 48.6200066,25.7219966 47.3,26.406 C45.9799934,27.0900034 44.4440088,27.432 42.692,27.432 Z M42.692,10.908 C42.0199966,10.908 41.4020028,11.0279988 40.838,11.268 C40.2739972,11.5080012 39.794002,11.8439978 39.398,12.276 C39.001998,12.7080022 38.6960011,13.223997 38.48,13.824 C38.2639989,14.424003 38.156,15.0839964 38.156,15.804 L38.156,16.056 L46.868,16.056 L46.868,15.696 C46.868,14.2559928 46.4960037,13.0980044 45.752,12.222 C45.0079963,11.3459956 43.9880065,10.908 42.692,10.908 Z M59.36,27 C58.0159933,27 57.0140033,26.6580034 56.354,25.974 C55.6939967,25.2899966 55.364,24.3360061 55.364,23.112 L55.364,0.36 L59.288,0.36 L59.288,23.796 L61.88,23.796 L61.88,27 L59.36,27 Z M69.404,27 C68.0599933,27 67.0580033,26.6580034 66.398,25.974 C65.7379967,25.2899966 65.408,24.3360061 65.408,23.112 L65.408,0.36 L69.332,0.36 L69.332,23.796 L71.924,23.796 L71.924,27 L69.404,27 Z M83.012,27.432 C81.7159935,27.432 80.5340053,27.2040023 79.466,26.748 C78.3979947,26.2919977 77.4920037,25.6380043 76.748,24.786 C76.0039963,23.9339957 75.428002,22.9020061 75.02,21.69 C74.611998,20.4779939 74.408,19.1280074 74.408,17.64 C74.408,16.1519926 74.611998,14.8020061 75.02,13.59 C75.428002,12.3779939 76.0039963,11.3460043 76.748,10.494 C77.4920037,9.64199574 78.3979947,8.98800228 79.466,8.532 C80.5340053,8.07599772 81.7159935,7.848 83.012,7.848 C84.3080065,7.848 85.4899947,8.07599772 86.558,8.532 C87.6260053,8.98800228 88.5319963,9.64199574 89.276,10.494 C90.0200037,11.3460043 90.595998,12.3779939 91.004,13.59 C91.412002,14.8020061 91.616,16.1519926 91.616,17.64 C91.616,19.1280074 91.412002,20.4779939 91.004,21.69 C90.595998,22.9020061 90.0200037,23.9339957 89.276,24.786 C88.5319963,25.6380043 87.6260053,26.2919977 86.558,26.748 C85.4899947,27.2040023 84.3080065,27.432 83.012,27.432 Z M83.012,24.192 C84.3560067,24.192 85.4359959,23.7780041 86.252,22.95 C87.0680041,22.1219959 87.476,20.8800083 87.476,19.224 L87.476,16.056 C87.476,14.3999917 87.0680041,13.1580041 86.252,12.33 C85.4359959,11.5019959 84.3560067,11.088 83.012,11.088 C81.6679933,11.088 80.5880041,11.5019959 79.772,12.33 C78.9559959,13.1580041 78.548,14.3999917 78.548,16.056 L78.548,19.224 C78.548,20.8800083 78.9559959,22.1219959 79.772,22.95 C80.5880041,23.7780041 81.6679933,24.192 83.012,24.192 Z"/>
      <path fill="#3498DB" fill-rule="nonzero" d="M145.376,16.056 L134,16.056 L134,27 L129.932,27 L129.932,1.872 L134,1.872 L134,12.456 L145.376,12.456 L145.376,1.872 L149.444,1.872 L149.444,27 L145.376,27 L145.376,16.056 Z M162.692,27.432 C161.347993,27.432 160.148005,27.2040023 159.092,26.748 C158.035995,26.2919977 157.136004,25.6380043 156.392,24.786 C155.647996,23.9339957 155.078002,22.9020061 154.682,21.69 C154.285998,20.4779939 154.088,19.1280074 154.088,17.64 C154.088,16.1519926 154.285998,14.8020061 154.682,13.59 C155.078002,12.3779939 155.647996,11.3460043 156.392,10.494 C157.136004,9.64199574 158.035995,8.98800228 159.092,8.532 C160.148005,8.07599772 161.347993,7.848 162.692,7.848 C164.060007,7.848 165.265995,8.0879976 166.31,8.568 C167.354005,9.0480024 168.223997,9.71399574 168.92,10.566 C169.616003,11.4180043 170.137998,12.4079944 170.486,13.536 C170.834002,14.6640056 171.008,15.8759935 171.008,17.172 L171.008,18.648 L158.156,18.648 L158.156,19.26 C158.156,20.7000072 158.581996,21.8819954 159.434,22.806 C160.286004,23.7300046 161.503992,24.192 163.088,24.192 C164.240006,24.192 165.211996,23.9400025 166.004,23.436 C166.796004,22.9319975 167.467997,22.2480043 168.02,21.384 L170.324,23.652 C169.627997,24.8040058 168.620007,25.7219966 167.3,26.406 C165.979993,27.0900034 164.444009,27.432 162.692,27.432 Z M162.692,10.908 C162.019997,10.908 161.402003,11.0279988 160.838,11.268 C160.273997,11.5080012 159.794002,11.8439978 159.398,12.276 C159.001998,12.7080022 158.696001,13.223997 158.48,13.824 C158.263999,14.424003 158.156,15.0839964 158.156,15.804 L158.156,16.056 L166.868,16.056 L166.868,15.696 C166.868,14.2559928 166.496004,13.0980044 165.752,12.222 C165.007996,11.3459956 163.988006,10.908 162.692,10.908 Z M179.36,27 C178.015993,27 177.014003,26.6580034 176.354,25.974 C175.693997,25.2899966 175.364,24.3360061 175.364,23.112 L175.364,0.36 L179.288,0.36 L179.288,23.796 L181.88,23.796 L181.88,27 L179.36,27 Z M189.404,27 C188.059993,27 187.058003,26.6580034 186.398,25.974 C185.737997,25.2899966 185.408,24.3360061 185.408,23.112 L185.408,0.36 L189.332,0.36 L189.332,23.796 L191.924,23.796 L191.924,27 L189.404,27 Z M203.012,27.432 C201.715994,27.432 200.534005,27.2040023 199.466,26.748 C198.397995,26.2919977 197.492004,25.6380043 196.748,24.786 C196.003996,23.9339957 195.428002,22.9020061 195.02,21.69 C194.611998,20.4779939 194.408,19.1280074 194.408,17.64 C194.408,16.1519926 194.611998,14.8020061 195.02,13.59 C195.428002,12.3779939 196.003996,11.3460043 196.748,10.494 C197.492004,9.64199574 198.397995,8.98800228 199.466,8.532 C200.534005,8.07599772 201.715994,7.848 203.012,7.848 C204.308006,7.848 205.489995,8.07599772 206.558,8.532 C207.626005,8.98800228 208.531996,9.64199574 209.276,10.494 C210.020004,11.3460043 210.595998,12.3779939 211.004,13.59 C211.412002,14.8020061 211.616,16.1519926 211.616,17.64 C211.616,19.1280074 211.412002,20.4779939 211.004,21.69 C210.595998,22.9020061 210.020004,23.9339957 209.276,24.786 C208.531996,25.6380043 207.626005,26.2919977 206.558,26.748 C205.489995,27.2040023 204.308006,27.432 203.012,27.432 Z M203.012,24.192 C204.356007,24.192 205.435996,23.7780041 206.252,22.95 C207.068004,22.1219959 207.476,20.8800083 207.476,19.224 L207.476,16.056 C207.476,14.3999917 207.068004,13.1580041 206.252,12.33 C205.435996,11.5019959 204.356007,11.088 203.012,11.088 C201.667993,11.088 200.588004,11.5019959 199.772,12.33 C198.955996,13.1580041 198.548,14.3999917 198.548,16.056 L198.548,19.224 C198.548,20.8800083 198.955996,22.1219959 199.772,22.95 C200.588004,23.7780041 201.667993,24.192 203.012,24.192 Z"/>
    </g>
    <rect width="279" height="119" x=".5" y="162.5" fill="#000" stroke="#979797"/>
    <g fill="#FFF" transform="translate(10 192)">
      <rect width="100" height="5" x="20" y="50" fill-opacity=".25"/>
      <rect width="100" height="5" x="140" y="50" fill-opacity=".25"/>
      <path fill-rule="nonzero" d="M45.376 26.056L34 26.056 34 37 29.932 37 29.932 11.872 34 11.872 34 22.456 45.376 22.456 45.376 11.872 49.444 11.872 49.444 37 45.376 37 45.376 26.056zM62.692 37.432C61.3479933 37.432 60.1480053 37.2040023 59.092 36.748 58.0359947 36.2919977 57.1360037 35.6380043 56.392 34.786 55.6479963 33.9339957 55.078002 32.9020061 54.682 31.69 54.285998 30.4779939 54.088 29.1280074 54.088 27.64 54.088 26.1519926 54.285998 24.8020061 54.682 23.59 55.078002 22.3779939 55.6479963 21.3460043 56.392 20.494 57.1360037 19.6419957 58.0359947 18.9880023 59.092 18.532 60.1480053 18.0759977 61.3479933 17.848 62.692 17.848 64.0600068 17.848 65.2659948 18.0879976 66.31 18.568 67.3540052 19.0480024 68.2239965 19.7139957 68.92 20.566 69.6160035 21.4180043 70.1379983 22.4079944 70.486 23.536 70.8340017 24.6640056 71.008 25.8759935 71.008 27.172L71.008 28.648 58.156 28.648 58.156 29.26C58.156 30.7000072 58.5819957 31.8819954 59.434 32.806 60.2860043 33.7300046 61.5039921 34.192 63.088 34.192 64.2400058 34.192 65.211996 33.9400025 66.004 33.436 66.796004 32.9319975 67.4679972 32.2480043 68.02 31.384L70.324 33.652C69.6279965 34.8040058 68.6200066 35.7219966 67.3 36.406 65.9799934 37.0900034 64.4440088 37.432 62.692 37.432zM62.692 20.908C62.0199966 20.908 61.4020028 21.0279988 60.838 21.268 60.2739972 21.5080012 59.794002 21.8439978 59.398 22.276 59.001998 22.7080022 58.6960011 23.223997 58.48 23.824 58.2639989 24.424003 58.156 25.0839964 58.156 25.804L58.156 26.056 66.868 26.056 66.868 25.696C66.868 24.2559928 66.4960037 23.0980044 65.752 22.222 65.0079963 21.3459956 63.9880065 20.908 62.692 20.908zM79.36 37C78.0159933 37 77.0140033 36.6580034 76.354 35.974 75.6939967 35.2899966 75.364 34.3360061 75.364 33.112L75.364 10.36 79.288 10.36 79.288 33.796 81.88 33.796 81.88 37 79.36 37zM89.404 37C88.0599933 37 87.0580033 36.6580034 86.398 35.974 85.7379967 35.2899966 85.408 34.3360061 85.408 33.112L85.408 10.36 89.332 10.36 89.332 33.796 91.924 33.796 91.924 37 89.404 37zM103.012 37.432C101.715994 37.432 100.534005 37.2040023 99.466 36.748 98.3979947 36.2919977 97.4920037 35.6380043 96.748 34.786 96.0039963 33.9339957 95.428002 32.9020061 95.02 31.69 94.611998 30.4779939 94.408 29.1280074 94.408 27.64 94.408 26.1519926 94.611998 24.8020061 95.02 23.59 95.428002 22.3779939 96.0039963 21.3460043 96.748 20.494 97.4920037 19.6419957 98.3979947 18.9880023 99.466 18.532 100.534005 18.0759977 101.715994 17.848 103.012 17.848 104.308006 17.848 105.489995 18.0759977 106.558 18.532 107.626005 18.9880023 108.531996 19.6419957 109.276 20.494 110.020004 21.3460043 110.595998 22.3779939 111.004 23.59 111.412002 24.8020061 111.616 26.1519926 111.616 27.64 111.616 29.1280074 111.412002 30.4779939 111.004 31.69 110.595998 32.9020061 110.020004 33.9339957 109.276 34.786 108.531996 35.6380043 107.626005 36.2919977 106.558 36.748 105.489995 37.2040023 104.308006 37.432 103.012 37.432zM103.012 34.192C104.356007 34.192 105.435996 33.7780041 106.252 32.95 107.068004 32.1219959 107.476 30.8800083 107.476 29.224L107.476 26.056C107.476 24.3999917 107.068004 23.1580041 106.252 22.33 105.435996 21.5019959 104.356007 21.088 103.012 21.088 101.667993 21.088 100.588004 21.5019959 99.772 22.33 98.9559959 23.1580041 98.548 24.3999917 98.548 26.056L98.548 29.224C98.548 30.8800083 98.9559959 32.1219959 99.772 32.95 100.588004 33.7780041 101.667993 34.192 103.012 34.192zM165.376 26.056L154 26.056 154 37 149.932 37 149.932 11.872 154 11.872 154 22.456 165.376 22.456 165.376 11.872 169.444 11.872 169.444 37 165.376 37 165.376 26.056zM182.692 37.432C181.347993 37.432 180.148005 37.2040023 179.092 36.748 178.035995 36.2919977 177.136004 35.6380043 176.392 34.786 175.647996 33.9339957 175.078002 32.9020061 174.682 31.69 174.285998 30.4779939 174.088 29.1280074 174.088 27.64 174.088 26.1519926 174.285998 24.8020061 174.682 23.59 175.078002 22.3779939 175.647996 21.3460043 176.392 20.494 177.136004 19.6419957 178.035995 18.9880023 179.092 18.532 180.148005 18.0759977 181.347993 17.848 182.692 17.848 184.060007 17.848 185.265995 18.0879976 186.31 18.568 187.354005 19.0480024 188.223997 19.7139957 188.92 20.566 189.616003 21.4180043 190.137998 22.4079944 190.486 23.536 190.834002 24.6640056 191.008 25.8759935 191.008 27.172L191.008 28.648 178.156 28.648 178.156 29.26C178.156 30.7000072 178.581996 31.8819954 179.434 32.806 180.286004 33.7300046 181.503992 34.192 183.088 34.192 184.240006 34.192 185.211996 33.9400025 186.004 33.436 186.796004 32.9319975 187.467997 32.2480043 188.02 31.384L190.324 33.652C189.627997 34.8040058 188.620007 35.7219966 187.3 36.406 185.979993 37.0900034 184.444009 37.432 182.692 37.432zM182.692 20.908C182.019997 20.908 181.402003 21.0279988 180.838 21.268 180.273997 21.5080012 179.794002 21.8439978 179.398 22.276 179.001998 22.7080022 178.696001 23.223997 178.48 23.824 178.263999 24.424003 178.156 25.0839964 178.156 25.804L178.156 26.056 186.868 26.056 186.868 25.696C186.868 24.2559928 186.496004 23.0980044 185.752 22.222 185.007996 21.3459956 183.988006 20.908 182.692 20.908zM199.36 37C198.015993 37 197.014003 36.6580034 196.354 35.974 195.693997 35.2899966 195.364 34.3360061 195.364 33.112L195.364 10.36 199.288 10.36 199.288 33.796 201.88 33.796 201.88 37 199.36 37zM209.404 37C208.059993 37 207.058003 36.6580034 206.398 35.974 205.737997 35.2899966 205.408 34.3360061 205.408 33.112L205.408 10.36 209.332 10.36 209.332 33.796 211.924 33.796 211.924 37 209.404 37zM223.012 37.432C221.715994 37.432 220.534005 37.2040023 219.466 36.748 218.397995 36.2919977 217.492004 35.6380043 216.748 34.786 216.003996 33.9339957 215.428002 32.9020061 215.02 31.69 214.611998 30.4779939 214.408 29.1280074 214.408 27.64 214.408 26.1519926 214.611998 24.8020061 215.02 23.59 215.428002 22.3779939 216.003996 21.3460043 216.748 20.494 217.492004 19.6419957 218.397995 18.9880023 219.466 18.532 220.534005 18.0759977 221.715994 17.848 223.012 17.848 224.308006 17.848 225.489995 18.0759977 226.558 18.532 227.626005 18.9880023 228.531996 19.6419957 229.276 20.494 230.020004 21.3460043 230.595998 22.3779939 231.004 23.59 231.412002 24.8020061 231.616 26.1519926 231.616 27.64 231.616 29.1280074 231.412002 30.4779939 231.004 31.69 230.595998 32.9020061 230.020004 33.9339957 229.276 34.786 228.531996 35.6380043 227.626005 36.2919977 226.558 36.748 225.489995 37.2040023 224.308006 37.432 223.012 37.432zM223.012 34.192C224.356007 34.192 225.435996 33.7780041 226.252 32.95 227.068004 32.1219959 227.476 30.8800083 227.476 29.224L227.476 26.056C227.476 24.3999917 227.068004 23.1580041 226.252 22.33 225.435996 21.5019959 224.356007 21.088 223.012 21.088 221.667993 21.088 220.588004 21.5019959 219.772 22.33 218.955996 23.1580041 218.548 24.3999917 218.548 26.056L218.548 29.224C218.548 30.8800083 218.955996 32.1219959 219.772 32.95 220.588004 33.7780041 221.667993 34.192 223.012 34.192z"/>
    </g>
  </g>
</svg>
