<svg xmlns="http://www.w3.org/2000/svg" width="596" height="290" viewBox="0 0 596 290">
  <g fill="none" fill-rule="evenodd">
    <g transform="translate(1.579 116.83)">
      <path stroke="#000" stroke-opacity=".122" d="M14.1421356 76.9105481L155.563492 162.366713M28.2842712 68.3649316L169.705627 153.821096M42.4264069 59.8193152L183.847763 145.27548M56.5685425 51.2736987L197.989899 136.729863M70.7106781 42.7280823L212.132034 128.184247M84.8528137 34.1824658L226.27417 119.63863M98.9949494 25.6368494L240.416306 111.093014M113.137085 17.0912329L254.558441 102.547397M127.279221 8.54561645L268.700577 94.001781"/>
      <path stroke="#000" stroke-linecap="square" stroke-opacity=".122" d="M14.1421356 94.001781L155.563492 8.54561645M28.2842712 102.547397L169.705627 17.0912329M42.4264069 111.093014L183.847763 25.6368494M56.5685425 119.63863L197.989899 34.1824658M70.7106781 128.184247L212.132034 42.7280823M84.8528137 136.729863L226.27417 51.2736987M98.9949494 145.27548L240.416306 59.8193152M113.137085 153.821096L254.558441 68.3649316M127.279221 162.366713L268.700577 76.9105481"/>
      <polygon stroke="#979797" points="0 85.456 141.421 0 282.843 85.456 141.421 170.912"/>
    </g>
    <g stroke-width="2" transform="translate(58 151)">
      <path stroke="#000" stroke-opacity=".25" d="M14.1421356 42.7280823L98.9949494 94.001781M28.2842712 34.1824658L113.137085 85.4561645M42.4264069 25.6368494L127.279221 76.9105481M56.5685425 17.0912329L141.421356 68.3649316M70.7106781 8.54561645L155.563492 59.8193152"/>
      <path stroke="#000" stroke-linecap="square" stroke-opacity=".25" d="M14.1421356 59.8193152L98.9949494 8.54561645M28.2842712 68.3649316L113.137085 17.0912329M42.4264069 76.9105481L127.279221 25.6368494M56.5685425 85.4561645L141.421356 34.1824658M70.7106781 94.001781L155.563492 42.7280823"/>
      <polygon stroke="#FF4343" stroke-opacity=".52" points="0 51.274 84.853 0 169.706 51.274 84.853 102.547"/>
    </g>
    <g transform="translate(311.579 116.83)">
      <path stroke="#000" stroke-opacity=".122" d="M14.1421356 76.9105481L155.563492 162.366713M28.2842712 68.3649316L169.705627 153.821096M42.4264069 59.8193152L183.847763 145.27548M56.5685425 51.2736987L197.989899 136.729863M70.7106781 42.7280823L212.132034 128.184247M84.8528137 34.1824658L226.27417 119.63863M98.9949494 25.6368494L240.416306 111.093014M113.137085 17.0912329L254.558441 102.547397M127.279221 8.54561645L268.700577 94.001781"/>
      <path stroke="#000" stroke-linecap="square" stroke-opacity=".122" d="M14.1421356 94.001781L155.563492 8.54561645M28.2842712 102.547397L169.705627 17.0912329M42.4264069 111.093014L183.847763 25.6368494M56.5685425 119.63863L197.989899 34.1824658M70.7106781 128.184247L212.132034 42.7280823M84.8528137 136.729863L226.27417 51.2736987M98.9949494 145.27548L240.416306 59.8193152M113.137085 153.821096L254.558441 68.3649316M127.279221 162.366713L268.700577 76.9105481"/>
      <polygon stroke="#979797" points="0 85.456 141.421 0 282.843 85.456 141.421 170.912"/>
    </g>
    <g stroke-width="2" transform="translate(371 153)">
      <path stroke="#000" stroke-opacity=".25" d="M10 52.3309996L113.923048 88.5869797M20 41.8647997L123.923048 78.1207797M30 31.3985998L133.923048 67.6545798M40 20.9323998L143.923048 57.1883799M50 10.4661999L153.923048 46.72218"/>
      <path stroke="#000" stroke-linecap="square" stroke-opacity=".25" d="M17.3205081 68.8398629L77.3205081 6.04266334M34.6410162 74.8825262L94.6410162 12.0853267M51.9615242 80.9251896L111.961524 18.12799M69.2820323 86.9678529L129.282032 24.1706534M86.6025404 93.0105163L146.60254 30.2133167"/>
      <polygon stroke="#FF4343" stroke-opacity=".5" points="0 62.797 60 0 163.923 36.256 103.923 99.053"/>
    </g>
    <path stroke="#000" stroke-dasharray="3 4" stroke-linecap="square" stroke-opacity=".156" d="M58 53.5L58 202.330626M228 53.5L228 202.330626M143.078644 103L143.078644 251M371 66.5L371 216.5M535 40.5L535 190.5M475 101.5L475 251.5M430 87.8789062L430 152.5"/>
    <g stroke-width="2" transform="translate(58 2)">
      <path stroke="#000" stroke-opacity=".25" d="M14.1421356 42.7280823L98.9949494 94.001781M28.2842712 34.1824658L113.137085 85.4561645M42.4264069 25.6368494L127.279221 76.9105481M56.5685425 17.0912329L141.421356 68.3649316M70.7106781 8.54561645L155.563492 59.8193152"/>
      <path stroke="#000" stroke-linecap="square" stroke-opacity=".25" d="M14.1421356 59.8193152L98.9949494 8.54561645M28.2842712 68.3649316L113.137085 17.0912329M42.4264069 76.9105481L127.279221 25.6368494M56.5685425 85.4561645L141.421356 34.1824658M70.7106781 94.001781L155.563492 42.7280823"/>
      <polygon fill="#FFF" fill-opacity=".277" stroke="#FF4343" stroke-opacity=".5" points="0 51.274 84.853 0 169.706 51.274 84.853 102.547"/>
    </g>
    <g stroke-width="2" transform="translate(371 3)">
      <path stroke="#000" stroke-opacity=".25" d="M10 52.3309996L113.923048 88.5869797M20 41.8647997L123.923048 78.1207797M30 31.3985998L133.923048 67.6545798M40 20.9323998L143.923048 57.1883799M50 10.4661999L153.923048 46.72218"/>
      <path stroke="#000" stroke-linecap="square" stroke-opacity=".25" d="M17.3205081 68.8398629L77.3205081 6.04266334M34.6410162 74.8825262L94.6410162 12.0853267M51.9615242 80.9251896L111.961524 18.12799M69.2820323 86.9678529L129.282032 24.1706534M86.6025404 93.0105163L146.60254 30.2133167"/>
      <polygon stroke="#FF4343" stroke-opacity=".5" points="0 62.797 60 0 163.923 36.256 103.923 99.053"/>
    </g>
  </g>
</svg>
