<svg xmlns="http://www.w3.org/2000/svg" xmlns:xlink="http://www.w3.org/1999/xlink" width="280" height="144" viewBox="0 0 280 144">
  <defs>
    <rect id="alpha_convention_a-a" width="12" height="12" rx="3"/>
    <rect id="alpha_convention_a-c" width="12" height="12" rx="3"/>
  </defs>
  <g fill="none" fill-rule="evenodd">
    <g fill="#EEE">
      <rect width="20" height="20"/>
      <rect width="20" height="20" x="40"/>
      <rect width="20" height="20" x="80"/>
      <rect width="20" height="20" x="120"/>
      <rect width="20" height="20" x="160"/>
      <rect width="20" height="20" x="200"/>
      <rect width="20" height="20" x="240"/>
      <rect width="20" height="20" x="20" y="20"/>
      <rect width="20" height="20" x="60" y="20"/>
      <rect width="20" height="20" x="100" y="20"/>
      <rect width="20" height="20" x="140" y="20"/>
      <rect width="20" height="20" x="180" y="20"/>
      <rect width="20" height="20" x="220" y="20"/>
      <rect width="20" height="20" x="260" y="20"/>
      <rect width="20" height="20" y="40"/>
      <rect width="20" height="20" x="40" y="40"/>
      <rect width="20" height="20" x="80" y="40"/>
      <rect width="20" height="20" x="120" y="40"/>
      <rect width="20" height="20" x="160" y="40"/>
      <rect width="20" height="20" x="200" y="40"/>
      <rect width="20" height="20" x="240" y="40"/>
      <rect width="20" height="20" x="20" y="60"/>
      <rect width="20" height="20" x="60" y="60"/>
      <rect width="20" height="20" x="100" y="60"/>
      <rect width="20" height="20" x="140" y="60"/>
      <rect width="20" height="20" x="180" y="60"/>
      <rect width="20" height="20" x="220" y="60"/>
      <rect width="20" height="20" x="260" y="60"/>
      <rect width="20" height="20" y="80"/>
      <rect width="20" height="20" x="40" y="80"/>
      <rect width="20" height="20" x="80" y="80"/>
      <rect width="20" height="20" x="120" y="80"/>
      <rect width="20" height="20" x="160" y="80"/>
      <rect width="20" height="20" x="200" y="80"/>
      <rect width="20" height="20" x="240" y="80"/>
      <rect width="20" height="20" x="20" y="100"/>
      <rect width="20" height="20" x="60" y="100"/>
      <rect width="20" height="20" x="100" y="100"/>
      <rect width="20" height="20" x="140" y="100"/>
      <rect width="20" height="20" x="180" y="100"/>
      <rect width="20" height="20" x="220" y="100"/>
      <rect width="20" height="20" x="260" y="100"/>
    </g>
    <g transform="translate(161 130)">
      <mask id="alpha_convention_a-b" fill="#fff">
        <use xlink:href="#alpha_convention_a-a"/>
      </mask>
      <use stroke="#000" stroke-opacity=".139" transform="matrix(1 0 0 -1 0 12)" xlink:href="#alpha_convention_a-a"/>
      <rect width="4" height="4" x="8" y="8" fill="#D8D8D8" mask="url(#alpha_convention_a-b)"/>
      <rect width="4" height="4" y="8" fill="#D8D8D8" mask="url(#alpha_convention_a-b)"/>
      <rect width="4" height="4" x="4" y="4" fill="#D8D8D8" mask="url(#alpha_convention_a-b)"/>
      <rect width="4" height="4" x="8" fill="#D8D8D8" mask="url(#alpha_convention_a-b)"/>
      <rect width="4" height="4" fill="#D8D8D8" mask="url(#alpha_convention_a-b)"/>
      <use stroke="#000" stroke-opacity=".139" transform="matrix(1 0 0 -1 0 12)" xlink:href="#alpha_convention_a-c"/>
    </g>
    <rect width="12" height="12" x="107" y="130" fill="#E74C3C" stroke="#000" stroke-opacity=".25" rx="3" transform="matrix(1 0 0 -1 0 272)"/>
    <rect width="12" height="12" x="143" y="130" fill="#5D76E8" stroke="#000" stroke-opacity=".25" rx="3" transform="matrix(1 0 0 -1 0 272)"/>
    <rect width="12" height="12" x="125" y="130" fill="#35C25B" stroke="#000" stroke-opacity=".25" rx="3" transform="matrix(1 0 0 -1 0 272)"/>
    <rect width="279" height="119" x=".5" y=".5" stroke="#979797"/>
    <g transform="translate(10 30)">
      <rect width="100" height="5" x="20" y="50" fill="#E74C3C" fill-opacity=".25"/>
      <rect width="100" height="5" x="140" y="50" fill="#3498DB" fill-opacity=".25"/>
      <path fill="#E74C3C" fill-rule="nonzero" d="M45.376,26.056 L34,26.056 L34,37 L29.932,37 L29.932,11.872 L34,11.872 L34,22.456 L45.376,22.456 L45.376,11.872 L49.444,11.872 L49.444,37 L45.376,37 L45.376,26.056 Z M62.692,37.432 C61.3479933,37.432 60.1480053,37.2040023 59.092,36.748 C58.0359947,36.2919977 57.1360037,35.6380043 56.392,34.786 C55.6479963,33.9339957 55.078002,32.9020061 54.682,31.69 C54.285998,30.4779939 54.088,29.1280074 54.088,27.64 C54.088,26.1519926 54.285998,24.8020061 54.682,23.59 C55.078002,22.3779939 55.6479963,21.3460043 56.392,20.494 C57.1360037,19.6419957 58.0359947,18.9880023 59.092,18.532 C60.1480053,18.0759977 61.3479933,17.848 62.692,17.848 C64.0600068,17.848 65.2659948,18.0879976 66.31,18.568 C67.3540052,19.0480024 68.2239965,19.7139957 68.92,20.566 C69.6160035,21.4180043 70.1379983,22.4079944 70.486,23.536 C70.8340017,24.6640056 71.008,25.8759935 71.008,27.172 L71.008,28.648 L58.156,28.648 L58.156,29.26 C58.156,30.7000072 58.5819957,31.8819954 59.434,32.806 C60.2860043,33.7300046 61.5039921,34.192 63.088,34.192 C64.2400058,34.192 65.211996,33.9400025 66.004,33.436 C66.796004,32.9319975 67.4679972,32.2480043 68.02,31.384 L70.324,33.652 C69.6279965,34.8040058 68.6200066,35.7219966 67.3,36.406 C65.9799934,37.0900034 64.4440088,37.432 62.692,37.432 Z M62.692,20.908 C62.0199966,20.908 61.4020028,21.0279988 60.838,21.268 C60.2739972,21.5080012 59.794002,21.8439978 59.398,22.276 C59.001998,22.7080022 58.6960011,23.223997 58.48,23.824 C58.2639989,24.424003 58.156,25.0839964 58.156,25.804 L58.156,26.056 L66.868,26.056 L66.868,25.696 C66.868,24.2559928 66.4960037,23.0980044 65.752,22.222 C65.0079963,21.3459956 63.9880065,20.908 62.692,20.908 Z M79.36,37 C78.0159933,37 77.0140033,36.6580034 76.354,35.974 C75.6939967,35.2899966 75.364,34.3360061 75.364,33.112 L75.364,10.36 L79.288,10.36 L79.288,33.796 L81.88,33.796 L81.88,37 L79.36,37 Z M89.404,37 C88.0599933,37 87.0580033,36.6580034 86.398,35.974 C85.7379967,35.2899966 85.408,34.3360061 85.408,33.112 L85.408,10.36 L89.332,10.36 L89.332,33.796 L91.924,33.796 L91.924,37 L89.404,37 Z M103.012,37.432 C101.715994,37.432 100.534005,37.2040023 99.466,36.748 C98.3979947,36.2919977 97.4920037,35.6380043 96.748,34.786 C96.0039963,33.9339957 95.428002,32.9020061 95.02,31.69 C94.611998,30.4779939 94.408,29.1280074 94.408,27.64 C94.408,26.1519926 94.611998,24.8020061 95.02,23.59 C95.428002,22.3779939 96.0039963,21.3460043 96.748,20.494 C97.4920037,19.6419957 98.3979947,18.9880023 99.466,18.532 C100.534005,18.0759977 101.715994,17.848 103.012,17.848 C104.308006,17.848 105.489995,18.0759977 106.558,18.532 C107.626005,18.9880023 108.531996,19.6419957 109.276,20.494 C110.020004,21.3460043 110.595998,22.3779939 111.004,23.59 C111.412002,24.8020061 111.616,26.1519926 111.616,27.64 C111.616,29.1280074 111.412002,30.4779939 111.004,31.69 C110.595998,32.9020061 110.020004,33.9339957 109.276,34.786 C108.531996,35.6380043 107.626005,36.2919977 106.558,36.748 C105.489995,37.2040023 104.308006,37.432 103.012,37.432 Z M103.012,34.192 C104.356007,34.192 105.435996,33.7780041 106.252,32.95 C107.068004,32.1219959 107.476,30.8800083 107.476,29.224 L107.476,26.056 C107.476,24.3999917 107.068004,23.1580041 106.252,22.33 C105.435996,21.5019959 104.356007,21.088 103.012,21.088 C101.667993,21.088 100.588004,21.5019959 99.772,22.33 C98.9559959,23.1580041 98.548,24.3999917 98.548,26.056 L98.548,29.224 C98.548,30.8800083 98.9559959,32.1219959 99.772,32.95 C100.588004,33.7780041 101.667993,34.192 103.012,34.192 Z"/>
      <path fill="#3498DB" fill-rule="nonzero" d="M165.376,26.056 L154,26.056 L154,37 L149.932,37 L149.932,11.872 L154,11.872 L154,22.456 L165.376,22.456 L165.376,11.872 L169.444,11.872 L169.444,37 L165.376,37 L165.376,26.056 Z M182.692,37.432 C181.347993,37.432 180.148005,37.2040023 179.092,36.748 C178.035995,36.2919977 177.136004,35.6380043 176.392,34.786 C175.647996,33.9339957 175.078002,32.9020061 174.682,31.69 C174.285998,30.4779939 174.088,29.1280074 174.088,27.64 C174.088,26.1519926 174.285998,24.8020061 174.682,23.59 C175.078002,22.3779939 175.647996,21.3460043 176.392,20.494 C177.136004,19.6419957 178.035995,18.9880023 179.092,18.532 C180.148005,18.0759977 181.347993,17.848 182.692,17.848 C184.060007,17.848 185.265995,18.0879976 186.31,18.568 C187.354005,19.0480024 188.223997,19.7139957 188.92,20.566 C189.616003,21.4180043 190.137998,22.4079944 190.486,23.536 C190.834002,24.6640056 191.008,25.8759935 191.008,27.172 L191.008,28.648 L178.156,28.648 L178.156,29.26 C178.156,30.7000072 178.581996,31.8819954 179.434,32.806 C180.286004,33.7300046 181.503992,34.192 183.088,34.192 C184.240006,34.192 185.211996,33.9400025 186.004,33.436 C186.796004,32.9319975 187.467997,32.2480043 188.02,31.384 L190.324,33.652 C189.627997,34.8040058 188.620007,35.7219966 187.3,36.406 C185.979993,37.0900034 184.444009,37.432 182.692,37.432 Z M182.692,20.908 C182.019997,20.908 181.402003,21.0279988 180.838,21.268 C180.273997,21.5080012 179.794002,21.8439978 179.398,22.276 C179.001998,22.7080022 178.696001,23.223997 178.48,23.824 C178.263999,24.424003 178.156,25.0839964 178.156,25.804 L178.156,26.056 L186.868,26.056 L186.868,25.696 C186.868,24.2559928 186.496004,23.0980044 185.752,22.222 C185.007996,21.3459956 183.988006,20.908 182.692,20.908 Z M199.36,37 C198.015993,37 197.014003,36.6580034 196.354,35.974 C195.693997,35.2899966 195.364,34.3360061 195.364,33.112 L195.364,10.36 L199.288,10.36 L199.288,33.796 L201.88,33.796 L201.88,37 L199.36,37 Z M209.404,37 C208.059993,37 207.058003,36.6580034 206.398,35.974 C205.737997,35.2899966 205.408,34.3360061 205.408,33.112 L205.408,10.36 L209.332,10.36 L209.332,33.796 L211.924,33.796 L211.924,37 L209.404,37 Z M223.012,37.432 C221.715994,37.432 220.534005,37.2040023 219.466,36.748 C218.397995,36.2919977 217.492004,35.6380043 216.748,34.786 C216.003996,33.9339957 215.428002,32.9020061 215.02,31.69 C214.611998,30.4779939 214.408,29.1280074 214.408,27.64 C214.408,26.1519926 214.611998,24.8020061 215.02,23.59 C215.428002,22.3779939 216.003996,21.3460043 216.748,20.494 C217.492004,19.6419957 218.397995,18.9880023 219.466,18.532 C220.534005,18.0759977 221.715994,17.848 223.012,17.848 C224.308006,17.848 225.489995,18.0759977 226.558,18.532 C227.626005,18.9880023 228.531996,19.6419957 229.276,20.494 C230.020004,21.3460043 230.595998,22.3779939 231.004,23.59 C231.412002,24.8020061 231.616,26.1519926 231.616,27.64 C231.616,29.1280074 231.412002,30.4779939 231.004,31.69 C230.595998,32.9020061 230.020004,33.9339957 229.276,34.786 C228.531996,35.6380043 227.626005,36.2919977 226.558,36.748 C225.489995,37.2040023 224.308006,37.432 223.012,37.432 Z M223.012,34.192 C224.356007,34.192 225.435996,33.7780041 226.252,32.95 C227.068004,32.1219959 227.476,30.8800083 227.476,29.224 L227.476,26.056 C227.476,24.3999917 227.068004,23.1580041 226.252,22.33 C225.435996,21.5019959 224.356007,21.088 223.012,21.088 C221.667993,21.088 220.588004,21.5019959 219.772,22.33 C218.955996,23.1580041 218.548,24.3999917 218.548,26.056 L218.548,29.224 C218.548,30.8800083 218.955996,32.1219959 219.772,32.95 C220.588004,33.7780041 221.667993,34.192 223.012,34.192 Z"/>
    </g>
  </g>
</svg>
