<svg xmlns="http://www.w3.org/2000/svg" xmlns:xlink="http://www.w3.org/1999/xlink" width="128" height="48" viewBox="0 0 128 48">
  <defs>
    <linearGradient id="alpha_precompose-c" x1="50%" x2="50%" y1="0%" y2="100%">
      <stop offset="0%" stop-color="#F7F7F7"/>
      <stop offset="8.982%" stop-color="#DDD"/>
      <stop offset="92.544%" stop-color="#CCC"/>
      <stop offset="100%" stop-color="#929191"/>
    </linearGradient>
    <rect id="alpha_precompose-b" width="110" height="30" x="9" y="9" rx="6"/>
    <filter id="alpha_precompose-a" width="112.7%" height="146.7%" x="-6.4%" y="-16.7%" filterUnits="objectBoundingBox">
      <feOffset dy="2" in="SourceAlpha" result="shadowOffsetOuter1"/>
      <feGaussianBlur in="shadowOffsetOuter1" result="shadowBlurOuter1" stdDeviation="2"/>
      <feComposite in="shadowBlurOuter1" in2="SourceAlpha" operator="out" result="shadowBlurOuter1"/>
      <feColorMatrix in="shadowBlurOuter1" values="0 0 0 0 0   0 0 0 0 0   0 0 0 0 0  0 0 0 0.303676792 0"/>
    </filter>
  </defs>
  <g fill="none" fill-rule="evenodd">
    <g fill="#EEE">
      <rect width="16" height="16"/>
      <rect width="16" height="16" x="32"/>
      <rect width="16" height="16" x="64"/>
      <rect width="16" height="16" x="96"/>
      <rect width="16" height="16" x="16" y="17"/>
      <rect width="16" height="16" x="48" y="17"/>
      <rect width="16" height="16" x="80" y="17"/>
      <rect width="16" height="16" x="112" y="17"/>
      <rect width="16" height="16" y="32"/>
      <rect width="16" height="16" x="32" y="32"/>
      <rect width="16" height="16" x="64" y="32"/>
      <rect width="16" height="16" x="96" y="32"/>
    </g>
    <rect width="127" height="47" x=".5" y=".5" stroke="#979797"/>
    <use fill="#000" filter="url(#alpha_precompose-a)" xlink:href="#alpha_precompose-b"/>
    <rect width="109" height="29" x="9.5" y="9.5" fill="url(#alpha_precompose-c)" stroke="#757575" stroke-linejoin="square" rx="6"/>
    <text fill="#333" font-family="HelveticaNeue-Medium, Helvetica Neue" font-size="18" font-weight="400">
      <tspan x="35.155" y="30">Cancel</tspan>
    </text>
  </g>
</svg>
