<svg xmlns="http://www.w3.org/2000/svg" width="520" height="148" viewBox="0 0 520 148">
  <g fill="none" fill-rule="evenodd">
    <rect width="518" height="118" x="1" y="1" fill="#FFDE57" stroke="#979797"/>
    <rect width="60" height="60" x="430" y="30" fill="#9B59B6"/>
    <rect width="60" height="60" x="330" y="30" fill="#9B59B6" fill-opacity=".75"/>
    <rect width="60" height="60" x="230" y="30" fill="#9B59B6" fill-opacity=".5"/>
    <rect width="60" height="60" x="130" y="30" fill="#9B59B6" fill-opacity=".25"/>
    <rect width="60" height="60" x="30" y="30"/>
    <rect width="45" height="8" x="130" y="140" fill="#D8D8D8" rx="3"/>
    <rect width="53" height="8" x="230" y="140" fill="#D8D8D8" rx="3"/>
    <rect width="53" height="8" x="330" y="140" fill="#D8D8D8" rx="3"/>
    <rect width="45" height="8" x="145" y="140" fill="#FFF"/>
    <rect width="30" height="8" x="260" y="140" fill="#FFF"/>
    <rect width="15" height="8" x="375" y="140" fill="#FFF"/>
    <rect width="59" height="7" x="30.5" y="140.5" stroke="#B1B1B1" rx="3"/>
    <rect width="59" height="7" x="130.5" y="140.5" stroke="#B1B1B1" rx="3"/>
    <rect width="59" height="7" x="230.5" y="140.5" stroke="#B1B1B1" rx="3"/>
    <rect width="59" height="7" x="330.5" y="140.5" stroke="#B1B1B1" rx="3"/>
    <rect width="59" height="7" x="430.5" y="140.5" fill="#D8D8D8" stroke="#B1B1B1" rx="3"/>
  </g>
</svg>
