<svg xmlns="http://www.w3.org/2000/svg" width="405" height="133" viewBox="0 0 405 133">
  <g fill="none" fill-rule="evenodd">
    <rect width="98" height="98" x="45" fill="#7F7F7F"/>
    <rect width="34" height="25" x="9" y="108" fill="red" fill-opacity=".25" rx="5"/>
    <rect width="34" height="25" x="52" y="108" fill="#0F0" fill-opacity=".25" rx="5"/>
    <rect width="34" height="25" x="95" y="108" fill="#00F" fill-opacity=".25" rx="5"/>
    <rect width="34" height="25" x="138" y="108" fill="#000" fill-opacity=".25" rx="5"/>
    <path fill="#333" fill-rule="nonzero" d="M1.5944,122.0288 C1.5944,121.094395 1.68079914,120.198404 1.8536,119.3408 C2.02640086,118.483196 2.26639846,117.683204 2.5736,116.9408 C2.88080154,116.198396 3.24239792,115.526403 3.6584,114.9248 C4.07440208,114.323197 4.52559757,113.817602 5.012,113.408 L6.9896,113.408 C6.46479738,113.894402 5.99120211,114.438397 5.5688,115.04 C5.14639789,115.641603 4.78800147,116.281597 4.4936,116.96 C4.19919853,117.638403 3.9720008,118.342396 3.812,119.072 C3.6519992,119.801604 3.572,120.531196 3.572,121.2608 L3.572,122.7968 C3.572,123.526404 3.6519992,124.255996 3.812,124.9856 C3.9720008,125.715204 4.19919853,126.419197 4.4936,127.0976 C4.78800147,127.776003 5.14639789,128.419197 5.5688,129.0272 C5.99120211,129.635203 6.46479738,130.175998 6.9896,130.6496 L5.012,130.6496 C4.52559757,130.239998 4.07440208,129.734403 3.6584,129.1328 C3.24239792,128.531197 2.88080154,127.859204 2.5736,127.1168 C2.26639846,126.374396 2.02640086,125.574404 1.8536,124.7168 C1.68079914,123.859196 1.5944,122.963205 1.5944,122.0288 Z M17.1272,128.2304 C16.2951958,128.2304 15.5720031,128.073602 14.9576,127.76 C14.3431969,127.446398 13.837602,126.995203 13.4408,126.4064 C13.043998,125.817597 12.749601,125.094404 12.5576,124.2368 C12.365599,123.379196 12.2696,122.400006 12.2696,121.2992 C12.2696,120.211195 12.365599,119.235204 12.5576,118.3712 C12.749601,117.507196 13.043998,116.780803 13.4408,116.192 C13.837602,115.603197 14.3431969,115.152002 14.9576,114.8384 C15.5720031,114.524798 16.2951958,114.368 17.1272,114.368 C18.7912083,114.368 20.0167961,114.975994 20.804,116.192 C21.5912039,117.408006 21.9848,119.110389 21.9848,121.2992 C21.9848,123.488011 21.5912039,125.190394 20.804,126.4064 C20.0167961,127.622406 18.7912083,128.2304 17.1272,128.2304 Z M17.1272,126.3872 C17.5880023,126.3872 17.9815984,126.294401 18.308,126.1088 C18.6344016,125.923199 18.899999,125.657602 19.1048,125.312 C19.309601,124.966398 19.4567996,124.553602 19.5464,124.0736 C19.6360004,123.593598 19.6808,123.059203 19.6808,122.4704 L19.6808,120.128 C19.6808,119.539197 19.6360004,119.004802 19.5464,118.5248 C19.4567996,118.044798 19.309601,117.632002 19.1048,117.2864 C18.899999,116.940798 18.6344016,116.675201 18.308,116.4896 C17.9815984,116.303999 17.5880023,116.2112 17.1272,116.2112 C16.6663977,116.2112 16.2728016,116.303999 15.9464,116.4896 C15.6199984,116.675201 15.354401,116.940798 15.1496,117.2864 C14.944799,117.632002 14.7976004,118.044798 14.708,118.5248 C14.6183996,119.004802 14.5736,119.539197 14.5736,120.128 L14.5736,122.4704 C14.5736,123.059203 14.6183996,123.593598 14.708,124.0736 C14.7976004,124.553602 14.944799,124.966398 15.1496,125.312 C15.354401,125.657602 15.6199984,125.923199 15.9464,126.1088 C16.2728016,126.294401 16.6663977,126.3872 17.1272,126.3872 Z M25.6712,128.2304 C25.1975976,128.2304 24.8456012,128.105601 24.6152,127.856 C24.3847988,127.606399 24.2696,127.296002 24.2696,126.9248 L24.2696,126.6368 C24.2696,126.265598 24.3847988,125.955201 24.6152,125.7056 C24.8456012,125.455999 25.1975976,125.3312 25.6712,125.3312 C26.1448024,125.3312 26.4967988,125.455999 26.7272,125.7056 C26.9576012,125.955201 27.0728,126.265598 27.0728,126.6368 L27.0728,126.9248 C27.0728,127.296002 26.9576012,127.606399 26.7272,127.856 C26.4967988,128.105601 26.1448024,128.2304 25.6712,128.2304 Z M38.2088,116.48 L32.2568,116.48 L31.9112,121.2224 L32.0456,121.2224 C32.1992008,120.953599 32.3591992,120.713601 32.5256,120.5024 C32.6920008,120.291199 32.8839989,120.108801 33.1016,119.9552 C33.3192011,119.801599 33.5687986,119.6832 33.8504,119.6 C34.1320014,119.5168 34.4647981,119.4752 34.8488,119.4752 C35.4248029,119.4752 35.9591975,119.571199 36.452,119.7632 C36.9448025,119.955201 37.3735982,120.230398 37.7384,120.5888 C38.1032018,120.947202 38.387999,121.385597 38.5928,121.904 C38.797601,122.422403 38.9,123.007997 38.9,123.6608 C38.9,124.326403 38.7944011,124.940797 38.5832,125.504 C38.3719989,126.067203 38.061602,126.550398 37.652,126.9536 C37.242398,127.356802 36.740003,127.670399 36.1448,127.8944 C35.549597,128.118401 34.8744038,128.2304 34.1192,128.2304 C33.517597,128.2304 32.9864023,128.163201 32.5256,128.0288 C32.0647977,127.894399 31.6584018,127.715201 31.3064,127.4912 C30.9543982,127.267199 30.6472013,127.011201 30.3848,126.7232 C30.1223987,126.435199 29.888801,126.137602 29.684,125.8304 L31.2584,124.5824 C31.4248008,124.851201 31.5975991,125.094399 31.7768,125.312 C31.9560009,125.529601 32.1607988,125.721599 32.3912,125.888 C32.6216012,126.054401 32.8807986,126.1824 33.1688,126.272 C33.4568014,126.3616 33.7863981,126.4064 34.1576,126.4064 C34.951204,126.4064 35.5623979,126.188802 35.9912,125.7536 C36.4200021,125.318398 36.6344,124.716804 36.6344,123.9488 L36.6344,123.7184 C36.6344,122.950396 36.4200021,122.348802 35.9912,121.9136 C35.5623979,121.478398 34.951204,121.2608 34.1576,121.2608 C33.5815971,121.2608 33.1208017,121.369599 32.7752,121.5872 C32.4295983,121.804801 32.1352012,122.047999 31.892,122.3168 L30.1064,122.0672 L30.6056,114.5984 L38.2088,114.5984 L38.2088,116.48 Z M47.2904,125.3312 C47.7640024,125.3312 48.1159988,125.452799 48.3464,125.696 C48.5768012,125.939201 48.692,126.252798 48.692,126.6368 L48.692,126.944 C48.692,127.571203 48.5224017,128.227197 48.1832,128.912 C47.8439983,129.596803 47.3864029,130.175998 46.8104,130.6496 L45.2552,130.6496 C45.664802,130.239998 46.0039987,129.843202 46.2728,129.4592 C46.5416013,129.075198 46.7463993,128.646402 46.8872,128.1728 C46.5543983,128.1088 46.3048008,127.964801 46.1384,127.7408 C45.9719992,127.516799 45.8888,127.251202 45.8888,126.944 L45.8888,126.6368 C45.8888,126.252798 46.0039988,125.939201 46.2344,125.696 C46.4648012,125.452799 46.8167976,125.3312 47.2904,125.3312 Z M60.3464,128.2304 C59.5143958,128.2304 58.7912031,128.073602 58.1768,127.76 C57.5623969,127.446398 57.056802,126.995203 56.66,126.4064 C56.263198,125.817597 55.968801,125.094404 55.7768,124.2368 C55.584799,123.379196 55.4888,122.400006 55.4888,121.2992 C55.4888,120.211195 55.584799,119.235204 55.7768,118.3712 C55.968801,117.507196 56.263198,116.780803 56.66,116.192 C57.056802,115.603197 57.5623969,115.152002 58.1768,114.8384 C58.7912031,114.524798 59.5143958,114.368 60.3464,114.368 C62.0104083,114.368 63.2359961,114.975994 64.0232,116.192 C64.8104039,117.408006 65.204,119.110389 65.204,121.2992 C65.204,123.488011 64.8104039,125.190394 64.0232,126.4064 C63.2359961,127.622406 62.0104083,128.2304 60.3464,128.2304 Z M60.3464,126.3872 C60.8072023,126.3872 61.2007984,126.294401 61.5272,126.1088 C61.8536016,125.923199 62.119199,125.657602 62.324,125.312 C62.528801,124.966398 62.6759996,124.553602 62.7656,124.0736 C62.8552004,123.593598 62.9,123.059203 62.9,122.4704 L62.9,120.128 C62.9,119.539197 62.8552004,119.004802 62.7656,118.5248 C62.6759996,118.044798 62.528801,117.632002 62.324,117.2864 C62.119199,116.940798 61.8536016,116.675201 61.5272,116.4896 C61.2007984,116.303999 60.8072023,116.2112 60.3464,116.2112 C59.8855977,116.2112 59.4920016,116.303999 59.1656,116.4896 C58.8391984,116.675201 58.573601,116.940798 58.3688,117.2864 C58.163999,117.632002 58.0168004,118.044798 57.9272,118.5248 C57.8375996,119.004802 57.7928,119.539197 57.7928,120.128 L57.7928,122.4704 C57.7928,123.059203 57.8375996,123.593598 57.9272,124.0736 C58.0168004,124.553602 58.163999,124.966398 58.3688,125.312 C58.573601,125.657602 58.8391984,125.923199 59.1656,126.1088 C59.4920016,126.294401 59.8855977,126.3872 60.3464,126.3872 Z M68.8904,128.2304 C68.4167976,128.2304 68.0648012,128.105601 67.8344,127.856 C67.6039988,127.606399 67.4888,127.296002 67.4888,126.9248 L67.4888,126.6368 C67.4888,126.265598 67.6039988,125.955201 67.8344,125.7056 C68.0648012,125.455999 68.4167976,125.3312 68.8904,125.3312 C69.3640024,125.3312 69.7159988,125.455999 69.9464,125.7056 C70.1768012,125.955201 70.292,126.265598 70.292,126.6368 L70.292,126.9248 C70.292,127.296002 70.1768012,127.606399 69.9464,127.856 C69.7159988,128.105601 69.3640024,128.2304 68.8904,128.2304 Z M81.428,116.48 L75.476,116.48 L75.1304,121.2224 L75.2648,121.2224 C75.4184008,120.953599 75.5783992,120.713601 75.7448,120.5024 C75.9112008,120.291199 76.1031989,120.108801 76.3208,119.9552 C76.5384011,119.801599 76.7879986,119.6832 77.0696,119.6 C77.3512014,119.5168 77.6839981,119.4752 78.068,119.4752 C78.6440029,119.4752 79.1783975,119.571199 79.6712,119.7632 C80.1640025,119.955201 80.5927982,120.230398 80.9576,120.5888 C81.3224018,120.947202 81.607199,121.385597 81.812,121.904 C82.016801,122.422403 82.1192,123.007997 82.1192,123.6608 C82.1192,124.326403 82.0136011,124.940797 81.8024,125.504 C81.5911989,126.067203 81.280802,126.550398 80.8712,126.9536 C80.461598,127.356802 79.959203,127.670399 79.364,127.8944 C78.768797,128.118401 78.0936038,128.2304 77.3384,128.2304 C76.736797,128.2304 76.2056023,128.163201 75.7448,128.0288 C75.2839977,127.894399 74.8776018,127.715201 74.5256,127.4912 C74.1735982,127.267199 73.8664013,127.011201 73.604,126.7232 C73.3415987,126.435199 73.108001,126.137602 72.9032,125.8304 L74.4776,124.5824 C74.6440008,124.851201 74.8167991,125.094399 74.996,125.312 C75.1752009,125.529601 75.3799988,125.721599 75.6104,125.888 C75.8408012,126.054401 76.0999986,126.1824 76.388,126.272 C76.6760014,126.3616 77.0055981,126.4064 77.3768,126.4064 C78.170404,126.4064 78.7815979,126.188802 79.2104,125.7536 C79.6392021,125.318398 79.8536,124.716804 79.8536,123.9488 L79.8536,123.7184 C79.8536,122.950396 79.6392021,122.348802 79.2104,121.9136 C78.7815979,121.478398 78.170404,121.2608 77.3768,121.2608 C76.8007971,121.2608 76.3400017,121.369599 75.9944,121.5872 C75.6487983,121.804801 75.3544012,122.047999 75.1112,122.3168 L73.3256,122.0672 L73.8248,114.5984 L81.428,114.5984 L81.428,116.48 Z M90.5096,125.3312 C90.9832024,125.3312 91.3351988,125.452799 91.5656,125.696 C91.7960012,125.939201 91.9112,126.252798 91.9112,126.6368 L91.9112,126.944 C91.9112,127.571203 91.7416017,128.227197 91.4024,128.912 C91.0631983,129.596803 90.6056029,130.175998 90.0296,130.6496 L88.4744,130.6496 C88.884002,130.239998 89.2231987,129.843202 89.492,129.4592 C89.7608013,129.075198 89.9655993,128.646402 90.1064,128.1728 C89.7735983,128.1088 89.5240008,127.964801 89.3576,127.7408 C89.1911992,127.516799 89.108,127.251202 89.108,126.944 L89.108,126.6368 C89.108,126.252798 89.2231988,125.939201 89.4536,125.696 C89.6840012,125.452799 90.0359976,125.3312 90.5096,125.3312 Z M103.5656,128.2304 C102.733596,128.2304 102.010403,128.073602 101.396,127.76 C100.781597,127.446398 100.276002,126.995203 99.8792,126.4064 C99.482398,125.817597 99.188001,125.094404 98.996,124.2368 C98.803999,123.379196 98.708,122.400006 98.708,121.2992 C98.708,120.211195 98.803999,119.235204 98.996,118.3712 C99.188001,117.507196 99.482398,116.780803 99.8792,116.192 C100.276002,115.603197 100.781597,115.152002 101.396,114.8384 C102.010403,114.524798 102.733596,114.368 103.5656,114.368 C105.229608,114.368 106.455196,114.975994 107.2424,116.192 C108.029604,117.408006 108.4232,119.110389 108.4232,121.2992 C108.4232,123.488011 108.029604,125.190394 107.2424,126.4064 C106.455196,127.622406 105.229608,128.2304 103.5656,128.2304 Z M103.5656,126.3872 C104.026402,126.3872 104.419998,126.294401 104.7464,126.1088 C105.072802,125.923199 105.338399,125.657602 105.5432,125.312 C105.748001,124.966398 105.8952,124.553602 105.9848,124.0736 C106.0744,123.593598 106.1192,123.059203 106.1192,122.4704 L106.1192,120.128 C106.1192,119.539197 106.0744,119.004802 105.9848,118.5248 C105.8952,118.044798 105.748001,117.632002 105.5432,117.2864 C105.338399,116.940798 105.072802,116.675201 104.7464,116.4896 C104.419998,116.303999 104.026402,116.2112 103.5656,116.2112 C103.104798,116.2112 102.711202,116.303999 102.3848,116.4896 C102.058398,116.675201 101.792801,116.940798 101.588,117.2864 C101.383199,117.632002 101.236,118.044798 101.1464,118.5248 C101.0568,119.004802 101.012,119.539197 101.012,120.128 L101.012,122.4704 C101.012,123.059203 101.0568,123.593598 101.1464,124.0736 C101.236,124.553602 101.383199,124.966398 101.588,125.312 C101.792801,125.657602 102.058398,125.923199 102.3848,126.1088 C102.711202,126.294401 103.104798,126.3872 103.5656,126.3872 Z M112.1096,128.2304 C111.635998,128.2304 111.284001,128.105601 111.0536,127.856 C110.823199,127.606399 110.708,127.296002 110.708,126.9248 L110.708,126.6368 C110.708,126.265598 110.823199,125.955201 111.0536,125.7056 C111.284001,125.455999 111.635998,125.3312 112.1096,125.3312 C112.583202,125.3312 112.935199,125.455999 113.1656,125.7056 C113.396001,125.955201 113.5112,126.265598 113.5112,126.6368 L113.5112,126.9248 C113.5112,127.296002 113.396001,127.606399 113.1656,127.856 C112.935199,128.105601 112.583202,128.2304 112.1096,128.2304 Z M124.6472,116.48 L118.6952,116.48 L118.3496,121.2224 L118.484,121.2224 C118.637601,120.953599 118.797599,120.713601 118.964,120.5024 C119.130401,120.291199 119.322399,120.108801 119.54,119.9552 C119.757601,119.801599 120.007199,119.6832 120.2888,119.6 C120.570401,119.5168 120.903198,119.4752 121.2872,119.4752 C121.863203,119.4752 122.397598,119.571199 122.8904,119.7632 C123.383202,119.955201 123.811998,120.230398 124.1768,120.5888 C124.541602,120.947202 124.826399,121.385597 125.0312,121.904 C125.236001,122.422403 125.3384,123.007997 125.3384,123.6608 C125.3384,124.326403 125.232801,124.940797 125.0216,125.504 C124.810399,126.067203 124.500002,126.550398 124.0904,126.9536 C123.680798,127.356802 123.178403,127.670399 122.5832,127.8944 C121.987997,128.118401 121.312804,128.2304 120.5576,128.2304 C119.955997,128.2304 119.424802,128.163201 118.964,128.0288 C118.503198,127.894399 118.096802,127.715201 117.7448,127.4912 C117.392798,127.267199 117.085601,127.011201 116.8232,126.7232 C116.560799,126.435199 116.327201,126.137602 116.1224,125.8304 L117.6968,124.5824 C117.863201,124.851201 118.035999,125.094399 118.2152,125.312 C118.394401,125.529601 118.599199,125.721599 118.8296,125.888 C119.060001,126.054401 119.319199,126.1824 119.6072,126.272 C119.895201,126.3616 120.224798,126.4064 120.596,126.4064 C121.389604,126.4064 122.000798,126.188802 122.4296,125.7536 C122.858402,125.318398 123.0728,124.716804 123.0728,123.9488 L123.0728,123.7184 C123.0728,122.950396 122.858402,122.348802 122.4296,121.9136 C122.000798,121.478398 121.389604,121.2608 120.596,121.2608 C120.019997,121.2608 119.559202,121.369599 119.2136,121.5872 C118.867998,121.804801 118.573601,122.047999 118.3304,122.3168 L116.5448,122.0672 L117.044,114.5984 L124.6472,114.5984 L124.6472,116.48 Z M133.7288,125.3312 C134.202402,125.3312 134.554399,125.452799 134.7848,125.696 C135.015201,125.939201 135.1304,126.252798 135.1304,126.6368 L135.1304,126.944 C135.1304,127.571203 134.960802,128.227197 134.6216,128.912 C134.282398,129.596803 133.824803,130.175998 133.2488,130.6496 L131.6936,130.6496 C132.103202,130.239998 132.442399,129.843202 132.7112,129.4592 C132.980001,129.075198 133.184799,128.646402 133.3256,128.1728 C132.992798,128.1088 132.743201,127.964801 132.5768,127.7408 C132.410399,127.516799 132.3272,127.251202 132.3272,126.944 L132.3272,126.6368 C132.3272,126.252798 132.442399,125.939201 132.6728,125.696 C132.903201,125.452799 133.255198,125.3312 133.7288,125.3312 Z M142.7144,128 L142.7144,126.1952 L146.4776,126.1952 L146.4776,116.1728 L146.324,116.1728 L143.2136,119.4944 L141.8888,118.304 L145.3064,114.5984 L148.6088,114.5984 L148.6088,126.1952 L151.8728,126.1952 L151.8728,128 L142.7144,128 Z M155.3288,128.2304 C154.855198,128.2304 154.503201,128.105601 154.2728,127.856 C154.042399,127.606399 153.9272,127.296002 153.9272,126.9248 L153.9272,126.6368 C153.9272,126.265598 154.042399,125.955201 154.2728,125.7056 C154.503201,125.455999 154.855198,125.3312 155.3288,125.3312 C155.802402,125.3312 156.154399,125.455999 156.3848,125.7056 C156.615201,125.955201 156.7304,126.265598 156.7304,126.6368 L156.7304,126.9248 C156.7304,127.296002 156.615201,127.606399 156.3848,127.856 C156.154399,128.105601 155.802402,128.2304 155.3288,128.2304 Z M163.8728,128.2304 C163.040796,128.2304 162.317603,128.073602 161.7032,127.76 C161.088797,127.446398 160.583202,126.995203 160.1864,126.4064 C159.789598,125.817597 159.495201,125.094404 159.3032,124.2368 C159.111199,123.379196 159.0152,122.400006 159.0152,121.2992 C159.0152,120.211195 159.111199,119.235204 159.3032,118.3712 C159.495201,117.507196 159.789598,116.780803 160.1864,116.192 C160.583202,115.603197 161.088797,115.152002 161.7032,114.8384 C162.317603,114.524798 163.040796,114.368 163.8728,114.368 C165.536808,114.368 166.762396,114.975994 167.5496,116.192 C168.336804,117.408006 168.7304,119.110389 168.7304,121.2992 C168.7304,123.488011 168.336804,125.190394 167.5496,126.4064 C166.762396,127.622406 165.536808,128.2304 163.8728,128.2304 Z M163.8728,126.3872 C164.333602,126.3872 164.727198,126.294401 165.0536,126.1088 C165.380002,125.923199 165.645599,125.657602 165.8504,125.312 C166.055201,124.966398 166.2024,124.553602 166.292,124.0736 C166.3816,123.593598 166.4264,123.059203 166.4264,122.4704 L166.4264,120.128 C166.4264,119.539197 166.3816,119.004802 166.292,118.5248 C166.2024,118.044798 166.055201,117.632002 165.8504,117.2864 C165.645599,116.940798 165.380002,116.675201 165.0536,116.4896 C164.727198,116.303999 164.333602,116.2112 163.8728,116.2112 C163.411998,116.2112 163.018402,116.303999 162.692,116.4896 C162.365598,116.675201 162.100001,116.940798 161.8952,117.2864 C161.690399,117.632002 161.5432,118.044798 161.4536,118.5248 C161.364,119.004802 161.3192,119.539197 161.3192,120.128 L161.3192,122.4704 C161.3192,123.059203 161.364,123.593598 161.4536,124.0736 C161.5432,124.553602 161.690399,124.966398 161.8952,125.312 C162.100001,125.657602 162.365598,125.923199 162.692,126.1088 C163.018402,126.294401 163.411998,126.3872 163.8728,126.3872 Z M179.4056,122.0288 C179.4056,122.963205 179.316001,123.859196 179.1368,124.7168 C178.957599,125.574404 178.714402,126.374396 178.4072,127.1168 C178.099998,127.859204 177.738402,128.531197 177.3224,129.1328 C176.906398,129.734403 176.461602,130.239998 175.988,130.6496 L174.0104,130.6496 C174.535203,130.175998 175.008798,129.635203 175.4312,129.0272 C175.853602,128.419197 176.211999,127.776003 176.5064,127.0976 C176.800801,126.419197 177.027999,125.715204 177.188,124.9856 C177.348001,124.255996 177.428,123.526404 177.428,122.7968 L177.428,121.2608 C177.428,120.531196 177.348001,119.801604 177.188,119.072 C177.027999,118.342396 176.800801,117.638403 176.5064,116.96 C176.211999,116.281597 175.853602,115.641603 175.4312,115.04 C175.008798,114.438397 174.535203,113.894402 174.0104,113.408 L175.988,113.408 C176.461602,113.817602 176.906398,114.323197 177.3224,114.9248 C177.738402,115.526403 178.099998,116.198396 178.4072,116.9408 C178.714402,117.683204 178.957599,118.483196 179.1368,119.3408 C179.316001,120.198404 179.4056,121.094395 179.4056,122.0288 Z"/>
    <rect width="98" height="98" x="265" fill="#7F7F7F"/>
    <rect width="34" height="25" x="233" y="108" fill="red" fill-opacity=".25" rx="5"/>
    <rect width="34" height="25" x="276" y="108" fill="#0F0" fill-opacity=".25" rx="5"/>
    <rect width="34" height="25" x="319" y="108" fill="#00F" fill-opacity=".25" rx="5"/>
    <rect width="34" height="25" x="362" y="108" fill="#000" fill-opacity=".25" rx="5"/>
    <path fill="#333" fill-rule="nonzero" d="M225.5944,122.0288 C225.5944,121.094395 225.680799,120.198404 225.8536,119.3408 C226.026401,118.483196 226.266398,117.683204 226.5736,116.9408 C226.880802,116.198396 227.242398,115.526403 227.6584,114.9248 C228.074402,114.323197 228.525598,113.817602 229.012,113.408 L230.9896,113.408 C230.464797,113.894402 229.991202,114.438397 229.5688,115.04 C229.146398,115.641603 228.788001,116.281597 228.4936,116.96 C228.199199,117.638403 227.972001,118.342396 227.812,119.072 C227.651999,119.801604 227.572,120.531196 227.572,121.2608 L227.572,122.7968 C227.572,123.526404 227.651999,124.255996 227.812,124.9856 C227.972001,125.715204 228.199199,126.419197 228.4936,127.0976 C228.788001,127.776003 229.146398,128.419197 229.5688,129.0272 C229.991202,129.635203 230.464797,130.175998 230.9896,130.6496 L229.012,130.6496 C228.525598,130.239998 228.074402,129.734403 227.6584,129.1328 C227.242398,128.531197 226.880802,127.859204 226.5736,127.1168 C226.266398,126.374396 226.026401,125.574404 225.8536,124.7168 C225.680799,123.859196 225.5944,122.963205 225.5944,122.0288 Z M241.1272,128.2304 C240.295196,128.2304 239.572003,128.073602 238.9576,127.76 C238.343197,127.446398 237.837602,126.995203 237.4408,126.4064 C237.043998,125.817597 236.749601,125.094404 236.5576,124.2368 C236.365599,123.379196 236.2696,122.400006 236.2696,121.2992 C236.2696,120.211195 236.365599,119.235204 236.5576,118.3712 C236.749601,117.507196 237.043998,116.780803 237.4408,116.192 C237.837602,115.603197 238.343197,115.152002 238.9576,114.8384 C239.572003,114.524798 240.295196,114.368 241.1272,114.368 C242.791208,114.368 244.016796,114.975994 244.804,116.192 C245.591204,117.408006 245.9848,119.110389 245.9848,121.2992 C245.9848,123.488011 245.591204,125.190394 244.804,126.4064 C244.016796,127.622406 242.791208,128.2304 241.1272,128.2304 Z M241.1272,126.3872 C241.588002,126.3872 241.981598,126.294401 242.308,126.1088 C242.634402,125.923199 242.899999,125.657602 243.1048,125.312 C243.309601,124.966398 243.4568,124.553602 243.5464,124.0736 C243.636,123.593598 243.6808,123.059203 243.6808,122.4704 L243.6808,120.128 C243.6808,119.539197 243.636,119.004802 243.5464,118.5248 C243.4568,118.044798 243.309601,117.632002 243.1048,117.2864 C242.899999,116.940798 242.634402,116.675201 242.308,116.4896 C241.981598,116.303999 241.588002,116.2112 241.1272,116.2112 C240.666398,116.2112 240.272802,116.303999 239.9464,116.4896 C239.619998,116.675201 239.354401,116.940798 239.1496,117.2864 C238.944799,117.632002 238.7976,118.044798 238.708,118.5248 C238.6184,119.004802 238.5736,119.539197 238.5736,120.128 L238.5736,122.4704 C238.5736,123.059203 238.6184,123.593598 238.708,124.0736 C238.7976,124.553602 238.944799,124.966398 239.1496,125.312 C239.354401,125.657602 239.619998,125.923199 239.9464,126.1088 C240.272802,126.294401 240.666398,126.3872 241.1272,126.3872 Z M249.6712,128.2304 C249.197598,128.2304 248.845601,128.105601 248.6152,127.856 C248.384799,127.606399 248.2696,127.296002 248.2696,126.9248 L248.2696,126.6368 C248.2696,126.265598 248.384799,125.955201 248.6152,125.7056 C248.845601,125.455999 249.197598,125.3312 249.6712,125.3312 C250.144802,125.3312 250.496799,125.455999 250.7272,125.7056 C250.957601,125.955201 251.0728,126.265598 251.0728,126.6368 L251.0728,126.9248 C251.0728,127.296002 250.957601,127.606399 250.7272,127.856 C250.496799,128.105601 250.144802,128.2304 249.6712,128.2304 Z M258.2152,128.2304 C257.383196,128.2304 256.660003,128.073602 256.0456,127.76 C255.431197,127.446398 254.925602,126.995203 254.5288,126.4064 C254.131998,125.817597 253.837601,125.094404 253.6456,124.2368 C253.453599,123.379196 253.3576,122.400006 253.3576,121.2992 C253.3576,120.211195 253.453599,119.235204 253.6456,118.3712 C253.837601,117.507196 254.131998,116.780803 254.5288,116.192 C254.925602,115.603197 255.431197,115.152002 256.0456,114.8384 C256.660003,114.524798 257.383196,114.368 258.2152,114.368 C259.879208,114.368 261.104796,114.975994 261.892,116.192 C262.679204,117.408006 263.0728,119.110389 263.0728,121.2992 C263.0728,123.488011 262.679204,125.190394 261.892,126.4064 C261.104796,127.622406 259.879208,128.2304 258.2152,128.2304 Z M258.2152,126.3872 C258.676002,126.3872 259.069598,126.294401 259.396,126.1088 C259.722402,125.923199 259.987999,125.657602 260.1928,125.312 C260.397601,124.966398 260.5448,124.553602 260.6344,124.0736 C260.724,123.593598 260.7688,123.059203 260.7688,122.4704 L260.7688,120.128 C260.7688,119.539197 260.724,119.004802 260.6344,118.5248 C260.5448,118.044798 260.397601,117.632002 260.1928,117.2864 C259.987999,116.940798 259.722402,116.675201 259.396,116.4896 C259.069598,116.303999 258.676002,116.2112 258.2152,116.2112 C257.754398,116.2112 257.360802,116.303999 257.0344,116.4896 C256.707998,116.675201 256.442401,116.940798 256.2376,117.2864 C256.032799,117.632002 255.8856,118.044798 255.796,118.5248 C255.7064,119.004802 255.6616,119.539197 255.6616,120.128 L255.6616,122.4704 C255.6616,123.059203 255.7064,123.593598 255.796,124.0736 C255.8856,124.553602 256.032799,124.966398 256.2376,125.312 C256.442401,125.657602 256.707998,125.923199 257.0344,126.1088 C257.360802,126.294401 257.754398,126.3872 258.2152,126.3872 Z M271.2904,125.3312 C271.764002,125.3312 272.115999,125.452799 272.3464,125.696 C272.576801,125.939201 272.692,126.252798 272.692,126.6368 L272.692,126.944 C272.692,127.571203 272.522402,128.227197 272.1832,128.912 C271.843998,129.596803 271.386403,130.175998 270.8104,130.6496 L269.2552,130.6496 C269.664802,130.239998 270.003999,129.843202 270.2728,129.4592 C270.541601,129.075198 270.746399,128.646402 270.8872,128.1728 C270.554398,128.1088 270.304801,127.964801 270.1384,127.7408 C269.971999,127.516799 269.8888,127.251202 269.8888,126.944 L269.8888,126.6368 C269.8888,126.252798 270.003999,125.939201 270.2344,125.696 C270.464801,125.452799 270.816798,125.3312 271.2904,125.3312 Z M284.3464,128.2304 C283.514396,128.2304 282.791203,128.073602 282.1768,127.76 C281.562397,127.446398 281.056802,126.995203 280.66,126.4064 C280.263198,125.817597 279.968801,125.094404 279.7768,124.2368 C279.584799,123.379196 279.4888,122.400006 279.4888,121.2992 C279.4888,120.211195 279.584799,119.235204 279.7768,118.3712 C279.968801,117.507196 280.263198,116.780803 280.66,116.192 C281.056802,115.603197 281.562397,115.152002 282.1768,114.8384 C282.791203,114.524798 283.514396,114.368 284.3464,114.368 C286.010408,114.368 287.235996,114.975994 288.0232,116.192 C288.810404,117.408006 289.204,119.110389 289.204,121.2992 C289.204,123.488011 288.810404,125.190394 288.0232,126.4064 C287.235996,127.622406 286.010408,128.2304 284.3464,128.2304 Z M284.3464,126.3872 C284.807202,126.3872 285.200798,126.294401 285.5272,126.1088 C285.853602,125.923199 286.119199,125.657602 286.324,125.312 C286.528801,124.966398 286.676,124.553602 286.7656,124.0736 C286.8552,123.593598 286.9,123.059203 286.9,122.4704 L286.9,120.128 C286.9,119.539197 286.8552,119.004802 286.7656,118.5248 C286.676,118.044798 286.528801,117.632002 286.324,117.2864 C286.119199,116.940798 285.853602,116.675201 285.5272,116.4896 C285.200798,116.303999 284.807202,116.2112 284.3464,116.2112 C283.885598,116.2112 283.492002,116.303999 283.1656,116.4896 C282.839198,116.675201 282.573601,116.940798 282.3688,117.2864 C282.163999,117.632002 282.0168,118.044798 281.9272,118.5248 C281.8376,119.004802 281.7928,119.539197 281.7928,120.128 L281.7928,122.4704 C281.7928,123.059203 281.8376,123.593598 281.9272,124.0736 C282.0168,124.553602 282.163999,124.966398 282.3688,125.312 C282.573601,125.657602 282.839198,125.923199 283.1656,126.1088 C283.492002,126.294401 283.885598,126.3872 284.3464,126.3872 Z M292.8904,128.2304 C292.416798,128.2304 292.064801,128.105601 291.8344,127.856 C291.603999,127.606399 291.4888,127.296002 291.4888,126.9248 L291.4888,126.6368 C291.4888,126.265598 291.603999,125.955201 291.8344,125.7056 C292.064801,125.455999 292.416798,125.3312 292.8904,125.3312 C293.364002,125.3312 293.715999,125.455999 293.9464,125.7056 C294.176801,125.955201 294.292,126.265598 294.292,126.6368 L294.292,126.9248 C294.292,127.296002 294.176801,127.606399 293.9464,127.856 C293.715999,128.105601 293.364002,128.2304 292.8904,128.2304 Z M301.4344,128.2304 C300.602396,128.2304 299.879203,128.073602 299.2648,127.76 C298.650397,127.446398 298.144802,126.995203 297.748,126.4064 C297.351198,125.817597 297.056801,125.094404 296.8648,124.2368 C296.672799,123.379196 296.5768,122.400006 296.5768,121.2992 C296.5768,120.211195 296.672799,119.235204 296.8648,118.3712 C297.056801,117.507196 297.351198,116.780803 297.748,116.192 C298.144802,115.603197 298.650397,115.152002 299.2648,114.8384 C299.879203,114.524798 300.602396,114.368 301.4344,114.368 C303.098408,114.368 304.323996,114.975994 305.1112,116.192 C305.898404,117.408006 306.292,119.110389 306.292,121.2992 C306.292,123.488011 305.898404,125.190394 305.1112,126.4064 C304.323996,127.622406 303.098408,128.2304 301.4344,128.2304 Z M301.4344,126.3872 C301.895202,126.3872 302.288798,126.294401 302.6152,126.1088 C302.941602,125.923199 303.207199,125.657602 303.412,125.312 C303.616801,124.966398 303.764,124.553602 303.8536,124.0736 C303.9432,123.593598 303.988,123.059203 303.988,122.4704 L303.988,120.128 C303.988,119.539197 303.9432,119.004802 303.8536,118.5248 C303.764,118.044798 303.616801,117.632002 303.412,117.2864 C303.207199,116.940798 302.941602,116.675201 302.6152,116.4896 C302.288798,116.303999 301.895202,116.2112 301.4344,116.2112 C300.973598,116.2112 300.580002,116.303999 300.2536,116.4896 C299.927198,116.675201 299.661601,116.940798 299.4568,117.2864 C299.251999,117.632002 299.1048,118.044798 299.0152,118.5248 C298.9256,119.004802 298.8808,119.539197 298.8808,120.128 L298.8808,122.4704 C298.8808,123.059203 298.9256,123.593598 299.0152,124.0736 C299.1048,124.553602 299.251999,124.966398 299.4568,125.312 C299.661601,125.657602 299.927198,125.923199 300.2536,126.1088 C300.580002,126.294401 300.973598,126.3872 301.4344,126.3872 Z M314.5096,125.3312 C314.983202,125.3312 315.335199,125.452799 315.5656,125.696 C315.796001,125.939201 315.9112,126.252798 315.9112,126.6368 L315.9112,126.944 C315.9112,127.571203 315.741602,128.227197 315.4024,128.912 C315.063198,129.596803 314.605603,130.175998 314.0296,130.6496 L312.4744,130.6496 C312.884002,130.239998 313.223199,129.843202 313.492,129.4592 C313.760801,129.075198 313.965599,128.646402 314.1064,128.1728 C313.773598,128.1088 313.524001,127.964801 313.3576,127.7408 C313.191199,127.516799 313.108,127.251202 313.108,126.944 L313.108,126.6368 C313.108,126.252798 313.223199,125.939201 313.4536,125.696 C313.684001,125.452799 314.035998,125.3312 314.5096,125.3312 Z M327.5656,128.2304 C326.733596,128.2304 326.010403,128.073602 325.396,127.76 C324.781597,127.446398 324.276002,126.995203 323.8792,126.4064 C323.482398,125.817597 323.188001,125.094404 322.996,124.2368 C322.803999,123.379196 322.708,122.400006 322.708,121.2992 C322.708,120.211195 322.803999,119.235204 322.996,118.3712 C323.188001,117.507196 323.482398,116.780803 323.8792,116.192 C324.276002,115.603197 324.781597,115.152002 325.396,114.8384 C326.010403,114.524798 326.733596,114.368 327.5656,114.368 C329.229608,114.368 330.455196,114.975994 331.2424,116.192 C332.029604,117.408006 332.4232,119.110389 332.4232,121.2992 C332.4232,123.488011 332.029604,125.190394 331.2424,126.4064 C330.455196,127.622406 329.229608,128.2304 327.5656,128.2304 Z M327.5656,126.3872 C328.026402,126.3872 328.419998,126.294401 328.7464,126.1088 C329.072802,125.923199 329.338399,125.657602 329.5432,125.312 C329.748001,124.966398 329.8952,124.553602 329.9848,124.0736 C330.0744,123.593598 330.1192,123.059203 330.1192,122.4704 L330.1192,120.128 C330.1192,119.539197 330.0744,119.004802 329.9848,118.5248 C329.8952,118.044798 329.748001,117.632002 329.5432,117.2864 C329.338399,116.940798 329.072802,116.675201 328.7464,116.4896 C328.419998,116.303999 328.026402,116.2112 327.5656,116.2112 C327.104798,116.2112 326.711202,116.303999 326.3848,116.4896 C326.058398,116.675201 325.792801,116.940798 325.588,117.2864 C325.383199,117.632002 325.236,118.044798 325.1464,118.5248 C325.0568,119.004802 325.012,119.539197 325.012,120.128 L325.012,122.4704 C325.012,123.059203 325.0568,123.593598 325.1464,124.0736 C325.236,124.553602 325.383199,124.966398 325.588,125.312 C325.792801,125.657602 326.058398,125.923199 326.3848,126.1088 C326.711202,126.294401 327.104798,126.3872 327.5656,126.3872 Z M336.1096,128.2304 C335.635998,128.2304 335.284001,128.105601 335.0536,127.856 C334.823199,127.606399 334.708,127.296002 334.708,126.9248 L334.708,126.6368 C334.708,126.265598 334.823199,125.955201 335.0536,125.7056 C335.284001,125.455999 335.635998,125.3312 336.1096,125.3312 C336.583202,125.3312 336.935199,125.455999 337.1656,125.7056 C337.396001,125.955201 337.5112,126.265598 337.5112,126.6368 L337.5112,126.9248 C337.5112,127.296002 337.396001,127.606399 337.1656,127.856 C336.935199,128.105601 336.583202,128.2304 336.1096,128.2304 Z M344.6536,128.2304 C343.821596,128.2304 343.098403,128.073602 342.484,127.76 C341.869597,127.446398 341.364002,126.995203 340.9672,126.4064 C340.570398,125.817597 340.276001,125.094404 340.084,124.2368 C339.891999,123.379196 339.796,122.400006 339.796,121.2992 C339.796,120.211195 339.891999,119.235204 340.084,118.3712 C340.276001,117.507196 340.570398,116.780803 340.9672,116.192 C341.364002,115.603197 341.869597,115.152002 342.484,114.8384 C343.098403,114.524798 343.821596,114.368 344.6536,114.368 C346.317608,114.368 347.543196,114.975994 348.3304,116.192 C349.117604,117.408006 349.5112,119.110389 349.5112,121.2992 C349.5112,123.488011 349.117604,125.190394 348.3304,126.4064 C347.543196,127.622406 346.317608,128.2304 344.6536,128.2304 Z M344.6536,126.3872 C345.114402,126.3872 345.507998,126.294401 345.8344,126.1088 C346.160802,125.923199 346.426399,125.657602 346.6312,125.312 C346.836001,124.966398 346.9832,124.553602 347.0728,124.0736 C347.1624,123.593598 347.2072,123.059203 347.2072,122.4704 L347.2072,120.128 C347.2072,119.539197 347.1624,119.004802 347.0728,118.5248 C346.9832,118.044798 346.836001,117.632002 346.6312,117.2864 C346.426399,116.940798 346.160802,116.675201 345.8344,116.4896 C345.507998,116.303999 345.114402,116.2112 344.6536,116.2112 C344.192798,116.2112 343.799202,116.303999 343.4728,116.4896 C343.146398,116.675201 342.880801,116.940798 342.676,117.2864 C342.471199,117.632002 342.324,118.044798 342.2344,118.5248 C342.1448,119.004802 342.1,119.539197 342.1,120.128 L342.1,122.4704 C342.1,123.059203 342.1448,123.593598 342.2344,124.0736 C342.324,124.553602 342.471199,124.966398 342.676,125.312 C342.880801,125.657602 343.146398,125.923199 343.4728,126.1088 C343.799202,126.294401 344.192798,126.3872 344.6536,126.3872 Z M357.7288,125.3312 C358.202402,125.3312 358.554399,125.452799 358.7848,125.696 C359.015201,125.939201 359.1304,126.252798 359.1304,126.6368 L359.1304,126.944 C359.1304,127.571203 358.960802,128.227197 358.6216,128.912 C358.282398,129.596803 357.824803,130.175998 357.2488,130.6496 L355.6936,130.6496 C356.103202,130.239998 356.442399,129.843202 356.7112,129.4592 C356.980001,129.075198 357.184799,128.646402 357.3256,128.1728 C356.992798,128.1088 356.743201,127.964801 356.5768,127.7408 C356.410399,127.516799 356.3272,127.251202 356.3272,126.944 L356.3272,126.6368 C356.3272,126.252798 356.442399,125.939201 356.6728,125.696 C356.903201,125.452799 357.255198,125.3312 357.7288,125.3312 Z M370.7848,128.2304 C369.952796,128.2304 369.229603,128.073602 368.6152,127.76 C368.000797,127.446398 367.495202,126.995203 367.0984,126.4064 C366.701598,125.817597 366.407201,125.094404 366.2152,124.2368 C366.023199,123.379196 365.9272,122.400006 365.9272,121.2992 C365.9272,120.211195 366.023199,119.235204 366.2152,118.3712 C366.407201,117.507196 366.701598,116.780803 367.0984,116.192 C367.495202,115.603197 368.000797,115.152002 368.6152,114.8384 C369.229603,114.524798 369.952796,114.368 370.7848,114.368 C372.448808,114.368 373.674396,114.975994 374.4616,116.192 C375.248804,117.408006 375.6424,119.110389 375.6424,121.2992 C375.6424,123.488011 375.248804,125.190394 374.4616,126.4064 C373.674396,127.622406 372.448808,128.2304 370.7848,128.2304 Z M370.7848,126.3872 C371.245602,126.3872 371.639198,126.294401 371.9656,126.1088 C372.292002,125.923199 372.557599,125.657602 372.7624,125.312 C372.967201,124.966398 373.1144,124.553602 373.204,124.0736 C373.2936,123.593598 373.3384,123.059203 373.3384,122.4704 L373.3384,120.128 C373.3384,119.539197 373.2936,119.004802 373.204,118.5248 C373.1144,118.044798 372.967201,117.632002 372.7624,117.2864 C372.557599,116.940798 372.292002,116.675201 371.9656,116.4896 C371.639198,116.303999 371.245602,116.2112 370.7848,116.2112 C370.323998,116.2112 369.930402,116.303999 369.604,116.4896 C369.277598,116.675201 369.012001,116.940798 368.8072,117.2864 C368.602399,117.632002 368.4552,118.044798 368.3656,118.5248 C368.276,119.004802 368.2312,119.539197 368.2312,120.128 L368.2312,122.4704 C368.2312,123.059203 368.276,123.593598 368.3656,124.0736 C368.4552,124.553602 368.602399,124.966398 368.8072,125.312 C369.012001,125.657602 369.277598,125.923199 369.604,126.1088 C369.930402,126.294401 370.323998,126.3872 370.7848,126.3872 Z M379.3288,128.2304 C378.855198,128.2304 378.503201,128.105601 378.2728,127.856 C378.042399,127.606399 377.9272,127.296002 377.9272,126.9248 L377.9272,126.6368 C377.9272,126.265598 378.042399,125.955201 378.2728,125.7056 C378.503201,125.455999 378.855198,125.3312 379.3288,125.3312 C379.802402,125.3312 380.154399,125.455999 380.3848,125.7056 C380.615201,125.955201 380.7304,126.265598 380.7304,126.6368 L380.7304,126.9248 C380.7304,127.296002 380.615201,127.606399 380.3848,127.856 C380.154399,128.105601 379.802402,128.2304 379.3288,128.2304 Z M391.8664,116.48 L385.9144,116.48 L385.5688,121.2224 L385.7032,121.2224 C385.856801,120.953599 386.016799,120.713601 386.1832,120.5024 C386.349601,120.291199 386.541599,120.108801 386.7592,119.9552 C386.976801,119.801599 387.226399,119.6832 387.508,119.6 C387.789601,119.5168 388.122398,119.4752 388.5064,119.4752 C389.082403,119.4752 389.616798,119.571199 390.1096,119.7632 C390.602402,119.955201 391.031198,120.230398 391.396,120.5888 C391.760802,120.947202 392.045599,121.385597 392.2504,121.904 C392.455201,122.422403 392.5576,123.007997 392.5576,123.6608 C392.5576,124.326403 392.452001,124.940797 392.2408,125.504 C392.029599,126.067203 391.719202,126.550398 391.3096,126.9536 C390.899998,127.356802 390.397603,127.670399 389.8024,127.8944 C389.207197,128.118401 388.532004,128.2304 387.7768,128.2304 C387.175197,128.2304 386.644002,128.163201 386.1832,128.0288 C385.722398,127.894399 385.316002,127.715201 384.964,127.4912 C384.611998,127.267199 384.304801,127.011201 384.0424,126.7232 C383.779999,126.435199 383.546401,126.137602 383.3416,125.8304 L384.916,124.5824 C385.082401,124.851201 385.255199,125.094399 385.4344,125.312 C385.613601,125.529601 385.818399,125.721599 386.0488,125.888 C386.279201,126.054401 386.538399,126.1824 386.8264,126.272 C387.114401,126.3616 387.443998,126.4064 387.8152,126.4064 C388.608804,126.4064 389.219998,126.188802 389.6488,125.7536 C390.077602,125.318398 390.292,124.716804 390.292,123.9488 L390.292,123.7184 C390.292,122.950396 390.077602,122.348802 389.6488,121.9136 C389.219998,121.478398 388.608804,121.2608 387.8152,121.2608 C387.239197,121.2608 386.778402,121.369599 386.4328,121.5872 C386.087198,121.804801 385.792801,122.047999 385.5496,122.3168 L383.764,122.0672 L384.2632,114.5984 L391.8664,114.5984 L391.8664,116.48 Z M403.4056,122.0288 C403.4056,122.963205 403.316001,123.859196 403.1368,124.7168 C402.957599,125.574404 402.714402,126.374396 402.4072,127.1168 C402.099998,127.859204 401.738402,128.531197 401.3224,129.1328 C400.906398,129.734403 400.461602,130.239998 399.988,130.6496 L398.0104,130.6496 C398.535203,130.175998 399.008798,129.635203 399.4312,129.0272 C399.853602,128.419197 400.211999,127.776003 400.5064,127.0976 C400.800801,126.419197 401.027999,125.715204 401.188,124.9856 C401.348001,124.255996 401.428,123.526404 401.428,122.7968 L401.428,121.2608 C401.428,120.531196 401.348001,119.801604 401.188,119.072 C401.027999,118.342396 400.800801,117.638403 400.5064,116.96 C400.211999,116.281597 399.853602,115.641603 399.4312,115.04 C399.008798,114.438397 398.535203,113.894402 398.0104,113.408 L399.988,113.408 C400.461602,113.817602 400.906398,114.323197 401.3224,114.9248 C401.738402,115.526403 402.099998,116.198396 402.4072,116.9408 C402.714402,117.683204 402.957599,118.483196 403.1368,119.3408 C403.316001,120.198404 403.4056,121.094395 403.4056,122.0288 Z"/>
  </g>
</svg>
