<svg xmlns="http://www.w3.org/2000/svg" width="560" height="203" viewBox="0 0 560 203">
  <defs>
    <linearGradient id="alpha_premul_bits-a" x1="11.149%" x2="90.995%" y1="45.097%" y2="45.097%">
      <stop offset="0%" stop-color="#FFF"/>
      <stop offset="63.323%" stop-color="#FFF"/>
      <stop offset="100%" stop-color="#FFF" stop-opacity="0"/>
    </linearGradient>
    <linearGradient id="alpha_premul_bits-b" x1="11.149%" y1="45.097%" y2="45.097%">
      <stop offset="0%" stop-color="#FFF"/>
      <stop offset="63.323%" stop-color="#FFF"/>
      <stop offset="89.865%" stop-color="#FFF" stop-opacity="0"/>
    </linearGradient>
  </defs>
  <g fill="none" fill-rule="evenodd">
    <path stroke="#333" stroke-width="2" d="M140.001572,35 C140.001572,96.5 280.001572,96.5 280.001572,158"/>
    <path stroke="#DDD" stroke-width="2" d="M-210,35 C-210,96 210,96 210,157"/>
    <path stroke="#BBB" stroke-width="2" d="M-140,35 C-140,96 210,96 210,157"/>
    <path stroke="#999" stroke-width="2" d="M-70,35 C-70,96 210,96 210,157"/>
    <path stroke="#666" stroke-width="2" d="M0,35 C0,96 210,96 210,157"/>
    <path stroke="#333" stroke-width="2" d="M70 35C70 96 210 96 210 157M210.001572 35C210.001572 96 280.001572 96 280.001572 157"/>
    <path stroke="#333" stroke-width="2" d="M280,35 C280,96.5 350,96.5 350,158" transform="matrix(-1 0 0 1 630 0)"/>
    <path stroke="#333" stroke-width="2" d="M280,35 C280,96.5 420,96.5 420,158" transform="matrix(-1 0 0 1 700 0)"/>
    <path stroke="#333" stroke-linecap="square" stroke-width="2" d="M280.001572,156.906115 L280.001572,34.7068966"/>
    <rect width="54" height="36" x="-27" fill="#EEE" rx="4"/>
    <rect width="54" height="36" x="43" fill="#EEE" rx="4"/>
    <rect width="54" height="36" x="113" fill="#EEE" rx="4"/>
    <rect width="54" height="36" x="183" fill="#EEE" rx="4"/>
    <rect width="54" height="36" x="253" fill="#EEE" rx="4"/>
    <rect width="54" height="36" x="323" fill="#EEE" rx="4"/>
    <rect width="54" height="36" x="113" y="167" fill="#EEE" rx="4"/>
    <rect width="54" height="36" x="183" y="167" fill="#EEE" rx="4"/>
    <rect width="54" height="36" x="253" y="167" fill="#EEE" rx="4"/>
    <rect width="54" height="36" x="323" y="167" fill="#EEE" rx="4"/>
    <rect width="54" height="36" x="393" y="167" fill="#EEE" rx="4"/>
    <rect width="54" height="36" x="393" fill="#EEE" rx="4"/>
    <rect width="54" height="36" x="463" fill="#EEE" rx="4"/>
    <rect width="54" height="36" x="533" fill="#EEE" rx="4"/>
    <g fill="#333" fill-rule="nonzero" transform="translate(53 11)">
      <polygon points="351.41 14 351.41 12.195 355.173 12.195 355.173 2.173 355.019 2.173 351.909 5.494 350.584 4.304 354.002 .598 357.304 .598 357.304 12.195 360.568 12.195 360.568 14"/>
      <path d="M370.9936 2.48L365.0416 2.48 364.696 7.2224 364.8304 7.2224C364.984001 6.95359866 365.143999 6.71360106 365.3104 6.5024 365.476801 6.29119894 365.668799 6.10880077 365.8864 5.9552 366.104001 5.80159923 366.353599 5.68320042 366.6352 5.6 366.916801 5.51679958 367.249598 5.4752 367.6336 5.4752 368.209603 5.4752 368.743998 5.57119904 369.2368 5.7632 369.729602 5.95520096 370.158398 6.23039821 370.5232 6.5888 370.888002 6.94720179 371.172799 7.38559741 371.3776 7.904 371.582401 8.42240259 371.6848 9.00799674 371.6848 9.6608 371.6848 10.3264033 371.579201 10.9407972 371.368 11.504 371.156799 12.0672028 370.846402 12.550398 370.4368 12.9536 370.027198 13.356802 369.524803 13.6703989 368.9296 13.8944 368.334397 14.1184011 367.659204 14.2304 366.904 14.2304 366.302397 14.2304 365.771202 14.1632007 365.3104 14.0288 364.849598 13.8943993 364.443202 13.7152011 364.0912 13.4912 363.739198 13.2671989 363.432001 13.0112014 363.1696 12.7232 362.907199 12.4351986 362.673601 12.1376015 362.4688 11.8304L364.0432 10.5824C364.209601 10.8512013 364.382399 11.0943989 364.5616 11.312 364.740801 11.5296011 364.945599 11.7215992 365.176 11.888 365.406401 12.0544008 365.665599 12.1823996 365.9536 12.272 366.241601 12.3616004 366.571198 12.4064 366.9424 12.4064 367.736004 12.4064 368.347198 12.1888022 368.776 11.7536 369.204802 11.3183978 369.4192 10.7168038 369.4192 9.9488L369.4192 9.7184C369.4192 8.95039616 369.204802 8.34880218 368.776 7.9136 368.347198 7.47839782 367.736004 7.2608 366.9424 7.2608 366.366397 7.2608 365.905602 7.36959891 365.56 7.5872 365.214398 7.80480109 364.920001 8.04799866 364.6768 8.3168L362.8912 8.0672 363.3904.5984 370.9936.5984 370.9936 2.48zM383.1472 14L374.0464 14 374.0464 11.9264 378.328 8.1056C379.006403 7.49119693 379.527998 6.90560278 379.8928 6.3488 380.257602 5.79199722 380.44 5.20640307 380.44 4.592L380.44 4.3424C380.44 3.68959674 380.244802 3.17760186 379.8544 2.8064 379.463998 2.43519814 378.936003 2.2496 378.2704 2.2496 377.899198 2.2496 377.576001 2.30399946 377.3008 2.4128 377.025599 2.52160054 376.785601 2.67199904 376.5808 2.864 376.375999 3.05600096 376.206401 3.27999872 376.072 3.536 375.937599 3.79200128 375.832 4.06719853 375.7552 4.3616L373.8544 3.632C373.995201 3.20959789 374.187199 2.80320195 374.4304 2.4128 374.673601 2.02239805 374.980798 1.67360154 375.352 1.3664 375.723202 1.05919846 376.161597.816000896 376.6672.6368 377.172803.457599104 377.764797.368 378.4432.368 379.121603.368 379.729597.467199008 380.2672.6656 380.804803.864000992 381.255998 1.13919824 381.6208 1.4912 381.985602 1.84320176 382.263999 2.26239757 382.456 2.7488 382.648001 3.23520243 382.744 3.76639712 382.744 4.3424 382.744 4.88000269 382.660801 5.3791977 382.4944 5.84 382.327999 6.3008023 382.097601 6.73599795 381.8032 7.1456 381.508799 7.55520205 381.166402 7.94559814 380.776 8.3168 380.385598 8.68800186 379.972802 9.06559808 379.5376 9.4496L376.3888 12.1568 383.1472 12.1568 383.1472 14z"/>
      <polygon points="281.41 14 281.41 12.195 285.173 12.195 285.173 2.173 285.019 2.173 281.909 5.494 280.584 4.304 284.002 .598 287.304 .598 287.304 12.195 290.568 12.195 290.568 14"/>
      <path d="M300.9936,2.48 L295.0416,2.48 L294.696,7.2224 L294.8304,7.2224 C294.984001,6.95359866 295.143999,6.71360106 295.3104,6.5024 C295.476801,6.29119894 295.668799,6.10880077 295.8864,5.9552 C296.104001,5.80159923 296.353599,5.68320042 296.6352,5.6 C296.916801,5.51679958 297.249598,5.4752 297.6336,5.4752 C298.209603,5.4752 298.743998,5.57119904 299.2368,5.7632 C299.729602,5.95520096 300.158398,6.23039821 300.5232,6.5888 C300.888002,6.94720179 301.172799,7.38559741 301.3776,7.904 C301.582401,8.42240259 301.6848,9.00799674 301.6848,9.6608 C301.6848,10.3264033 301.579201,10.9407972 301.368,11.504 C301.156799,12.0672028 300.846402,12.550398 300.4368,12.9536 C300.027198,13.356802 299.524803,13.6703989 298.9296,13.8944 C298.334397,14.1184011 297.659204,14.2304 296.904,14.2304 C296.302397,14.2304 295.771202,14.1632007 295.3104,14.0288 C294.849598,13.8943993 294.443202,13.7152011 294.0912,13.4912 C293.739198,13.2671989 293.432001,13.0112014 293.1696,12.7232 C292.907199,12.4351986 292.673601,12.1376015 292.4688,11.8304 L294.0432,10.5824 C294.209601,10.8512013 294.382399,11.0943989 294.5616,11.312 C294.740801,11.5296011 294.945599,11.7215992 295.176,11.888 C295.406401,12.0544008 295.665599,12.1823996 295.9536,12.272 C296.241601,12.3616004 296.571198,12.4064 296.9424,12.4064 C297.736004,12.4064 298.347198,12.1888022 298.776,11.7536 C299.204802,11.3183978 299.4192,10.7168038 299.4192,9.9488 L299.4192,9.7184 C299.4192,8.95039616 299.204802,8.34880218 298.776,7.9136 C298.347198,7.47839782 297.736004,7.2608 296.9424,7.2608 C296.366397,7.2608 295.905602,7.36959891 295.56,7.5872 C295.214398,7.80480109 294.920001,8.04799866 294.6768,8.3168 L292.8912,8.0672 L293.3904,0.5984 L300.9936,0.5984 L300.9936,2.48 Z"/>
      <polygon points="304.45 14 304.45 12.195 308.213 12.195 308.213 2.173 308.059 2.173 304.949 5.494 303.624 4.304 307.042 .598 310.344 .598 310.344 12.195 313.608 12.195 313.608 14"/>
      <path d="M238.52,14.2304 C237.687996,14.2304 236.964803,14.0736016 236.3504,13.76 C235.735997,13.4463984 235.230402,12.9952029 234.8336,12.4064 C234.436798,11.8175971 234.142401,11.0944043 233.9504,10.2368 C233.758399,9.37919571 233.6624,8.4000055 233.6624,7.2992 C233.6624,6.21119456 233.758399,5.23520432 233.9504,4.3712 C234.142401,3.50719568 234.436798,2.78080294 234.8336,2.192 C235.230402,1.60319706 235.735997,1.15200157 236.3504,0.8384 C236.964803,0.524798432 237.687996,0.368 238.52,0.368 C240.184008,0.368 241.409596,0.97599392 242.1968,2.192 C242.984004,3.40800608 243.3776,5.11038906 243.3776,7.2992 C243.3776,9.48801094 242.984004,11.1903939 242.1968,12.4064 C241.409596,13.6224061 240.184008,14.2304 238.52,14.2304 Z M238.52,12.3872 C238.980802,12.3872 239.374398,12.2944009 239.7008,12.1088 C240.027202,11.9231991 240.292799,11.6576017 240.4976,11.312 C240.702401,10.9663983 240.8496,10.5536024 240.9392,10.0736 C241.0288,9.5935976 241.0736,9.05920294 241.0736,8.4704 L241.0736,6.128 C241.0736,5.53919706 241.0288,5.0048024 240.9392,4.5248 C240.8496,4.0447976 240.702401,3.63200173 240.4976,3.2864 C240.292799,2.94079827 240.027202,2.67520093 239.7008,2.4896 C239.374398,2.30399907 238.980802,2.2112 238.52,2.2112 C238.059198,2.2112 237.665602,2.30399907 237.3392,2.4896 C237.012798,2.67520093 236.747201,2.94079827 236.5424,3.2864 C236.337599,3.63200173 236.1904,4.0447976 236.1008,4.5248 C236.0112,5.0048024 235.9664,5.53919706 235.9664,6.128 L235.9664,8.4704 C235.9664,9.05920294 236.0112,9.5935976 236.1008,10.0736 C236.1904,10.5536024 236.337599,10.9663983 236.5424,11.312 C236.747201,11.6576017 237.012798,11.9231991 237.3392,12.1088 C237.665602,12.2944009 238.059198,12.3872 238.52,12.3872 Z"/>
      <polygon points="211.41 14 211.41 12.195 215.173 12.195 215.173 2.173 215.019 2.173 211.909 5.494 210.584 4.304 214.002 .598 217.304 .598 217.304 12.195 220.568 12.195 220.568 14"/>
      <path d="M230.9936 2.48L225.0416 2.48 224.696 7.2224 224.8304 7.2224C224.984001 6.95359866 225.143999 6.71360106 225.3104 6.5024 225.476801 6.29119894 225.668799 6.10880077 225.8864 5.9552 226.104001 5.80159923 226.353599 5.68320042 226.6352 5.6 226.916801 5.51679958 227.249598 5.4752 227.6336 5.4752 228.209603 5.4752 228.743998 5.57119904 229.2368 5.7632 229.729602 5.95520096 230.158398 6.23039821 230.5232 6.5888 230.888002 6.94720179 231.172799 7.38559741 231.3776 7.904 231.582401 8.42240259 231.6848 9.00799674 231.6848 9.6608 231.6848 10.3264033 231.579201 10.9407972 231.368 11.504 231.156799 12.0672028 230.846402 12.550398 230.4368 12.9536 230.027198 13.356802 229.524803 13.6703989 228.9296 13.8944 228.334397 14.1184011 227.659204 14.2304 226.904 14.2304 226.302397 14.2304 225.771202 14.1632007 225.3104 14.0288 224.849598 13.8943993 224.443202 13.7152011 224.0912 13.4912 223.739198 13.2671989 223.432001 13.0112014 223.1696 12.7232 222.907199 12.4351986 222.673601 12.1376015 222.4688 11.8304L224.0432 10.5824C224.209601 10.8512013 224.382399 11.0943989 224.5616 11.312 224.740801 11.5296011 224.945599 11.7215992 225.176 11.888 225.406401 12.0544008 225.665599 12.1823996 225.9536 12.272 226.241601 12.3616004 226.571198 12.4064 226.9424 12.4064 227.736004 12.4064 228.347198 12.1888022 228.776 11.7536 229.204802 11.3183978 229.4192 10.7168038 229.4192 9.9488L229.4192 9.7184C229.4192 8.95039616 229.204802 8.34880218 228.776 7.9136 228.347198 7.47839782 227.736004 7.2608 226.9424 7.2608 226.366397 7.2608 225.905602 7.36959891 225.56 7.5872 225.214398 7.80480109 224.920001 8.04799866 224.6768 8.3168L222.8912 8.0672 223.3904.5984 230.9936.5984 230.9936 2.48zM141.4096 14L141.4096 12.1952 145.1728 12.1952 145.1728 2.1728 145.0192 2.1728 141.9088 5.4944 140.584 4.304 144.0016.5984 147.304.5984 147.304 12.1952 150.568 12.1952 150.568 14 141.4096 14zM158.1328 14L158.1328 11.3888 151.912 11.3888 151.912 9.5264 157.3456.5984 160.1872.5984 160.1872 9.68 162.0112 9.68 162.0112 11.3888 160.1872 11.3888 160.1872 14 158.1328 14zM153.7552 9.68L158.1328 9.68 158.1328 2.576 157.9984 2.576 153.7552 9.68zM173.2048 5.5904C173.2048 6.56320486 173.057601 7.47839571 172.7632 8.336 172.468799 9.19360429 172.091202 9.98079642 171.6304 10.6976 171.169598 11.4144036 170.654403 12.0543972 170.0848 12.6176 169.515197 13.1808028 168.955203 13.6415982 168.4048 14L165.5248 14C166.280004 13.4495972 166.958397 12.9184026 167.56 12.4064 168.161603 11.8943974 168.686398 11.3696027 169.1344 10.832 169.582402 10.2943973 169.956798 9.72480301 170.2576 9.1232 170.558402 8.52159699 170.791999 7.86240358 170.9584 7.1456L170.824 7.1072C170.683199 7.37600134 170.520001 7.62879882 170.3344 7.8656 170.148799 8.10240118 169.931201 8.3103991 169.6816 8.4896 169.431999 8.6688009 169.147202 8.80959949 168.8272 8.912 168.507198 9.01440051 168.136002 9.0656 167.7136 9.0656 167.150397 9.0656 166.628802 8.96960096 166.1488 8.7776 165.668798 8.58559904 165.252802 8.30720182 164.9008 7.9424 164.548798 7.57759818 164.273601 7.14240253 164.0752 6.6368 163.876799 6.13119747 163.7776 5.5584032 163.7776 4.9184 163.7776 4.25279667 163.889599 3.63840282 164.1136 3.0752 164.337601 2.51199718 164.654398 2.03200198 165.064 1.6352 165.473602 1.23839802 165.966397.92800112 166.5424.704 167.118403.47999888 167.764796.368 168.4816.368 169.224004.368 169.886397.489598784 170.4688.7328 171.051203.976001216 171.543998 1.32479773 171.9472 1.7792 172.350402 2.23360227 172.660799 2.7807968 172.8784 3.4208 173.096001 4.0608032 173.2048 4.78399597 173.2048 5.5904zM168.4816 7.3184C169.262404 7.3184 169.870398 7.11040208 170.3056 6.6944 170.740802 6.27839792 170.9584 5.66720403 170.9584 4.8608L170.9584 4.592C170.9584 3.78559597 170.740802 3.17440208 170.3056 2.7584 169.870398 2.34239792 169.262404 2.1344 168.4816 2.1344 167.700796 2.1344 167.092802 2.34239792 166.6576 2.7584 166.222398 3.17440208 166.0048 3.78559597 166.0048 4.592L166.0048 4.8608C166.0048 5.66720403 166.222398 6.27839792 166.6576 6.6944 167.092802 7.11040208 167.700796 7.3184 168.4816 7.3184zM71.4096 14L71.4096 12.1952 75.1728 12.1952 75.1728 2.1728 75.0192 2.1728 71.9088 5.4944 70.584 4.304 74.0016.5984 77.304.5984 77.304 12.1952 80.568 12.1952 80.568 14 71.4096 14zM88.1328 14L88.1328 11.3888 81.912 11.3888 81.912 9.5264 87.3456.5984 90.1872.5984 90.1872 9.68 92.0112 9.68 92.0112 11.3888 90.1872 11.3888 90.1872 14 88.1328 14zM83.7552 9.68L88.1328 9.68 88.1328 2.576 87.9984 2.576 83.7552 9.68zM98.52 14.2304C97.7391961 14.2304 97.051203 14.131201 96.456 13.9328 95.860797 13.734399 95.361602 13.4624017 94.9584 13.1168 94.555198 12.7711983 94.2480011 12.3616024 94.0368 11.888 93.8255989 11.4143976 93.72 10.9024028 93.72 10.352 93.72 9.45599552 93.9663975 8.73600272 94.4592 8.192 94.9520025 7.64799728 95.601596 7.26720109 96.408 7.0496L96.408 6.896C95.7167965 6.65279878 95.1632021 6.26880262 94.7472 5.744 94.3311979 5.21919738 94.1232 4.57280384 94.1232 3.8048 94.1232 3.29279744 94.222399 2.82560211 94.4208 2.4032 94.619201 1.98079789 94.9039981 1.6192015 95.2752 1.3184 95.6464019 1.0175985 96.1071972.784000832 96.6576.6176 97.2080028.451199168 97.8287965.368 98.52.368 99.2112035.368 99.8319972.451199168 100.3824.6176 100.932803.784000832 101.393598 1.0175985 101.7648 1.3184 102.136002 1.6192015 102.420799 1.98079789 102.6192 2.4032 102.817601 2.82560211 102.9168 3.29279744 102.9168 3.8048 102.9168 4.57280384 102.708802 5.21919738 102.2928 5.744 101.876798 6.26880262 101.323203 6.65279878 100.632 6.896L100.632 7.0496C101.438404 7.26720109 102.087998 7.64799728 102.5808 8.192 103.073602 8.73600272 103.32 9.45599552 103.32 10.352 103.32 10.9024028 103.214401 11.4143976 103.0032 11.888 102.791999 12.3616024 102.484802 12.7711983 102.0816 13.1168 101.678398 13.4624017 101.179203 13.734399 100.584 13.9328 99.988797 14.131201 99.3008039 14.2304 98.52 14.2304zM98.52 12.4832C99.326404 12.4832 99.9503978 12.2976019 100.392 11.9264 100.833602 11.5551981 101.0544 11.0368033 101.0544 10.3712L101.0544 9.9872C101.0544 9.32159667 100.833602 8.80320186 100.392 8.432 99.9503978 8.06079814 99.326404 7.8752 98.52 7.8752 97.713596 7.8752 97.0896022 8.06079814 96.648 8.432 96.2063978 8.80320186 95.9856 9.32159667 95.9856 9.9872L95.9856 10.3712C95.9856 11.0368033 96.2063978 11.5551981 96.648 11.9264 97.0896022 12.2976019 97.713596 12.4832 98.52 12.4832zM98.52 6.2048C99.2624037 6.2048 99.828798 6.0448016 100.2192 5.7248 100.609602 5.4047984 100.8048 4.93760307 100.8048 4.3232L100.8048 3.9968C100.8048 3.38239693 100.609602 2.9152016 100.2192 2.5952 99.828798 2.2751984 99.2624037 2.1152 98.52 2.1152 97.7775963 2.1152 97.211202 2.2751984 96.8208 2.5952 96.430398 2.9152016 96.2352 3.38239693 96.2352 3.9968L96.2352 4.3232C96.2352 4.93760307 96.430398 5.4047984 96.8208 5.7248 97.211202 6.0448016 97.7775963 6.2048 98.52 6.2048zM232.76 181.2304C231.927996 181.2304 231.204803 181.073602 230.5904 180.76 229.975997 180.446398 229.470402 179.995203 229.0736 179.4064 228.676798 178.817597 228.382401 178.094404 228.1904 177.2368 227.998399 176.379196 227.9024 175.400006 227.9024 174.2992 227.9024 173.211195 227.998399 172.235204 228.1904 171.3712 228.382401 170.507196 228.676798 169.780803 229.0736 169.192 229.470402 168.603197 229.975997 168.152002 230.5904 167.8384 231.204803 167.524798 231.927996 167.368 232.76 167.368 234.424008 167.368 235.649596 167.975994 236.4368 169.192 237.224004 170.408006 237.6176 172.110389 237.6176 174.2992 237.6176 176.488011 237.224004 178.190394 236.4368 179.4064 235.649596 180.622406 234.424008 181.2304 232.76 181.2304zM232.76 179.3872C233.220802 179.3872 233.614398 179.294401 233.9408 179.1088 234.267202 178.923199 234.532799 178.657602 234.7376 178.312 234.942401 177.966398 235.0896 177.553602 235.1792 177.0736 235.2688 176.593598 235.3136 176.059203 235.3136 175.4704L235.3136 173.128C235.3136 172.539197 235.2688 172.004802 235.1792 171.5248 235.0896 171.044798 234.942401 170.632002 234.7376 170.2864 234.532799 169.940798 234.267202 169.675201 233.9408 169.4896 233.614398 169.303999 233.220802 169.2112 232.76 169.2112 232.299198 169.2112 231.905602 169.303999 231.5792 169.4896 231.252798 169.675201 230.987201 169.940798 230.7824 170.2864 230.577599 170.632002 230.4304 171.044798 230.3408 171.5248 230.2512 172.004802 230.2064 172.539197 230.2064 173.128L230.2064 175.4704C230.2064 176.059203 230.2512 176.593598 230.3408 177.0736 230.4304 177.553602 230.577599 177.966398 230.7824 178.312 230.987201 178.657602 231.252798 178.923199 231.5792 179.1088 231.905602 179.294401 232.299198 179.3872 232.76 179.3872zM220.5104 173.1088C221.342404 173.1088 221.956798 172.932802 222.3536 172.5808 222.750402 172.228798 222.9488 171.777603 222.9488 171.2272L222.9488 171.0928C222.9488 170.478397 222.756802 170.008002 222.3728 169.6816 221.988798 169.355198 221.470403 169.192 220.8176 169.192 220.177597 169.192 219.633602 169.335999 219.1856 169.624 218.737598 169.912001 218.360002 170.311997 218.0528 170.824L216.6128 169.576C216.817601 169.281599 217.047999 169.000001 217.304 168.7312 217.560001 168.462399 217.860798 168.228801 218.2064 168.0304 218.552002 167.831999 218.942398 167.672001 219.3776 167.5504 219.812802 167.428799 220.311997 167.368 220.8752 167.368 221.502403 167.368 222.084797 167.444799 222.6224 167.5984 223.160003 167.752001 223.620798 167.979198 224.0048 168.28 224.388802 168.580802 224.689599 168.945598 224.9072 169.3744 225.124801 169.803202 225.2336 170.286397 225.2336 170.824 225.2336 171.246402 225.166401 171.630398 225.032 171.976 224.897599 172.321602 224.712001 172.625599 224.4752 172.888 224.238399 173.150401 223.963202 173.364799 223.6496 173.5312 223.335998 173.697601 223.006402 173.8192 222.6608 173.896L222.6608 173.992C223.044802 174.0688 223.406398 174.193599 223.7456 174.3664 224.084802 174.539201 224.382399 174.763199 224.6384 175.0384 224.894401 175.313601 225.095999 175.639998 225.2432 176.0176 225.390401 176.395202 225.464 176.827198 225.464 177.3136 225.464 177.902403 225.348801 178.436798 225.1184 178.9168 224.887999 179.396802 224.564802 179.809598 224.1488 180.1552 223.732798 180.500802 223.230403 180.766399 222.6416 180.952 222.052797 181.137601 221.400004 181.2304 220.6832 181.2304 220.055997 181.2304 219.505602 181.163201 219.032 181.0288 218.558398 180.894399 218.139202 180.715201 217.7744 180.4912 217.409598 180.267199 217.089601 180.011201 216.8144 179.7232 216.539199 179.435199 216.299201 179.137602 216.0944 178.8304L217.688 177.5824C217.854401 177.851201 218.030399 178.097599 218.216 178.3216 218.401601 178.545601 218.612799 178.737599 218.8496 178.8976 219.086401 179.057601 219.355198 179.1824 219.656 179.272 219.956802 179.3616 220.299198 179.4064 220.6832 179.4064 221.502404 179.4064 222.129598 179.211202 222.5648 178.8208 223.000002 178.430398 223.2176 177.889603 223.2176 177.1984L223.2176 177.064C223.2176 176.372797 222.987202 175.848002 222.5264 175.4896 222.065598 175.131198 221.412804 174.952 220.568 174.952L219.1472 174.952 219.1472 173.1088 220.5104 173.1088zM18.1328 14L18.1328 11.3888 11.912 11.3888 11.912 9.5264 17.3456.5984 20.1872.5984 20.1872 9.68 22.0112 9.68 22.0112 11.3888 20.1872 11.3888 20.1872 14 18.1328 14zM13.7552 9.68L18.1328 9.68 18.1328 2.576 17.9984 2.576 13.7552 9.68zM26.0432 14L30.9008 2.384 25.832 2.384 25.832 4.8608 23.9696 4.8608 23.9696.5984 33.0512.5984 33.0512 2.48 28.328 14 26.0432 14z"/>
      <polygon points="1.41 14 1.41 12.195 5.173 12.195 5.173 2.173 5.019 2.173 1.909 5.494 .584 4.304 4.002 .598 7.304 .598 7.304 12.195 10.568 12.195 10.568 14"/>
      <path d="M167.4448 172.5904C167.4448 173.563205 167.297601 174.478396 167.0032 175.336 166.708799 176.193604 166.331202 176.980796 165.8704 177.6976 165.409598 178.414404 164.894403 179.054397 164.3248 179.6176 163.755197 180.180803 163.195203 180.641598 162.6448 181L159.7648 181C160.520004 180.449597 161.198397 179.918403 161.8 179.4064 162.401603 178.894397 162.926398 178.369603 163.3744 177.832 163.822402 177.294397 164.196798 176.724803 164.4976 176.1232 164.798402 175.521597 165.031999 174.862404 165.1984 174.1456L165.064 174.1072C164.923199 174.376001 164.760001 174.628799 164.5744 174.8656 164.388799 175.102401 164.171201 175.310399 163.9216 175.4896 163.671999 175.668801 163.387202 175.809599 163.0672 175.912 162.747198 176.014401 162.376002 176.0656 161.9536 176.0656 161.390397 176.0656 160.868802 175.969601 160.3888 175.7776 159.908798 175.585599 159.492802 175.307202 159.1408 174.9424 158.788798 174.577598 158.513601 174.142403 158.3152 173.6368 158.116799 173.131197 158.0176 172.558403 158.0176 171.9184 158.0176 171.252797 158.129599 170.638403 158.3536 170.0752 158.577601 169.511997 158.894398 169.032002 159.304 168.6352 159.713602 168.238398 160.206397 167.928001 160.7824 167.704 161.358403 167.479999 162.004796 167.368 162.7216 167.368 163.464004 167.368 164.126397 167.489599 164.7088 167.7328 165.291203 167.976001 165.783998 168.324798 166.1872 168.7792 166.590402 169.233602 166.900799 169.780797 167.1184 170.4208 167.336001 171.060803 167.4448 171.783996 167.4448 172.5904zM162.7216 174.3184C163.502404 174.3184 164.110398 174.110402 164.5456 173.6944 164.980802 173.278398 165.1984 172.667204 165.1984 171.8608L165.1984 171.592C165.1984 170.785596 164.980802 170.174402 164.5456 169.7584 164.110398 169.342398 163.502404 169.1344 162.7216 169.1344 161.940796 169.1344 161.332802 169.342398 160.8976 169.7584 160.462398 170.174402 160.2448 170.785596 160.2448 171.592L160.2448 171.8608C160.2448 172.667204 160.462398 173.278398 160.8976 173.6944 161.332802 174.110402 161.940796 174.3184 162.7216 174.3184zM155.8672 181L146.7664 181 146.7664 178.9264 151.048 175.1056C151.726403 174.491197 152.247998 173.905603 152.6128 173.3488 152.977602 172.791997 153.16 172.206403 153.16 171.592L153.16 171.3424C153.16 170.689597 152.964802 170.177602 152.5744 169.8064 152.183998 169.435198 151.656003 169.2496 150.9904 169.2496 150.619198 169.2496 150.296001 169.303999 150.0208 169.4128 149.745599 169.521601 149.505601 169.671999 149.3008 169.864 149.095999 170.056001 148.926401 170.279999 148.792 170.536 148.657599 170.792001 148.552 171.067199 148.4752 171.3616L146.5744 170.632C146.715201 170.209598 146.907199 169.803202 147.1504 169.4128 147.393601 169.022398 147.700798 168.673602 148.072 168.3664 148.443202 168.059198 148.881597 167.816001 149.3872 167.6368 149.892803 167.457599 150.484797 167.368 151.1632 167.368 151.841603 167.368 152.449597 167.467199 152.9872 167.6656 153.524803 167.864001 153.975998 168.139198 154.3408 168.4912 154.705602 168.843202 154.983999 169.262398 155.176 169.7488 155.368001 170.235202 155.464 170.766397 155.464 171.3424 155.464 171.880003 155.380801 172.379198 155.2144 172.84 155.047999 173.300802 154.817601 173.735998 154.5232 174.1456 154.228799 174.555202 153.886402 174.945598 153.496 175.3168 153.105598 175.688002 152.692802 176.065598 152.2576 176.4496L149.1088 179.1568 155.8672 179.1568 155.8672 181z"/>
      <polygon points="421.41 14 421.41 12.195 425.173 12.195 425.173 2.173 425.019 2.173 421.909 5.494 420.584 4.304 424.002 .598 427.304 .598 427.304 12.195 430.568 12.195 430.568 14"/>
      <path d="M440.9936 2.48L435.0416 2.48 434.696 7.2224 434.8304 7.2224C434.984001 6.95359866 435.143999 6.71360106 435.3104 6.5024 435.476801 6.29119894 435.668799 6.10880077 435.8864 5.9552 436.104001 5.80159923 436.353599 5.68320042 436.6352 5.6 436.916801 5.51679958 437.249598 5.4752 437.6336 5.4752 438.209603 5.4752 438.743998 5.57119904 439.2368 5.7632 439.729602 5.95520096 440.158398 6.23039821 440.5232 6.5888 440.888002 6.94720179 441.172799 7.38559741 441.3776 7.904 441.582401 8.42240259 441.6848 9.00799674 441.6848 9.6608 441.6848 10.3264033 441.579201 10.9407972 441.368 11.504 441.156799 12.0672028 440.846402 12.550398 440.4368 12.9536 440.027198 13.356802 439.524803 13.6703989 438.9296 13.8944 438.334397 14.1184011 437.659204 14.2304 436.904 14.2304 436.302397 14.2304 435.771202 14.1632007 435.3104 14.0288 434.849598 13.8943993 434.443202 13.7152011 434.0912 13.4912 433.739198 13.2671989 433.432001 13.0112014 433.1696 12.7232 432.907199 12.4351986 432.673601 12.1376015 432.4688 11.8304L434.0432 10.5824C434.209601 10.8512013 434.382399 11.0943989 434.5616 11.312 434.740801 11.5296011 434.945599 11.7215992 435.176 11.888 435.406401 12.0544008 435.665599 12.1823996 435.9536 12.272 436.241601 12.3616004 436.571198 12.4064 436.9424 12.4064 437.736004 12.4064 438.347198 12.1888022 438.776 11.7536 439.204802 11.3183978 439.4192 10.7168038 439.4192 9.9488L439.4192 9.7184C439.4192 8.95039616 439.204802 8.34880218 438.776 7.9136 438.347198 7.47839782 437.736004 7.2608 436.9424 7.2608 436.366397 7.2608 435.905602 7.36959891 435.56 7.5872 435.214398 7.80480109 434.920001 8.04799866 434.6768 8.3168L432.8912 8.0672 433.3904.5984 440.9936.5984 440.9936 2.48zM447.7904 6.1088C448.622404 6.1088 449.236798 5.93280176 449.6336 5.5808 450.030402 5.22879824 450.2288 4.77760275 450.2288 4.2272L450.2288 4.0928C450.2288 3.47839693 450.036802 3.00800163 449.6528 2.6816 449.268798 2.35519837 448.750403 2.192 448.0976 2.192 447.457597 2.192 446.913602 2.33599856 446.4656 2.624 446.017598 2.91200144 445.640002 3.31199744 445.3328 3.824L443.8928 2.576C444.097601 2.28159853 444.327999 2.00000134 444.584 1.7312 444.840001 1.46239866 445.140798 1.22880099 445.4864 1.0304 445.832002.831999008 446.222398.672000608 446.6576.5504 447.092802.428799392 447.591997.368 448.1552.368 448.782403.368 449.364797.444799232 449.9024.5984 450.440003.752000768 450.900798.979198496 451.2848 1.28 451.668802 1.5808015 451.969599 1.94559786 452.1872 2.3744 452.404801 2.80320214 452.5136 3.28639731 452.5136 3.824 452.5136 4.24640211 452.446401 4.63039827 452.312 4.976 452.177599 5.32160173 451.992001 5.62559869 451.7552 5.888 451.518399 6.15040131 451.243202 6.36479917 450.9296 6.5312 450.615998 6.69760083 450.286402 6.81919962 449.9408 6.896L449.9408 6.992C450.324802 7.06880038 450.686398 7.19359914 451.0256 7.3664 451.364802 7.53920086 451.662399 7.76319862 451.9184 8.0384 452.174401 8.31360138 452.375999 8.63999811 452.5232 9.0176 452.670401 9.39520189 452.744 9.82719757 452.744 10.3136 452.744 10.9024029 452.628801 11.4367976 452.3984 11.9168 452.167999 12.3968024 451.844802 12.8095983 451.4288 13.1552 451.012798 13.5008017 450.510403 13.7663991 449.9216 13.952 449.332797 14.1376009 448.680004 14.2304 447.9632 14.2304 447.335997 14.2304 446.785602 14.1632007 446.312 14.0288 445.838398 13.8943993 445.419202 13.7152011 445.0544 13.4912 444.689598 13.2671989 444.369601 13.0112014 444.0944 12.7232 443.819199 12.4351986 443.579201 12.1376015 443.3744 11.8304L444.968 10.5824C445.134401 10.8512013 445.310399 11.0975989 445.496 11.3216 445.681601 11.5456011 445.892799 11.7375992 446.1296 11.8976 446.366401 12.0576008 446.635198 12.1823996 446.936 12.272 447.236802 12.3616004 447.579198 12.4064 447.9632 12.4064 448.782404 12.4064 449.409598 12.211202 449.8448 11.8208 450.280002 11.430398 450.4976 10.8896035 450.4976 10.1984L450.4976 10.064C450.4976 9.37279654 450.267202 8.84800179 449.8064 8.4896 449.345598 8.13119821 448.692804 7.952 447.848 7.952L446.4272 7.952 446.4272 6.1088 447.7904 6.1088zM290.5104 173.1088C291.342404 173.1088 291.956798 172.932802 292.3536 172.5808 292.750402 172.228798 292.9488 171.777603 292.9488 171.2272L292.9488 171.0928C292.9488 170.478397 292.756802 170.008002 292.3728 169.6816 291.988798 169.355198 291.470403 169.192 290.8176 169.192 290.177597 169.192 289.633602 169.335999 289.1856 169.624 288.737598 169.912001 288.360002 170.311997 288.0528 170.824L286.6128 169.576C286.817601 169.281599 287.047999 169.000001 287.304 168.7312 287.560001 168.462399 287.860798 168.228801 288.2064 168.0304 288.552002 167.831999 288.942398 167.672001 289.3776 167.5504 289.812802 167.428799 290.311997 167.368 290.8752 167.368 291.502403 167.368 292.084797 167.444799 292.6224 167.5984 293.160003 167.752001 293.620798 167.979198 294.0048 168.28 294.388802 168.580802 294.689599 168.945598 294.9072 169.3744 295.124801 169.803202 295.2336 170.286397 295.2336 170.824 295.2336 171.246402 295.166401 171.630398 295.032 171.976 294.897599 172.321602 294.712001 172.625599 294.4752 172.888 294.238399 173.150401 293.963202 173.364799 293.6496 173.5312 293.335998 173.697601 293.006402 173.8192 292.6608 173.896L292.6608 173.992C293.044802 174.0688 293.406398 174.193599 293.7456 174.3664 294.084802 174.539201 294.382399 174.763199 294.6384 175.0384 294.894401 175.313601 295.095999 175.639998 295.2432 176.0176 295.390401 176.395202 295.464 176.827198 295.464 177.3136 295.464 177.902403 295.348801 178.436798 295.1184 178.9168 294.887999 179.396802 294.564802 179.809598 294.1488 180.1552 293.732798 180.500802 293.230403 180.766399 292.6416 180.952 292.052797 181.137601 291.400004 181.2304 290.6832 181.2304 290.055997 181.2304 289.505602 181.163201 289.032 181.0288 288.558398 180.894399 288.139202 180.715201 287.7744 180.4912 287.409598 180.267199 287.089601 180.011201 286.8144 179.7232 286.539199 179.435199 286.299201 179.137602 286.0944 178.8304L287.688 177.5824C287.854401 177.851201 288.030399 178.097599 288.216 178.3216 288.401601 178.545601 288.612799 178.737599 288.8496 178.8976 289.086401 179.057601 289.355198 179.1824 289.656 179.272 289.956802 179.3616 290.299198 179.4064 290.6832 179.4064 291.502404 179.4064 292.129598 179.211202 292.5648 178.8208 293.000002 178.430398 293.2176 177.889603 293.2176 177.1984L293.2176 177.064C293.2176 176.372797 292.987202 175.848002 292.5264 175.4896 292.065598 175.131198 291.412804 174.952 290.568 174.952L289.1472 174.952 289.1472 173.1088 290.5104 173.1088z"/>
      <polygon points="298.69 181 298.69 179.195 302.453 179.195 302.453 169.173 302.299 169.173 299.189 172.494 297.864 171.304 301.282 167.598 304.584 167.598 304.584 179.195 307.848 179.195 307.848 181"/>
    </g>
    <polygon fill="#333" points="280 156 285.5 167 274.5 167" transform="rotate(-180 280 161.5)"/>
    <polygon fill="#333" points="210 156 215.5 167 204.5 167" transform="rotate(-180 210 161.5)"/>
    <polygon fill="#333" points="350 156 355.5 167 344.5 167" transform="rotate(-180 350 161.5)"/>
    <rect width="80" height="173" x="-37" y="-10" fill="url(#alpha_premul_bits-a)"/>
    <rect width="80" height="173" x="103" y="157" fill="url(#alpha_premul_bits-a)"/>
    <rect width="80" height="173" x="377" y="157" fill="url(#alpha_premul_bits-b)" transform="matrix(-1 0 0 1 834 0)"/>
    <g stroke-width="2" transform="matrix(-1 0 0 1 770 35)">
      <path stroke="#DDD" d="M0,0 C0,61 420,61 420,122"/>
      <path stroke="#BBB" d="M70,0 C70,61 420,61 420,122"/>
      <path stroke="#999" d="M140,0 C140,61 420,61 420,122"/>
      <path stroke="#666" d="M210,0 C210,61 420,61 420,122"/>
      <path stroke="#333" d="M280,0 C280,61 420,61 420,122"/>
    </g>
    <rect width="80" height="173" x="517" fill="url(#alpha_premul_bits-b)" transform="matrix(-1 0 0 1 1114 0)"/>
  </g>
</svg>
