<svg xmlns="http://www.w3.org/2000/svg" width="624" height="100" viewBox="0 0 624 100">
  <defs>
    <linearGradient id="color_spectrum-a" x1="0%" y1="51.849%" y2="51.849%">
      <stop offset="0%" stop-color="#030018"/>
      <stop offset="1.351%" stop-color="#060021"/>
      <stop offset="2.703%" stop-color="#0B002F"/>
      <stop offset="4.054%" stop-color="#120040"/>
      <stop offset="5.405%" stop-color="#1B0057"/>
      <stop offset="6.757%" stop-color="#24006E"/>
      <stop offset="8.108%" stop-color="#330094"/>
      <stop offset="9.459%" stop-color="#4400C0"/>
      <stop offset="10.811%" stop-color="#5800F5"/>
      <stop offset="12.162%" stop-color="#6D00FF"/>
      <stop offset="13.514%" stop-color="#7900FF"/>
      <stop offset="14.865%" stop-color="#7D00FF"/>
      <stop offset="16.216%" stop-color="#7B00FF"/>
      <stop offset="17.568%" stop-color="#7200FF"/>
      <stop offset="18.919%" stop-color="#6200FF"/>
      <stop offset="20.27%" stop-color="#4800FF"/>
      <stop offset="21.622%" stop-color="#00F"/>
      <stop offset="22.973%" stop-color="#00F"/>
      <stop offset="24.324%" stop-color="#002DFF"/>
      <stop offset="25.676%" stop-color="#005EFF"/>
      <stop offset="27.027%" stop-color="#007CFF"/>
      <stop offset="28.378%" stop-color="#0092EB"/>
      <stop offset="29.73%" stop-color="#00A6CD"/>
      <stop offset="31.081%" stop-color="#00BAB1"/>
      <stop offset="32.432%" stop-color="#00CF97"/>
      <stop offset="33.784%" stop-color="#00E57D"/>
      <stop offset="35.135%" stop-color="#00FA5C"/>
      <stop offset="36.486%" stop-color="#00FF26"/>
      <stop offset="37.838%" stop-color="#0F0"/>
      <stop offset="39.189%" stop-color="#0F0"/>
      <stop offset="40.541%" stop-color="#0F0"/>
      <stop offset="41.892%" stop-color="#0F0"/>
      <stop offset="43.243%" stop-color="#0F0"/>
      <stop offset="44.595%" stop-color="#0F0"/>
      <stop offset="45.946%" stop-color="#0F0"/>
      <stop offset="47.297%" stop-color="#0F0"/>
      <stop offset="48.649%" stop-color="#8AFF00"/>
      <stop offset="50%" stop-color="#C2FF00"/>
      <stop offset="51.351%" stop-color="#EDFF00"/>
      <stop offset="52.703%" stop-color="#FFF700"/>
      <stop offset="54.054%" stop-color="#FFE300"/>
      <stop offset="55.405%" stop-color="#FC0"/>
      <stop offset="56.757%" stop-color="#FFB200"/>
      <stop offset="58.108%" stop-color="#FF9400"/>
      <stop offset="59.459%" stop-color="#FF7200"/>
      <stop offset="60.811%" stop-color="#FF4700"/>
      <stop offset="62.162%" stop-color="red"/>
      <stop offset="63.514%" stop-color="red"/>
      <stop offset="64.865%" stop-color="red"/>
      <stop offset="66.216%" stop-color="red"/>
      <stop offset="67.568%" stop-color="red"/>
      <stop offset="68.919%" stop-color="red"/>
      <stop offset="70.27%" stop-color="red"/>
      <stop offset="71.622%" stop-color="#F40000"/>
      <stop offset="72.973%" stop-color="#DC0000"/>
      <stop offset="74.324%" stop-color="#C40000"/>
      <stop offset="75.676%" stop-color="#AD0000"/>
      <stop offset="77.027%" stop-color="#970000"/>
      <stop offset="78.378%" stop-color="#820000"/>
      <stop offset="79.73%" stop-color="#700000"/>
      <stop offset="81.081%" stop-color="#610000"/>
      <stop offset="82.432%" stop-color="#520000"/>
      <stop offset="83.784%" stop-color="#400"/>
      <stop offset="85.135%" stop-color="#390000"/>
      <stop offset="86.486%" stop-color="#2F0000"/>
      <stop offset="87.838%" stop-color="#270000"/>
      <stop offset="89.189%" stop-color="#200000"/>
      <stop offset="90.541%" stop-color="#1A0000"/>
      <stop offset="91.892%" stop-color="#150000"/>
      <stop offset="93.243%" stop-color="#100000"/>
      <stop offset="94.595%" stop-color="#0C0000"/>
      <stop offset="95.946%" stop-color="#080000"/>
      <stop offset="97.297%" stop-color="#060000"/>
      <stop offset="98.649%" stop-color="#040000"/>
      <stop offset="100%" stop-color="#030000"/>
    </linearGradient>
  </defs>
  <g fill="none" fill-rule="evenodd">
    <rect width="600" height="42" x="12" y="12" fill="url(#color_spectrum-a)"/>
    <rect width="1" height="5" x="44" y="54" fill="#333"/>
    <rect width="1" height="5" x="124" y="54" fill="#333"/>
    <rect width="1" height="5" x="204" y="54" fill="#333"/>
    <rect width="1" height="5" x="284" y="54" fill="#333"/>
    <rect width="1" height="5" x="364" y="54" fill="#333"/>
    <rect width="1" height="5" x="444" y="54" fill="#333"/>
    <rect width="1" height="5" x="524" y="54" fill="#333"/>
    <rect width="1" height="5" x="604" y="54" fill="#333"/>
    <path fill="#333" d="M115.42 83L115.42 80.3696 108.9496 80.3696 108.9496 78.9488 114.556 69.5984 116.956 69.5984 116.956 79.0256 118.8952 79.0256 118.8952 80.3696 116.956 80.3696 116.956 83 115.42 83zM110.4664 79.0256L115.42 79.0256 115.42 70.8464 115.324 70.8464 110.4664 79.0256zM129.3016 71.0192L123.4264 71.0192 123.0424 76.1264 123.1768 76.1264C123.496802 75.6783978 123.858398 75.3200013 124.2616 75.0512 124.664802 74.7823987 125.218396 74.648 125.9224 74.648 126.498403 74.648 127.029598 74.743999 127.516 74.936 128.002402 75.128001 128.424798 75.3999982 128.7832 75.752 129.141602 76.1040018 129.419999 76.5359974 129.6184 77.048 129.816801 77.5600026 129.916 78.1423967 129.916 78.7952 129.916 79.4480033 129.813601 80.0463973 129.6088 80.5904 129.403999 81.1344027 129.106402 81.601598 128.716 81.992 128.325598 82.382402 127.852003 82.6863989 127.2952 82.904 126.738397 83.1216011 126.108004 83.2304 125.404 83.2304 124.840797 83.2304 124.344802 83.1664006 123.916 83.0384 123.487198 82.9103994 123.106402 82.7376011 122.7736 82.52 122.440798 82.3023989 122.149601 82.0592013 121.9 81.7904 121.650399 81.5215987 121.423201 81.2400015 121.2184 80.9456L122.428 80.024C122.594401 80.2928013 122.770399 80.5359989 122.956 80.7536 123.141601 80.9712011 123.346399 81.1567992 123.5704 81.3104 123.794401 81.4640008 124.053599 81.5823996 124.348 81.6656 124.642401 81.7488004 124.994398 81.7904 125.404 81.7904 126.325605 81.7904 127.023198 81.5472024 127.4968 81.0608 127.970402 80.5743976 128.2072 79.8896044 128.2072 79.0064L128.2072 78.8144C128.2072 77.9311956 127.970402 77.2464024 127.4968 76.76 127.023198 76.2735976 126.325605 76.0304 125.404 76.0304 124.789597 76.0304 124.306402 76.1423989 123.9544 76.3664 123.602398 76.5904011 123.285601 76.8559985 123.004 77.1632L121.6408 76.9712 122.1208 69.5984 129.3016 69.5984 129.3016 71.0192zM137.02 83.2304C135.419992 83.2304 134.252004 82.6224061 133.516 81.4064 132.779996 80.1903939 132.412 78.4880109 132.412 76.2992 132.412 74.1103891 132.779996 72.4080061 133.516 71.192 134.252004 69.9759939 135.419992 69.368 137.02 69.368 138.620008 69.368 139.787996 69.9759939 140.524 71.192 141.260004 72.4080061 141.628 74.1103891 141.628 76.2992 141.628 78.4880109 141.260004 80.1903939 140.524 81.4064 139.787996 82.6224061 138.620008 83.2304 137.02 83.2304zM137.02 81.8288C137.544803 81.8288 137.992798 81.7200011 138.364 81.5024 138.735202 81.2847989 139.035999 80.977602 139.2664 80.5808 139.496801 80.183998 139.666399 79.7168027 139.7752 79.1792 139.884001 78.6415973 139.9384 78.0464033 139.9384 77.3936L139.9384 75.2048C139.9384 74.5519967 139.884001 73.9568027 139.7752 73.4192 139.666399 72.8815973 139.496801 72.414402 139.2664 72.0176 139.035999 71.620798 138.735202 71.3136011 138.364 71.096 137.992798 70.8783989 137.544803 70.7696 137.02 70.7696 136.495197 70.7696 136.047202 70.8783989 135.676 71.096 135.304798 71.3136011 135.004001 71.620798 134.7736 72.0176 134.543199 72.414402 134.373601 72.8815973 134.2648 73.4192 134.155999 73.9568027 134.1016 74.5519967 134.1016 75.2048L134.1016 77.3936C134.1016 78.0464033 134.155999 78.6415973 134.2648 79.1792 134.373601 79.7168027 134.543199 80.183998 134.7736 80.5808 135.004001 80.977602 135.304798 81.2847989 135.676 81.5024 136.047202 81.7200011 136.495197 81.8288 137.02 81.8288zM197.7816 71.0192L191.9064 71.0192 191.5224 76.1264 191.6568 76.1264C191.976802 75.6783978 192.338398 75.3200013 192.7416 75.0512 193.144802 74.7823987 193.698396 74.648 194.4024 74.648 194.978403 74.648 195.509598 74.743999 195.996 74.936 196.482402 75.128001 196.904798 75.3999982 197.2632 75.752 197.621602 76.1040018 197.899999 76.5359974 198.0984 77.048 198.296801 77.5600026 198.396 78.1423967 198.396 78.7952 198.396 79.4480033 198.293601 80.0463973 198.0888 80.5904 197.883999 81.1344027 197.586402 81.601598 197.196 81.992 196.805598 82.382402 196.332003 82.6863989 195.7752 82.904 195.218397 83.1216011 194.588004 83.2304 193.884 83.2304 193.320797 83.2304 192.824802 83.1664006 192.396 83.0384 191.967198 82.9103994 191.586402 82.7376011 191.2536 82.52 190.920798 82.3023989 190.629601 82.0592013 190.38 81.7904 190.130399 81.5215987 189.903201 81.2400015 189.6984 80.9456L190.908 80.024C191.074401 80.2928013 191.250399 80.5359989 191.436 80.7536 191.621601 80.9712011 191.826399 81.1567992 192.0504 81.3104 192.274401 81.4640008 192.533599 81.5823996 192.828 81.6656 193.122401 81.7488004 193.474398 81.7904 193.884 81.7904 194.805605 81.7904 195.503198 81.5472024 195.9768 81.0608 196.450402 80.5743976 196.6872 79.8896044 196.6872 79.0064L196.6872 78.8144C196.6872 77.9311956 196.450402 77.2464024 195.9768 76.76 195.503198 76.2735976 194.805605 76.0304 193.884 76.0304 193.269597 76.0304 192.786402 76.1423989 192.4344 76.3664 192.082398 76.5904011 191.765601 76.8559985 191.484 77.1632L190.1208 76.9712 190.6008 69.5984 197.7816 69.5984 197.7816 71.0192zM205.5 83.2304C203.899992 83.2304 202.732004 82.6224061 201.996 81.4064 201.259996 80.1903939 200.892 78.4880109 200.892 76.2992 200.892 74.1103891 201.259996 72.4080061 201.996 71.192 202.732004 69.9759939 203.899992 69.368 205.5 69.368 207.100008 69.368 208.267996 69.9759939 209.004 71.192 209.740004 72.4080061 210.108 74.1103891 210.108 76.2992 210.108 78.4880109 209.740004 80.1903939 209.004 81.4064 208.267996 82.6224061 207.100008 83.2304 205.5 83.2304zM205.5 81.8288C206.024803 81.8288 206.472798 81.7200011 206.844 81.5024 207.215202 81.2847989 207.515999 80.977602 207.7464 80.5808 207.976801 80.183998 208.146399 79.7168027 208.2552 79.1792 208.364001 78.6415973 208.4184 78.0464033 208.4184 77.3936L208.4184 75.2048C208.4184 74.5519967 208.364001 73.9568027 208.2552 73.4192 208.146399 72.8815973 207.976801 72.414402 207.7464 72.0176 207.515999 71.620798 207.215202 71.3136011 206.844 71.096 206.472798 70.8783989 206.024803 70.7696 205.5 70.7696 204.975197 70.7696 204.527202 70.8783989 204.156 71.096 203.784798 71.3136011 203.484001 71.620798 203.2536 72.0176 203.023199 72.414402 202.853601 72.8815973 202.7448 73.4192 202.635999 73.9568027 202.5816 74.5519967 202.5816 75.2048L202.5816 77.3936C202.5816 78.0464033 202.635999 78.6415973 202.7448 79.1792 202.853601 79.7168027 203.023199 80.183998 203.2536 80.5808 203.484001 80.977602 203.784798 81.2847989 204.156 81.5024 204.527202 81.7200011 204.975197 81.8288 205.5 81.8288zM217.02 83.2304C215.419992 83.2304 214.252004 82.6224061 213.516 81.4064 212.779996 80.1903939 212.412 78.4880109 212.412 76.2992 212.412 74.1103891 212.779996 72.4080061 213.516 71.192 214.252004 69.9759939 215.419992 69.368 217.02 69.368 218.620008 69.368 219.787996 69.9759939 220.524 71.192 221.260004 72.4080061 221.628 74.1103891 221.628 76.2992 221.628 78.4880109 221.260004 80.1903939 220.524 81.4064 219.787996 82.6224061 218.620008 83.2304 217.02 83.2304zM217.02 81.8288C217.544803 81.8288 217.992798 81.7200011 218.364 81.5024 218.735202 81.2847989 219.035999 80.977602 219.2664 80.5808 219.496801 80.183998 219.666399 79.7168027 219.7752 79.1792 219.884001 78.6415973 219.9384 78.0464033 219.9384 77.3936L219.9384 75.2048C219.9384 74.5519967 219.884001 73.9568027 219.7752 73.4192 219.666399 72.8815973 219.496801 72.414402 219.2664 72.0176 219.035999 71.620798 218.735202 71.3136011 218.364 71.096 217.992798 70.8783989 217.544803 70.7696 217.02 70.7696 216.495197 70.7696 216.047202 70.8783989 215.676 71.096 215.304798 71.3136011 215.004001 71.620798 214.7736 72.0176 214.543199 72.414402 214.373601 72.8815973 214.2648 73.4192 214.155999 73.9568027 214.1016 74.5519967 214.1016 75.2048L214.1016 77.3936C214.1016 78.0464033 214.155999 78.6415973 214.2648 79.1792 214.373601 79.7168027 214.543199 80.183998 214.7736 80.5808 215.004001 80.977602 215.304798 81.2847989 215.676 81.5024 216.047202 81.7200011 216.495197 81.8288 217.02 81.8288zM277.7816 71.0192L271.9064 71.0192 271.5224 76.1264 271.6568 76.1264C271.976802 75.6783978 272.338398 75.3200013 272.7416 75.0512 273.144802 74.7823987 273.698396 74.648 274.4024 74.648 274.978403 74.648 275.509598 74.743999 275.996 74.936 276.482402 75.128001 276.904798 75.3999982 277.2632 75.752 277.621602 76.1040018 277.899999 76.5359974 278.0984 77.048 278.296801 77.5600026 278.396 78.1423967 278.396 78.7952 278.396 79.4480033 278.293601 80.0463973 278.0888 80.5904 277.883999 81.1344027 277.586402 81.601598 277.196 81.992 276.805598 82.382402 276.332003 82.6863989 275.7752 82.904 275.218397 83.1216011 274.588004 83.2304 273.884 83.2304 273.320797 83.2304 272.824802 83.1664006 272.396 83.0384 271.967198 82.9103994 271.586402 82.7376011 271.2536 82.52 270.920798 82.3023989 270.629601 82.0592013 270.38 81.7904 270.130399 81.5215987 269.903201 81.2400015 269.6984 80.9456L270.908 80.024C271.074401 80.2928013 271.250399 80.5359989 271.436 80.7536 271.621601 80.9712011 271.826399 81.1567992 272.0504 81.3104 272.274401 81.4640008 272.533599 81.5823996 272.828 81.6656 273.122401 81.7488004 273.474398 81.7904 273.884 81.7904 274.805605 81.7904 275.503198 81.5472024 275.9768 81.0608 276.450402 80.5743976 276.6872 79.8896044 276.6872 79.0064L276.6872 78.8144C276.6872 77.9311956 276.450402 77.2464024 275.9768 76.76 275.503198 76.2735976 274.805605 76.0304 273.884 76.0304 273.269597 76.0304 272.786402 76.1423989 272.4344 76.3664 272.082398 76.5904011 271.765601 76.8559985 271.484 77.1632L270.1208 76.9712 270.6008 69.5984 277.7816 69.5984 277.7816 71.0192zM289.3016 71.0192L283.4264 71.0192 283.0424 76.1264 283.1768 76.1264C283.496802 75.6783978 283.858398 75.3200013 284.2616 75.0512 284.664802 74.7823987 285.218396 74.648 285.9224 74.648 286.498403 74.648 287.029598 74.743999 287.516 74.936 288.002402 75.128001 288.424798 75.3999982 288.7832 75.752 289.141602 76.1040018 289.419999 76.5359974 289.6184 77.048 289.816801 77.5600026 289.916 78.1423967 289.916 78.7952 289.916 79.4480033 289.813601 80.0463973 289.6088 80.5904 289.403999 81.1344027 289.106402 81.601598 288.716 81.992 288.325598 82.382402 287.852003 82.6863989 287.2952 82.904 286.738397 83.1216011 286.108004 83.2304 285.404 83.2304 284.840797 83.2304 284.344802 83.1664006 283.916 83.0384 283.487198 82.9103994 283.106402 82.7376011 282.7736 82.52 282.440798 82.3023989 282.149601 82.0592013 281.9 81.7904 281.650399 81.5215987 281.423201 81.2400015 281.2184 80.9456L282.428 80.024C282.594401 80.2928013 282.770399 80.5359989 282.956 80.7536 283.141601 80.9712011 283.346399 81.1567992 283.5704 81.3104 283.794401 81.4640008 284.053599 81.5823996 284.348 81.6656 284.642401 81.7488004 284.994398 81.7904 285.404 81.7904 286.325605 81.7904 287.023198 81.5472024 287.4968 81.0608 287.970402 80.5743976 288.2072 79.8896044 288.2072 79.0064L288.2072 78.8144C288.2072 77.9311956 287.970402 77.2464024 287.4968 76.76 287.023198 76.2735976 286.325605 76.0304 285.404 76.0304 284.789597 76.0304 284.306402 76.1423989 283.9544 76.3664 283.602398 76.5904011 283.285601 76.8559985 283.004 77.1632L281.6408 76.9712 282.1208 69.5984 289.3016 69.5984 289.3016 71.0192zM297.02 83.2304C295.419992 83.2304 294.252004 82.6224061 293.516 81.4064 292.779996 80.1903939 292.412 78.4880109 292.412 76.2992 292.412 74.1103891 292.779996 72.4080061 293.516 71.192 294.252004 69.9759939 295.419992 69.368 297.02 69.368 298.620008 69.368 299.787996 69.9759939 300.524 71.192 301.260004 72.4080061 301.628 74.1103891 301.628 76.2992 301.628 78.4880109 301.260004 80.1903939 300.524 81.4064 299.787996 82.6224061 298.620008 83.2304 297.02 83.2304zM297.02 81.8288C297.544803 81.8288 297.992798 81.7200011 298.364 81.5024 298.735202 81.2847989 299.035999 80.977602 299.2664 80.5808 299.496801 80.183998 299.666399 79.7168027 299.7752 79.1792 299.884001 78.6415973 299.9384 78.0464033 299.9384 77.3936L299.9384 75.2048C299.9384 74.5519967 299.884001 73.9568027 299.7752 73.4192 299.666399 72.8815973 299.496801 72.414402 299.2664 72.0176 299.035999 71.620798 298.735202 71.3136011 298.364 71.096 297.992798 70.8783989 297.544803 70.7696 297.02 70.7696 296.495197 70.7696 296.047202 70.8783989 295.676 71.096 295.304798 71.3136011 295.004001 71.620798 294.7736 72.0176 294.543199 72.414402 294.373601 72.8815973 294.2648 73.4192 294.155999 73.9568027 294.1016 74.5519967 294.1016 75.2048L294.1016 77.3936C294.1016 78.0464033 294.155999 78.6415973 294.2648 79.1792 294.373601 79.7168027 294.543199 80.183998 294.7736 80.5808 295.004001 80.977602 295.304798 81.2847989 295.676 81.5024 296.047202 81.7200011 296.495197 81.8288 297.02 81.8288zM353.9992 83.2304C353.307997 83.2304 352.684003 83.1120012 352.1272 82.8752 351.570397 82.6383988 351.096802 82.2992022 350.7064 81.8576 350.315998 81.4159978 350.018401 80.8752032 349.8136 80.2352 349.608799 79.5951968 349.5064 78.878404 349.5064 78.0848 349.5064 77.086395 349.653599 76.1488044 349.948 75.272 350.242401 74.3951956 350.623198 73.5952036 351.0904 72.872 351.557602 72.1487964 352.072797 71.5088028 352.636 70.952 353.199203 70.3951972 353.749597 69.9440017 354.2872 69.5984L356.3608 69.5984C355.643996 70.1232026 355.004003 70.6351975 354.4408 71.1344 353.877597 71.6336025 353.384802 72.1551973 352.9624 72.6992 352.539998 73.2432027 352.181601 73.8255969 351.8872 74.4464 351.592799 75.0672031 351.356001 75.7679961 351.1768 76.5488L351.2728 76.5872C351.592802 76.0367972 352.005597 75.5792018 352.5112 75.2144 353.016803 74.8495982 353.679196 74.6672 354.4984 74.6672 355.074403 74.6672 355.605598 74.763199 356.092 74.9552 356.578402 75.147201 356.994398 75.4223982 357.34 75.7808 357.685602 76.1392018 357.957599 76.5743974 358.156 77.0864 358.354401 77.5984026 358.4536 78.1679969 358.4536 78.7952 358.4536 79.4480033 358.348001 80.0463973 358.1368 80.5904 357.925599 81.1344027 357.624802 81.601598 357.2344 81.992 356.843998 82.382402 356.373603 82.6863989 355.8232 82.904 355.272797 83.1216011 354.664803 83.2304 353.9992 83.2304zM353.98 81.8288C354.863204 81.8288 355.551198 81.5856024 356.044 81.0992 356.536802 80.6127976 356.7832 79.9152045 356.7832 79.0064L356.7832 78.8528C356.7832 77.9439955 356.536802 77.2464024 356.044 76.76 355.551198 76.2735976 354.863204 76.0304 353.98 76.0304 353.096796 76.0304 352.408802 76.2735976 351.916 76.76 351.423198 77.2464024 351.1768 77.9439955 351.1768 78.8528L351.1768 79.0064C351.1768 79.9152045 351.423198 80.6127976 351.916 81.0992 352.408802 81.5856024 353.096796 81.8288 353.98 81.8288zM365.5 83.2304C363.899992 83.2304 362.732004 82.6224061 361.996 81.4064 361.259996 80.1903939 360.892 78.4880109 360.892 76.2992 360.892 74.1103891 361.259996 72.4080061 361.996 71.192 362.732004 69.9759939 363.899992 69.368 365.5 69.368 367.100008 69.368 368.267996 69.9759939 369.004 71.192 369.740004 72.4080061 370.108 74.1103891 370.108 76.2992 370.108 78.4880109 369.740004 80.1903939 369.004 81.4064 368.267996 82.6224061 367.100008 83.2304 365.5 83.2304zM365.5 81.8288C366.024803 81.8288 366.472798 81.7200011 366.844 81.5024 367.215202 81.2847989 367.515999 80.977602 367.7464 80.5808 367.976801 80.183998 368.146399 79.7168027 368.2552 79.1792 368.364001 78.6415973 368.4184 78.0464033 368.4184 77.3936L368.4184 75.2048C368.4184 74.5519967 368.364001 73.9568027 368.2552 73.4192 368.146399 72.8815973 367.976801 72.414402 367.7464 72.0176 367.515999 71.620798 367.215202 71.3136011 366.844 71.096 366.472798 70.8783989 366.024803 70.7696 365.5 70.7696 364.975197 70.7696 364.527202 70.8783989 364.156 71.096 363.784798 71.3136011 363.484001 71.620798 363.2536 72.0176 363.023199 72.414402 362.853601 72.8815973 362.7448 73.4192 362.635999 73.9568027 362.5816 74.5519967 362.5816 75.2048L362.5816 77.3936C362.5816 78.0464033 362.635999 78.6415973 362.7448 79.1792 362.853601 79.7168027 363.023199 80.183998 363.2536 80.5808 363.484001 80.977602 363.784798 81.2847989 364.156 81.5024 364.527202 81.7200011 364.975197 81.8288 365.5 81.8288zM377.02 83.2304C375.419992 83.2304 374.252004 82.6224061 373.516 81.4064 372.779996 80.1903939 372.412 78.4880109 372.412 76.2992 372.412 74.1103891 372.779996 72.4080061 373.516 71.192 374.252004 69.9759939 375.419992 69.368 377.02 69.368 378.620008 69.368 379.787996 69.9759939 380.524 71.192 381.260004 72.4080061 381.628 74.1103891 381.628 76.2992 381.628 78.4880109 381.260004 80.1903939 380.524 81.4064 379.787996 82.6224061 378.620008 83.2304 377.02 83.2304zM377.02 81.8288C377.544803 81.8288 377.992798 81.7200011 378.364 81.5024 378.735202 81.2847989 379.035999 80.977602 379.2664 80.5808 379.496801 80.183998 379.666399 79.7168027 379.7752 79.1792 379.884001 78.6415973 379.9384 78.0464033 379.9384 77.3936L379.9384 75.2048C379.9384 74.5519967 379.884001 73.9568027 379.7752 73.4192 379.666399 72.8815973 379.496801 72.414402 379.2664 72.0176 379.035999 71.620798 378.735202 71.3136011 378.364 71.096 377.992798 70.8783989 377.544803 70.7696 377.02 70.7696 376.495197 70.7696 376.047202 70.8783989 375.676 71.096 375.304798 71.3136011 375.004001 71.620798 374.7736 72.0176 374.543199 72.414402 374.373601 72.8815973 374.2648 73.4192 374.155999 73.9568027 374.1016 74.5519967 374.1016 75.2048L374.1016 77.3936C374.1016 78.0464033 374.155999 78.6415973 374.2648 79.1792 374.373601 79.7168027 374.543199 80.183998 374.7736 80.5808 375.004001 80.977602 375.304798 81.2847989 375.676 81.5024 376.047202 81.7200011 376.495197 81.8288 377.02 81.8288zM433.9992 83.2304C433.307997 83.2304 432.684003 83.1120012 432.1272 82.8752 431.570397 82.6383988 431.096802 82.2992022 430.7064 81.8576 430.315998 81.4159978 430.018401 80.8752032 429.8136 80.2352 429.608799 79.5951968 429.5064 78.878404 429.5064 78.0848 429.5064 77.086395 429.653599 76.1488044 429.948 75.272 430.242401 74.3951956 430.623198 73.5952036 431.0904 72.872 431.557602 72.1487964 432.072797 71.5088028 432.636 70.952 433.199203 70.3951972 433.749597 69.9440017 434.2872 69.5984L436.3608 69.5984C435.643996 70.1232026 435.004003 70.6351975 434.4408 71.1344 433.877597 71.6336025 433.384802 72.1551973 432.9624 72.6992 432.539998 73.2432027 432.181601 73.8255969 431.8872 74.4464 431.592799 75.0672031 431.356001 75.7679961 431.1768 76.5488L431.2728 76.5872C431.592802 76.0367972 432.005597 75.5792018 432.5112 75.2144 433.016803 74.8495982 433.679196 74.6672 434.4984 74.6672 435.074403 74.6672 435.605598 74.763199 436.092 74.9552 436.578402 75.147201 436.994398 75.4223982 437.34 75.7808 437.685602 76.1392018 437.957599 76.5743974 438.156 77.0864 438.354401 77.5984026 438.4536 78.1679969 438.4536 78.7952 438.4536 79.4480033 438.348001 80.0463973 438.1368 80.5904 437.925599 81.1344027 437.624802 81.601598 437.2344 81.992 436.843998 82.382402 436.373603 82.6863989 435.8232 82.904 435.272797 83.1216011 434.664803 83.2304 433.9992 83.2304zM433.98 81.8288C434.863204 81.8288 435.551198 81.5856024 436.044 81.0992 436.536802 80.6127976 436.7832 79.9152045 436.7832 79.0064L436.7832 78.8528C436.7832 77.9439955 436.536802 77.2464024 436.044 76.76 435.551198 76.2735976 434.863204 76.0304 433.98 76.0304 433.096796 76.0304 432.408802 76.2735976 431.916 76.76 431.423198 77.2464024 431.1768 77.9439955 431.1768 78.8528L431.1768 79.0064C431.1768 79.9152045 431.423198 80.6127976 431.916 81.0992 432.408802 81.5856024 433.096796 81.8288 433.98 81.8288zM449.3016 71.0192L443.4264 71.0192 443.0424 76.1264 443.1768 76.1264C443.496802 75.6783978 443.858398 75.3200013 444.2616 75.0512 444.664802 74.7823987 445.218396 74.648 445.9224 74.648 446.498403 74.648 447.029598 74.743999 447.516 74.936 448.002402 75.128001 448.424798 75.3999982 448.7832 75.752 449.141602 76.1040018 449.419999 76.5359974 449.6184 77.048 449.816801 77.5600026 449.916 78.1423967 449.916 78.7952 449.916 79.4480033 449.813601 80.0463973 449.6088 80.5904 449.403999 81.1344027 449.106402 81.601598 448.716 81.992 448.325598 82.382402 447.852003 82.6863989 447.2952 82.904 446.738397 83.1216011 446.108004 83.2304 445.404 83.2304 444.840797 83.2304 444.344802 83.1664006 443.916 83.0384 443.487198 82.9103994 443.106402 82.7376011 442.7736 82.52 442.440798 82.3023989 442.149601 82.0592013 441.9 81.7904 441.650399 81.5215987 441.423201 81.2400015 441.2184 80.9456L442.428 80.024C442.594401 80.2928013 442.770399 80.5359989 442.956 80.7536 443.141601 80.9712011 443.346399 81.1567992 443.5704 81.3104 443.794401 81.4640008 444.053599 81.5823996 444.348 81.6656 444.642401 81.7488004 444.994398 81.7904 445.404 81.7904 446.325605 81.7904 447.023198 81.5472024 447.4968 81.0608 447.970402 80.5743976 448.2072 79.8896044 448.2072 79.0064L448.2072 78.8144C448.2072 77.9311956 447.970402 77.2464024 447.4968 76.76 447.023198 76.2735976 446.325605 76.0304 445.404 76.0304 444.789597 76.0304 444.306402 76.1423989 443.9544 76.3664 443.602398 76.5904011 443.285601 76.8559985 443.004 77.1632L441.6408 76.9712 442.1208 69.5984 449.3016 69.5984 449.3016 71.0192zM457.02 83.2304C455.419992 83.2304 454.252004 82.6224061 453.516 81.4064 452.779996 80.1903939 452.412 78.4880109 452.412 76.2992 452.412 74.1103891 452.779996 72.4080061 453.516 71.192 454.252004 69.9759939 455.419992 69.368 457.02 69.368 458.620008 69.368 459.787996 69.9759939 460.524 71.192 461.260004 72.4080061 461.628 74.1103891 461.628 76.2992 461.628 78.4880109 461.260004 80.1903939 460.524 81.4064 459.787996 82.6224061 458.620008 83.2304 457.02 83.2304zM457.02 81.8288C457.544803 81.8288 457.992798 81.7200011 458.364 81.5024 458.735202 81.2847989 459.035999 80.977602 459.2664 80.5808 459.496801 80.183998 459.666399 79.7168027 459.7752 79.1792 459.884001 78.6415973 459.9384 78.0464033 459.9384 77.3936L459.9384 75.2048C459.9384 74.5519967 459.884001 73.9568027 459.7752 73.4192 459.666399 72.8815973 459.496801 72.414402 459.2664 72.0176 459.035999 71.620798 458.735202 71.3136011 458.364 71.096 457.992798 70.8783989 457.544803 70.7696 457.02 70.7696 456.495197 70.7696 456.047202 70.8783989 455.676 71.096 455.304798 71.3136011 455.004001 71.620798 454.7736 72.0176 454.543199 72.414402 454.373601 72.8815973 454.2648 73.4192 454.155999 73.9568027 454.1016 74.5519967 454.1016 75.2048L454.1016 77.3936C454.1016 78.0464033 454.155999 78.6415973 454.2648 79.1792 454.373601 79.7168027 454.543199 80.183998 454.7736 80.5808 455.004001 80.977602 455.304798 81.2847989 455.676 81.5024 456.047202 81.7200011 456.495197 81.8288 457.02 81.8288z"/>
    <path fill="#333" d="M433.9992 83.2304C433.307997 83.2304 432.684003 83.1120012 432.1272 82.8752 431.570397 82.6383988 431.096802 82.2992022 430.7064 81.8576 430.315998 81.4159978 430.018401 80.8752032 429.8136 80.2352 429.608799 79.5951968 429.5064 78.878404 429.5064 78.0848 429.5064 77.086395 429.653599 76.1488044 429.948 75.272 430.242401 74.3951956 430.623198 73.5952036 431.0904 72.872 431.557602 72.1487964 432.072797 71.5088028 432.636 70.952 433.199203 70.3951972 433.749597 69.9440017 434.2872 69.5984L436.3608 69.5984C435.643996 70.1232026 435.004003 70.6351975 434.4408 71.1344 433.877597 71.6336025 433.384802 72.1551973 432.9624 72.6992 432.539998 73.2432027 432.181601 73.8255969 431.8872 74.4464 431.592799 75.0672031 431.356001 75.7679961 431.1768 76.5488L431.2728 76.5872C431.592802 76.0367972 432.005597 75.5792018 432.5112 75.2144 433.016803 74.8495982 433.679196 74.6672 434.4984 74.6672 435.074403 74.6672 435.605598 74.763199 436.092 74.9552 436.578402 75.147201 436.994398 75.4223982 437.34 75.7808 437.685602 76.1392018 437.957599 76.5743974 438.156 77.0864 438.354401 77.5984026 438.4536 78.1679969 438.4536 78.7952 438.4536 79.4480033 438.348001 80.0463973 438.1368 80.5904 437.925599 81.1344027 437.624802 81.601598 437.2344 81.992 436.843998 82.382402 436.373603 82.6863989 435.8232 82.904 435.272797 83.1216011 434.664803 83.2304 433.9992 83.2304zM433.98 81.8288C434.863204 81.8288 435.551198 81.5856024 436.044 81.0992 436.536802 80.6127976 436.7832 79.9152045 436.7832 79.0064L436.7832 78.8528C436.7832 77.9439955 436.536802 77.2464024 436.044 76.76 435.551198 76.2735976 434.863204 76.0304 433.98 76.0304 433.096796 76.0304 432.408802 76.2735976 431.916 76.76 431.423198 77.2464024 431.1768 77.9439955 431.1768 78.8528L431.1768 79.0064C431.1768 79.9152045 431.423198 80.6127976 431.916 81.0992 432.408802 81.5856024 433.096796 81.8288 433.98 81.8288zM449.3016 71.0192L443.4264 71.0192 443.0424 76.1264 443.1768 76.1264C443.496802 75.6783978 443.858398 75.3200013 444.2616 75.0512 444.664802 74.7823987 445.218396 74.648 445.9224 74.648 446.498403 74.648 447.029598 74.743999 447.516 74.936 448.002402 75.128001 448.424798 75.3999982 448.7832 75.752 449.141602 76.1040018 449.419999 76.5359974 449.6184 77.048 449.816801 77.5600026 449.916 78.1423967 449.916 78.7952 449.916 79.4480033 449.813601 80.0463973 449.6088 80.5904 449.403999 81.1344027 449.106402 81.601598 448.716 81.992 448.325598 82.382402 447.852003 82.6863989 447.2952 82.904 446.738397 83.1216011 446.108004 83.2304 445.404 83.2304 444.840797 83.2304 444.344802 83.1664006 443.916 83.0384 443.487198 82.9103994 443.106402 82.7376011 442.7736 82.52 442.440798 82.3023989 442.149601 82.0592013 441.9 81.7904 441.650399 81.5215987 441.423201 81.2400015 441.2184 80.9456L442.428 80.024C442.594401 80.2928013 442.770399 80.5359989 442.956 80.7536 443.141601 80.9712011 443.346399 81.1567992 443.5704 81.3104 443.794401 81.4640008 444.053599 81.5823996 444.348 81.6656 444.642401 81.7488004 444.994398 81.7904 445.404 81.7904 446.325605 81.7904 447.023198 81.5472024 447.4968 81.0608 447.970402 80.5743976 448.2072 79.8896044 448.2072 79.0064L448.2072 78.8144C448.2072 77.9311956 447.970402 77.2464024 447.4968 76.76 447.023198 76.2735976 446.325605 76.0304 445.404 76.0304 444.789597 76.0304 444.306402 76.1423989 443.9544 76.3664 443.602398 76.5904011 443.285601 76.8559985 443.004 77.1632L441.6408 76.9712 442.1208 69.5984 449.3016 69.5984 449.3016 71.0192zM457.02 83.2304C455.419992 83.2304 454.252004 82.6224061 453.516 81.4064 452.779996 80.1903939 452.412 78.4880109 452.412 76.2992 452.412 74.1103891 452.779996 72.4080061 453.516 71.192 454.252004 69.9759939 455.419992 69.368 457.02 69.368 458.620008 69.368 459.787996 69.9759939 460.524 71.192 461.260004 72.4080061 461.628 74.1103891 461.628 76.2992 461.628 78.4880109 461.260004 80.1903939 460.524 81.4064 459.787996 82.6224061 458.620008 83.2304 457.02 83.2304zM457.02 81.8288C457.544803 81.8288 457.992798 81.7200011 458.364 81.5024 458.735202 81.2847989 459.035999 80.977602 459.2664 80.5808 459.496801 80.183998 459.666399 79.7168027 459.7752 79.1792 459.884001 78.6415973 459.9384 78.0464033 459.9384 77.3936L459.9384 75.2048C459.9384 74.5519967 459.884001 73.9568027 459.7752 73.4192 459.666399 72.8815973 459.496801 72.414402 459.2664 72.0176 459.035999 71.620798 458.735202 71.3136011 458.364 71.096 457.992798 70.8783989 457.544803 70.7696 457.02 70.7696 456.495197 70.7696 456.047202 70.8783989 455.676 71.096 455.304798 71.3136011 455.004001 71.620798 454.7736 72.0176 454.543199 72.414402 454.373601 72.8815973 454.2648 73.4192 454.155999 73.9568027 454.1016 74.5519967 454.1016 75.2048L454.1016 77.3936C454.1016 78.0464033 454.155999 78.6415973 454.2648 79.1792 454.373601 79.7168027 454.543199 80.183998 454.7736 80.5808 455.004001 80.977602 455.304798 81.2847989 455.676 81.5024 456.047202 81.7200011 456.495197 81.8288 457.02 81.8288zM511.58 83L516.7064 70.9808 510.9848 70.9808 510.9848 73.4768 509.5448 73.4768 509.5448 69.5984 518.3384 69.5984 518.3384 71.0192 513.308 83 511.58 83zM525.5 83.2304C523.899992 83.2304 522.732004 82.6224061 521.996 81.4064 521.259996 80.1903939 520.892 78.4880109 520.892 76.2992 520.892 74.1103891 521.259996 72.4080061 521.996 71.192 522.732004 69.9759939 523.899992 69.368 525.5 69.368 527.100008 69.368 528.267996 69.9759939 529.004 71.192 529.740004 72.4080061 530.108 74.1103891 530.108 76.2992 530.108 78.4880109 529.740004 80.1903939 529.004 81.4064 528.267996 82.6224061 527.100008 83.2304 525.5 83.2304zM525.5 81.8288C526.024803 81.8288 526.472798 81.7200011 526.844 81.5024 527.215202 81.2847989 527.515999 80.977602 527.7464 80.5808 527.976801 80.183998 528.146399 79.7168027 528.2552 79.1792 528.364001 78.6415973 528.4184 78.0464033 528.4184 77.3936L528.4184 75.2048C528.4184 74.5519967 528.364001 73.9568027 528.2552 73.4192 528.146399 72.8815973 527.976801 72.414402 527.7464 72.0176 527.515999 71.620798 527.215202 71.3136011 526.844 71.096 526.472798 70.8783989 526.024803 70.7696 525.5 70.7696 524.975197 70.7696 524.527202 70.8783989 524.156 71.096 523.784798 71.3136011 523.484001 71.620798 523.2536 72.0176 523.023199 72.414402 522.853601 72.8815973 522.7448 73.4192 522.635999 73.9568027 522.5816 74.5519967 522.5816 75.2048L522.5816 77.3936C522.5816 78.0464033 522.635999 78.6415973 522.7448 79.1792 522.853601 79.7168027 523.023199 80.183998 523.2536 80.5808 523.484001 80.977602 523.784798 81.2847989 524.156 81.5024 524.527202 81.7200011 524.975197 81.8288 525.5 81.8288zM537.02 83.2304C535.419992 83.2304 534.252004 82.6224061 533.516 81.4064 532.779996 80.1903939 532.412 78.4880109 532.412 76.2992 532.412 74.1103891 532.779996 72.4080061 533.516 71.192 534.252004 69.9759939 535.419992 69.368 537.02 69.368 538.620008 69.368 539.787996 69.9759939 540.524 71.192 541.260004 72.4080061 541.628 74.1103891 541.628 76.2992 541.628 78.4880109 541.260004 80.1903939 540.524 81.4064 539.787996 82.6224061 538.620008 83.2304 537.02 83.2304zM537.02 81.8288C537.544803 81.8288 537.992798 81.7200011 538.364 81.5024 538.735202 81.2847989 539.035999 80.977602 539.2664 80.5808 539.496801 80.183998 539.666399 79.7168027 539.7752 79.1792 539.884001 78.6415973 539.9384 78.0464033 539.9384 77.3936L539.9384 75.2048C539.9384 74.5519967 539.884001 73.9568027 539.7752 73.4192 539.666399 72.8815973 539.496801 72.414402 539.2664 72.0176 539.035999 71.620798 538.735202 71.3136011 538.364 71.096 537.992798 70.8783989 537.544803 70.7696 537.02 70.7696 536.495197 70.7696 536.047202 70.8783989 535.676 71.096 535.304798 71.3136011 535.004001 71.620798 534.7736 72.0176 534.543199 72.414402 534.373601 72.8815973 534.2648 73.4192 534.155999 73.9568027 534.1016 74.5519967 534.1016 75.2048L534.1016 77.3936C534.1016 78.0464033 534.155999 78.6415973 534.2648 79.1792 534.373601 79.7168027 534.543199 80.183998 534.7736 80.5808 535.004001 80.977602 535.304798 81.2847989 535.676 81.5024 536.047202 81.7200011 536.495197 81.8288 537.02 81.8288zM591.58 83L596.7064 70.9808 590.9848 70.9808 590.9848 73.4768 589.5448 73.4768 589.5448 69.5984 598.3384 69.5984 598.3384 71.0192 593.308 83 591.58 83zM609.3016 71.0192L603.4264 71.0192 603.0424 76.1264 603.1768 76.1264C603.496802 75.6783978 603.858398 75.3200013 604.2616 75.0512 604.664802 74.7823987 605.218396 74.648 605.9224 74.648 606.498403 74.648 607.029598 74.743999 607.516 74.936 608.002402 75.128001 608.424798 75.3999982 608.7832 75.752 609.141602 76.1040018 609.419999 76.5359974 609.6184 77.048 609.816801 77.5600026 609.916 78.1423967 609.916 78.7952 609.916 79.4480033 609.813601 80.0463973 609.6088 80.5904 609.403999 81.1344027 609.106402 81.601598 608.716 81.992 608.325598 82.382402 607.852003 82.6863989 607.2952 82.904 606.738397 83.1216011 606.108004 83.2304 605.404 83.2304 604.840797 83.2304 604.344802 83.1664006 603.916 83.0384 603.487198 82.9103994 603.106402 82.7376011 602.7736 82.52 602.440798 82.3023989 602.149601 82.0592013 601.9 81.7904 601.650399 81.5215987 601.423201 81.2400015 601.2184 80.9456L602.428 80.024C602.594401 80.2928013 602.770399 80.5359989 602.956 80.7536 603.141601 80.9712011 603.346399 81.1567992 603.5704 81.3104 603.794401 81.4640008 604.053599 81.5823996 604.348 81.6656 604.642401 81.7488004 604.994398 81.7904 605.404 81.7904 606.325605 81.7904 607.023198 81.5472024 607.4968 81.0608 607.970402 80.5743976 608.2072 79.8896044 608.2072 79.0064L608.2072 78.8144C608.2072 77.9311956 607.970402 77.2464024 607.4968 76.76 607.023198 76.2735976 606.325605 76.0304 605.404 76.0304 604.789597 76.0304 604.306402 76.1423989 603.9544 76.3664 603.602398 76.5904011 603.285601 76.8559985 603.004 77.1632L601.6408 76.9712 602.1208 69.5984 609.3016 69.5984 609.3016 71.0192zM617.02 83.2304C615.419992 83.2304 614.252004 82.6224061 613.516 81.4064 612.779996 80.1903939 612.412 78.4880109 612.412 76.2992 612.412 74.1103891 612.779996 72.4080061 613.516 71.192 614.252004 69.9759939 615.419992 69.368 617.02 69.368 618.620008 69.368 619.787996 69.9759939 620.524 71.192 621.260004 72.4080061 621.628 74.1103891 621.628 76.2992 621.628 78.4880109 621.260004 80.1903939 620.524 81.4064 619.787996 82.6224061 618.620008 83.2304 617.02 83.2304zM617.02 81.8288C617.544803 81.8288 617.992798 81.7200011 618.364 81.5024 618.735202 81.2847989 619.035999 80.977602 619.2664 80.5808 619.496801 80.183998 619.666399 79.7168027 619.7752 79.1792 619.884001 78.6415973 619.9384 78.0464033 619.9384 77.3936L619.9384 75.2048C619.9384 74.5519967 619.884001 73.9568027 619.7752 73.4192 619.666399 72.8815973 619.496801 72.414402 619.2664 72.0176 619.035999 71.620798 618.735202 71.3136011 618.364 71.096 617.992798 70.8783989 617.544803 70.7696 617.02 70.7696 616.495197 70.7696 616.047202 70.8783989 615.676 71.096 615.304798 71.3136011 615.004001 71.620798 614.7736 72.0176 614.543199 72.414402 614.373601 72.8815973 614.2648 73.4192 614.155999 73.9568027 614.1016 74.5519967 614.1016 75.2048L614.1016 77.3936C614.1016 78.0464033 614.155999 78.6415973 614.2648 79.1792 614.373601 79.7168027 614.543199 80.183998 614.7736 80.5808 615.004001 80.977602 615.304798 81.2847989 615.676 81.5024 616.047202 81.7200011 616.495197 81.8288 617.02 81.8288zM35.42 83L35.42 80.3696 28.9496 80.3696 28.9496 78.9488 34.556 69.5984 36.956 69.5984 36.956 79.0256 38.8952 79.0256 38.8952 80.3696 36.956 80.3696 36.956 83 35.42 83zM30.4664 79.0256L35.42 79.0256 35.42 70.8464 35.324 70.8464 30.4664 79.0256zM45.5 83.2304C43.899992 83.2304 42.7320037 82.6224061 41.996 81.4064 41.2599963 80.1903939 40.892 78.4880109 40.892 76.2992 40.892 74.1103891 41.2599963 72.4080061 41.996 71.192 42.7320037 69.9759939 43.899992 69.368 45.5 69.368 47.100008 69.368 48.2679963 69.9759939 49.004 71.192 49.7400037 72.4080061 50.108 74.1103891 50.108 76.2992 50.108 78.4880109 49.7400037 80.1903939 49.004 81.4064 48.2679963 82.6224061 47.100008 83.2304 45.5 83.2304zM45.5 81.8288C46.0248026 81.8288 46.4727981 81.7200011 46.844 81.5024 47.2152019 81.2847989 47.5159988 80.977602 47.7464 80.5808 47.9768012 80.183998 48.1463995 79.7168027 48.2552 79.1792 48.3640005 78.6415973 48.4184 78.0464033 48.4184 77.3936L48.4184 75.2048C48.4184 74.5519967 48.3640005 73.9568027 48.2552 73.4192 48.1463995 72.8815973 47.9768012 72.414402 47.7464 72.0176 47.5159988 71.620798 47.2152019 71.3136011 46.844 71.096 46.4727981 70.8783989 46.0248026 70.7696 45.5 70.7696 44.9751974 70.7696 44.5272019 70.8783989 44.156 71.096 43.7847981 71.3136011 43.4840012 71.620798 43.2536 72.0176 43.0231988 72.414402 42.8536005 72.8815973 42.7448 73.4192 42.6359995 73.9568027 42.5816 74.5519967 42.5816 75.2048L42.5816 77.3936C42.5816 78.0464033 42.6359995 78.6415973 42.7448 79.1792 42.8536005 79.7168027 43.0231988 80.183998 43.2536 80.5808 43.4840012 80.977602 43.7847981 81.2847989 44.156 81.5024 44.5272019 81.7200011 44.9751974 81.8288 45.5 81.8288zM57.02 83.2304C55.419992 83.2304 54.2520037 82.6224061 53.516 81.4064 52.7799963 80.1903939 52.412 78.4880109 52.412 76.2992 52.412 74.1103891 52.7799963 72.4080061 53.516 71.192 54.2520037 69.9759939 55.419992 69.368 57.02 69.368 58.620008 69.368 59.7879963 69.9759939 60.524 71.192 61.2600037 72.4080061 61.628 74.1103891 61.628 76.2992 61.628 78.4880109 61.2600037 80.1903939 60.524 81.4064 59.7879963 82.6224061 58.620008 83.2304 57.02 83.2304zM57.02 81.8288C57.5448026 81.8288 57.9927981 81.7200011 58.364 81.5024 58.7352019 81.2847989 59.0359988 80.977602 59.2664 80.5808 59.4968012 80.183998 59.6663995 79.7168027 59.7752 79.1792 59.8840005 78.6415973 59.9384 78.0464033 59.9384 77.3936L59.9384 75.2048C59.9384 74.5519967 59.8840005 73.9568027 59.7752 73.4192 59.6663995 72.8815973 59.4968012 72.414402 59.2664 72.0176 59.0359988 71.620798 58.7352019 71.3136011 58.364 71.096 57.9927981 70.8783989 57.5448026 70.7696 57.02 70.7696 56.4951974 70.7696 56.0472019 70.8783989 55.676 71.096 55.3047981 71.3136011 55.0040012 71.620798 54.7736 72.0176 54.5431988 72.414402 54.3736005 72.8815973 54.2648 73.4192 54.1559995 73.9568027 54.1016 74.5519967 54.1016 75.2048L54.1016 77.3936C54.1016 78.0464033 54.1559995 78.6415973 54.2648 79.1792 54.3736005 79.7168027 54.5431988 80.183998 54.7736 80.5808 55.0040012 80.977602 55.3047981 81.2847989 55.676 81.5024 56.0472019 81.7200011 56.4951974 81.8288 57.02 81.8288z"/>
  </g>
</svg>
