<svg xmlns="http://www.w3.org/2000/svg" width="635" height="290" viewBox="0 0 635 290">
  <g fill="none" fill-rule="evenodd">
    <rect width="576" height="2" x="59" y="212" fill="#979797"/>
    <rect width="2" height="280" x="59" y="6" fill="#979797"/>
    <rect width="2" height="9" x="91" y="208" fill="#979797"/>
    <rect width="2" height="9" x="171" y="208" fill="#979797"/>
    <rect width="2" height="9" x="251" y="208" fill="#979797"/>
    <rect width="2" height="9" x="331" y="208" fill="#979797"/>
    <rect width="2" height="9" x="411" y="208" fill="#979797"/>
    <rect width="2" height="9" x="491" y="208" fill="#979797"/>
    <rect width="2" height="9" x="571" y="208" fill="#979797"/>
    <path fill="#333" fill-rule="nonzero" d="M162.42 242L162.42 239.3696 155.9496 239.3696 155.9496 237.9488 161.556 228.5984 163.956 228.5984 163.956 238.0256 165.8952 238.0256 165.8952 239.3696 163.956 239.3696 163.956 242 162.42 242zM157.4664 238.0256L162.42 238.0256 162.42 229.8464 162.324 229.8464 157.4664 238.0256zM176.3016 230.0192L170.4264 230.0192 170.0424 235.1264 170.1768 235.1264C170.496802 234.678398 170.858398 234.320001 171.2616 234.0512 171.664802 233.782399 172.218396 233.648 172.9224 233.648 173.498403 233.648 174.029598 233.743999 174.516 233.936 175.002402 234.128001 175.424798 234.399998 175.7832 234.752 176.141602 235.104002 176.419999 235.535997 176.6184 236.048 176.816801 236.560003 176.916 237.142397 176.916 237.7952 176.916 238.448003 176.813601 239.046397 176.6088 239.5904 176.403999 240.134403 176.106402 240.601598 175.716 240.992 175.325598 241.382402 174.852003 241.686399 174.2952 241.904 173.738397 242.121601 173.108004 242.2304 172.404 242.2304 171.840797 242.2304 171.344802 242.166401 170.916 242.0384 170.487198 241.910399 170.106402 241.737601 169.7736 241.52 169.440798 241.302399 169.149601 241.059201 168.9 240.7904 168.650399 240.521599 168.423201 240.240001 168.2184 239.9456L169.428 239.024C169.594401 239.292801 169.770399 239.535999 169.956 239.7536 170.141601 239.971201 170.346399 240.156799 170.5704 240.3104 170.794401 240.464001 171.053599 240.5824 171.348 240.6656 171.642401 240.7488 171.994398 240.7904 172.404 240.7904 173.325605 240.7904 174.023198 240.547202 174.4968 240.0608 174.970402 239.574398 175.2072 238.889604 175.2072 238.0064L175.2072 237.8144C175.2072 236.931196 174.970402 236.246402 174.4968 235.76 174.023198 235.273598 173.325605 235.0304 172.404 235.0304 171.789597 235.0304 171.306402 235.142399 170.9544 235.3664 170.602398 235.590401 170.285601 235.855998 170.004 236.1632L168.6408 235.9712 169.1208 228.5984 176.3016 228.5984 176.3016 230.0192zM184.02 242.2304C182.419992 242.2304 181.252004 241.622406 180.516 240.4064 179.779996 239.190394 179.412 237.488011 179.412 235.2992 179.412 233.110389 179.779996 231.408006 180.516 230.192 181.252004 228.975994 182.419992 228.368 184.02 228.368 185.620008 228.368 186.787996 228.975994 187.524 230.192 188.260004 231.408006 188.628 233.110389 188.628 235.2992 188.628 237.488011 188.260004 239.190394 187.524 240.4064 186.787996 241.622406 185.620008 242.2304 184.02 242.2304zM184.02 240.8288C184.544803 240.8288 184.992798 240.720001 185.364 240.5024 185.735202 240.284799 186.035999 239.977602 186.2664 239.5808 186.496801 239.183998 186.666399 238.716803 186.7752 238.1792 186.884001 237.641597 186.9384 237.046403 186.9384 236.3936L186.9384 234.2048C186.9384 233.551997 186.884001 232.956803 186.7752 232.4192 186.666399 231.881597 186.496801 231.414402 186.2664 231.0176 186.035999 230.620798 185.735202 230.313601 185.364 230.096 184.992798 229.878399 184.544803 229.7696 184.02 229.7696 183.495197 229.7696 183.047202 229.878399 182.676 230.096 182.304798 230.313601 182.004001 230.620798 181.7736 231.0176 181.543199 231.414402 181.373601 231.881597 181.2648 232.4192 181.155999 232.956803 181.1016 233.551997 181.1016 234.2048L181.1016 236.3936C181.1016 237.046403 181.155999 237.641597 181.2648 238.1792 181.373601 238.716803 181.543199 239.183998 181.7736 239.5808 182.004001 239.977602 182.304798 240.284799 182.676 240.5024 183.047202 240.720001 183.495197 240.8288 184.02 240.8288zM244.7816 230.0192L238.9064 230.0192 238.5224 235.1264 238.6568 235.1264C238.976802 234.678398 239.338398 234.320001 239.7416 234.0512 240.144802 233.782399 240.698396 233.648 241.4024 233.648 241.978403 233.648 242.509598 233.743999 242.996 233.936 243.482402 234.128001 243.904798 234.399998 244.2632 234.752 244.621602 235.104002 244.899999 235.535997 245.0984 236.048 245.296801 236.560003 245.396 237.142397 245.396 237.7952 245.396 238.448003 245.293601 239.046397 245.0888 239.5904 244.883999 240.134403 244.586402 240.601598 244.196 240.992 243.805598 241.382402 243.332003 241.686399 242.7752 241.904 242.218397 242.121601 241.588004 242.2304 240.884 242.2304 240.320797 242.2304 239.824802 242.166401 239.396 242.0384 238.967198 241.910399 238.586402 241.737601 238.2536 241.52 237.920798 241.302399 237.629601 241.059201 237.38 240.7904 237.130399 240.521599 236.903201 240.240001 236.6984 239.9456L237.908 239.024C238.074401 239.292801 238.250399 239.535999 238.436 239.7536 238.621601 239.971201 238.826399 240.156799 239.0504 240.3104 239.274401 240.464001 239.533599 240.5824 239.828 240.6656 240.122401 240.7488 240.474398 240.7904 240.884 240.7904 241.805605 240.7904 242.503198 240.547202 242.9768 240.0608 243.450402 239.574398 243.6872 238.889604 243.6872 238.0064L243.6872 237.8144C243.6872 236.931196 243.450402 236.246402 242.9768 235.76 242.503198 235.273598 241.805605 235.0304 240.884 235.0304 240.269597 235.0304 239.786402 235.142399 239.4344 235.3664 239.082398 235.590401 238.765601 235.855998 238.484 236.1632L237.1208 235.9712 237.6008 228.5984 244.7816 228.5984 244.7816 230.0192zM252.5 242.2304C250.899992 242.2304 249.732004 241.622406 248.996 240.4064 248.259996 239.190394 247.892 237.488011 247.892 235.2992 247.892 233.110389 248.259996 231.408006 248.996 230.192 249.732004 228.975994 250.899992 228.368 252.5 228.368 254.100008 228.368 255.267996 228.975994 256.004 230.192 256.740004 231.408006 257.108 233.110389 257.108 235.2992 257.108 237.488011 256.740004 239.190394 256.004 240.4064 255.267996 241.622406 254.100008 242.2304 252.5 242.2304zM252.5 240.8288C253.024803 240.8288 253.472798 240.720001 253.844 240.5024 254.215202 240.284799 254.515999 239.977602 254.7464 239.5808 254.976801 239.183998 255.146399 238.716803 255.2552 238.1792 255.364001 237.641597 255.4184 237.046403 255.4184 236.3936L255.4184 234.2048C255.4184 233.551997 255.364001 232.956803 255.2552 232.4192 255.146399 231.881597 254.976801 231.414402 254.7464 231.0176 254.515999 230.620798 254.215202 230.313601 253.844 230.096 253.472798 229.878399 253.024803 229.7696 252.5 229.7696 251.975197 229.7696 251.527202 229.878399 251.156 230.096 250.784798 230.313601 250.484001 230.620798 250.2536 231.0176 250.023199 231.414402 249.853601 231.881597 249.7448 232.4192 249.635999 232.956803 249.5816 233.551997 249.5816 234.2048L249.5816 236.3936C249.5816 237.046403 249.635999 237.641597 249.7448 238.1792 249.853601 238.716803 250.023199 239.183998 250.2536 239.5808 250.484001 239.977602 250.784798 240.284799 251.156 240.5024 251.527202 240.720001 251.975197 240.8288 252.5 240.8288zM264.02 242.2304C262.419992 242.2304 261.252004 241.622406 260.516 240.4064 259.779996 239.190394 259.412 237.488011 259.412 235.2992 259.412 233.110389 259.779996 231.408006 260.516 230.192 261.252004 228.975994 262.419992 228.368 264.02 228.368 265.620008 228.368 266.787996 228.975994 267.524 230.192 268.260004 231.408006 268.628 233.110389 268.628 235.2992 268.628 237.488011 268.260004 239.190394 267.524 240.4064 266.787996 241.622406 265.620008 242.2304 264.02 242.2304zM264.02 240.8288C264.544803 240.8288 264.992798 240.720001 265.364 240.5024 265.735202 240.284799 266.035999 239.977602 266.2664 239.5808 266.496801 239.183998 266.666399 238.716803 266.7752 238.1792 266.884001 237.641597 266.9384 237.046403 266.9384 236.3936L266.9384 234.2048C266.9384 233.551997 266.884001 232.956803 266.7752 232.4192 266.666399 231.881597 266.496801 231.414402 266.2664 231.0176 266.035999 230.620798 265.735202 230.313601 265.364 230.096 264.992798 229.878399 264.544803 229.7696 264.02 229.7696 263.495197 229.7696 263.047202 229.878399 262.676 230.096 262.304798 230.313601 262.004001 230.620798 261.7736 231.0176 261.543199 231.414402 261.373601 231.881597 261.2648 232.4192 261.155999 232.956803 261.1016 233.551997 261.1016 234.2048L261.1016 236.3936C261.1016 237.046403 261.155999 237.641597 261.2648 238.1792 261.373601 238.716803 261.543199 239.183998 261.7736 239.5808 262.004001 239.977602 262.304798 240.284799 262.676 240.5024 263.047202 240.720001 263.495197 240.8288 264.02 240.8288zM324.7816 230.0192L318.9064 230.0192 318.5224 235.1264 318.6568 235.1264C318.976802 234.678398 319.338398 234.320001 319.7416 234.0512 320.144802 233.782399 320.698396 233.648 321.4024 233.648 321.978403 233.648 322.509598 233.743999 322.996 233.936 323.482402 234.128001 323.904798 234.399998 324.2632 234.752 324.621602 235.104002 324.899999 235.535997 325.0984 236.048 325.296801 236.560003 325.396 237.142397 325.396 237.7952 325.396 238.448003 325.293601 239.046397 325.0888 239.5904 324.883999 240.134403 324.586402 240.601598 324.196 240.992 323.805598 241.382402 323.332003 241.686399 322.7752 241.904 322.218397 242.121601 321.588004 242.2304 320.884 242.2304 320.320797 242.2304 319.824802 242.166401 319.396 242.0384 318.967198 241.910399 318.586402 241.737601 318.2536 241.52 317.920798 241.302399 317.629601 241.059201 317.38 240.7904 317.130399 240.521599 316.903201 240.240001 316.6984 239.9456L317.908 239.024C318.074401 239.292801 318.250399 239.535999 318.436 239.7536 318.621601 239.971201 318.826399 240.156799 319.0504 240.3104 319.274401 240.464001 319.533599 240.5824 319.828 240.6656 320.122401 240.7488 320.474398 240.7904 320.884 240.7904 321.805605 240.7904 322.503198 240.547202 322.9768 240.0608 323.450402 239.574398 323.6872 238.889604 323.6872 238.0064L323.6872 237.8144C323.6872 236.931196 323.450402 236.246402 322.9768 235.76 322.503198 235.273598 321.805605 235.0304 320.884 235.0304 320.269597 235.0304 319.786402 235.142399 319.4344 235.3664 319.082398 235.590401 318.765601 235.855998 318.484 236.1632L317.1208 235.9712 317.6008 228.5984 324.7816 228.5984 324.7816 230.0192zM336.3016 230.0192L330.4264 230.0192 330.0424 235.1264 330.1768 235.1264C330.496802 234.678398 330.858398 234.320001 331.2616 234.0512 331.664802 233.782399 332.218396 233.648 332.9224 233.648 333.498403 233.648 334.029598 233.743999 334.516 233.936 335.002402 234.128001 335.424798 234.399998 335.7832 234.752 336.141602 235.104002 336.419999 235.535997 336.6184 236.048 336.816801 236.560003 336.916 237.142397 336.916 237.7952 336.916 238.448003 336.813601 239.046397 336.6088 239.5904 336.403999 240.134403 336.106402 240.601598 335.716 240.992 335.325598 241.382402 334.852003 241.686399 334.2952 241.904 333.738397 242.121601 333.108004 242.2304 332.404 242.2304 331.840797 242.2304 331.344802 242.166401 330.916 242.0384 330.487198 241.910399 330.106402 241.737601 329.7736 241.52 329.440798 241.302399 329.149601 241.059201 328.9 240.7904 328.650399 240.521599 328.423201 240.240001 328.2184 239.9456L329.428 239.024C329.594401 239.292801 329.770399 239.535999 329.956 239.7536 330.141601 239.971201 330.346399 240.156799 330.5704 240.3104 330.794401 240.464001 331.053599 240.5824 331.348 240.6656 331.642401 240.7488 331.994398 240.7904 332.404 240.7904 333.325605 240.7904 334.023198 240.547202 334.4968 240.0608 334.970402 239.574398 335.2072 238.889604 335.2072 238.0064L335.2072 237.8144C335.2072 236.931196 334.970402 236.246402 334.4968 235.76 334.023198 235.273598 333.325605 235.0304 332.404 235.0304 331.789597 235.0304 331.306402 235.142399 330.9544 235.3664 330.602398 235.590401 330.285601 235.855998 330.004 236.1632L328.6408 235.9712 329.1208 228.5984 336.3016 228.5984 336.3016 230.0192zM344.02 242.2304C342.419992 242.2304 341.252004 241.622406 340.516 240.4064 339.779996 239.190394 339.412 237.488011 339.412 235.2992 339.412 233.110389 339.779996 231.408006 340.516 230.192 341.252004 228.975994 342.419992 228.368 344.02 228.368 345.620008 228.368 346.787996 228.975994 347.524 230.192 348.260004 231.408006 348.628 233.110389 348.628 235.2992 348.628 237.488011 348.260004 239.190394 347.524 240.4064 346.787996 241.622406 345.620008 242.2304 344.02 242.2304zM344.02 240.8288C344.544803 240.8288 344.992798 240.720001 345.364 240.5024 345.735202 240.284799 346.035999 239.977602 346.2664 239.5808 346.496801 239.183998 346.666399 238.716803 346.7752 238.1792 346.884001 237.641597 346.9384 237.046403 346.9384 236.3936L346.9384 234.2048C346.9384 233.551997 346.884001 232.956803 346.7752 232.4192 346.666399 231.881597 346.496801 231.414402 346.2664 231.0176 346.035999 230.620798 345.735202 230.313601 345.364 230.096 344.992798 229.878399 344.544803 229.7696 344.02 229.7696 343.495197 229.7696 343.047202 229.878399 342.676 230.096 342.304798 230.313601 342.004001 230.620798 341.7736 231.0176 341.543199 231.414402 341.373601 231.881597 341.2648 232.4192 341.155999 232.956803 341.1016 233.551997 341.1016 234.2048L341.1016 236.3936C341.1016 237.046403 341.155999 237.641597 341.2648 238.1792 341.373601 238.716803 341.543199 239.183998 341.7736 239.5808 342.004001 239.977602 342.304798 240.284799 342.676 240.5024 343.047202 240.720001 343.495197 240.8288 344.02 240.8288zM400.9992 242.2304C400.307997 242.2304 399.684003 242.112001 399.1272 241.8752 398.570397 241.638399 398.096802 241.299202 397.7064 240.8576 397.315998 240.415998 397.018401 239.875203 396.8136 239.2352 396.608799 238.595197 396.5064 237.878404 396.5064 237.0848 396.5064 236.086395 396.653599 235.148804 396.948 234.272 397.242401 233.395196 397.623198 232.595204 398.0904 231.872 398.557602 231.148796 399.072797 230.508803 399.636 229.952 400.199203 229.395197 400.749597 228.944002 401.2872 228.5984L403.3608 228.5984C402.643996 229.123203 402.004003 229.635198 401.4408 230.1344 400.877597 230.633602 400.384802 231.155197 399.9624 231.6992 399.539998 232.243203 399.181601 232.825597 398.8872 233.4464 398.592799 234.067203 398.356001 234.767996 398.1768 235.5488L398.2728 235.5872C398.592802 235.036797 399.005597 234.579202 399.5112 234.2144 400.016803 233.849598 400.679196 233.6672 401.4984 233.6672 402.074403 233.6672 402.605598 233.763199 403.092 233.9552 403.578402 234.147201 403.994398 234.422398 404.34 234.7808 404.685602 235.139202 404.957599 235.574397 405.156 236.0864 405.354401 236.598403 405.4536 237.167997 405.4536 237.7952 405.4536 238.448003 405.348001 239.046397 405.1368 239.5904 404.925599 240.134403 404.624802 240.601598 404.2344 240.992 403.843998 241.382402 403.373603 241.686399 402.8232 241.904 402.272797 242.121601 401.664803 242.2304 400.9992 242.2304zM400.98 240.8288C401.863204 240.8288 402.551198 240.585602 403.044 240.0992 403.536802 239.612798 403.7832 238.915205 403.7832 238.0064L403.7832 237.8528C403.7832 236.943995 403.536802 236.246402 403.044 235.76 402.551198 235.273598 401.863204 235.0304 400.98 235.0304 400.096796 235.0304 399.408802 235.273598 398.916 235.76 398.423198 236.246402 398.1768 236.943995 398.1768 237.8528L398.1768 238.0064C398.1768 238.915205 398.423198 239.612798 398.916 240.0992 399.408802 240.585602 400.096796 240.8288 400.98 240.8288zM412.5 242.2304C410.899992 242.2304 409.732004 241.622406 408.996 240.4064 408.259996 239.190394 407.892 237.488011 407.892 235.2992 407.892 233.110389 408.259996 231.408006 408.996 230.192 409.732004 228.975994 410.899992 228.368 412.5 228.368 414.100008 228.368 415.267996 228.975994 416.004 230.192 416.740004 231.408006 417.108 233.110389 417.108 235.2992 417.108 237.488011 416.740004 239.190394 416.004 240.4064 415.267996 241.622406 414.100008 242.2304 412.5 242.2304zM412.5 240.8288C413.024803 240.8288 413.472798 240.720001 413.844 240.5024 414.215202 240.284799 414.515999 239.977602 414.7464 239.5808 414.976801 239.183998 415.146399 238.716803 415.2552 238.1792 415.364001 237.641597 415.4184 237.046403 415.4184 236.3936L415.4184 234.2048C415.4184 233.551997 415.364001 232.956803 415.2552 232.4192 415.146399 231.881597 414.976801 231.414402 414.7464 231.0176 414.515999 230.620798 414.215202 230.313601 413.844 230.096 413.472798 229.878399 413.024803 229.7696 412.5 229.7696 411.975197 229.7696 411.527202 229.878399 411.156 230.096 410.784798 230.313601 410.484001 230.620798 410.2536 231.0176 410.023199 231.414402 409.853601 231.881597 409.7448 232.4192 409.635999 232.956803 409.5816 233.551997 409.5816 234.2048L409.5816 236.3936C409.5816 237.046403 409.635999 237.641597 409.7448 238.1792 409.853601 238.716803 410.023199 239.183998 410.2536 239.5808 410.484001 239.977602 410.784798 240.284799 411.156 240.5024 411.527202 240.720001 411.975197 240.8288 412.5 240.8288zM424.02 242.2304C422.419992 242.2304 421.252004 241.622406 420.516 240.4064 419.779996 239.190394 419.412 237.488011 419.412 235.2992 419.412 233.110389 419.779996 231.408006 420.516 230.192 421.252004 228.975994 422.419992 228.368 424.02 228.368 425.620008 228.368 426.787996 228.975994 427.524 230.192 428.260004 231.408006 428.628 233.110389 428.628 235.2992 428.628 237.488011 428.260004 239.190394 427.524 240.4064 426.787996 241.622406 425.620008 242.2304 424.02 242.2304zM424.02 240.8288C424.544803 240.8288 424.992798 240.720001 425.364 240.5024 425.735202 240.284799 426.035999 239.977602 426.2664 239.5808 426.496801 239.183998 426.666399 238.716803 426.7752 238.1792 426.884001 237.641597 426.9384 237.046403 426.9384 236.3936L426.9384 234.2048C426.9384 233.551997 426.884001 232.956803 426.7752 232.4192 426.666399 231.881597 426.496801 231.414402 426.2664 231.0176 426.035999 230.620798 425.735202 230.313601 425.364 230.096 424.992798 229.878399 424.544803 229.7696 424.02 229.7696 423.495197 229.7696 423.047202 229.878399 422.676 230.096 422.304798 230.313601 422.004001 230.620798 421.7736 231.0176 421.543199 231.414402 421.373601 231.881597 421.2648 232.4192 421.155999 232.956803 421.1016 233.551997 421.1016 234.2048L421.1016 236.3936C421.1016 237.046403 421.155999 237.641597 421.2648 238.1792 421.373601 238.716803 421.543199 239.183998 421.7736 239.5808 422.004001 239.977602 422.304798 240.284799 422.676 240.5024 423.047202 240.720001 423.495197 240.8288 424.02 240.8288zM480.9992 242.2304C480.307997 242.2304 479.684003 242.112001 479.1272 241.8752 478.570397 241.638399 478.096802 241.299202 477.7064 240.8576 477.315998 240.415998 477.018401 239.875203 476.8136 239.2352 476.608799 238.595197 476.5064 237.878404 476.5064 237.0848 476.5064 236.086395 476.653599 235.148804 476.948 234.272 477.242401 233.395196 477.623198 232.595204 478.0904 231.872 478.557602 231.148796 479.072797 230.508803 479.636 229.952 480.199203 229.395197 480.749597 228.944002 481.2872 228.5984L483.3608 228.5984C482.643996 229.123203 482.004003 229.635198 481.4408 230.1344 480.877597 230.633602 480.384802 231.155197 479.9624 231.6992 479.539998 232.243203 479.181601 232.825597 478.8872 233.4464 478.592799 234.067203 478.356001 234.767996 478.1768 235.5488L478.2728 235.5872C478.592802 235.036797 479.005597 234.579202 479.5112 234.2144 480.016803 233.849598 480.679196 233.6672 481.4984 233.6672 482.074403 233.6672 482.605598 233.763199 483.092 233.9552 483.578402 234.147201 483.994398 234.422398 484.34 234.7808 484.685602 235.139202 484.957599 235.574397 485.156 236.0864 485.354401 236.598403 485.4536 237.167997 485.4536 237.7952 485.4536 238.448003 485.348001 239.046397 485.1368 239.5904 484.925599 240.134403 484.624802 240.601598 484.2344 240.992 483.843998 241.382402 483.373603 241.686399 482.8232 241.904 482.272797 242.121601 481.664803 242.2304 480.9992 242.2304zM480.98 240.8288C481.863204 240.8288 482.551198 240.585602 483.044 240.0992 483.536802 239.612798 483.7832 238.915205 483.7832 238.0064L483.7832 237.8528C483.7832 236.943995 483.536802 236.246402 483.044 235.76 482.551198 235.273598 481.863204 235.0304 480.98 235.0304 480.096796 235.0304 479.408802 235.273598 478.916 235.76 478.423198 236.246402 478.1768 236.943995 478.1768 237.8528L478.1768 238.0064C478.1768 238.915205 478.423198 239.612798 478.916 240.0992 479.408802 240.585602 480.096796 240.8288 480.98 240.8288zM496.3016 230.0192L490.4264 230.0192 490.0424 235.1264 490.1768 235.1264C490.496802 234.678398 490.858398 234.320001 491.2616 234.0512 491.664802 233.782399 492.218396 233.648 492.9224 233.648 493.498403 233.648 494.029598 233.743999 494.516 233.936 495.002402 234.128001 495.424798 234.399998 495.7832 234.752 496.141602 235.104002 496.419999 235.535997 496.6184 236.048 496.816801 236.560003 496.916 237.142397 496.916 237.7952 496.916 238.448003 496.813601 239.046397 496.6088 239.5904 496.403999 240.134403 496.106402 240.601598 495.716 240.992 495.325598 241.382402 494.852003 241.686399 494.2952 241.904 493.738397 242.121601 493.108004 242.2304 492.404 242.2304 491.840797 242.2304 491.344802 242.166401 490.916 242.0384 490.487198 241.910399 490.106402 241.737601 489.7736 241.52 489.440798 241.302399 489.149601 241.059201 488.9 240.7904 488.650399 240.521599 488.423201 240.240001 488.2184 239.9456L489.428 239.024C489.594401 239.292801 489.770399 239.535999 489.956 239.7536 490.141601 239.971201 490.346399 240.156799 490.5704 240.3104 490.794401 240.464001 491.053599 240.5824 491.348 240.6656 491.642401 240.7488 491.994398 240.7904 492.404 240.7904 493.325605 240.7904 494.023198 240.547202 494.4968 240.0608 494.970402 239.574398 495.2072 238.889604 495.2072 238.0064L495.2072 237.8144C495.2072 236.931196 494.970402 236.246402 494.4968 235.76 494.023198 235.273598 493.325605 235.0304 492.404 235.0304 491.789597 235.0304 491.306402 235.142399 490.9544 235.3664 490.602398 235.590401 490.285601 235.855998 490.004 236.1632L488.6408 235.9712 489.1208 228.5984 496.3016 228.5984 496.3016 230.0192zM504.02 242.2304C502.419992 242.2304 501.252004 241.622406 500.516 240.4064 499.779996 239.190394 499.412 237.488011 499.412 235.2992 499.412 233.110389 499.779996 231.408006 500.516 230.192 501.252004 228.975994 502.419992 228.368 504.02 228.368 505.620008 228.368 506.787996 228.975994 507.524 230.192 508.260004 231.408006 508.628 233.110389 508.628 235.2992 508.628 237.488011 508.260004 239.190394 507.524 240.4064 506.787996 241.622406 505.620008 242.2304 504.02 242.2304zM504.02 240.8288C504.544803 240.8288 504.992798 240.720001 505.364 240.5024 505.735202 240.284799 506.035999 239.977602 506.2664 239.5808 506.496801 239.183998 506.666399 238.716803 506.7752 238.1792 506.884001 237.641597 506.9384 237.046403 506.9384 236.3936L506.9384 234.2048C506.9384 233.551997 506.884001 232.956803 506.7752 232.4192 506.666399 231.881597 506.496801 231.414402 506.2664 231.0176 506.035999 230.620798 505.735202 230.313601 505.364 230.096 504.992798 229.878399 504.544803 229.7696 504.02 229.7696 503.495197 229.7696 503.047202 229.878399 502.676 230.096 502.304798 230.313601 502.004001 230.620798 501.7736 231.0176 501.543199 231.414402 501.373601 231.881597 501.2648 232.4192 501.155999 232.956803 501.1016 233.551997 501.1016 234.2048L501.1016 236.3936C501.1016 237.046403 501.155999 237.641597 501.2648 238.1792 501.373601 238.716803 501.543199 239.183998 501.7736 239.5808 502.004001 239.977602 502.304798 240.284799 502.676 240.5024 503.047202 240.720001 503.495197 240.8288 504.02 240.8288z"/>
    <path fill="#333" fill-rule="nonzero" d="M480.9992 242.2304C480.307997 242.2304 479.684003 242.112001 479.1272 241.8752 478.570397 241.638399 478.096802 241.299202 477.7064 240.8576 477.315998 240.415998 477.018401 239.875203 476.8136 239.2352 476.608799 238.595197 476.5064 237.878404 476.5064 237.0848 476.5064 236.086395 476.653599 235.148804 476.948 234.272 477.242401 233.395196 477.623198 232.595204 478.0904 231.872 478.557602 231.148796 479.072797 230.508803 479.636 229.952 480.199203 229.395197 480.749597 228.944002 481.2872 228.5984L483.3608 228.5984C482.643996 229.123203 482.004003 229.635198 481.4408 230.1344 480.877597 230.633602 480.384802 231.155197 479.9624 231.6992 479.539998 232.243203 479.181601 232.825597 478.8872 233.4464 478.592799 234.067203 478.356001 234.767996 478.1768 235.5488L478.2728 235.5872C478.592802 235.036797 479.005597 234.579202 479.5112 234.2144 480.016803 233.849598 480.679196 233.6672 481.4984 233.6672 482.074403 233.6672 482.605598 233.763199 483.092 233.9552 483.578402 234.147201 483.994398 234.422398 484.34 234.7808 484.685602 235.139202 484.957599 235.574397 485.156 236.0864 485.354401 236.598403 485.4536 237.167997 485.4536 237.7952 485.4536 238.448003 485.348001 239.046397 485.1368 239.5904 484.925599 240.134403 484.624802 240.601598 484.2344 240.992 483.843998 241.382402 483.373603 241.686399 482.8232 241.904 482.272797 242.121601 481.664803 242.2304 480.9992 242.2304zM480.98 240.8288C481.863204 240.8288 482.551198 240.585602 483.044 240.0992 483.536802 239.612798 483.7832 238.915205 483.7832 238.0064L483.7832 237.8528C483.7832 236.943995 483.536802 236.246402 483.044 235.76 482.551198 235.273598 481.863204 235.0304 480.98 235.0304 480.096796 235.0304 479.408802 235.273598 478.916 235.76 478.423198 236.246402 478.1768 236.943995 478.1768 237.8528L478.1768 238.0064C478.1768 238.915205 478.423198 239.612798 478.916 240.0992 479.408802 240.585602 480.096796 240.8288 480.98 240.8288zM496.3016 230.0192L490.4264 230.0192 490.0424 235.1264 490.1768 235.1264C490.496802 234.678398 490.858398 234.320001 491.2616 234.0512 491.664802 233.782399 492.218396 233.648 492.9224 233.648 493.498403 233.648 494.029598 233.743999 494.516 233.936 495.002402 234.128001 495.424798 234.399998 495.7832 234.752 496.141602 235.104002 496.419999 235.535997 496.6184 236.048 496.816801 236.560003 496.916 237.142397 496.916 237.7952 496.916 238.448003 496.813601 239.046397 496.6088 239.5904 496.403999 240.134403 496.106402 240.601598 495.716 240.992 495.325598 241.382402 494.852003 241.686399 494.2952 241.904 493.738397 242.121601 493.108004 242.2304 492.404 242.2304 491.840797 242.2304 491.344802 242.166401 490.916 242.0384 490.487198 241.910399 490.106402 241.737601 489.7736 241.52 489.440798 241.302399 489.149601 241.059201 488.9 240.7904 488.650399 240.521599 488.423201 240.240001 488.2184 239.9456L489.428 239.024C489.594401 239.292801 489.770399 239.535999 489.956 239.7536 490.141601 239.971201 490.346399 240.156799 490.5704 240.3104 490.794401 240.464001 491.053599 240.5824 491.348 240.6656 491.642401 240.7488 491.994398 240.7904 492.404 240.7904 493.325605 240.7904 494.023198 240.547202 494.4968 240.0608 494.970402 239.574398 495.2072 238.889604 495.2072 238.0064L495.2072 237.8144C495.2072 236.931196 494.970402 236.246402 494.4968 235.76 494.023198 235.273598 493.325605 235.0304 492.404 235.0304 491.789597 235.0304 491.306402 235.142399 490.9544 235.3664 490.602398 235.590401 490.285601 235.855998 490.004 236.1632L488.6408 235.9712 489.1208 228.5984 496.3016 228.5984 496.3016 230.0192zM504.02 242.2304C502.419992 242.2304 501.252004 241.622406 500.516 240.4064 499.779996 239.190394 499.412 237.488011 499.412 235.2992 499.412 233.110389 499.779996 231.408006 500.516 230.192 501.252004 228.975994 502.419992 228.368 504.02 228.368 505.620008 228.368 506.787996 228.975994 507.524 230.192 508.260004 231.408006 508.628 233.110389 508.628 235.2992 508.628 237.488011 508.260004 239.190394 507.524 240.4064 506.787996 241.622406 505.620008 242.2304 504.02 242.2304zM504.02 240.8288C504.544803 240.8288 504.992798 240.720001 505.364 240.5024 505.735202 240.284799 506.035999 239.977602 506.2664 239.5808 506.496801 239.183998 506.666399 238.716803 506.7752 238.1792 506.884001 237.641597 506.9384 237.046403 506.9384 236.3936L506.9384 234.2048C506.9384 233.551997 506.884001 232.956803 506.7752 232.4192 506.666399 231.881597 506.496801 231.414402 506.2664 231.0176 506.035999 230.620798 505.735202 230.313601 505.364 230.096 504.992798 229.878399 504.544803 229.7696 504.02 229.7696 503.495197 229.7696 503.047202 229.878399 502.676 230.096 502.304798 230.313601 502.004001 230.620798 501.7736 231.0176 501.543199 231.414402 501.373601 231.881597 501.2648 232.4192 501.155999 232.956803 501.1016 233.551997 501.1016 234.2048L501.1016 236.3936C501.1016 237.046403 501.155999 237.641597 501.2648 238.1792 501.373601 238.716803 501.543199 239.183998 501.7736 239.5808 502.004001 239.977602 502.304798 240.284799 502.676 240.5024 503.047202 240.720001 503.495197 240.8288 504.02 240.8288zM558.58 242L563.7064 229.9808 557.9848 229.9808 557.9848 232.4768 556.5448 232.4768 556.5448 228.5984 565.3384 228.5984 565.3384 230.0192 560.308 242 558.58 242zM572.5 242.2304C570.899992 242.2304 569.732004 241.622406 568.996 240.4064 568.259996 239.190394 567.892 237.488011 567.892 235.2992 567.892 233.110389 568.259996 231.408006 568.996 230.192 569.732004 228.975994 570.899992 228.368 572.5 228.368 574.100008 228.368 575.267996 228.975994 576.004 230.192 576.740004 231.408006 577.108 233.110389 577.108 235.2992 577.108 237.488011 576.740004 239.190394 576.004 240.4064 575.267996 241.622406 574.100008 242.2304 572.5 242.2304zM572.5 240.8288C573.024803 240.8288 573.472798 240.720001 573.844 240.5024 574.215202 240.284799 574.515999 239.977602 574.7464 239.5808 574.976801 239.183998 575.146399 238.716803 575.2552 238.1792 575.364001 237.641597 575.4184 237.046403 575.4184 236.3936L575.4184 234.2048C575.4184 233.551997 575.364001 232.956803 575.2552 232.4192 575.146399 231.881597 574.976801 231.414402 574.7464 231.0176 574.515999 230.620798 574.215202 230.313601 573.844 230.096 573.472798 229.878399 573.024803 229.7696 572.5 229.7696 571.975197 229.7696 571.527202 229.878399 571.156 230.096 570.784798 230.313601 570.484001 230.620798 570.2536 231.0176 570.023199 231.414402 569.853601 231.881597 569.7448 232.4192 569.635999 232.956803 569.5816 233.551997 569.5816 234.2048L569.5816 236.3936C569.5816 237.046403 569.635999 237.641597 569.7448 238.1792 569.853601 238.716803 570.023199 239.183998 570.2536 239.5808 570.484001 239.977602 570.784798 240.284799 571.156 240.5024 571.527202 240.720001 571.975197 240.8288 572.5 240.8288zM584.02 242.2304C582.419992 242.2304 581.252004 241.622406 580.516 240.4064 579.779996 239.190394 579.412 237.488011 579.412 235.2992 579.412 233.110389 579.779996 231.408006 580.516 230.192 581.252004 228.975994 582.419992 228.368 584.02 228.368 585.620008 228.368 586.787996 228.975994 587.524 230.192 588.260004 231.408006 588.628 233.110389 588.628 235.2992 588.628 237.488011 588.260004 239.190394 587.524 240.4064 586.787996 241.622406 585.620008 242.2304 584.02 242.2304zM584.02 240.8288C584.544803 240.8288 584.992798 240.720001 585.364 240.5024 585.735202 240.284799 586.035999 239.977602 586.2664 239.5808 586.496801 239.183998 586.666399 238.716803 586.7752 238.1792 586.884001 237.641597 586.9384 237.046403 586.9384 236.3936L586.9384 234.2048C586.9384 233.551997 586.884001 232.956803 586.7752 232.4192 586.666399 231.881597 586.496801 231.414402 586.2664 231.0176 586.035999 230.620798 585.735202 230.313601 585.364 230.096 584.992798 229.878399 584.544803 229.7696 584.02 229.7696 583.495197 229.7696 583.047202 229.878399 582.676 230.096 582.304798 230.313601 582.004001 230.620798 581.7736 231.0176 581.543199 231.414402 581.373601 231.881597 581.2648 232.4192 581.155999 232.956803 581.1016 233.551997 581.1016 234.2048L581.1016 236.3936C581.1016 237.046403 581.155999 237.641597 581.2648 238.1792 581.373601 238.716803 581.543199 239.183998 581.7736 239.5808 582.004001 239.977602 582.304798 240.284799 582.676 240.5024 583.047202 240.720001 583.495197 240.8288 584.02 240.8288zM82.42 242L82.42 239.3696 75.9496 239.3696 75.9496 237.9488 81.556 228.5984 83.956 228.5984 83.956 238.0256 85.8952 238.0256 85.8952 239.3696 83.956 239.3696 83.956 242 82.42 242zM77.4664 238.0256L82.42 238.0256 82.42 229.8464 82.324 229.8464 77.4664 238.0256zM92.5 242.2304C90.899992 242.2304 89.7320037 241.622406 88.996 240.4064 88.2599963 239.190394 87.892 237.488011 87.892 235.2992 87.892 233.110389 88.2599963 231.408006 88.996 230.192 89.7320037 228.975994 90.899992 228.368 92.5 228.368 94.100008 228.368 95.2679963 228.975994 96.004 230.192 96.7400037 231.408006 97.108 233.110389 97.108 235.2992 97.108 237.488011 96.7400037 239.190394 96.004 240.4064 95.2679963 241.622406 94.100008 242.2304 92.5 242.2304zM92.5 240.8288C93.0248026 240.8288 93.4727981 240.720001 93.844 240.5024 94.2152019 240.284799 94.5159988 239.977602 94.7464 239.5808 94.9768012 239.183998 95.1463995 238.716803 95.2552 238.1792 95.3640005 237.641597 95.4184 237.046403 95.4184 236.3936L95.4184 234.2048C95.4184 233.551997 95.3640005 232.956803 95.2552 232.4192 95.1463995 231.881597 94.9768012 231.414402 94.7464 231.0176 94.5159988 230.620798 94.2152019 230.313601 93.844 230.096 93.4727981 229.878399 93.0248026 229.7696 92.5 229.7696 91.9751974 229.7696 91.5272019 229.878399 91.156 230.096 90.7847981 230.313601 90.4840012 230.620798 90.2536 231.0176 90.0231988 231.414402 89.8536005 231.881597 89.7448 232.4192 89.6359995 232.956803 89.5816 233.551997 89.5816 234.2048L89.5816 236.3936C89.5816 237.046403 89.6359995 237.641597 89.7448 238.1792 89.8536005 238.716803 90.0231988 239.183998 90.2536 239.5808 90.4840012 239.977602 90.7847981 240.284799 91.156 240.5024 91.5272019 240.720001 91.9751974 240.8288 92.5 240.8288zM104.02 242.2304C102.419992 242.2304 101.252004 241.622406 100.516 240.4064 99.7799963 239.190394 99.412 237.488011 99.412 235.2992 99.412 233.110389 99.7799963 231.408006 100.516 230.192 101.252004 228.975994 102.419992 228.368 104.02 228.368 105.620008 228.368 106.787996 228.975994 107.524 230.192 108.260004 231.408006 108.628 233.110389 108.628 235.2992 108.628 237.488011 108.260004 239.190394 107.524 240.4064 106.787996 241.622406 105.620008 242.2304 104.02 242.2304zM104.02 240.8288C104.544803 240.8288 104.992798 240.720001 105.364 240.5024 105.735202 240.284799 106.035999 239.977602 106.2664 239.5808 106.496801 239.183998 106.666399 238.716803 106.7752 238.1792 106.884001 237.641597 106.9384 237.046403 106.9384 236.3936L106.9384 234.2048C106.9384 233.551997 106.884001 232.956803 106.7752 232.4192 106.666399 231.881597 106.496801 231.414402 106.2664 231.0176 106.035999 230.620798 105.735202 230.313601 105.364 230.096 104.992798 229.878399 104.544803 229.7696 104.02 229.7696 103.495197 229.7696 103.047202 229.878399 102.676 230.096 102.304798 230.313601 102.004001 230.620798 101.7736 231.0176 101.543199 231.414402 101.373601 231.881597 101.2648 232.4192 101.155999 232.956803 101.1016 233.551997 101.1016 234.2048L101.1016 236.3936C101.1016 237.046403 101.155999 237.641597 101.2648 238.1792 101.373601 238.716803 101.543199 239.183998 101.7736 239.5808 102.004001 239.977602 102.304798 240.284799 102.676 240.5024 103.047202 240.720001 103.495197 240.8288 104.02 240.8288z"/>
    <path stroke="#979797" stroke-linecap="square" stroke-width="2" d="M55,213 L65,213"/>
    <path stroke="#5D76E8" stroke-width="2.5" d="M59,212.480475 L67.1081081,212.040672 L75.2162162,211.021617 L83.3243243,209.288157 C87.6846847,207.536982 90.3873874,206.405652 91.4324324,205.89417 C93,205.126946 96.6630859,203.489258 99.5405405,201.351358 C102.417995,199.213457 105.297297,194.98602 107.648649,190.924929 C110,186.863838 113.22316,180.687665 115.756757,173.343832 C117.445821,168.447944 120.148524,158.64031 123.864865,143.920931 L131.972973,101.718969 L140.081081,64.5506209 C143.614804,52.0551869 146.317507,43.571047 148.189189,39.0982012 C150.996713,32.3889325 154.555545,27.6344701 156.297297,25.7979857 C158.039049,23.9615013 162.574838,22.2996831 164.405405,22 C166.235972,21.7003169 169.26799,22.3086786 172.513514,23.1432198 C175.759037,23.9777611 178.809946,24.9311676 180.621622,26.1697748 C182.433298,27.408382 185.851239,30.1075408 188.72973,34.2299269 C193.959347,41.7194435 193.820444,41.7667274 196.837838,49.3935801 C200.231647,57.9718702 202.93435,66.5801777 204.945946,75.2185026 L213.054054,101.614812 L221.162162,126.21547 L229.27027,147.366596 L237.378378,163.623659 L245.486486,175.699806 L253.594595,184.515957 L261.702703,191.043836 C264.566762,193.268527 267.269465,195.248535 269.810811,196.98386 C273.62283,199.586846 274.343494,200.164603 277.918919,202.116864 C280.302536,203.418372 283.005238,204.658841 286.027027,205.838273 L294.135135,208.190349 L302.243243,209.881783 L310.351351,211.249575 L318.459459,212.296068 L326.567568,213.037427 L334.675676,213.51739 L342.783784,213.803171 L350.891892,213.948213 L359,214 L367.108108,213.982712 L375.216216,213.914441 L383.324324,213.82028 L391.432432,213.730491 L399.540541,213.64556 L407.648649,213.544471 L415.756757,213.465103 L423.864865,213.397487 L431.972973,213.3515 L440.081081,213.30314 L448.189189,213.262783 L456.297297,213.237571 L464.405405,213.217481 L472.513514,213.201718 L480.621622,213.190472 L488.72973,213.183368 L496.837838,213.179418 L504.945946,213.176362 L513.054054,213.174573 L521.162162,213.173597 L529.27027,213.173027 L537.378378,213.172714 L545.486486,213.172527 L553.594595,213.172419 L561.702703,213.172379 L569.810811,213.172365 L577.918919,213.172361 L586.027027,213.172361 L594.135135,213.172361 L602.243243,213.172361 L610.351351,213.172361 L618.459459,213.172361 L626.567568,213.172361 L634.675676,213.172361"/>
    <path stroke="#35C25B" stroke-width="2.5" d="M59,213.155772 L67.1081081,213.160838 L75.2162162,213.172638 L83.3243243,213.192061 L91.4324324,213.231164 L99.5405405,213.28095 L107.648649,213.390359 L115.756757,213.565619 L123.864865,213.809779 L131.972973,214 L140.081081,213.864236 L148.189189,213.272464 L156.297297,212.250246 L164.405405,210.871015 L172.513514,209.076076 L180.621622,206.864384 L188.72973,204.222016 L196.837838,201.269712 L204.945946,197.893959 L213.054054,194.01513 L221.162162,189.622158 L229.27027,184.82014 L237.378378,178.949767 L245.486486,171.383409 L253.594595,161.84313 L261.702703,149.479735 L269.810811,135.848942 L277.918919,121.411918 L286.027027,108.154949 L294.135135,98.2687377 L302.243243,91.0358808 L310.351351,86.4351576 C313.71421,85.2036741 316.416912,84.4345698 318.459459,84.1278445 C321.52328,83.6677565 321.765317,83.4863653 326.567568,84 C329.769068,84.3424231 332.471771,84.9631842 334.675676,85.8622833 L342.783784,89.431251 L350.891892,94.7251023 L359,101.8214 L367.108108,110.449558 L375.216216,120.410786 L383.324324,131.344087 L391.432432,142.90747 L399.540541,154.520958 L407.648649,165.60943 L415.756757,175.607563 L423.864865,184.440258 L431.972973,191.766262 L440.081081,197.625678 L448.189189,202.159683 L456.297297,205.61715 L464.405405,208.141335 L472.513514,209.917233 L480.621622,211.138882 L488.72973,211.949671 L496.837838,212.447814 L504.945946,212.750819 L513.054054,212.928307 L521.162162,213.02503 L529.27027,213.081614 L537.378378,213.112642 L545.486486,213.131114 L553.594595,213.141852 L561.702703,213.14583 L569.810811,213.147267 L577.918919,213.147671 L586.027027,213.147667 L594.135135,213.14763 L602.243243,213.147614 L610.351351,213.147615 L618.459459,213.147618 L626.567568,213.147626 L634.675676,213.14764"/>
    <path stroke="#E74C3C" stroke-width="2.5" d="M59,212.982425 L67.1081081,212.970671 L75.2162162,212.944308 L83.3243243,212.901384 L91.4324324,212.81897 L99.5405405,212.717688 L107.648649,212.501457 L115.756757,212.173715 L123.864865,211.732184 L131.972973,211.417501 L140.081081,211.692689 L148.189189,212.787425 L156.297297,214.570679 L164.405405,217.033216 L172.513514,220.261895 L180.621622,224.20541 L188.72973,228.618872 L196.837838,232.886157 L204.945946,236.546824 L213.054054,239.75576 L221.162162,242.549847 L229.27027,245.110386 L237.378378,247.796675 L245.486486,251.388106 L253.594595,255.926929 L261.702703,261.597877 L269.810811,266.274823 C272.806978,267.768355 275.509681,268.676748 277.918919,269 C281.532776,269.484879 283.58201,269.248637 286.027027,268.450585 C288.472044,267.652534 291.495637,265.816204 294.135135,263.707041 C295.8948,262.300932 298.597503,259.562775 302.243243,255.49257 L310.351351,244.811588 L318.459459,231.865707 L326.567568,216.666087 L334.675676,199.35742 L342.783784,180.004442 L350.891892,158.790066 L359,136.164835 L367.108108,112.645983 L375.216216,89.0213953 L383.324324,66.2215162 L391.432432,45.5085323 L399.540541,27.9176197 C402.93747,21.5051408 405.640173,17.0003315 407.648649,14.4031918 C410.661362,10.5074823 413.083476,8.49873008 415.756757,6.94859194 C418.430038,5.39845379 421.324456,5 423.864865,5 C426.405273,5 430.203125,7.93603516 431.972973,9.69775392 C433.152872,10.8722331 435.855574,14.2737972 440.081081,19.9024463 C442.431948,23.4358213 445.134651,28.5375129 448.189189,35.2075213 C451.243727,41.8775296 453.94643,48.5792917 456.297297,55.3128078 L464.405405,77.2899341 L472.513514,97.8994986 L480.621622,117.451469 L488.72973,135.769216 L496.837838,152.164476 L504.945946,165.980573 L513.054054,177.497707 L521.162162,186.882395 L529.27027,194.152439 L537.378378,199.277099 L545.486486,202.903137 L553.594595,205.894247 L561.702703,208.096363 L569.810811,209.578169 L577.918919,210.546429 L586.027027,211.248447 L594.135135,211.750126 L602.243243,212.113463 L610.351351,212.37499 L618.459459,212.558705 L626.567568,212.690328 L634.675676,212.78542"/>
    <path stroke="#979797" stroke-linecap="square" stroke-width="2" d="M55 153L65 153M55 273L65 273M55 93L65 93M55 33L65 33"/>
    <path fill="#333" fill-rule="nonzero" d="M23.6288 221.2304C22.028792 221.2304 20.8608037 220.622406 20.1248 219.4064 19.3887963 218.190394 19.0208 216.488011 19.0208 214.2992 19.0208 212.110389 19.3887963 210.408006 20.1248 209.192 20.8608037 207.975994 22.028792 207.368 23.6288 207.368 25.228808 207.368 26.3967963 207.975994 27.1328 209.192 27.8688037 210.408006 28.2368 212.110389 28.2368 214.2992 28.2368 216.488011 27.8688037 218.190394 27.1328 219.4064 26.3967963 220.622406 25.228808 221.2304 23.6288 221.2304zM23.6288 219.8288C24.1536026 219.8288 24.6015981 219.720001 24.9728 219.5024 25.3440019 219.284799 25.6447988 218.977602 25.8752 218.5808 26.1056012 218.183998 26.2751995 217.716803 26.384 217.1792 26.4928005 216.641597 26.5472 216.046403 26.5472 215.3936L26.5472 213.2048C26.5472 212.551997 26.4928005 211.956803 26.384 211.4192 26.2751995 210.881597 26.1056012 210.414402 25.8752 210.0176 25.6447988 209.620798 25.3440019 209.313601 24.9728 209.096 24.6015981 208.878399 24.1536026 208.7696 23.6288 208.7696 23.1039974 208.7696 22.6560019 208.878399 22.2848 209.096 21.9135981 209.313601 21.6128012 209.620798 21.3824 210.0176 21.1519988 210.414402 20.9824005 210.881597 20.8736 211.4192 20.7647995 211.956803 20.7104 212.551997 20.7104 213.2048L20.7104 215.3936C20.7104 216.046403 20.7647995 216.641597 20.8736 217.1792 20.9824005 217.716803 21.1519988 218.183998 21.3824 218.5808 21.6128012 218.977602 21.9135981 219.284799 22.2848 219.5024 22.6560019 219.720001 23.1039974 219.8288 23.6288 219.8288zM32 221.2304C31.590398 221.2304 31.2928009 221.128001 31.1072 220.9232 30.9215991 220.718399 30.8288 220.449602 30.8288 220.1168L30.8288 219.8672C30.8288 219.534398 30.9215991 219.265601 31.1072 219.0608 31.2928009 218.855999 31.590398 218.7536 32 218.7536 32.409602 218.7536 32.7071991 218.855999 32.8928 219.0608 33.0784009 219.265601 33.1712 219.534398 33.1712 219.8672L33.1712 220.1168C33.1712 220.449602 33.0784009 220.718399 32.8928 220.9232 32.7071991 221.128001 32.409602 221.2304 32 221.2304zM40.3712 221.2304C38.771192 221.2304 37.6032037 220.622406 36.8672 219.4064 36.1311963 218.190394 35.7632 216.488011 35.7632 214.2992 35.7632 212.110389 36.1311963 210.408006 36.8672 209.192 37.6032037 207.975994 38.771192 207.368 40.3712 207.368 41.971208 207.368 43.1391963 207.975994 43.8752 209.192 44.6112037 210.408006 44.9792 212.110389 44.9792 214.2992 44.9792 216.488011 44.6112037 218.190394 43.8752 219.4064 43.1391963 220.622406 41.971208 221.2304 40.3712 221.2304zM40.3712 219.8288C40.8960026 219.8288 41.3439981 219.720001 41.7152 219.5024 42.0864019 219.284799 42.3871988 218.977602 42.6176 218.5808 42.8480012 218.183998 43.0175995 217.716803 43.1264 217.1792 43.2352005 216.641597 43.2896 216.046403 43.2896 215.3936L43.2896 213.2048C43.2896 212.551997 43.2352005 211.956803 43.1264 211.4192 43.0175995 210.881597 42.8480012 210.414402 42.6176 210.0176 42.3871988 209.620798 42.0864019 209.313601 41.7152 209.096 41.3439981 208.878399 40.8960026 208.7696 40.3712 208.7696 39.8463974 208.7696 39.3984019 208.878399 39.0272 209.096 38.6559981 209.313601 38.3552012 209.620798 38.1248 210.0176 37.8943988 210.414402 37.7248005 210.881597 37.616 211.4192 37.5071995 211.956803 37.4528 212.551997 37.4528 213.2048L37.4528 215.3936C37.4528 216.046403 37.5071995 216.641597 37.616 217.1792 37.7248005 217.716803 37.8943988 218.183998 38.1248 218.5808 38.3552012 218.977602 38.6559981 219.284799 39.0272 219.5024 39.3984019 219.720001 39.8463974 219.8288 40.3712 219.8288zM7.504 275.7968L7.504 274.4912 16.4512 274.4912 16.4512 275.7968 7.504 275.7968zM23.4976 281.2304C21.897592 281.2304 20.7296037 280.622406 19.9936 279.4064 19.2575963 278.190394 18.8896 276.488011 18.8896 274.2992 18.8896 272.110389 19.2575963 270.408006 19.9936 269.192 20.7296037 267.975994 21.897592 267.368 23.4976 267.368 25.097608 267.368 26.2655963 267.975994 27.0016 269.192 27.7376037 270.408006 28.1056 272.110389 28.1056 274.2992 28.1056 276.488011 27.7376037 278.190394 27.0016 279.4064 26.2655963 280.622406 25.097608 281.2304 23.4976 281.2304zM23.4976 279.8288C24.0224026 279.8288 24.4703981 279.720001 24.8416 279.5024 25.2128019 279.284799 25.5135988 278.977602 25.744 278.5808 25.9744012 278.183998 26.1439995 277.716803 26.2528 277.1792 26.3616005 276.641597 26.416 276.046403 26.416 275.3936L26.416 273.2048C26.416 272.551997 26.3616005 271.956803 26.2528 271.4192 26.1439995 270.881597 25.9744012 270.414402 25.744 270.0176 25.5135988 269.620798 25.2128019 269.313601 24.8416 269.096 24.4703981 268.878399 24.0224026 268.7696 23.4976 268.7696 22.9727974 268.7696 22.5248019 268.878399 22.1536 269.096 21.7823981 269.313601 21.4816012 269.620798 21.2512 270.0176 21.0207988 270.414402 20.8512005 270.881597 20.7424 271.4192 20.6335995 271.956803 20.5792 272.551997 20.5792 273.2048L20.5792 275.3936C20.5792 276.046403 20.6335995 276.641597 20.7424 277.1792 20.8512005 277.716803 21.0207988 278.183998 21.2512 278.5808 21.4816012 278.977602 21.7823981 279.284799 22.1536 279.5024 22.5248019 279.720001 22.9727974 279.8288 23.4976 279.8288zM31.8688 281.2304C31.459198 281.2304 31.1616009 281.128001 30.976 280.9232 30.7903991 280.718399 30.6976 280.449602 30.6976 280.1168L30.6976 279.8672C30.6976 279.534398 30.7903991 279.265601 30.976 279.0608 31.1616009 278.855999 31.459198 278.7536 31.8688 278.7536 32.278402 278.7536 32.5759991 278.855999 32.7616 279.0608 32.9472009 279.265601 33.04 279.534398 33.04 279.8672L33.04 280.1168C33.04 280.449602 32.9472009 280.718399 32.7616 280.9232 32.5759991 281.128001 32.278402 281.2304 31.8688 281.2304zM36.1696 281L36.1696 279.5792 39.9136 279.5792 39.9136 268.7888 39.7792 268.7888 36.4 271.9376 35.4592 270.92 39.0112 267.5984 41.5264 267.5984 41.5264 279.5792 44.9824 279.5792 44.9824 281 36.1696 281zM23.6288 161.2304C22.028792 161.2304 20.8608037 160.622406 20.1248 159.4064 19.3887963 158.190394 19.0208 156.488011 19.0208 154.2992 19.0208 152.110389 19.3887963 150.408006 20.1248 149.192 20.8608037 147.975994 22.028792 147.368 23.6288 147.368 25.228808 147.368 26.3967963 147.975994 27.1328 149.192 27.8688037 150.408006 28.2368 152.110389 28.2368 154.2992 28.2368 156.488011 27.8688037 158.190394 27.1328 159.4064 26.3967963 160.622406 25.228808 161.2304 23.6288 161.2304zM23.6288 159.8288C24.1536026 159.8288 24.6015981 159.720001 24.9728 159.5024 25.3440019 159.284799 25.6447988 158.977602 25.8752 158.5808 26.1056012 158.183998 26.2751995 157.716803 26.384 157.1792 26.4928005 156.641597 26.5472 156.046403 26.5472 155.3936L26.5472 153.2048C26.5472 152.551997 26.4928005 151.956803 26.384 151.4192 26.2751995 150.881597 26.1056012 150.414402 25.8752 150.0176 25.6447988 149.620798 25.3440019 149.313601 24.9728 149.096 24.6015981 148.878399 24.1536026 148.7696 23.6288 148.7696 23.1039974 148.7696 22.6560019 148.878399 22.2848 149.096 21.9135981 149.313601 21.6128012 149.620798 21.3824 150.0176 21.1519988 150.414402 20.9824005 150.881597 20.8736 151.4192 20.7647995 151.956803 20.7104 152.551997 20.7104 153.2048L20.7104 155.3936C20.7104 156.046403 20.7647995 156.641597 20.8736 157.1792 20.9824005 157.716803 21.1519988 158.183998 21.3824 158.5808 21.6128012 158.977602 21.9135981 159.284799 22.2848 159.5024 22.6560019 159.720001 23.1039974 159.8288 23.6288 159.8288zM32 161.2304C31.590398 161.2304 31.2928009 161.128001 31.1072 160.9232 30.9215991 160.718399 30.8288 160.449602 30.8288 160.1168L30.8288 159.8672C30.8288 159.534398 30.9215991 159.265601 31.1072 159.0608 31.2928009 158.855999 31.590398 158.7536 32 158.7536 32.409602 158.7536 32.7071991 158.855999 32.8928 159.0608 33.0784009 159.265601 33.1712 159.534398 33.1712 159.8672L33.1712 160.1168C33.1712 160.449602 33.0784009 160.718399 32.8928 160.9232 32.7071991 161.128001 32.409602 161.2304 32 161.2304zM36.3008 161L36.3008 159.5792 40.0448 159.5792 40.0448 148.7888 39.9104 148.7888 36.5312 151.9376 35.5904 150.92 39.1424 147.5984 41.6576 147.5984 41.6576 159.5792 45.1136 159.5792 45.1136 161 36.3008 161zM23.6288 101.2304C22.028792 101.2304 20.8608037 100.622406 20.1248 99.4064 19.3887963 98.1903939 19.0208 96.4880109 19.0208 94.2992 19.0208 92.1103891 19.3887963 90.4080061 20.1248 89.192 20.8608037 87.9759939 22.028792 87.368 23.6288 87.368 25.228808 87.368 26.3967963 87.9759939 27.1328 89.192 27.8688037 90.4080061 28.2368 92.1103891 28.2368 94.2992 28.2368 96.4880109 27.8688037 98.1903939 27.1328 99.4064 26.3967963 100.622406 25.228808 101.2304 23.6288 101.2304zM23.6288 99.8288C24.1536026 99.8288 24.6015981 99.7200011 24.9728 99.5024 25.3440019 99.2847989 25.6447988 98.977602 25.8752 98.5808 26.1056012 98.183998 26.2751995 97.7168027 26.384 97.1792 26.4928005 96.6415973 26.5472 96.0464033 26.5472 95.3936L26.5472 93.2048C26.5472 92.5519967 26.4928005 91.9568027 26.384 91.4192 26.2751995 90.8815973 26.1056012 90.414402 25.8752 90.0176 25.6447988 89.620798 25.3440019 89.3136011 24.9728 89.096 24.6015981 88.8783989 24.1536026 88.7696 23.6288 88.7696 23.1039974 88.7696 22.6560019 88.8783989 22.2848 89.096 21.9135981 89.3136011 21.6128012 89.620798 21.3824 90.0176 21.1519988 90.414402 20.9824005 90.8815973 20.8736 91.4192 20.7647995 91.9568027 20.7104 92.5519967 20.7104 93.2048L20.7104 95.3936C20.7104 96.0464033 20.7647995 96.6415973 20.8736 97.1792 20.9824005 97.7168027 21.1519988 98.183998 21.3824 98.5808 21.6128012 98.977602 21.9135981 99.2847989 22.2848 99.5024 22.6560019 99.7200011 23.1039974 99.8288 23.6288 99.8288zM32 101.2304C31.590398 101.2304 31.2928009 101.128001 31.1072 100.9232 30.9215991 100.718399 30.8288 100.449602 30.8288 100.1168L30.8288 99.8672C30.8288 99.5343983 30.9215991 99.265601 31.1072 99.0608 31.2928009 98.855999 31.590398 98.7536 32 98.7536 32.409602 98.7536 32.7071991 98.855999 32.8928 99.0608 33.0784009 99.265601 33.1712 99.5343983 33.1712 99.8672L33.1712 100.1168C33.1712 100.449602 33.0784009 100.718399 32.8928 100.9232 32.7071991 101.128001 32.409602 101.2304 32 101.2304zM44.8448 101L36.0512 101 36.0512 99.3488 40.4288 95.3168C41.0560031 94.7407971 41.5807979 94.1296032 42.0032 93.4832 42.4256021 92.8367968 42.6368 92.1872033 42.6368 91.5344L42.6368 91.304C42.6368 90.5615963 42.432002 89.9600023 42.0224 89.4992 41.612798 89.0383977 40.9920042 88.808 40.16 88.808 39.750398 88.808 39.3920015 88.8655994 39.0848 88.9808 38.7775985 89.0960006 38.5120011 89.255999 38.288 89.4608 38.0639989 89.665601 37.8784007 89.9055986 37.7312 90.1808 37.5839993 90.4560014 37.4656004 90.7535984 37.376 91.0736L35.936 90.5168C36.0640006 90.119998 36.2399989 89.7328019 36.464 89.3552 36.6880011 88.9775981 36.9695983 88.6416015 37.3088 88.3472 37.6480017 88.0527985 38.0575976 87.8160009 38.5376 87.6368 39.0176024 87.4575991 39.5839967 87.368 40.2368 87.368 40.8896033 87.368 41.4719974 87.463999 41.984 87.656 42.4960026 87.848001 42.9247983 88.1167983 43.2704 88.4624 43.6160017 88.8080017 43.8815991 89.2175976 44.0672 89.6912 44.2528009 90.1648024 44.3456 90.6895971 44.3456 91.2656 44.3456 91.7904026 44.2720007 92.2767978 44.1248 92.7248 43.9775993 93.1728022 43.7760013 93.598398 43.52 94.0016 43.2639987 94.404802 42.9536018 94.7983981 42.5888 95.1824 42.2239982 95.5664019 41.8304021 95.9503981 41.408 96.3344L37.7984 99.5792 44.8448 99.5792 44.8448 101zM23.6288 41.2304C22.028792 41.2304 20.8608037 40.6224061 20.1248 39.4064 19.3887963 38.1903939 19.0208 36.4880109 19.0208 34.2992 19.0208 32.1103891 19.3887963 30.4080061 20.1248 29.192 20.8608037 27.9759939 22.028792 27.368 23.6288 27.368 25.228808 27.368 26.3967963 27.9759939 27.1328 29.192 27.8688037 30.4080061 28.2368 32.1103891 28.2368 34.2992 28.2368 36.4880109 27.8688037 38.1903939 27.1328 39.4064 26.3967963 40.6224061 25.228808 41.2304 23.6288 41.2304zM23.6288 39.8288C24.1536026 39.8288 24.6015981 39.7200011 24.9728 39.5024 25.3440019 39.2847989 25.6447988 38.977602 25.8752 38.5808 26.1056012 38.183998 26.2751995 37.7168027 26.384 37.1792 26.4928005 36.6415973 26.5472 36.0464033 26.5472 35.3936L26.5472 33.2048C26.5472 32.5519967 26.4928005 31.9568027 26.384 31.4192 26.2751995 30.8815973 26.1056012 30.414402 25.8752 30.0176 25.6447988 29.620798 25.3440019 29.3136011 24.9728 29.096 24.6015981 28.8783989 24.1536026 28.7696 23.6288 28.7696 23.1039974 28.7696 22.6560019 28.8783989 22.2848 29.096 21.9135981 29.3136011 21.6128012 29.620798 21.3824 30.0176 21.1519988 30.414402 20.9824005 30.8815973 20.8736 31.4192 20.7647995 31.9568027 20.7104 32.5519967 20.7104 33.2048L20.7104 35.3936C20.7104 36.0464033 20.7647995 36.6415973 20.8736 37.1792 20.9824005 37.7168027 21.1519988 38.183998 21.3824 38.5808 21.6128012 38.977602 21.9135981 39.2847989 22.2848 39.5024 22.6560019 39.7200011 23.1039974 39.8288 23.6288 39.8288zM32 41.2304C31.590398 41.2304 31.2928009 41.128001 31.1072 40.9232 30.9215991 40.718399 30.8288 40.4496017 30.8288 40.1168L30.8288 39.8672C30.8288 39.5343983 30.9215991 39.265601 31.1072 39.0608 31.2928009 38.855999 31.590398 38.7536 32 38.7536 32.409602 38.7536 32.7071991 38.855999 32.8928 39.0608 33.0784009 39.265601 33.1712 39.5343983 33.1712 39.8672L33.1712 40.1168C33.1712 40.4496017 33.0784009 40.718399 32.8928 40.9232 32.7071991 41.128001 32.409602 41.2304 32 41.2304zM39.6224 33.2816C40.5312045 33.2816 41.2127977 33.0736021 41.6672 32.6576 42.1216023 32.2415979 42.3488 31.7072033 42.3488 31.0544L42.3488 30.92C42.3488 30.2159965 42.1280022 29.6880018 41.6864 29.336 41.2447978 28.9839982 40.6656036 28.808 39.9488 28.808 39.2575965 28.808 38.6944022 28.9583985 38.2592 29.2592 37.8239978 29.5600015 37.4656014 29.9663974 37.184 30.4784L35.9936 29.5568C36.1600008 29.2879987 36.3615988 29.0224013 36.5984 28.76 36.8352012 28.4975987 37.1135984 28.264001 37.4336 28.0592 37.7536016 27.854399 38.1247979 27.6880006 38.5472 27.56 38.9696021 27.4319994 39.4495973 27.368 39.9872 27.368 40.5504028 27.368 41.0815975 27.4415993 41.5808 27.5888 42.0800025 27.7360007 42.5119982 27.9535986 42.8768 28.2416 43.2416018 28.5296014 43.5295989 28.8847979 43.7408 29.3072 43.9520011 29.7296021 44.0576 30.2095973 44.0576 30.7472 44.0576 31.1824022 43.9904007 31.5727983 43.856 31.9184 43.7215993 32.2640017 43.5392012 32.5647987 43.3088 32.8208 43.0783988 33.0768013 42.8064016 33.2943991 42.4928 33.4736 42.1791984 33.6528009 41.8432018 33.7871996 41.4848 33.8768L41.4848 33.9536C41.8432018 34.0304004 42.1919983 34.1551991 42.5312 34.328 42.8704017 34.5008009 43.1711987 34.7247986 43.4336 35 43.6960013 35.2752014 43.9071992 35.607998 44.0672 35.9984 44.2272008 36.388802 44.3072 36.8335975 44.3072 37.3328 44.3072 37.9088029 44.1984011 38.4367976 43.9808 38.9168 43.7631989 39.3968024 43.456002 39.8063983 43.0592 40.1456 42.662398 40.4848017 42.1824028 40.750399 41.6192 40.9424 41.0559972 41.134401 40.4352034 41.2304 39.7568 41.2304 39.1807971 41.2304 38.6688022 41.1664006 38.2208 41.0384 37.7727978 40.9103994 37.3760017 40.7376011 37.0304 40.52 36.6847983 40.3023989 36.3808013 40.0592013 36.1184 39.7904 35.8559987 39.5215987 35.622401 39.2400015 35.4176 38.9456L36.6272 38.024C36.7936008 38.2928013 36.975999 38.5359989 37.1744 38.7536 37.372801 38.9712011 37.5935988 39.1567992 37.8368 39.3104 38.0800012 39.4640008 38.3551985 39.5823996 38.6624 39.6656 38.9696015 39.7488004 39.327998 39.7904 39.7376 39.7904 40.6848047 39.7904 41.4015976 39.5760021 41.888 39.1472 42.3744024 38.7183979 42.6176 38.107204 42.6176 37.3136L42.6176 37.16C42.6176 36.366396 42.3744024 35.7552021 41.888 35.3264 41.4015976 34.8975979 40.6848047 34.6832 39.7376 34.6832L38.1632 34.6832 38.1632 33.2816 39.6224 33.2816z"/>
  </g>
</svg>
