<svg xmlns="http://www.w3.org/2000/svg" width="420" height="410" viewBox="0 0 420 410">
  <g fill="none" fill-rule="evenodd">
    <path stroke="#F2F2F2" stroke-linecap="square" d="M49 18L399 18M49 88L399 88M49 158L399 158M49 228L399 228M49 298L399 298M49 333L399 333M49 263L399 263M49 193L399 193M49 123L399 123M49 53L399 53M399 368L399 18M329 368L329 18M259 368L259 18M189 368L189 18M119 368L119 18M84 368L84 18M154 368L154 18M224 368L224 18M294 368L294 18M364 368L364 18"/>
    <path stroke="#979797" stroke-linecap="square" stroke-width="2" d="M49 368L399 368M49 373L49 363M399 373L399 363M329 370L329 366M259 370L259 366M189 370L189 366M119 370L119 366"/>
    <path fill="#333" fill-rule="nonzero" d="M40.6288 401.2304C39.028792 401.2304 37.8608037 400.622406 37.1248 399.4064 36.3887963 398.190394 36.0208 396.488011 36.0208 394.2992 36.0208 392.110389 36.3887963 390.408006 37.1248 389.192 37.8608037 387.975994 39.028792 387.368 40.6288 387.368 42.228808 387.368 43.3967963 387.975994 44.1328 389.192 44.8688037 390.408006 45.2368 392.110389 45.2368 394.2992 45.2368 396.488011 44.8688037 398.190394 44.1328 399.4064 43.3967963 400.622406 42.228808 401.2304 40.6288 401.2304zM40.6288 399.8288C41.1536026 399.8288 41.6015981 399.720001 41.9728 399.5024 42.3440019 399.284799 42.6447988 398.977602 42.8752 398.5808 43.1056012 398.183998 43.2751995 397.716803 43.384 397.1792 43.4928005 396.641597 43.5472 396.046403 43.5472 395.3936L43.5472 393.2048C43.5472 392.551997 43.4928005 391.956803 43.384 391.4192 43.2751995 390.881597 43.1056012 390.414402 42.8752 390.0176 42.6447988 389.620798 42.3440019 389.313601 41.9728 389.096 41.6015981 388.878399 41.1536026 388.7696 40.6288 388.7696 40.1039974 388.7696 39.6560019 388.878399 39.2848 389.096 38.9135981 389.313601 38.6128012 389.620798 38.3824 390.0176 38.1519988 390.414402 37.9824005 390.881597 37.8736 391.4192 37.7647995 391.956803 37.7104 392.551997 37.7104 393.2048L37.7104 395.3936C37.7104 396.046403 37.7647995 396.641597 37.8736 397.1792 37.9824005 397.716803 38.1519988 398.183998 38.3824 398.5808 38.6128012 398.977602 38.9135981 399.284799 39.2848 399.5024 39.6560019 399.720001 40.1039974 399.8288 40.6288 399.8288zM49 401.2304C48.590398 401.2304 48.2928009 401.128001 48.1072 400.9232 47.9215991 400.718399 47.8288 400.449602 47.8288 400.1168L47.8288 399.8672C47.8288 399.534398 47.9215991 399.265601 48.1072 399.0608 48.2928009 398.855999 48.590398 398.7536 49 398.7536 49.409602 398.7536 49.7071991 398.855999 49.8928 399.0608 50.0784009 399.265601 50.1712 399.534398 50.1712 399.8672L50.1712 400.1168C50.1712 400.449602 50.0784009 400.718399 49.8928 400.9232 49.7071991 401.128001 49.409602 401.2304 49 401.2304zM57.3712 401.2304C55.771192 401.2304 54.6032037 400.622406 53.8672 399.4064 53.1311963 398.190394 52.7632 396.488011 52.7632 394.2992 52.7632 392.110389 53.1311963 390.408006 53.8672 389.192 54.6032037 387.975994 55.771192 387.368 57.3712 387.368 58.971208 387.368 60.1391963 387.975994 60.8752 389.192 61.6112037 390.408006 61.9792 392.110389 61.9792 394.2992 61.9792 396.488011 61.6112037 398.190394 60.8752 399.4064 60.1391963 400.622406 58.971208 401.2304 57.3712 401.2304zM57.3712 399.8288C57.8960026 399.8288 58.3439981 399.720001 58.7152 399.5024 59.0864019 399.284799 59.3871988 398.977602 59.6176 398.5808 59.8480012 398.183998 60.0175995 397.716803 60.1264 397.1792 60.2352005 396.641597 60.2896 396.046403 60.2896 395.3936L60.2896 393.2048C60.2896 392.551997 60.2352005 391.956803 60.1264 391.4192 60.0175995 390.881597 59.8480012 390.414402 59.6176 390.0176 59.3871988 389.620798 59.0864019 389.313601 58.7152 389.096 58.3439981 388.878399 57.8960026 388.7696 57.3712 388.7696 56.8463974 388.7696 56.3984019 388.878399 56.0272 389.096 55.6559981 389.313601 55.3552012 389.620798 55.1248 390.0176 54.8943988 390.414402 54.7248005 390.881597 54.616 391.4192 54.5071995 391.956803 54.4528 392.551997 54.4528 393.2048L54.4528 395.3936C54.4528 396.046403 54.5071995 396.641597 54.616 397.1792 54.7248005 397.716803 54.8943988 398.183998 55.1248 398.5808 55.3552012 398.977602 55.6559981 399.284799 56.0272 399.5024 56.3984019 399.720001 56.8463974 399.8288 57.3712 399.8288zM386.5584 401L386.5584 399.5792 390.3024 399.5792 390.3024 388.7888 390.168 388.7888 386.7888 391.9376 385.848 390.92 389.4 387.5984 391.9152 387.5984 391.9152 399.5792 395.3712 399.5792 395.3712 401 386.5584 401zM399 401.2304C398.590398 401.2304 398.292801 401.128001 398.1072 400.9232 397.921599 400.718399 397.8288 400.449602 397.8288 400.1168L397.8288 399.8672C397.8288 399.534398 397.921599 399.265601 398.1072 399.0608 398.292801 398.855999 398.590398 398.7536 399 398.7536 399.409602 398.7536 399.707199 398.855999 399.8928 399.0608 400.078401 399.265601 400.1712 399.534398 400.1712 399.8672L400.1712 400.1168C400.1712 400.449602 400.078401 400.718399 399.8928 400.9232 399.707199 401.128001 399.409602 401.2304 399 401.2304zM407.3712 401.2304C405.771192 401.2304 404.603204 400.622406 403.8672 399.4064 403.131196 398.190394 402.7632 396.488011 402.7632 394.2992 402.7632 392.110389 403.131196 390.408006 403.8672 389.192 404.603204 387.975994 405.771192 387.368 407.3712 387.368 408.971208 387.368 410.139196 387.975994 410.8752 389.192 411.611204 390.408006 411.9792 392.110389 411.9792 394.2992 411.9792 396.488011 411.611204 398.190394 410.8752 399.4064 410.139196 400.622406 408.971208 401.2304 407.3712 401.2304zM407.3712 399.8288C407.896003 399.8288 408.343998 399.720001 408.7152 399.5024 409.086402 399.284799 409.387199 398.977602 409.6176 398.5808 409.848001 398.183998 410.017599 397.716803 410.1264 397.1792 410.235201 396.641597 410.2896 396.046403 410.2896 395.3936L410.2896 393.2048C410.2896 392.551997 410.235201 391.956803 410.1264 391.4192 410.017599 390.881597 409.848001 390.414402 409.6176 390.0176 409.387199 389.620798 409.086402 389.313601 408.7152 389.096 408.343998 388.878399 407.896003 388.7696 407.3712 388.7696 406.846397 388.7696 406.398402 388.878399 406.0272 389.096 405.655998 389.313601 405.355201 389.620798 405.1248 390.0176 404.894399 390.414402 404.724801 390.881597 404.616 391.4192 404.507199 391.956803 404.4528 392.551997 404.4528 393.2048L404.4528 395.3936C404.4528 396.046403 404.507199 396.641597 404.616 397.1792 404.724801 397.716803 404.894399 398.183998 405.1248 398.5808 405.355201 398.977602 405.655998 399.284799 406.0272 399.5024 406.398402 399.720001 406.846397 399.8288 407.3712 399.8288z"/>
    <path fill="#9C9C9C" fill-rule="nonzero" d="M211.995605,385.780273 C211.650552,385.780273 211.377931,385.969074 211.177734,386.34668 C210.977538,386.724286 210.877441,387.245114 210.877441,387.90918 C210.877441,388.583011 210.976724,389.109536 211.175293,389.48877 C211.373862,389.868003 211.647296,390.057617 211.995605,390.057617 C212.343915,390.057617 212.618163,389.868003 212.818359,389.48877 C213.018556,389.109536 213.118652,388.583011 213.118652,387.90918 C213.118652,387.245114 213.018556,386.724286 212.818359,386.34668 C212.618163,385.969074 212.343915,385.780273 211.995605,385.780273 Z M211.98584,384.681641 C212.734542,384.681641 213.328611,384.972165 213.768066,385.553223 C214.207522,386.13428 214.427246,386.922847 214.427246,387.918945 C214.427246,388.918299 214.207522,389.708493 213.768066,390.289551 C213.328611,390.870608 212.734542,391.161133 211.98584,391.161133 C211.243649,391.161133 210.655276,390.870608 210.220703,390.289551 C209.786131,389.708493 209.568848,388.918299 209.568848,387.918945 C209.568848,386.919591 209.786131,386.130211 210.220703,385.550781 C210.655276,384.971351 211.243649,384.681641 211.98584,384.681641 Z M218.73877,389.959961 L219.529785,389.959961 C219.747885,389.959961 219.905761,390.000651 220.003418,390.082031 C220.101075,390.163412 220.149902,390.296874 220.149902,390.482422 C220.149902,390.664714 220.102702,390.796549 220.008301,390.87793 C219.913899,390.95931 219.754396,391 219.529785,391 L216.648926,391 C216.424315,391 216.264812,390.95931 216.17041,390.87793 C216.076009,390.796549 216.028809,390.664714 216.028809,390.482422 C216.028809,390.296874 216.076822,390.163412 216.172852,390.082031 C216.268881,390.000651 216.427571,389.959961 216.648926,389.959961 L217.557129,389.959961 L217.557129,385.838867 L217.010254,385.980469 C216.925618,386 216.855632,386.014648 216.800293,386.024414 C216.744954,386.03418 216.704264,386.039062 216.678223,386.039062 C216.544758,386.039062 216.441407,385.996745 216.368164,385.912109 C216.294922,385.827474 216.258301,385.707032 216.258301,385.550781 C216.258301,385.436848 216.29899,385.340821 216.380371,385.262695 C216.461752,385.18457 216.587076,385.124349 216.756348,385.082031 L217.967285,384.75 C218.068197,384.723958 218.151204,384.704427 218.216309,384.691406 C218.281413,384.678385 218.335123,384.671875 218.377441,384.671875 C218.50765,384.671875 218.600423,384.707682 218.655762,384.779297 C218.711101,384.850912 218.73877,384.971353 218.73877,385.140625 L218.73877,389.959961 Z M224.739746,389.959961 L225.530762,389.959961 C225.748862,389.959961 225.906738,390.000651 226.004395,390.082031 C226.102051,390.163412 226.150879,390.296874 226.150879,390.482422 C226.150879,390.664714 226.103679,390.796549 226.009277,390.87793 C225.914876,390.95931 225.755372,391 225.530762,391 L222.649902,391 C222.425292,391 222.265788,390.95931 222.171387,390.87793 C222.076985,390.796549 222.029785,390.664714 222.029785,390.482422 C222.029785,390.296874 222.077799,390.163412 222.173828,390.082031 C222.269857,390.000651 222.428547,389.959961 222.649902,389.959961 L223.558105,389.959961 L223.558105,385.838867 L223.01123,385.980469 C222.926595,386 222.856608,386.014648 222.80127,386.024414 C222.745931,386.03418 222.705241,386.039062 222.679199,386.039062 C222.545735,386.039062 222.442383,385.996745 222.369141,385.912109 C222.295898,385.827474 222.259277,385.707032 222.259277,385.550781 C222.259277,385.436848 222.299967,385.340821 222.381348,385.262695 C222.462728,385.18457 222.588053,385.124349 222.757324,385.082031 L223.968262,384.75 C224.069174,384.723958 224.152181,384.704427 224.217285,384.691406 C224.28239,384.678385 224.3361,384.671875 224.378418,384.671875 C224.508627,384.671875 224.601399,384.707682 224.656738,384.779297 C224.712077,384.850912 224.739746,384.971353 224.739746,385.140625 L224.739746,389.959961 Z M229.998535,385.780273 C229.653481,385.780273 229.38086,385.969074 229.180664,386.34668 C228.980468,386.724286 228.880371,387.245114 228.880371,387.90918 C228.880371,388.583011 228.979654,389.109536 229.178223,389.48877 C229.376791,389.868003 229.650226,390.057617 229.998535,390.057617 C230.346844,390.057617 230.621093,389.868003 230.821289,389.48877 C231.021485,389.109536 231.121582,388.583011 231.121582,387.90918 C231.121582,387.245114 231.021485,386.724286 230.821289,386.34668 C230.621093,385.969074 230.346844,385.780273 229.998535,385.780273 Z M229.98877,384.681641 C230.737471,384.681641 231.331541,384.972165 231.770996,385.553223 C232.210451,386.13428 232.430176,386.922847 232.430176,387.918945 C232.430176,388.918299 232.210451,389.708493 231.770996,390.289551 C231.331541,390.870608 230.737471,391.161133 229.98877,391.161133 C229.246578,391.161133 228.658205,390.870608 228.223633,390.289551 C227.78906,389.708493 227.571777,388.918299 227.571777,387.918945 C227.571777,386.919591 227.78906,386.130211 228.223633,385.550781 C228.658205,384.971351 229.246578,384.681641 229.98877,384.681641 Z M236.741699,389.959961 L237.532715,389.959961 C237.750815,389.959961 237.908691,390.000651 238.006348,390.082031 C238.104004,390.163412 238.152832,390.296874 238.152832,390.482422 C238.152832,390.664714 238.105632,390.796549 238.01123,390.87793 C237.916829,390.95931 237.757325,391 237.532715,391 L234.651855,391 C234.427245,391 234.267741,390.95931 234.17334,390.87793 C234.078938,390.796549 234.031738,390.664714 234.031738,390.482422 C234.031738,390.296874 234.079752,390.163412 234.175781,390.082031 C234.27181,390.000651 234.4305,389.959961 234.651855,389.959961 L235.560059,389.959961 L235.560059,385.838867 L235.013184,385.980469 C234.928548,386 234.858561,386.014648 234.803223,386.024414 C234.747884,386.03418 234.707194,386.039062 234.681152,386.039062 C234.547688,386.039062 234.444336,385.996745 234.371094,385.912109 C234.297851,385.827474 234.26123,385.707032 234.26123,385.550781 C234.26123,385.436848 234.30192,385.340821 234.383301,385.262695 C234.464681,385.18457 234.590006,385.124349 234.759277,385.082031 L235.970215,384.75 C236.071127,384.723958 236.154134,384.704427 236.219238,384.691406 C236.284343,384.678385 236.338053,384.671875 236.380371,384.671875 C236.51058,384.671875 236.603353,384.707682 236.658691,384.779297 C236.71403,384.850912 236.741699,384.971353 236.741699,385.140625 L236.741699,389.959961 Z M212.737793,401.959961 L213.528809,401.959961 C213.746909,401.959961 213.904785,402.000651 214.002441,402.082031 C214.100098,402.163412 214.148926,402.296874 214.148926,402.482422 C214.148926,402.664714 214.101726,402.796549 214.007324,402.87793 C213.912923,402.95931 213.753419,403 213.528809,403 L210.647949,403 C210.423339,403 210.263835,402.95931 210.169434,402.87793 C210.075032,402.796549 210.027832,402.664714 210.027832,402.482422 C210.027832,402.296874 210.075846,402.163412 210.171875,402.082031 C210.267904,402.000651 210.426594,401.959961 210.647949,401.959961 L211.556152,401.959961 L211.556152,397.838867 L211.009277,397.980469 C210.924642,398 210.854655,398.014648 210.799316,398.024414 C210.743978,398.03418 210.703288,398.039062 210.677246,398.039062 C210.543782,398.039062 210.44043,397.996745 210.367188,397.912109 C210.293945,397.827474 210.257324,397.707032 210.257324,397.550781 C210.257324,397.436848 210.298014,397.340821 210.379395,397.262695 C210.460775,397.18457 210.586099,397.124349 210.755371,397.082031 L211.966309,396.75 C212.067221,396.723958 212.150228,396.704427 212.215332,396.691406 C212.280437,396.678385 212.334147,396.671875 212.376465,396.671875 C212.506674,396.671875 212.599446,396.707682 212.654785,396.779297 C212.710124,396.850912 212.737793,396.971353 212.737793,397.140625 L212.737793,401.959961 Z M218.73877,401.959961 L219.529785,401.959961 C219.747885,401.959961 219.905761,402.000651 220.003418,402.082031 C220.101075,402.163412 220.149902,402.296874 220.149902,402.482422 C220.149902,402.664714 220.102702,402.796549 220.008301,402.87793 C219.913899,402.95931 219.754396,403 219.529785,403 L216.648926,403 C216.424315,403 216.264812,402.95931 216.17041,402.87793 C216.076009,402.796549 216.028809,402.664714 216.028809,402.482422 C216.028809,402.296874 216.076822,402.163412 216.172852,402.082031 C216.268881,402.000651 216.427571,401.959961 216.648926,401.959961 L217.557129,401.959961 L217.557129,397.838867 L217.010254,397.980469 C216.925618,398 216.855632,398.014648 216.800293,398.024414 C216.744954,398.03418 216.704264,398.039062 216.678223,398.039062 C216.544758,398.039062 216.441407,397.996745 216.368164,397.912109 C216.294922,397.827474 216.258301,397.707032 216.258301,397.550781 C216.258301,397.436848 216.29899,397.340821 216.380371,397.262695 C216.461752,397.18457 216.587076,397.124349 216.756348,397.082031 L217.967285,396.75 C218.068197,396.723958 218.151204,396.704427 218.216309,396.691406 C218.281413,396.678385 218.335123,396.671875 218.377441,396.671875 C218.50765,396.671875 218.600423,396.707682 218.655762,396.779297 C218.711101,396.850912 218.73877,396.971353 218.73877,397.140625 L218.73877,401.959961 Z M223.997559,397.780273 C223.652505,397.780273 223.379884,397.969074 223.179688,398.34668 C222.979491,398.724286 222.879395,399.245114 222.879395,399.90918 C222.879395,400.583011 222.978677,401.109536 223.177246,401.48877 C223.375815,401.868003 223.64925,402.057617 223.997559,402.057617 C224.345868,402.057617 224.620116,401.868003 224.820312,401.48877 C225.020509,401.109536 225.120605,400.583011 225.120605,399.90918 C225.120605,399.245114 225.020509,398.724286 224.820312,398.34668 C224.620116,397.969074 224.345868,397.780273 223.997559,397.780273 Z M223.987793,396.681641 C224.736495,396.681641 225.330564,396.972165 225.77002,397.553223 C226.209475,398.13428 226.429199,398.922847 226.429199,399.918945 C226.429199,400.918299 226.209475,401.708493 225.77002,402.289551 C225.330564,402.870608 224.736495,403.161133 223.987793,403.161133 C223.245602,403.161133 222.657229,402.870608 222.222656,402.289551 C221.788084,401.708493 221.570801,400.918299 221.570801,399.918945 C221.570801,398.919591 221.788084,398.130211 222.222656,397.550781 C222.657229,396.971351 223.245602,396.681641 223.987793,396.681641 Z M230.740723,401.959961 L231.531738,401.959961 C231.749838,401.959961 231.907714,402.000651 232.005371,402.082031 C232.103028,402.163412 232.151855,402.296874 232.151855,402.482422 C232.151855,402.664714 232.104655,402.796549 232.010254,402.87793 C231.915852,402.95931 231.756349,403 231.531738,403 L228.650879,403 C228.426268,403 228.266765,402.95931 228.172363,402.87793 C228.077962,402.796549 228.030762,402.664714 228.030762,402.482422 C228.030762,402.296874 228.078776,402.163412 228.174805,402.082031 C228.270834,402.000651 228.429524,401.959961 228.650879,401.959961 L229.559082,401.959961 L229.559082,397.838867 L229.012207,397.980469 C228.927571,398 228.857585,398.014648 228.802246,398.024414 C228.746907,398.03418 228.706218,398.039062 228.680176,398.039062 C228.546712,398.039062 228.44336,397.996745 228.370117,397.912109 C228.296875,397.827474 228.260254,397.707032 228.260254,397.550781 C228.260254,397.436848 228.300944,397.340821 228.382324,397.262695 C228.463705,397.18457 228.589029,397.124349 228.758301,397.082031 L229.969238,396.75 C230.07015,396.723958 230.153157,396.704427 230.218262,396.691406 C230.283366,396.678385 230.337077,396.671875 230.379395,396.671875 C230.509604,396.671875 230.602376,396.707682 230.657715,396.779297 C230.713054,396.850912 230.740723,396.971353 230.740723,397.140625 L230.740723,401.959961 Z M235.999512,397.780273 C235.654458,397.780273 235.381837,397.969074 235.181641,398.34668 C234.981444,398.724286 234.881348,399.245114 234.881348,399.90918 C234.881348,400.583011 234.980631,401.109536 235.179199,401.48877 C235.377768,401.868003 235.651203,402.057617 235.999512,402.057617 C236.347821,402.057617 236.622069,401.868003 236.822266,401.48877 C237.022462,401.109536 237.122559,400.583011 237.122559,399.90918 C237.122559,399.245114 237.022462,398.724286 236.822266,398.34668 C236.622069,397.969074 236.347821,397.780273 235.999512,397.780273 Z M235.989746,396.681641 C236.738448,396.681641 237.332517,396.972165 237.771973,397.553223 C238.211428,398.13428 238.431152,398.922847 238.431152,399.918945 C238.431152,400.918299 238.211428,401.708493 237.771973,402.289551 C237.332517,402.870608 236.738448,403.161133 235.989746,403.161133 C235.247555,403.161133 234.659182,402.870608 234.224609,402.289551 C233.790037,401.708493 233.572754,400.918299 233.572754,399.918945 C233.572754,398.919591 233.790037,398.130211 234.224609,397.550781 C234.659182,396.971351 235.247555,396.681641 235.989746,396.681641 Z"/>
    <path stroke="#979797" stroke-linecap="square" stroke-width="2" d="M49 368L49 18M44 18L54 18M47 88L51 88M47 158L51 158M47 228L51 228M47 298L51 298"/>
    <path fill="#333" fill-rule="nonzero" d="M8.50354768,24 L8.50354768,22.5792 L12.2475477,22.5792 L12.2475477,11.7888 L12.1131477,11.7888 L8.73394768,14.9376 L7.79314768,13.92 L11.3451477,10.5984 L13.8603477,10.5984 L13.8603477,22.5792 L17.3163477,22.5792 L17.3163477,24 L8.50354768,24 Z M20.9451477,24.2304 C20.5355456,24.2304 20.2379486,24.128001 20.0523477,23.9232 C19.8667468,23.718399 19.7739477,23.4496017 19.7739477,23.1168 L19.7739477,22.8672 C19.7739477,22.5343983 19.8667468,22.265601 20.0523477,22.0608 C20.2379486,21.855999 20.5355456,21.7536 20.9451477,21.7536 C21.3547497,21.7536 21.6523468,21.855999 21.8379477,22.0608 C22.0235486,22.265601 22.1163477,22.5343983 22.1163477,22.8672 L22.1163477,23.1168 C22.1163477,23.4496017 22.0235486,23.718399 21.8379477,23.9232 C21.6523468,24.128001 21.3547497,24.2304 20.9451477,24.2304 Z M29.3163477,24.2304 C27.7163397,24.2304 26.5483514,23.6224061 25.8123477,22.4064 C25.076344,21.1903939 24.7083477,19.4880109 24.7083477,17.2992 C24.7083477,15.1103891 25.076344,13.4080061 25.8123477,12.192 C26.5483514,10.9759939 27.7163397,10.368 29.3163477,10.368 C30.9163557,10.368 32.084344,10.9759939 32.8203477,12.192 C33.5563514,13.4080061 33.9243477,15.1103891 33.9243477,17.2992 C33.9243477,19.4880109 33.5563514,21.1903939 32.8203477,22.4064 C32.084344,23.6224061 30.9163557,24.2304 29.3163477,24.2304 Z M29.3163477,22.8288 C29.8411503,22.8288 30.2891458,22.7200011 30.6603477,22.5024 C31.0315495,22.2847989 31.3323465,21.977602 31.5627477,21.5808 C31.7931488,21.183998 31.9627471,20.7168027 32.0715477,20.1792 C32.1803482,19.6415973 32.2347477,19.0464033 32.2347477,18.3936 L32.2347477,16.2048 C32.2347477,15.5519967 32.1803482,14.9568027 32.0715477,14.4192 C31.9627471,13.8815973 31.7931488,13.414402 31.5627477,13.0176 C31.3323465,12.620798 31.0315495,12.3136011 30.6603477,12.096 C30.2891458,11.8783989 29.8411503,11.7696 29.3163477,11.7696 C28.7915451,11.7696 28.3435495,11.8783989 27.9723477,12.096 C27.6011458,12.3136011 27.3003488,12.620798 27.0699477,13.0176 C26.8395465,13.414402 26.6699482,13.8815973 26.5611477,14.4192 C26.4523471,14.9568027 26.3979477,15.5519967 26.3979477,16.2048 L26.3979477,18.3936 C26.3979477,19.0464033 26.4523471,19.6415973 26.5611477,20.1792 C26.6699482,20.7168027 26.8395465,21.183998 27.0699477,21.5808 C27.3003488,21.977602 27.6011458,22.2847989 27.9723477,22.5024 C28.3435495,22.7200011 28.7915451,22.8288 29.3163477,22.8288 Z"/>
    <path stroke="#979797" stroke-linecap="square" stroke-width="2" d="M44,368 L54,368"/>
    <path fill="#333" fill-rule="nonzero" d="M12.5739477,374.2304 C10.9739397,374.2304 9.80595136,373.622406 9.06994768,372.4064 C8.333944,371.190394 7.96594768,369.488011 7.96594768,367.2992 C7.96594768,365.110389 8.333944,363.408006 9.06994768,362.192 C9.80595136,360.975994 10.9739397,360.368 12.5739477,360.368 C14.1739557,360.368 15.341944,360.975994 16.0779477,362.192 C16.8139514,363.408006 17.1819477,365.110389 17.1819477,367.2992 C17.1819477,369.488011 16.8139514,371.190394 16.0779477,372.4064 C15.341944,373.622406 14.1739557,374.2304 12.5739477,374.2304 Z M12.5739477,372.8288 C13.0987503,372.8288 13.5467458,372.720001 13.9179477,372.5024 C14.2891495,372.284799 14.5899465,371.977602 14.8203477,371.5808 C15.0507488,371.183998 15.2203471,370.716803 15.3291477,370.1792 C15.4379482,369.641597 15.4923477,369.046403 15.4923477,368.3936 L15.4923477,366.2048 C15.4923477,365.551997 15.4379482,364.956803 15.3291477,364.4192 C15.2203471,363.881597 15.0507488,363.414402 14.8203477,363.0176 C14.5899465,362.620798 14.2891495,362.313601 13.9179477,362.096 C13.5467458,361.878399 13.0987503,361.7696 12.5739477,361.7696 C12.0491451,361.7696 11.6011495,361.878399 11.2299477,362.096 C10.8587458,362.313601 10.5579488,362.620798 10.3275477,363.0176 C10.0971465,363.414402 9.92754822,363.881597 9.81874768,364.4192 C9.70994714,364.956803 9.65554768,365.551997 9.65554768,366.2048 L9.65554768,368.3936 C9.65554768,369.046403 9.70994714,369.641597 9.81874768,370.1792 C9.92754822,370.716803 10.0971465,371.183998 10.3275477,371.5808 C10.5579488,371.977602 10.8587458,372.284799 11.2299477,372.5024 C11.6011495,372.720001 12.0491451,372.8288 12.5739477,372.8288 Z M20.9451477,374.2304 C20.5355456,374.2304 20.2379486,374.128001 20.0523477,373.9232 C19.8667468,373.718399 19.7739477,373.449602 19.7739477,373.1168 L19.7739477,372.8672 C19.7739477,372.534398 19.8667468,372.265601 20.0523477,372.0608 C20.2379486,371.855999 20.5355456,371.7536 20.9451477,371.7536 C21.3547497,371.7536 21.6523468,371.855999 21.8379477,372.0608 C22.0235486,372.265601 22.1163477,372.534398 22.1163477,372.8672 L22.1163477,373.1168 C22.1163477,373.449602 22.0235486,373.718399 21.8379477,373.9232 C21.6523468,374.128001 21.3547497,374.2304 20.9451477,374.2304 Z M29.3163477,374.2304 C27.7163397,374.2304 26.5483514,373.622406 25.8123477,372.4064 C25.076344,371.190394 24.7083477,369.488011 24.7083477,367.2992 C24.7083477,365.110389 25.076344,363.408006 25.8123477,362.192 C26.5483514,360.975994 27.7163397,360.368 29.3163477,360.368 C30.9163557,360.368 32.084344,360.975994 32.8203477,362.192 C33.5563514,363.408006 33.9243477,365.110389 33.9243477,367.2992 C33.9243477,369.488011 33.5563514,371.190394 32.8203477,372.4064 C32.084344,373.622406 30.9163557,374.2304 29.3163477,374.2304 Z M29.3163477,372.8288 C29.8411503,372.8288 30.2891458,372.720001 30.6603477,372.5024 C31.0315495,372.284799 31.3323465,371.977602 31.5627477,371.5808 C31.7931488,371.183998 31.9627471,370.716803 32.0715477,370.1792 C32.1803482,369.641597 32.2347477,369.046403 32.2347477,368.3936 L32.2347477,366.2048 C32.2347477,365.551997 32.1803482,364.956803 32.0715477,364.4192 C31.9627471,363.881597 31.7931488,363.414402 31.5627477,363.0176 C31.3323465,362.620798 31.0315495,362.313601 30.6603477,362.096 C30.2891458,361.878399 29.8411503,361.7696 29.3163477,361.7696 C28.7915451,361.7696 28.3435495,361.878399 27.9723477,362.096 C27.6011458,362.313601 27.3003488,362.620798 27.0699477,363.0176 C26.8395465,363.414402 26.6699482,363.881597 26.5611477,364.4192 C26.4523471,364.956803 26.3979477,365.551997 26.3979477,366.2048 L26.3979477,368.3936 C26.3979477,369.046403 26.4523471,369.641597 26.5611477,370.1792 C26.6699482,370.716803 26.8395465,371.183998 27.0699477,371.5808 C27.3003488,371.977602 27.6011458,372.284799 27.9723477,372.5024 C28.3435495,372.720001 28.7915451,372.8288 29.3163477,372.8288 Z"/>
    <circle cx="21" cy="193" r="6" fill="#FFCF32"/>
    <path stroke="#FFCF32" stroke-linecap="round" stroke-width="2" d="M21 183.5L21 178.5M21 207.5L21 202.5"/>
    <path stroke="#FFCF32" stroke-linecap="round" stroke-width="2" d="M9,195.5 L9,190.5" transform="rotate(-90 9 193)"/>
    <path stroke="#FFCF32" stroke-linecap="round" stroke-width="2" d="M33,195.5 L33,190.5" transform="rotate(-90 33 193)"/>
    <path stroke="#FFCF32" stroke-linecap="round" stroke-width="2" d="M12.5147186,203.985281 L12.5147186,198.985281" transform="rotate(-135 12.515 201.485)"/>
    <path stroke="#FFCF32" stroke-linecap="round" stroke-width="2" d="M29.4852814,187.014719 L29.4852814,182.014719" transform="rotate(-135 29.485 184.515)"/>
    <path stroke="#FFCF32" stroke-linecap="round" stroke-width="2" d="M29.4852814,203.985281 L29.4852814,198.985281" transform="rotate(135 29.485 201.485)"/>
    <path stroke="#FFCF32" stroke-linecap="round" stroke-width="2" d="M12.5147186,187.014719 L12.5147186,182.014719" transform="rotate(135 12.515 184.515)"/>
    <polyline stroke="#333" stroke-width="2" points="49 18 62.672 19.058 65.406 19.281 68.141 19.53 70.875 19.804 73.609 20.106 76.344 20.435 79.078 20.792 81.813 21.178 84.547 21.593 87.281 22.039 90.016 22.515 92.75 23.022 95.484 23.562 98.219 24.133 100.953 24.737 103.688 25.375 106.422 26.047 109.156 26.753 111.891 27.494 114.625 28.27 117.359 29.082 120.094 29.93 122.828 30.815 125.563 31.738 128.297 32.697 131.031 33.695 133.766 34.732 136.5 35.807 139.234 36.921 141.969 38.075 144.703 39.269 147.438 40.504 150.172 41.779 152.906 43.095 155.641 44.453 158.375 45.853 161.109 47.296 163.844 48.781 166.578 50.309 169.313 51.88 172.047 53.495 174.781 55.154 177.516 56.858 180.25 58.606 182.984 60.399 185.719 62.237 188.453 64.122 191.188 66.052 193.922 68.028 196.656 70.051 199.391 72.122 202.125 74.239 204.859 76.404 207.594 78.617 210.328 80.877 213.063 83.187 215.797 85.545 218.531 87.952 221.266 90.408 224 92.914 226.734 95.47 229.469 98.076 232.203 100.733 234.938 103.44 237.672 106.198 240.406 109.008 243.141 111.868 245.875 114.781 248.609 117.746 251.344 120.763 254.078 123.833 256.813 126.955 259.547 130.131 262.281 133.36 265.016 136.642 267.75 139.979 270.484 143.369 273.219 146.814 275.953 150.313 278.688 153.868 281.422 157.477 284.156 161.141 286.891 164.862 289.625 168.638 292.359 172.47 295.094 176.358 297.828 180.303 300.563 184.304 303.297 188.363 306.031 192.479 308.766 196.652 311.5 200.883 314.234 205.171 316.969 209.518 319.703 213.923 322.438 218.387 325.172 222.909 327.906 227.49 330.641 232.131 333.375 236.831 336.109 241.591 338.844 246.41 341.578 251.29 344.313 256.229 347.047 261.23 349.781 266.291 352.516 271.413 355.25 276.596 357.984 281.84 360.719 287.146 363.453 292.513 366.188 297.943 368.922 303.434 371.656 308.988 374.391 314.605 377.125 320.284 379.859 326.026 382.594 331.832 385.328 337.7 388.063 343.632 390.797 349.628 393.531 355.688 396.266 361.812 399 368" transform="matrix(1 0 0 -1 0 386)"/>
    <circle cx="63" cy="367" r="2" fill="#333"/>
  </g>
</svg>
