<svg xmlns="http://www.w3.org/2000/svg" width="700" height="160" viewBox="0 0 700 160">
  <defs>
    <linearGradient id="float_space-a" x1="100%" x2="0%" y1="50%" y2="50%">
      <stop offset="0%" stop-color="#555"/>
      <stop offset="100%" stop-color="#555" stop-opacity="0"/>
    </linearGradient>
    <linearGradient id="float_space-b" x1="0%" y1="50%" y2="50%">
      <stop offset="0%" stop-color="#555"/>
      <stop offset="100%" stop-color="#555" stop-opacity="0"/>
    </linearGradient>
  </defs>
  <g fill="none" fill-rule="evenodd">
    <path fill="#555" d="M259.132 153L259.132 151.816 262.252 151.816 262.252 142.824 262.14 142.824 259.324 145.448 258.54 144.6 261.5 141.832 263.596 141.832 263.596 151.816 266.476 151.816 266.476 153 259.132 153zM269.5 153.192C269.158665 153.192 268.910667 153.106668 268.756 152.936 268.601333 152.765332 268.524 152.541335 268.524 152.264L268.524 152.056C268.524 151.778665 268.601333 151.554668 268.756 151.384 268.910667 151.213332 269.158665 151.128 269.5 151.128 269.841335 151.128 270.089333 151.213332 270.244 151.384 270.398667 151.554668 270.476 151.778665 270.476 152.056L270.476 152.264C270.476 152.541335 270.398667 152.765332 270.244 152.936 270.089333 153.106668 269.841335 153.192 269.5 153.192zM276.476 153.192C275.14266 153.192 274.169336 152.685338 273.556 151.672 272.942664 150.658662 272.636 149.240009 272.636 147.416 272.636 145.591991 272.942664 144.173338 273.556 143.16 274.169336 142.146662 275.14266 141.64 276.476 141.64 277.80934 141.64 278.782664 142.146662 279.396 143.16 280.009336 144.173338 280.316 145.591991 280.316 147.416 280.316 149.240009 280.009336 150.658662 279.396 151.672 278.782664 152.685338 277.80934 153.192 276.476 153.192zM276.476 152.024C276.913336 152.024 277.286665 151.933334 277.596 151.752 277.905335 151.570666 278.155999 151.314668 278.348 150.984 278.540001 150.653332 278.681333 150.264002 278.772 149.816 278.862667 149.367998 278.908 148.872003 278.908 148.328L278.908 146.504C278.908 145.959997 278.862667 145.464002 278.772 145.016 278.681333 144.567998 278.540001 144.178668 278.348 143.848 278.155999 143.517332 277.905335 143.261334 277.596 143.08 277.286665 142.898666 276.913336 142.808 276.476 142.808 276.038664 142.808 275.665335 142.898666 275.356 143.08 275.046665 143.261334 274.796001 143.517332 274.604 143.848 274.411999 144.178668 274.270667 144.567998 274.18 145.016 274.089333 145.464002 274.044 145.959997 274.044 146.504L274.044 148.328C274.044 148.872003 274.089333 149.367998 274.18 149.816 274.270667 150.264002 274.411999 150.653332 274.604 150.984 274.796001 151.314668 275.046665 151.570666 275.356 151.752 275.665335 151.933334 276.038664 152.024 276.476 152.024zM72.524 153.192C71.19066 153.192 70.2173364 152.685338 69.604 151.672 68.9906636 150.658662 68.684 149.240009 68.684 147.416 68.684 145.591991 68.9906636 144.173338 69.604 143.16 70.2173364 142.146662 71.19066 141.64 72.524 141.64 73.85734 141.64 74.8306636 142.146662 75.444 143.16 76.0573364 144.173338 76.364 145.591991 76.364 147.416 76.364 149.240009 76.0573364 150.658662 75.444 151.672 74.8306636 152.685338 73.85734 153.192 72.524 153.192zM72.524 152.024C72.9613355 152.024 73.3346651 151.933334 73.644 151.752 73.9533349 151.570666 74.203999 151.314668 74.396 150.984 74.588001 150.653332 74.7293329 150.264002 74.82 149.816 74.9106671 149.367998 74.956 148.872003 74.956 148.328L74.956 146.504C74.956 145.959997 74.9106671 145.464002 74.82 145.016 74.7293329 144.567998 74.588001 144.178668 74.396 143.848 74.203999 143.517332 73.9533349 143.261334 73.644 143.08 73.3346651 142.898666 72.9613355 142.808 72.524 142.808 72.0866645 142.808 71.7133349 142.898666 71.404 143.08 71.0946651 143.261334 70.844001 143.517332 70.652 143.848 70.459999 144.178668 70.3186671 144.567998 70.228 145.016 70.1373329 145.464002 70.092 145.959997 70.092 146.504L70.092 148.328C70.092 148.872003 70.1373329 149.367998 70.228 149.816 70.3186671 150.264002 70.459999 150.653332 70.652 150.984 70.844001 151.314668 71.0946651 151.570666 71.404 151.752 71.7133349 151.933334 72.0866645 152.024 72.524 152.024zM79.5 153.192C79.158665 153.192 78.9106674 153.106668 78.756 152.936 78.6013326 152.765332 78.524 152.541335 78.524 152.264L78.524 152.056C78.524 151.778665 78.6013326 151.554668 78.756 151.384 78.9106674 151.213332 79.158665 151.128 79.5 151.128 79.841335 151.128 80.0893326 151.213332 80.244 151.384 80.3986674 151.554668 80.476 151.778665 80.476 152.056L80.476 152.264C80.476 152.541335 80.3986674 152.765332 80.244 152.936 80.0893326 153.106668 79.841335 153.192 79.5 153.192zM89.644 143.016L84.748 143.016 84.428 147.272 84.54 147.272C84.806668 146.898665 85.1079983 146.600001 85.444 146.376 85.7800017 146.151999 86.2413304 146.04 86.828 146.04 87.3080024 146.04 87.7506646 146.119999 88.156 146.28 88.5613354 146.440001 88.9133318 146.666665 89.212 146.96 89.5106682 147.253335 89.7426658 147.613331 89.908 148.04 90.0733342 148.466669 90.156 148.951997 90.156 149.496 90.156 150.040003 90.0706675 150.538664 89.9 150.992 89.7293325 151.445336 89.481335 151.834665 89.156 152.16 88.830665 152.485335 88.4360023 152.738666 87.972 152.92 87.5079977 153.101334 86.9826696 153.192 86.396 153.192 85.9266643 153.192 85.5133351 153.138667 85.156 153.032 84.7986649 152.925333 84.4813347 152.781334 84.204 152.6 83.9266653 152.418666 83.684001 152.216001 83.476 151.992 83.267999 151.767999 83.0786675 151.533335 82.908 151.288L83.916 150.52C84.0546674 150.744001 84.2013326 150.946666 84.356 151.128 84.5106674 151.309334 84.6813324 151.463999 84.868 151.592 85.0546676 151.720001 85.2706654 151.818666 85.516 151.888 85.7613346 151.957334 86.054665 151.992 86.396 151.992 87.1640038 151.992 87.7453314 151.789335 88.14 151.384 88.5346686 150.978665 88.732 150.408004 88.732 149.672L88.732 149.512C88.732 148.775996 88.5346686 148.205335 88.14 147.8 87.7453314 147.394665 87.1640038 147.192 86.396 147.192 85.8839974 147.192 85.4813348 147.285332 85.188 147.472 84.8946652 147.658668 84.6306678 147.879999 84.396 148.136L83.26 147.976 83.66 141.832 89.644 141.832 89.644 143.016zM496.252 153L488.924 153 488.924 151.624 492.572 148.264C493.094669 147.783998 493.531998 147.274669 493.884 146.736 494.236002 146.197331 494.412 145.656003 494.412 145.112L494.412 144.92C494.412 144.30133 494.241335 143.800002 493.9 143.416 493.558665 143.031998 493.041337 142.84 492.348 142.84 492.006665 142.84 491.708001 142.888 491.452 142.984 491.195999 143.08 490.974668 143.213332 490.788 143.384 490.601332 143.554668 490.446667 143.754666 490.324 143.984 490.201333 144.213334 490.102667 144.461332 490.028 144.728L488.828 144.264C488.934667 143.933332 489.081332 143.610668 489.268 143.296 489.454668 142.981332 489.689332 142.701335 489.972 142.456 490.254668 142.210665 490.595998 142.013334 490.996 141.864 491.396002 141.714666 491.867997 141.64 492.412 141.64 492.956003 141.64 493.441331 141.719999 493.868 141.88 494.294669 142.040001 494.651999 142.263999 494.94 142.552 495.228001 142.840001 495.449333 143.181331 495.604 143.576 495.758667 143.970669 495.836 144.407998 495.836 144.888 495.836 145.325336 495.774667 145.730665 495.652 146.104 495.529333 146.477335 495.361334 146.831998 495.148 147.168 494.934666 147.504002 494.676002 147.831998 494.372 148.152 494.067998 148.472002 493.740002 148.791998 493.388 149.112L490.38 151.816 496.252 151.816 496.252 153zM499.5 153.192C499.158665 153.192 498.910667 153.106668 498.756 152.936 498.601333 152.765332 498.524 152.541335 498.524 152.264L498.524 152.056C498.524 151.778665 498.601333 151.554668 498.756 151.384 498.910667 151.213332 499.158665 151.128 499.5 151.128 499.841335 151.128 500.089333 151.213332 500.244 151.384 500.398667 151.554668 500.476 151.778665 500.476 152.056L500.476 152.264C500.476 152.541335 500.398667 152.765332 500.244 152.936 500.089333 153.106668 499.841335 153.192 499.5 153.192zM506.476 153.192C505.14266 153.192 504.169336 152.685338 503.556 151.672 502.942664 150.658662 502.636 149.240009 502.636 147.416 502.636 145.591991 502.942664 144.173338 503.556 143.16 504.169336 142.146662 505.14266 141.64 506.476 141.64 507.80934 141.64 508.782664 142.146662 509.396 143.16 510.009336 144.173338 510.316 145.591991 510.316 147.416 510.316 149.240009 510.009336 150.658662 509.396 151.672 508.782664 152.685338 507.80934 153.192 506.476 153.192zM506.476 152.024C506.913336 152.024 507.286665 151.933334 507.596 151.752 507.905335 151.570666 508.155999 151.314668 508.348 150.984 508.540001 150.653332 508.681333 150.264002 508.772 149.816 508.862667 149.367998 508.908 148.872003 508.908 148.328L508.908 146.504C508.908 145.959997 508.862667 145.464002 508.772 145.016 508.681333 144.567998 508.540001 144.178668 508.348 143.848 508.155999 143.517332 507.905335 143.261334 507.596 143.08 507.286665 142.898666 506.913336 142.808 506.476 142.808 506.038664 142.808 505.665335 142.898666 505.356 143.08 505.046665 143.261334 504.796001 143.517332 504.604 143.848 504.411999 144.178668 504.270667 144.567998 504.18 145.016 504.089333 145.464002 504.044 145.959997 504.044 146.504L504.044 148.328C504.044 148.872003 504.089333 149.367998 504.18 149.816 504.270667 150.264002 504.411999 150.653332 504.604 150.984 504.796001 151.314668 505.046665 151.570666 505.356 151.752 505.665335 151.933334 506.038664 152.024 506.476 152.024z"/>
    <rect width="20" height="3" x="189" y="119" fill="url(#float_space-a)" transform="matrix(1 0 0 -1 0 241)"/>
    <rect width="20" height="3" x="348" y="119" fill="url(#float_space-b)" transform="matrix(1 0 0 -1 0 241)"/>
    <rect width="139" height="3" x="209" y="119" fill="#555" transform="matrix(1 0 0 -1 0 241)"/>
    <rect width="20" height="3" x="19" y="119" fill="url(#float_space-a)" transform="matrix(1 0 0 -1 0 241)"/>
    <rect width="20" height="3" x="138" y="119" fill="url(#float_space-b)" transform="matrix(1 0 0 -1 0 241)"/>
    <rect width="99" height="3" x="39" y="119" fill="#555" transform="matrix(1 0 0 -1 0 241)"/>
    <rect width="20" height="3" x="399" y="119" fill="url(#float_space-a)" transform="matrix(1 0 0 -1 0 241)"/>
    <rect width="263" height="3" x="419" y="119" fill="#555" transform="matrix(1 0 0 -1 0 241)"/>
    <rect width="2" height="11" x="77" y="115" fill="#555"/>
    <rect width="2" height="11" x="97" y="115" fill="#555"/>
    <rect width="2" height="11" x="117" y="115" fill="#555"/>
    <rect width="2" height="11" x="137" y="115" fill="#555"/>
    <rect width="2" height="11" x="207" y="115" fill="#555"/>
    <rect width="2" height="11" x="227" y="115" fill="#555"/>
    <rect width="2" height="11" x="247" y="115" fill="#555"/>
    <rect width="2" height="11" x="267" y="115" fill="#555"/>
    <rect width="2" height="11" x="307" y="115" fill="#555"/>
    <rect width="2" height="11" x="347" y="115" fill="#555"/>
    <rect width="2" height="11" x="417" y="115" fill="#555"/>
    <rect width="2" height="11" x="457" y="115" fill="#555"/>
    <rect width="2" height="11" x="497" y="115" fill="#555"/>
    <rect width="2" height="11" x="577" y="115" fill="#555"/>
    <rect width="2" height="11" x="657" y="115" fill="#555"/>
    <rect width="2" height="11" x="67" y="115" fill="#555"/>
    <rect width="2" height="11" x="57" y="115" fill="#555"/>
    <rect width="2" height="11" x="47" y="115" fill="#555"/>
    <rect width="2" height="11" x="37" y="115" fill="#555"/>
    <path fill="#577EC7" fill-opacity=".3" d="M7.00437459 32C7 22.7773437 7 7 7 7 35.304077 7 121.292969 7 169 7 169 14.8515625 169 21.0664063 169 32 168.5 77 99 77 99 122 59.5585937 122 140.25 122 77 122 77 77 6.50437459 77 7.00437459 32zM247.004375 32C247 22.7773438 247 7 247 7 275.304077 7 361.292969 7 409 7 409 14.8515625 409 21.0664063 409 32 408.5 77 309 77 309 122 269.558594 122 330.25 122 267 122 267 77 246.504375 77 247.004375 32zM487.004375 32C487 22.7773438 487 7 487 7 515.304077 7 601.292969 7 649 7 649 14.8515625 649 21.0664063 649 32 648.5 77 579 77 579 122 539.558594 122 560.25 122 497 122 497 77 486.504375 77 487.004375 32z"/>
    <path fill="#555" d="M22.292 29L22.292 27.816 25.412 27.816 25.412 18.824 25.3 18.824 22.484 21.448 21.7 20.6 24.66 17.832 26.756 17.832 26.756 27.816 29.636 27.816 29.636 29 22.292 29zM35.62 17.16L36.9 17.16 36.9 22.088 36.964 22.088C37.1773344 21.5653307 37.4893313 21.1786679 37.9 20.928 38.3106687 20.6773321 38.8039971 20.552 39.38 20.552 39.8920026 20.552 40.3559979 20.6533323 40.772 20.856 41.1880021 21.0586677 41.5426652 21.3466648 41.836 21.72 42.1293348 22.0933352 42.3533326 22.546664 42.508 23.08 42.6626674 23.613336 42.74 24.2106634 42.74 24.872 42.74 25.5333366 42.6626674 26.130664 42.508 26.664 42.3533326 27.197336 42.1293348 27.6506648 41.836 28.024 41.5426652 28.3973352 41.1880021 28.6853323 40.772 28.888 40.3559979 29.0906677 39.8920026 29.192 39.38 29.192 38.2599944 29.192 37.4546691 28.6800051 36.964 27.656L36.9 27.656 36.9 29 35.62 29 35.62 17.16zM39.028 28.04C39.753337 28.04 40.3239979 27.8133356 40.74 27.36 41.1560021 26.9066644 41.364 26.3120037 41.364 25.576L41.364 24.168C41.364 23.4319963 41.1560021 22.8373356 40.74 22.384 40.3239979 21.9306644 39.753337 21.704 39.028 21.704 38.7399986 21.704 38.4653346 21.7439996 38.204 21.824 37.9426654 21.9040004 37.716001 22.0133326 37.524 22.152 37.331999 22.2906674 37.1800006 22.4586657 37.068 22.656 36.9559994 22.8533343 36.9 23.0639989 36.9 23.288L36.9 26.36C36.9 26.626668 36.9559994 26.863999 37.068 27.072 37.1800006 27.280001 37.331999 27.4559993 37.524 27.6 37.716001 27.7440007 37.9426654 27.853333 38.204 27.928 38.4653346 28.002667 38.7399986 28.04 39.028 28.04zM45.54 18.808C45.2626653 18.808 45.0626673 18.741334 44.94 18.608 44.8173327 18.474666 44.756 18.3013344 44.756 18.088L44.756 17.88C44.756 17.6666656 44.8173327 17.493334 44.94 17.36 45.0626673 17.226666 45.2626653 17.16 45.54 17.16 45.8173347 17.16 46.0173327 17.226666 46.14 17.36 46.2626673 17.493334 46.324 17.6666656 46.324 17.88L46.324 18.088C46.324 18.3013344 46.2626673 18.474666 46.14 18.608 46.0173327 18.741334 45.8173347 18.808 45.54 18.808zM44.9 20.744L46.18 20.744 46.18 29 44.9 29 44.9 20.744zM50.724 29C50.2759978 29 49.9373345 28.8746679 49.708 28.624 49.4786655 28.3733321 49.364 28.0453354 49.364 27.64L49.364 21.864 48.004 21.864 48.004 20.744 48.772 20.744C49.0493347 20.744 49.2386662 20.6880006 49.34 20.576 49.4413338 20.4639994 49.492 20.2693347 49.492 19.992L49.492 18.456 50.644 18.456 50.644 20.744 52.452 20.744 52.452 21.864 50.644 21.864 50.644 27.88 52.324 27.88 52.324 29 50.724 29zM61.412 29.192C60.8573306 29.192 60.350669 29.0906677 59.892 28.888 59.433331 28.6853323 59.041335 28.3946686 58.716 28.016 58.390665 27.6373314 58.1373342 27.1840026 57.956 26.656 57.7746658 26.1279974 57.684 25.5333366 57.684 24.872 57.684 24.2213301 57.7746658 23.629336 57.956 23.096 58.1373342 22.562664 58.390665 22.1066686 58.716 21.728 59.041335 21.3493314 59.433331 21.0586677 59.892 20.856 60.350669 20.6533323 60.8573306 20.552 61.412 20.552 61.9666694 20.552 62.4706644 20.6533323 62.924 20.856 63.3773356 21.0586677 63.7693317 21.3493314 64.1 21.728 64.4306683 22.1066686 64.6866658 22.562664 64.868 23.096 65.0493342 23.629336 65.14 24.2213301 65.14 24.872 65.14 25.5333366 65.0493342 26.1279974 64.868 26.656 64.6866658 27.1840026 64.4306683 27.6373314 64.1 28.016 63.7693317 28.3946686 63.3773356 28.6853323 62.924 28.888 62.4706644 29.0906677 61.9666694 29.192 61.412 29.192zM61.412 28.056C62.1053368 28.056 62.6706645 27.8426688 63.108 27.416 63.5453355 26.9893312 63.764 26.338671 63.764 25.464L63.764 24.28C63.764 23.405329 63.5453355 22.7546688 63.108 22.328 62.6706645 21.9013312 62.1053368 21.688 61.412 21.688 60.7186632 21.688 60.1533355 21.9013312 59.716 22.328 59.2786645 22.7546688 59.06 23.405329 59.06 24.28L59.06 25.464C59.06 26.338671 59.2786645 26.9893312 59.716 27.416 60.1533355 27.8426688 60.7186632 28.056 61.412 28.056zM67.604 21.864L66.26 21.864 66.26 20.744 67.604 20.744 67.604 19.08C67.604 18.5039971 67.7533318 18.0400018 68.052 17.688 68.3506682 17.3359982 68.803997 17.16 69.412 17.16L70.66 17.16 70.66 18.28 68.884 18.28 68.884 20.744 70.66 20.744 70.66 21.864 68.884 21.864 68.884 29 67.604 29 67.604 21.864zM78.596 29.192C77.8279962 29.192 77.1853359 29.0453348 76.668 28.752 76.1506641 28.4586652 75.7053352 28.0666691 75.332 27.576L76.244 26.84C76.5640016 27.2453354 76.9213314 27.5573322 77.316 27.776 77.7106686 27.9946678 78.1693307 28.104 78.692 28.104 79.2360027 28.104 79.6599985 27.9866678 79.964 27.752 80.2680015 27.5173322 80.42 27.1866688 80.42 26.76 80.42 26.4399984 80.316001 26.1653345 80.108 25.936 79.899999 25.7066655 79.5240027 25.5493338 78.98 25.464L78.324 25.368C77.9399981 25.3146664 77.5880016 25.2320006 77.268 25.12 76.9479984 25.0079994 76.6680012 24.8586676 76.428 24.672 76.1879988 24.4853324 76.001334 24.2533347 75.868 23.976 75.734666 23.6986653 75.668 23.3680019 75.668 22.984 75.668 22.5786646 75.7426659 22.2240015 75.892 21.92 76.0413341 21.6159985 76.2466654 21.3626677 76.508 21.16 76.7693346 20.9573323 77.0813315 20.8053338 77.444 20.704 77.8066685 20.6026662 78.1959979 20.552 78.612 20.552 79.2840034 20.552 79.8466644 20.6693322 80.3 20.904 80.7533356 21.1386678 81.150665 21.4639979 81.492 21.88L80.644 22.648C80.4626658 22.3919987 80.1960018 22.160001 79.844 21.952 79.4919982 21.743999 79.049336 21.64 78.516 21.64 77.982664 21.64 77.5800014 21.7546655 77.308 21.984 77.0359986 22.2133345 76.9 22.5253314 76.9 22.92 76.9 23.3253354 77.0359986 23.6186658 77.308 23.8 77.5800014 23.9813342 77.9719974 24.1146662 78.484 24.2L79.124 24.296C80.0413379 24.4346674 80.6919981 24.6986647 81.076 25.088 81.4600019 25.4773353 81.652 25.9866635 81.652 26.616 81.652 27.416004 81.3800027 28.045331 80.836 28.504 80.2919973 28.962669 79.5453381 29.192 78.596 29.192zM84.548 18.808C84.2706653 18.808 84.0706673 18.741334 83.948 18.608 83.8253327 18.474666 83.764 18.3013344 83.764 18.088L83.764 17.88C83.764 17.6666656 83.8253327 17.493334 83.948 17.36 84.0706673 17.226666 84.2706653 17.16 84.548 17.16 84.8253347 17.16 85.0253327 17.226666 85.148 17.36 85.2706673 17.493334 85.332 17.6666656 85.332 17.88L85.332 18.088C85.332 18.3013344 85.2706673 18.474666 85.148 18.608 85.0253327 18.741334 84.8253347 18.808 84.548 18.808zM83.908 20.744L85.188 20.744 85.188 29 83.908 29 83.908 20.744zM94.868 29.912C94.868 30.7653376 94.53467 31.391998 93.868 31.792 93.20133 32.192002 92.20134 32.392 90.868 32.392 89.5773269 32.392 88.6493362 32.2160018 88.084 31.864 87.5186638 31.5119982 87.236 31.0106699 87.236 30.36 87.236 29.9119978 87.3533322 29.5626679 87.588 29.312 87.8226678 29.0613321 88.1426646 28.8773339 88.548 28.76L88.548 28.584C88.0573309 28.3493322 87.812 27.965336 87.812 27.432 87.812 27.0159979 87.945332 26.6986678 88.212 26.48 88.478668 26.2613322 88.8199979 26.0986672 89.236 25.992L89.236 25.928C88.7453309 25.6933322 88.3640014 25.3573355 88.092 24.92 87.8199986 24.4826645 87.684 23.9760029 87.684 23.4 87.684 22.9839979 87.7586659 22.6000018 87.908 22.248 88.0573341 21.8959982 88.2679986 21.5946679 88.54 21.344 88.8120014 21.0933321 89.1373314 20.8986674 89.516 20.76 89.8946686 20.6213326 90.3186643 20.552 90.788 20.552 91.3746696 20.552 91.897331 20.6586656 92.356 20.872L92.356 20.728C92.356 20.4079984 92.4306659 20.144001 92.58 19.936 92.7293341 19.727999 92.974665 19.624 93.316 19.624L94.548 19.624 94.548 20.744 92.98 20.744 92.98 21.272C93.2786682 21.5280013 93.5106658 21.8346649 93.676 22.192 93.8413342 22.5493351 93.924 22.9519978 93.924 23.4 93.924 23.8160021 93.8493341 24.1999982 93.7 24.552 93.5506659 24.9040018 93.3400014 25.2053321 93.068 25.456 92.7959986 25.7066679 92.4680019 25.9013326 92.084 26.04 91.6999981 26.1786674 91.2733357 26.248 90.804 26.248 90.537332 26.248 90.270668 26.2213336 90.004 26.168 89.7266653 26.242667 89.4760011 26.3519993 89.252 26.496 89.0279989 26.6400007 88.916 26.8399987 88.916 27.096 88.916 27.3413346 89.0333322 27.5066662 89.268 27.592 89.5026678 27.6773338 89.8066648 27.72 90.18 27.72L91.94 27.72C92.9640051 27.72 93.7079977 27.9146647 94.172 28.304 94.6360023 28.6933353 94.868 29.2293299 94.868 29.912zM93.668 30.008C93.668 29.6773317 93.5426679 29.4133343 93.292 29.216 93.0413321 29.0186657 92.5960032 28.92 91.956 28.92L89.204 28.92C88.6919974 29.1546678 88.436 29.5279974 88.436 30.04 88.436 30.4026685 88.5719986 30.7119987 88.844 30.968 89.1160014 31.2240013 89.5773301 31.352 90.228 31.352L91.412 31.352C92.1266702 31.352 92.6813314 31.2400011 93.076 31.016 93.4706686 30.7919989 93.668 30.4560022 93.668 30.008zM90.804 25.224C91.3480027 25.224 91.7799984 25.0933346 92.1 24.832 92.4200016 24.5706654 92.58 24.1680027 92.58 23.624L92.58 23.176C92.58 22.6319973 92.4200016 22.2293346 92.1 21.968 91.7799984 21.7066654 91.3480027 21.576 90.804 21.576 90.2599973 21.576 89.8280016 21.7066654 89.508 21.968 89.1879984 22.2293346 89.028 22.6319973 89.028 23.176L89.028 23.624C89.028 24.1680027 89.1879984 24.5706654 89.508 24.832 89.8280016 25.0933346 90.2599973 25.224 90.804 25.224zM96.356 29L96.356 20.744 97.636 20.744 97.636 22.088 97.7 22.088C97.9026677 21.6186643 98.1879982 21.2453347 98.556 20.968 98.9240018 20.6906653 99.4173302 20.552 100.036 20.552 100.889338 20.552 101.563998 20.8266639 102.06 21.376 102.556002 21.9253361 102.804 22.7013283 102.804 23.704L102.804 29 101.524 29 101.524 23.928C101.524 22.4453259 100.900006 21.704 99.652 21.704 99.3959987 21.704 99.1480012 21.7359997 98.908 21.8 98.6679988 21.8640003 98.452001 21.9599994 98.26 22.088 98.067999 22.2160006 97.9160006 22.3786657 97.804 22.576 97.6919994 22.7733343 97.636 23.005332 97.636 23.272L97.636 29 96.356 29zM106.084 18.808C105.806665 18.808 105.606667 18.741334 105.484 18.608 105.361333 18.474666 105.3 18.3013344 105.3 18.088L105.3 17.88C105.3 17.6666656 105.361333 17.493334 105.484 17.36 105.606667 17.226666 105.806665 17.16 106.084 17.16 106.361335 17.16 106.561333 17.226666 106.684 17.36 106.806667 17.493334 106.868 17.6666656 106.868 17.88L106.868 18.088C106.868 18.3013344 106.806667 18.474666 106.684 18.608 106.561333 18.741334 106.361335 18.808 106.084 18.808zM105.444 20.744L106.724 20.744 106.724 29 105.444 29 105.444 20.744zM109.892 21.864L108.548 21.864 108.548 20.744 109.892 20.744 109.892 19.08C109.892 18.5039971 110.041332 18.0400018 110.34 17.688 110.638668 17.3359982 111.091997 17.16 111.7 17.16L112.948 17.16 112.948 18.28 111.172 18.28 111.172 20.744 115.796 20.744 115.796 29 114.516 29 114.516 21.864 111.172 21.864 111.172 29 109.892 29 109.892 21.864zM115.156 18.808C114.878665 18.808 114.678667 18.741334 114.556 18.608 114.433333 18.474666 114.372 18.3013344 114.372 18.088L114.372 17.88C114.372 17.6666656 114.433333 17.493334 114.556 17.36 114.678667 17.226666 114.878665 17.16 115.156 17.16 115.433335 17.16 115.633333 17.226666 115.756 17.36 115.878667 17.493334 115.94 17.6666656 115.94 17.88L115.94 18.088C115.94 18.3013344 115.878667 18.474666 115.756 18.608 115.633333 18.741334 115.433335 18.808 115.156 18.808zM121.588 29.192C121.011997 29.192 120.494669 29.0906677 120.036 28.888 119.577331 28.6853323 119.190668 28.3973352 118.876 28.024 118.561332 27.6506648 118.321334 27.197336 118.156 26.664 117.990666 26.130664 117.908 25.5333366 117.908 24.872 117.908 24.2106634 117.990666 23.613336 118.156 23.08 118.321334 22.546664 118.561332 22.0933352 118.876 21.72 119.190668 21.3466648 119.577331 21.0586677 120.036 20.856 120.494669 20.6533323 121.011997 20.552 121.588 20.552 122.409337 20.552 123.067998 20.7306649 123.564 21.088 124.060002 21.4453351 124.430665 21.9119971 124.676 22.488L123.604 23.032C123.454666 22.6053312 123.209335 22.2746678 122.868 22.04 122.526665 21.8053322 122.100003 21.688 121.588 21.688 121.203998 21.688 120.868001 21.7493327 120.58 21.872 120.291999 21.9946673 120.052001 22.1653322 119.86 22.384 119.667999 22.6026678 119.524 22.8639985 119.428 23.168 119.332 23.4720015 119.284 23.8053315 119.284 24.168L119.284 25.576C119.284 26.301337 119.478665 26.8959977 119.868 27.36 120.257335 27.8240023 120.830663 28.056 121.588 28.056 122.622672 28.056 123.369331 27.5760048 123.828 26.616L124.756 27.24C124.489332 27.8373363 124.092003 28.3119982 123.564 28.664 123.035997 29.0160018 122.377337 29.192 121.588 29.192zM132.564 29C132.083998 29 131.740001 28.8720013 131.532 28.616 131.323999 28.3599987 131.193334 28.0400019 131.14 27.656L131.06 27.656C130.878666 28.1680026 130.580002 28.5519987 130.164 28.808 129.747998 29.0640013 129.252003 29.192 128.676 29.192 127.801329 29.192 127.121336 28.9680022 126.636 28.52 126.150664 28.0719978 125.908 27.4640038 125.908 26.696 125.908 25.9173294 126.19333 25.3200021 126.764 24.904 127.33467 24.4879979 128.222661 24.28 129.428 24.28L131.06 24.28 131.06 23.464C131.06 22.8773304 130.900002 22.4293349 130.58 22.12 130.259998 21.8106651 129.769337 21.656 129.108 21.656 128.606664 21.656 128.188002 21.7679989 127.852 21.992 127.515998 22.2160011 127.236001 22.5146648 127.012 22.888L126.244 22.168C126.468001 21.7199978 126.825331 21.3386682 127.316 21.024 127.806669 20.7093318 128.42533 20.552 129.172 20.552 130.174672 20.552 130.953331 20.7973309 131.508 21.288 132.062669 21.7786691 132.34 22.461329 132.34 23.336L132.34 27.88 133.284 27.88 133.284 29 132.564 29zM128.884 28.104C129.204002 28.104 129.497332 28.066667 129.764 27.992 130.030668 27.917333 130.259999 27.8106674 130.452 27.672 130.644001 27.5333326 130.793333 27.3733342 130.9 27.192 131.006667 27.0106658 131.06 26.8133344 131.06 26.6L131.06 25.24 129.364 25.24C128.627996 25.24 128.092002 25.3466656 127.756 25.56 127.419998 25.7733344 127.252 26.0826646 127.252 26.488L127.252 26.824C127.252 27.2293354 127.398665 27.5439989 127.692 27.768 127.985335 27.9920011 128.382664 28.104 128.884 28.104zM135.108 29L135.108 20.744 136.388 20.744 136.388 22.088 136.452 22.088C136.654668 21.6186643 136.939998 21.2453347 137.308 20.968 137.676002 20.6906653 138.16933 20.552 138.788 20.552 139.641338 20.552 140.315998 20.8266639 140.812 21.376 141.308002 21.9253361 141.556 22.7013283 141.556 23.704L141.556 29 140.276 29 140.276 23.928C140.276 22.4453259 139.652006 21.704 138.404 21.704 138.147999 21.704 137.900001 21.7359997 137.66 21.8 137.419999 21.8640003 137.204001 21.9599994 137.012 22.088 136.819999 22.2160006 136.668001 22.3786657 136.556 22.576 136.443999 22.7733343 136.388 23.005332 136.388 23.272L136.388 29 135.108 29zM149.476 27.656L149.412 27.656C148.910664 28.6800051 148.105339 29.192 146.996 29.192 146.483997 29.192 146.020002 29.0906677 145.604 28.888 145.187998 28.6853323 144.833335 28.3973352 144.54 28.024 144.246665 27.6506648 144.022667 27.197336 143.868 26.664 143.713333 26.130664 143.636 25.5333366 143.636 24.872 143.636 24.2106634 143.713333 23.613336 143.868 23.08 144.022667 22.546664 144.246665 22.0933352 144.54 21.72 144.833335 21.3466648 145.187998 21.0586677 145.604 20.856 146.020002 20.6533323 146.483997 20.552 146.996 20.552 147.572003 20.552 148.065331 20.6773321 148.476 20.928 148.886669 21.1786679 149.198666 21.5653307 149.412 22.088L149.476 22.088 149.476 17.16 150.756 17.16 150.756 29 149.476 29 149.476 27.656zM147.348 28.04C147.636001 28.04 147.910665 28.002667 148.172 27.928 148.433335 27.853333 148.659999 27.7440007 148.852 27.6 149.044001 27.4559993 149.195999 27.280001 149.308 27.072 149.420001 26.863999 149.476 26.626668 149.476 26.36L149.476 23.288C149.476 23.0639989 149.420001 22.8533343 149.308 22.656 149.195999 22.4586657 149.044001 22.2906674 148.852 22.152 148.659999 22.0133326 148.433335 21.9040004 148.172 21.824 147.910665 21.7439996 147.636001 21.704 147.348 21.704 146.622663 21.704 146.052002 21.9306644 145.636 22.384 145.219998 22.8373356 145.012 23.4319963 145.012 24.168L145.012 25.576C145.012 26.3120037 145.219998 26.9066644 145.636 27.36 146.052002 27.8133356 146.622663 28.04 147.348 28.04zM262.292 29L262.292 27.816 265.412 27.816 265.412 18.824 265.3 18.824 262.484 21.448 261.7 20.6 264.66 17.832 266.756 17.832 266.756 27.816 269.636 27.816 269.636 29 262.292 29zM275.62 17.16L276.9 17.16 276.9 22.088 276.964 22.088C277.177334 21.5653307 277.489331 21.1786679 277.9 20.928 278.310669 20.6773321 278.803997 20.552 279.38 20.552 279.892003 20.552 280.355998 20.6533323 280.772 20.856 281.188002 21.0586677 281.542665 21.3466648 281.836 21.72 282.129335 22.0933352 282.353333 22.546664 282.508 23.08 282.662667 23.613336 282.74 24.2106634 282.74 24.872 282.74 25.5333366 282.662667 26.130664 282.508 26.664 282.353333 27.197336 282.129335 27.6506648 281.836 28.024 281.542665 28.3973352 281.188002 28.6853323 280.772 28.888 280.355998 29.0906677 279.892003 29.192 279.38 29.192 278.259994 29.192 277.454669 28.6800051 276.964 27.656L276.9 27.656 276.9 29 275.62 29 275.62 17.16zM279.028 28.04C279.753337 28.04 280.323998 27.8133356 280.74 27.36 281.156002 26.9066644 281.364 26.3120037 281.364 25.576L281.364 24.168C281.364 23.4319963 281.156002 22.8373356 280.74 22.384 280.323998 21.9306644 279.753337 21.704 279.028 21.704 278.739999 21.704 278.465335 21.7439996 278.204 21.824 277.942665 21.9040004 277.716001 22.0133326 277.524 22.152 277.331999 22.2906674 277.180001 22.4586657 277.068 22.656 276.955999 22.8533343 276.9 23.0639989 276.9 23.288L276.9 26.36C276.9 26.626668 276.955999 26.863999 277.068 27.072 277.180001 27.280001 277.331999 27.4559993 277.524 27.6 277.716001 27.7440007 277.942665 27.853333 278.204 27.928 278.465335 28.002667 278.739999 28.04 279.028 28.04zM285.54 18.808C285.262665 18.808 285.062667 18.741334 284.94 18.608 284.817333 18.474666 284.756 18.3013344 284.756 18.088L284.756 17.88C284.756 17.6666656 284.817333 17.493334 284.94 17.36 285.062667 17.226666 285.262665 17.16 285.54 17.16 285.817335 17.16 286.017333 17.226666 286.14 17.36 286.262667 17.493334 286.324 17.6666656 286.324 17.88L286.324 18.088C286.324 18.3013344 286.262667 18.474666 286.14 18.608 286.017333 18.741334 285.817335 18.808 285.54 18.808zM284.9 20.744L286.18 20.744 286.18 29 284.9 29 284.9 20.744zM290.724 29C290.275998 29 289.937334 28.8746679 289.708 28.624 289.478666 28.3733321 289.364 28.0453354 289.364 27.64L289.364 21.864 288.004 21.864 288.004 20.744 288.772 20.744C289.049335 20.744 289.238666 20.6880006 289.34 20.576 289.441334 20.4639994 289.492 20.2693347 289.492 19.992L289.492 18.456 290.644 18.456 290.644 20.744 292.452 20.744 292.452 21.864 290.644 21.864 290.644 27.88 292.324 27.88 292.324 29 290.724 29zM301.412 29.192C300.857331 29.192 300.350669 29.0906677 299.892 28.888 299.433331 28.6853323 299.041335 28.3946686 298.716 28.016 298.390665 27.6373314 298.137334 27.1840026 297.956 26.656 297.774666 26.1279974 297.684 25.5333366 297.684 24.872 297.684 24.2213301 297.774666 23.629336 297.956 23.096 298.137334 22.562664 298.390665 22.1066686 298.716 21.728 299.041335 21.3493314 299.433331 21.0586677 299.892 20.856 300.350669 20.6533323 300.857331 20.552 301.412 20.552 301.966669 20.552 302.470664 20.6533323 302.924 20.856 303.377336 21.0586677 303.769332 21.3493314 304.1 21.728 304.430668 22.1066686 304.686666 22.562664 304.868 23.096 305.049334 23.629336 305.14 24.2213301 305.14 24.872 305.14 25.5333366 305.049334 26.1279974 304.868 26.656 304.686666 27.1840026 304.430668 27.6373314 304.1 28.016 303.769332 28.3946686 303.377336 28.6853323 302.924 28.888 302.470664 29.0906677 301.966669 29.192 301.412 29.192zM301.412 28.056C302.105337 28.056 302.670664 27.8426688 303.108 27.416 303.545336 26.9893312 303.764 26.338671 303.764 25.464L303.764 24.28C303.764 23.405329 303.545336 22.7546688 303.108 22.328 302.670664 21.9013312 302.105337 21.688 301.412 21.688 300.718663 21.688 300.153336 21.9013312 299.716 22.328 299.278664 22.7546688 299.06 23.405329 299.06 24.28L299.06 25.464C299.06 26.338671 299.278664 26.9893312 299.716 27.416 300.153336 27.8426688 300.718663 28.056 301.412 28.056zM307.604 21.864L306.26 21.864 306.26 20.744 307.604 20.744 307.604 19.08C307.604 18.5039971 307.753332 18.0400018 308.052 17.688 308.350668 17.3359982 308.803997 17.16 309.412 17.16L310.66 17.16 310.66 18.28 308.884 18.28 308.884 20.744 310.66 20.744 310.66 21.864 308.884 21.864 308.884 29 307.604 29 307.604 21.864zM318.596 29.192C317.827996 29.192 317.185336 29.0453348 316.668 28.752 316.150664 28.4586652 315.705335 28.0666691 315.332 27.576L316.244 26.84C316.564002 27.2453354 316.921331 27.5573322 317.316 27.776 317.710669 27.9946678 318.169331 28.104 318.692 28.104 319.236003 28.104 319.659998 27.9866678 319.964 27.752 320.268002 27.5173322 320.42 27.1866688 320.42 26.76 320.42 26.4399984 320.316001 26.1653345 320.108 25.936 319.899999 25.7066655 319.524003 25.5493338 318.98 25.464L318.324 25.368C317.939998 25.3146664 317.588002 25.2320006 317.268 25.12 316.947998 25.0079994 316.668001 24.8586676 316.428 24.672 316.187999 24.4853324 316.001334 24.2533347 315.868 23.976 315.734666 23.6986653 315.668 23.3680019 315.668 22.984 315.668 22.5786646 315.742666 22.2240015 315.892 21.92 316.041334 21.6159985 316.246665 21.3626677 316.508 21.16 316.769335 20.9573323 317.081332 20.8053338 317.444 20.704 317.806668 20.6026662 318.195998 20.552 318.612 20.552 319.284003 20.552 319.846664 20.6693322 320.3 20.904 320.753336 21.1386678 321.150665 21.4639979 321.492 21.88L320.644 22.648C320.462666 22.3919987 320.196002 22.160001 319.844 21.952 319.491998 21.743999 319.049336 21.64 318.516 21.64 317.982664 21.64 317.580001 21.7546655 317.308 21.984 317.035999 22.2133345 316.9 22.5253314 316.9 22.92 316.9 23.3253354 317.035999 23.6186658 317.308 23.8 317.580001 23.9813342 317.971997 24.1146662 318.484 24.2L319.124 24.296C320.041338 24.4346674 320.691998 24.6986647 321.076 25.088 321.460002 25.4773353 321.652 25.9866635 321.652 26.616 321.652 27.416004 321.380003 28.045331 320.836 28.504 320.291997 28.962669 319.545338 29.192 318.596 29.192zM324.548 18.808C324.270665 18.808 324.070667 18.741334 323.948 18.608 323.825333 18.474666 323.764 18.3013344 323.764 18.088L323.764 17.88C323.764 17.6666656 323.825333 17.493334 323.948 17.36 324.070667 17.226666 324.270665 17.16 324.548 17.16 324.825335 17.16 325.025333 17.226666 325.148 17.36 325.270667 17.493334 325.332 17.6666656 325.332 17.88L325.332 18.088C325.332 18.3013344 325.270667 18.474666 325.148 18.608 325.025333 18.741334 324.825335 18.808 324.548 18.808zM323.908 20.744L325.188 20.744 325.188 29 323.908 29 323.908 20.744zM334.868 29.912C334.868 30.7653376 334.53467 31.391998 333.868 31.792 333.20133 32.192002 332.20134 32.392 330.868 32.392 329.577327 32.392 328.649336 32.2160018 328.084 31.864 327.518664 31.5119982 327.236 31.0106699 327.236 30.36 327.236 29.9119978 327.353332 29.5626679 327.588 29.312 327.822668 29.0613321 328.142665 28.8773339 328.548 28.76L328.548 28.584C328.057331 28.3493322 327.812 27.965336 327.812 27.432 327.812 27.0159979 327.945332 26.6986678 328.212 26.48 328.478668 26.2613322 328.819998 26.0986672 329.236 25.992L329.236 25.928C328.745331 25.6933322 328.364001 25.3573355 328.092 24.92 327.819999 24.4826645 327.684 23.9760029 327.684 23.4 327.684 22.9839979 327.758666 22.6000018 327.908 22.248 328.057334 21.8959982 328.267999 21.5946679 328.54 21.344 328.812001 21.0933321 329.137331 20.8986674 329.516 20.76 329.894669 20.6213326 330.318664 20.552 330.788 20.552 331.37467 20.552 331.897331 20.6586656 332.356 20.872L332.356 20.728C332.356 20.4079984 332.430666 20.144001 332.58 19.936 332.729334 19.727999 332.974665 19.624 333.316 19.624L334.548 19.624 334.548 20.744 332.98 20.744 332.98 21.272C333.278668 21.5280013 333.510666 21.8346649 333.676 22.192 333.841334 22.5493351 333.924 22.9519978 333.924 23.4 333.924 23.8160021 333.849334 24.1999982 333.7 24.552 333.550666 24.9040018 333.340001 25.2053321 333.068 25.456 332.795999 25.7066679 332.468002 25.9013326 332.084 26.04 331.699998 26.1786674 331.273336 26.248 330.804 26.248 330.537332 26.248 330.270668 26.2213336 330.004 26.168 329.726665 26.242667 329.476001 26.3519993 329.252 26.496 329.027999 26.6400007 328.916 26.8399987 328.916 27.096 328.916 27.3413346 329.033332 27.5066662 329.268 27.592 329.502668 27.6773338 329.806665 27.72 330.18 27.72L331.94 27.72C332.964005 27.72 333.707998 27.9146647 334.172 28.304 334.636002 28.6933353 334.868 29.2293299 334.868 29.912zM333.668 30.008C333.668 29.6773317 333.542668 29.4133343 333.292 29.216 333.041332 29.0186657 332.596003 28.92 331.956 28.92L329.204 28.92C328.691997 29.1546678 328.436 29.5279974 328.436 30.04 328.436 30.4026685 328.571999 30.7119987 328.844 30.968 329.116001 31.2240013 329.57733 31.352 330.228 31.352L331.412 31.352C332.12667 31.352 332.681331 31.2400011 333.076 31.016 333.470669 30.7919989 333.668 30.4560022 333.668 30.008zM330.804 25.224C331.348003 25.224 331.779998 25.0933346 332.1 24.832 332.420002 24.5706654 332.58 24.1680027 332.58 23.624L332.58 23.176C332.58 22.6319973 332.420002 22.2293346 332.1 21.968 331.779998 21.7066654 331.348003 21.576 330.804 21.576 330.259997 21.576 329.828002 21.7066654 329.508 21.968 329.187998 22.2293346 329.028 22.6319973 329.028 23.176L329.028 23.624C329.028 24.1680027 329.187998 24.5706654 329.508 24.832 329.828002 25.0933346 330.259997 25.224 330.804 25.224zM336.356 29L336.356 20.744 337.636 20.744 337.636 22.088 337.7 22.088C337.902668 21.6186643 338.187998 21.2453347 338.556 20.968 338.924002 20.6906653 339.41733 20.552 340.036 20.552 340.889338 20.552 341.563998 20.8266639 342.06 21.376 342.556002 21.9253361 342.804 22.7013283 342.804 23.704L342.804 29 341.524 29 341.524 23.928C341.524 22.4453259 340.900006 21.704 339.652 21.704 339.395999 21.704 339.148001 21.7359997 338.908 21.8 338.667999 21.8640003 338.452001 21.9599994 338.26 22.088 338.067999 22.2160006 337.916001 22.3786657 337.804 22.576 337.691999 22.7733343 337.636 23.005332 337.636 23.272L337.636 29 336.356 29zM346.084 18.808C345.806665 18.808 345.606667 18.741334 345.484 18.608 345.361333 18.474666 345.3 18.3013344 345.3 18.088L345.3 17.88C345.3 17.6666656 345.361333 17.493334 345.484 17.36 345.606667 17.226666 345.806665 17.16 346.084 17.16 346.361335 17.16 346.561333 17.226666 346.684 17.36 346.806667 17.493334 346.868 17.6666656 346.868 17.88L346.868 18.088C346.868 18.3013344 346.806667 18.474666 346.684 18.608 346.561333 18.741334 346.361335 18.808 346.084 18.808zM345.444 20.744L346.724 20.744 346.724 29 345.444 29 345.444 20.744zM349.892 21.864L348.548 21.864 348.548 20.744 349.892 20.744 349.892 19.08C349.892 18.5039971 350.041332 18.0400018 350.34 17.688 350.638668 17.3359982 351.091997 17.16 351.7 17.16L352.948 17.16 352.948 18.28 351.172 18.28 351.172 20.744 355.796 20.744 355.796 29 354.516 29 354.516 21.864 351.172 21.864 351.172 29 349.892 29 349.892 21.864zM355.156 18.808C354.878665 18.808 354.678667 18.741334 354.556 18.608 354.433333 18.474666 354.372 18.3013344 354.372 18.088L354.372 17.88C354.372 17.6666656 354.433333 17.493334 354.556 17.36 354.678667 17.226666 354.878665 17.16 355.156 17.16 355.433335 17.16 355.633333 17.226666 355.756 17.36 355.878667 17.493334 355.94 17.6666656 355.94 17.88L355.94 18.088C355.94 18.3013344 355.878667 18.474666 355.756 18.608 355.633333 18.741334 355.433335 18.808 355.156 18.808zM361.588 29.192C361.011997 29.192 360.494669 29.0906677 360.036 28.888 359.577331 28.6853323 359.190668 28.3973352 358.876 28.024 358.561332 27.6506648 358.321334 27.197336 358.156 26.664 357.990666 26.130664 357.908 25.5333366 357.908 24.872 357.908 24.2106634 357.990666 23.613336 358.156 23.08 358.321334 22.546664 358.561332 22.0933352 358.876 21.72 359.190668 21.3466648 359.577331 21.0586677 360.036 20.856 360.494669 20.6533323 361.011997 20.552 361.588 20.552 362.409337 20.552 363.067998 20.7306649 363.564 21.088 364.060002 21.4453351 364.430665 21.9119971 364.676 22.488L363.604 23.032C363.454666 22.6053312 363.209335 22.2746678 362.868 22.04 362.526665 21.8053322 362.100003 21.688 361.588 21.688 361.203998 21.688 360.868001 21.7493327 360.58 21.872 360.291999 21.9946673 360.052001 22.1653322 359.86 22.384 359.667999 22.6026678 359.524 22.8639985 359.428 23.168 359.332 23.4720015 359.284 23.8053315 359.284 24.168L359.284 25.576C359.284 26.301337 359.478665 26.8959977 359.868 27.36 360.257335 27.8240023 360.830663 28.056 361.588 28.056 362.622672 28.056 363.369331 27.5760048 363.828 26.616L364.756 27.24C364.489332 27.8373363 364.092003 28.3119982 363.564 28.664 363.035997 29.0160018 362.377337 29.192 361.588 29.192zM372.564 29C372.083998 29 371.740001 28.8720013 371.532 28.616 371.323999 28.3599987 371.193334 28.0400019 371.14 27.656L371.06 27.656C370.878666 28.1680026 370.580002 28.5519987 370.164 28.808 369.747998 29.0640013 369.252003 29.192 368.676 29.192 367.801329 29.192 367.121336 28.9680022 366.636 28.52 366.150664 28.0719978 365.908 27.4640038 365.908 26.696 365.908 25.9173294 366.19333 25.3200021 366.764 24.904 367.33467 24.4879979 368.222661 24.28 369.428 24.28L371.06 24.28 371.06 23.464C371.06 22.8773304 370.900002 22.4293349 370.58 22.12 370.259998 21.8106651 369.769337 21.656 369.108 21.656 368.606664 21.656 368.188002 21.7679989 367.852 21.992 367.515998 22.2160011 367.236001 22.5146648 367.012 22.888L366.244 22.168C366.468001 21.7199978 366.825331 21.3386682 367.316 21.024 367.806669 20.7093318 368.42533 20.552 369.172 20.552 370.174672 20.552 370.953331 20.7973309 371.508 21.288 372.062669 21.7786691 372.34 22.461329 372.34 23.336L372.34 27.88 373.284 27.88 373.284 29 372.564 29zM368.884 28.104C369.204002 28.104 369.497332 28.066667 369.764 27.992 370.030668 27.917333 370.259999 27.8106674 370.452 27.672 370.644001 27.5333326 370.793333 27.3733342 370.9 27.192 371.006667 27.0106658 371.06 26.8133344 371.06 26.6L371.06 25.24 369.364 25.24C368.627996 25.24 368.092002 25.3466656 367.756 25.56 367.419998 25.7733344 367.252 26.0826646 367.252 26.488L367.252 26.824C367.252 27.2293354 367.398665 27.5439989 367.692 27.768 367.985335 27.9920011 368.382664 28.104 368.884 28.104zM375.108 29L375.108 20.744 376.388 20.744 376.388 22.088 376.452 22.088C376.654668 21.6186643 376.939998 21.2453347 377.308 20.968 377.676002 20.6906653 378.16933 20.552 378.788 20.552 379.641338 20.552 380.315998 20.8266639 380.812 21.376 381.308002 21.9253361 381.556 22.7013283 381.556 23.704L381.556 29 380.276 29 380.276 23.928C380.276 22.4453259 379.652006 21.704 378.404 21.704 378.147999 21.704 377.900001 21.7359997 377.66 21.8 377.419999 21.8640003 377.204001 21.9599994 377.012 22.088 376.819999 22.2160006 376.668001 22.3786657 376.556 22.576 376.443999 22.7733343 376.388 23.005332 376.388 23.272L376.388 29 375.108 29zM389.476 27.656L389.412 27.656C388.910664 28.6800051 388.105339 29.192 386.996 29.192 386.483997 29.192 386.020002 29.0906677 385.604 28.888 385.187998 28.6853323 384.833335 28.3973352 384.54 28.024 384.246665 27.6506648 384.022667 27.197336 383.868 26.664 383.713333 26.130664 383.636 25.5333366 383.636 24.872 383.636 24.2106634 383.713333 23.613336 383.868 23.08 384.022667 22.546664 384.246665 22.0933352 384.54 21.72 384.833335 21.3466648 385.187998 21.0586677 385.604 20.856 386.020002 20.6533323 386.483997 20.552 386.996 20.552 387.572003 20.552 388.065331 20.6773321 388.476 20.928 388.886669 21.1786679 389.198666 21.5653307 389.412 22.088L389.476 22.088 389.476 17.16 390.756 17.16 390.756 29 389.476 29 389.476 27.656zM387.348 28.04C387.636001 28.04 387.910665 28.002667 388.172 27.928 388.433335 27.853333 388.659999 27.7440007 388.852 27.6 389.044001 27.4559993 389.195999 27.280001 389.308 27.072 389.420001 26.863999 389.476 26.626668 389.476 26.36L389.476 23.288C389.476 23.0639989 389.420001 22.8533343 389.308 22.656 389.195999 22.4586657 389.044001 22.2906674 388.852 22.152 388.659999 22.0133326 388.433335 21.9040004 388.172 21.824 387.910665 21.7439996 387.636001 21.704 387.348 21.704 386.622663 21.704 386.052002 21.9306644 385.636 22.384 385.219998 22.8373356 385.012 23.4319963 385.012 24.168L385.012 25.576C385.012 26.3120037 385.219998 26.9066644 385.636 27.36 386.052002 27.8133356 386.622663 28.04 387.348 28.04zM502.292 29L502.292 27.816 505.412 27.816 505.412 18.824 505.3 18.824 502.484 21.448 501.7 20.6 504.66 17.832 506.756 17.832 506.756 27.816 509.636 27.816 509.636 29 502.292 29zM515.62 17.16L516.9 17.16 516.9 22.088 516.964 22.088C517.177334 21.5653307 517.489331 21.1786679 517.9 20.928 518.310669 20.6773321 518.803997 20.552 519.38 20.552 519.892003 20.552 520.355998 20.6533323 520.772 20.856 521.188002 21.0586677 521.542665 21.3466648 521.836 21.72 522.129335 22.0933352 522.353333 22.546664 522.508 23.08 522.662667 23.613336 522.74 24.2106634 522.74 24.872 522.74 25.5333366 522.662667 26.130664 522.508 26.664 522.353333 27.197336 522.129335 27.6506648 521.836 28.024 521.542665 28.3973352 521.188002 28.6853323 520.772 28.888 520.355998 29.0906677 519.892003 29.192 519.38 29.192 518.259994 29.192 517.454669 28.6800051 516.964 27.656L516.9 27.656 516.9 29 515.62 29 515.62 17.16zM519.028 28.04C519.753337 28.04 520.323998 27.8133356 520.74 27.36 521.156002 26.9066644 521.364 26.3120037 521.364 25.576L521.364 24.168C521.364 23.4319963 521.156002 22.8373356 520.74 22.384 520.323998 21.9306644 519.753337 21.704 519.028 21.704 518.739999 21.704 518.465335 21.7439996 518.204 21.824 517.942665 21.9040004 517.716001 22.0133326 517.524 22.152 517.331999 22.2906674 517.180001 22.4586657 517.068 22.656 516.955999 22.8533343 516.9 23.0639989 516.9 23.288L516.9 26.36C516.9 26.626668 516.955999 26.863999 517.068 27.072 517.180001 27.280001 517.331999 27.4559993 517.524 27.6 517.716001 27.7440007 517.942665 27.853333 518.204 27.928 518.465335 28.002667 518.739999 28.04 519.028 28.04zM525.54 18.808C525.262665 18.808 525.062667 18.741334 524.94 18.608 524.817333 18.474666 524.756 18.3013344 524.756 18.088L524.756 17.88C524.756 17.6666656 524.817333 17.493334 524.94 17.36 525.062667 17.226666 525.262665 17.16 525.54 17.16 525.817335 17.16 526.017333 17.226666 526.14 17.36 526.262667 17.493334 526.324 17.6666656 526.324 17.88L526.324 18.088C526.324 18.3013344 526.262667 18.474666 526.14 18.608 526.017333 18.741334 525.817335 18.808 525.54 18.808zM524.9 20.744L526.18 20.744 526.18 29 524.9 29 524.9 20.744zM530.724 29C530.275998 29 529.937334 28.8746679 529.708 28.624 529.478666 28.3733321 529.364 28.0453354 529.364 27.64L529.364 21.864 528.004 21.864 528.004 20.744 528.772 20.744C529.049335 20.744 529.238666 20.6880006 529.34 20.576 529.441334 20.4639994 529.492 20.2693347 529.492 19.992L529.492 18.456 530.644 18.456 530.644 20.744 532.452 20.744 532.452 21.864 530.644 21.864 530.644 27.88 532.324 27.88 532.324 29 530.724 29zM541.412 29.192C540.857331 29.192 540.350669 29.0906677 539.892 28.888 539.433331 28.6853323 539.041335 28.3946686 538.716 28.016 538.390665 27.6373314 538.137334 27.1840026 537.956 26.656 537.774666 26.1279974 537.684 25.5333366 537.684 24.872 537.684 24.2213301 537.774666 23.629336 537.956 23.096 538.137334 22.562664 538.390665 22.1066686 538.716 21.728 539.041335 21.3493314 539.433331 21.0586677 539.892 20.856 540.350669 20.6533323 540.857331 20.552 541.412 20.552 541.966669 20.552 542.470664 20.6533323 542.924 20.856 543.377336 21.0586677 543.769332 21.3493314 544.1 21.728 544.430668 22.1066686 544.686666 22.562664 544.868 23.096 545.049334 23.629336 545.14 24.2213301 545.14 24.872 545.14 25.5333366 545.049334 26.1279974 544.868 26.656 544.686666 27.1840026 544.430668 27.6373314 544.1 28.016 543.769332 28.3946686 543.377336 28.6853323 542.924 28.888 542.470664 29.0906677 541.966669 29.192 541.412 29.192zM541.412 28.056C542.105337 28.056 542.670664 27.8426688 543.108 27.416 543.545336 26.9893312 543.764 26.338671 543.764 25.464L543.764 24.28C543.764 23.405329 543.545336 22.7546688 543.108 22.328 542.670664 21.9013312 542.105337 21.688 541.412 21.688 540.718663 21.688 540.153336 21.9013312 539.716 22.328 539.278664 22.7546688 539.06 23.405329 539.06 24.28L539.06 25.464C539.06 26.338671 539.278664 26.9893312 539.716 27.416 540.153336 27.8426688 540.718663 28.056 541.412 28.056zM547.604 21.864L546.26 21.864 546.26 20.744 547.604 20.744 547.604 19.08C547.604 18.5039971 547.753332 18.0400018 548.052 17.688 548.350668 17.3359982 548.803997 17.16 549.412 17.16L550.66 17.16 550.66 18.28 548.884 18.28 548.884 20.744 550.66 20.744 550.66 21.864 548.884 21.864 548.884 29 547.604 29 547.604 21.864zM558.596 29.192C557.827996 29.192 557.185336 29.0453348 556.668 28.752 556.150664 28.4586652 555.705335 28.0666691 555.332 27.576L556.244 26.84C556.564002 27.2453354 556.921331 27.5573322 557.316 27.776 557.710669 27.9946678 558.169331 28.104 558.692 28.104 559.236003 28.104 559.659998 27.9866678 559.964 27.752 560.268002 27.5173322 560.42 27.1866688 560.42 26.76 560.42 26.4399984 560.316001 26.1653345 560.108 25.936 559.899999 25.7066655 559.524003 25.5493338 558.98 25.464L558.324 25.368C557.939998 25.3146664 557.588002 25.2320006 557.268 25.12 556.947998 25.0079994 556.668001 24.8586676 556.428 24.672 556.187999 24.4853324 556.001334 24.2533347 555.868 23.976 555.734666 23.6986653 555.668 23.3680019 555.668 22.984 555.668 22.5786646 555.742666 22.2240015 555.892 21.92 556.041334 21.6159985 556.246665 21.3626677 556.508 21.16 556.769335 20.9573323 557.081332 20.8053338 557.444 20.704 557.806668 20.6026662 558.195998 20.552 558.612 20.552 559.284003 20.552 559.846664 20.6693322 560.3 20.904 560.753336 21.1386678 561.150665 21.4639979 561.492 21.88L560.644 22.648C560.462666 22.3919987 560.196002 22.160001 559.844 21.952 559.491998 21.743999 559.049336 21.64 558.516 21.64 557.982664 21.64 557.580001 21.7546655 557.308 21.984 557.035999 22.2133345 556.9 22.5253314 556.9 22.92 556.9 23.3253354 557.035999 23.6186658 557.308 23.8 557.580001 23.9813342 557.971997 24.1146662 558.484 24.2L559.124 24.296C560.041338 24.4346674 560.691998 24.6986647 561.076 25.088 561.460002 25.4773353 561.652 25.9866635 561.652 26.616 561.652 27.416004 561.380003 28.045331 560.836 28.504 560.291997 28.962669 559.545338 29.192 558.596 29.192zM564.548 18.808C564.270665 18.808 564.070667 18.741334 563.948 18.608 563.825333 18.474666 563.764 18.3013344 563.764 18.088L563.764 17.88C563.764 17.6666656 563.825333 17.493334 563.948 17.36 564.070667 17.226666 564.270665 17.16 564.548 17.16 564.825335 17.16 565.025333 17.226666 565.148 17.36 565.270667 17.493334 565.332 17.6666656 565.332 17.88L565.332 18.088C565.332 18.3013344 565.270667 18.474666 565.148 18.608 565.025333 18.741334 564.825335 18.808 564.548 18.808zM563.908 20.744L565.188 20.744 565.188 29 563.908 29 563.908 20.744zM574.868 29.912C574.868 30.7653376 574.53467 31.391998 573.868 31.792 573.20133 32.192002 572.20134 32.392 570.868 32.392 569.577327 32.392 568.649336 32.2160018 568.084 31.864 567.518664 31.5119982 567.236 31.0106699 567.236 30.36 567.236 29.9119978 567.353332 29.5626679 567.588 29.312 567.822668 29.0613321 568.142665 28.8773339 568.548 28.76L568.548 28.584C568.057331 28.3493322 567.812 27.965336 567.812 27.432 567.812 27.0159979 567.945332 26.6986678 568.212 26.48 568.478668 26.2613322 568.819998 26.0986672 569.236 25.992L569.236 25.928C568.745331 25.6933322 568.364001 25.3573355 568.092 24.92 567.819999 24.4826645 567.684 23.9760029 567.684 23.4 567.684 22.9839979 567.758666 22.6000018 567.908 22.248 568.057334 21.8959982 568.267999 21.5946679 568.54 21.344 568.812001 21.0933321 569.137331 20.8986674 569.516 20.76 569.894669 20.6213326 570.318664 20.552 570.788 20.552 571.37467 20.552 571.897331 20.6586656 572.356 20.872L572.356 20.728C572.356 20.4079984 572.430666 20.144001 572.58 19.936 572.729334 19.727999 572.974665 19.624 573.316 19.624L574.548 19.624 574.548 20.744 572.98 20.744 572.98 21.272C573.278668 21.5280013 573.510666 21.8346649 573.676 22.192 573.841334 22.5493351 573.924 22.9519978 573.924 23.4 573.924 23.8160021 573.849334 24.1999982 573.7 24.552 573.550666 24.9040018 573.340001 25.2053321 573.068 25.456 572.795999 25.7066679 572.468002 25.9013326 572.084 26.04 571.699998 26.1786674 571.273336 26.248 570.804 26.248 570.537332 26.248 570.270668 26.2213336 570.004 26.168 569.726665 26.242667 569.476001 26.3519993 569.252 26.496 569.027999 26.6400007 568.916 26.8399987 568.916 27.096 568.916 27.3413346 569.033332 27.5066662 569.268 27.592 569.502668 27.6773338 569.806665 27.72 570.18 27.72L571.94 27.72C572.964005 27.72 573.707998 27.9146647 574.172 28.304 574.636002 28.6933353 574.868 29.2293299 574.868 29.912zM573.668 30.008C573.668 29.6773317 573.542668 29.4133343 573.292 29.216 573.041332 29.0186657 572.596003 28.92 571.956 28.92L569.204 28.92C568.691997 29.1546678 568.436 29.5279974 568.436 30.04 568.436 30.4026685 568.571999 30.7119987 568.844 30.968 569.116001 31.2240013 569.57733 31.352 570.228 31.352L571.412 31.352C572.12667 31.352 572.681331 31.2400011 573.076 31.016 573.470669 30.7919989 573.668 30.4560022 573.668 30.008zM570.804 25.224C571.348003 25.224 571.779998 25.0933346 572.1 24.832 572.420002 24.5706654 572.58 24.1680027 572.58 23.624L572.58 23.176C572.58 22.6319973 572.420002 22.2293346 572.1 21.968 571.779998 21.7066654 571.348003 21.576 570.804 21.576 570.259997 21.576 569.828002 21.7066654 569.508 21.968 569.187998 22.2293346 569.028 22.6319973 569.028 23.176L569.028 23.624C569.028 24.1680027 569.187998 24.5706654 569.508 24.832 569.828002 25.0933346 570.259997 25.224 570.804 25.224zM576.356 29L576.356 20.744 577.636 20.744 577.636 22.088 577.7 22.088C577.902668 21.6186643 578.187998 21.2453347 578.556 20.968 578.924002 20.6906653 579.41733 20.552 580.036 20.552 580.889338 20.552 581.563998 20.8266639 582.06 21.376 582.556002 21.9253361 582.804 22.7013283 582.804 23.704L582.804 29 581.524 29 581.524 23.928C581.524 22.4453259 580.900006 21.704 579.652 21.704 579.395999 21.704 579.148001 21.7359997 578.908 21.8 578.667999 21.8640003 578.452001 21.9599994 578.26 22.088 578.067999 22.2160006 577.916001 22.3786657 577.804 22.576 577.691999 22.7733343 577.636 23.005332 577.636 23.272L577.636 29 576.356 29zM586.084 18.808C585.806665 18.808 585.606667 18.741334 585.484 18.608 585.361333 18.474666 585.3 18.3013344 585.3 18.088L585.3 17.88C585.3 17.6666656 585.361333 17.493334 585.484 17.36 585.606667 17.226666 585.806665 17.16 586.084 17.16 586.361335 17.16 586.561333 17.226666 586.684 17.36 586.806667 17.493334 586.868 17.6666656 586.868 17.88L586.868 18.088C586.868 18.3013344 586.806667 18.474666 586.684 18.608 586.561333 18.741334 586.361335 18.808 586.084 18.808zM585.444 20.744L586.724 20.744 586.724 29 585.444 29 585.444 20.744zM589.892 21.864L588.548 21.864 588.548 20.744 589.892 20.744 589.892 19.08C589.892 18.5039971 590.041332 18.0400018 590.34 17.688 590.638668 17.3359982 591.091997 17.16 591.7 17.16L592.948 17.16 592.948 18.28 591.172 18.28 591.172 20.744 595.796 20.744 595.796 29 594.516 29 594.516 21.864 591.172 21.864 591.172 29 589.892 29 589.892 21.864zM595.156 18.808C594.878665 18.808 594.678667 18.741334 594.556 18.608 594.433333 18.474666 594.372 18.3013344 594.372 18.088L594.372 17.88C594.372 17.6666656 594.433333 17.493334 594.556 17.36 594.678667 17.226666 594.878665 17.16 595.156 17.16 595.433335 17.16 595.633333 17.226666 595.756 17.36 595.878667 17.493334 595.94 17.6666656 595.94 17.88L595.94 18.088C595.94 18.3013344 595.878667 18.474666 595.756 18.608 595.633333 18.741334 595.433335 18.808 595.156 18.808zM601.588 29.192C601.011997 29.192 600.494669 29.0906677 600.036 28.888 599.577331 28.6853323 599.190668 28.3973352 598.876 28.024 598.561332 27.6506648 598.321334 27.197336 598.156 26.664 597.990666 26.130664 597.908 25.5333366 597.908 24.872 597.908 24.2106634 597.990666 23.613336 598.156 23.08 598.321334 22.546664 598.561332 22.0933352 598.876 21.72 599.190668 21.3466648 599.577331 21.0586677 600.036 20.856 600.494669 20.6533323 601.011997 20.552 601.588 20.552 602.409337 20.552 603.067998 20.7306649 603.564 21.088 604.060002 21.4453351 604.430665 21.9119971 604.676 22.488L603.604 23.032C603.454666 22.6053312 603.209335 22.2746678 602.868 22.04 602.526665 21.8053322 602.100003 21.688 601.588 21.688 601.203998 21.688 600.868001 21.7493327 600.58 21.872 600.291999 21.9946673 600.052001 22.1653322 599.86 22.384 599.667999 22.6026678 599.524 22.8639985 599.428 23.168 599.332 23.4720015 599.284 23.8053315 599.284 24.168L599.284 25.576C599.284 26.301337 599.478665 26.8959977 599.868 27.36 600.257335 27.8240023 600.830663 28.056 601.588 28.056 602.622672 28.056 603.369331 27.5760048 603.828 26.616L604.756 27.24C604.489332 27.8373363 604.092003 28.3119982 603.564 28.664 603.035997 29.0160018 602.377337 29.192 601.588 29.192zM612.564 29C612.083998 29 611.740001 28.8720013 611.532 28.616 611.323999 28.3599987 611.193334 28.0400019 611.14 27.656L611.06 27.656C610.878666 28.1680026 610.580002 28.5519987 610.164 28.808 609.747998 29.0640013 609.252003 29.192 608.676 29.192 607.801329 29.192 607.121336 28.9680022 606.636 28.52 606.150664 28.0719978 605.908 27.4640038 605.908 26.696 605.908 25.9173294 606.19333 25.3200021 606.764 24.904 607.33467 24.4879979 608.222661 24.28 609.428 24.28L611.06 24.28 611.06 23.464C611.06 22.8773304 610.900002 22.4293349 610.58 22.12 610.259998 21.8106651 609.769337 21.656 609.108 21.656 608.606664 21.656 608.188002 21.7679989 607.852 21.992 607.515998 22.2160011 607.236001 22.5146648 607.012 22.888L606.244 22.168C606.468001 21.7199978 606.825331 21.3386682 607.316 21.024 607.806669 20.7093318 608.42533 20.552 609.172 20.552 610.174672 20.552 610.953331 20.7973309 611.508 21.288 612.062669 21.7786691 612.34 22.461329 612.34 23.336L612.34 27.88 613.284 27.88 613.284 29 612.564 29zM608.884 28.104C609.204002 28.104 609.497332 28.066667 609.764 27.992 610.030668 27.917333 610.259999 27.8106674 610.452 27.672 610.644001 27.5333326 610.793333 27.3733342 610.9 27.192 611.006667 27.0106658 611.06 26.8133344 611.06 26.6L611.06 25.24 609.364 25.24C608.627996 25.24 608.092002 25.3466656 607.756 25.56 607.419998 25.7733344 607.252 26.0826646 607.252 26.488L607.252 26.824C607.252 27.2293354 607.398665 27.5439989 607.692 27.768 607.985335 27.9920011 608.382664 28.104 608.884 28.104zM615.108 29L615.108 20.744 616.388 20.744 616.388 22.088 616.452 22.088C616.654668 21.6186643 616.939998 21.2453347 617.308 20.968 617.676002 20.6906653 618.16933 20.552 618.788 20.552 619.641338 20.552 620.315998 20.8266639 620.812 21.376 621.308002 21.9253361 621.556 22.7013283 621.556 23.704L621.556 29 620.276 29 620.276 23.928C620.276 22.4453259 619.652006 21.704 618.404 21.704 618.147999 21.704 617.900001 21.7359997 617.66 21.8 617.419999 21.8640003 617.204001 21.9599994 617.012 22.088 616.819999 22.2160006 616.668001 22.3786657 616.556 22.576 616.443999 22.7733343 616.388 23.005332 616.388 23.272L616.388 29 615.108 29zM629.476 27.656L629.412 27.656C628.910664 28.6800051 628.105339 29.192 626.996 29.192 626.483997 29.192 626.020002 29.0906677 625.604 28.888 625.187998 28.6853323 624.833335 28.3973352 624.54 28.024 624.246665 27.6506648 624.022667 27.197336 623.868 26.664 623.713333 26.130664 623.636 25.5333366 623.636 24.872 623.636 24.2106634 623.713333 23.613336 623.868 23.08 624.022667 22.546664 624.246665 22.0933352 624.54 21.72 624.833335 21.3466648 625.187998 21.0586677 625.604 20.856 626.020002 20.6533323 626.483997 20.552 626.996 20.552 627.572003 20.552 628.065331 20.6773321 628.476 20.928 628.886669 21.1786679 629.198666 21.5653307 629.412 22.088L629.476 22.088 629.476 17.16 630.756 17.16 630.756 29 629.476 29 629.476 27.656zM627.348 28.04C627.636001 28.04 627.910665 28.002667 628.172 27.928 628.433335 27.853333 628.659999 27.7440007 628.852 27.6 629.044001 27.4559993 629.195999 27.280001 629.308 27.072 629.420001 26.863999 629.476 26.626668 629.476 26.36L629.476 23.288C629.476 23.0639989 629.420001 22.8533343 629.308 22.656 629.195999 22.4586657 629.044001 22.2906674 628.852 22.152 628.659999 22.0133326 628.433335 21.9040004 628.172 21.824 627.910665 21.7439996 627.636001 21.704 627.348 21.704 626.622663 21.704 626.052002 21.9306644 625.636 22.384 625.219998 22.8373356 625.012 23.4319963 625.012 24.168L625.012 25.576C625.012 26.3120037 625.219998 26.9066644 625.636 27.36 626.052002 27.8133356 626.622663 28.04 627.348 28.04z"/>
    <polygon fill="#555" points="687.5 115 693 126 682 126" transform="rotate(90 687.5 120.5)"/>
  </g>
</svg>
