<svg xmlns="http://www.w3.org/2000/svg" width="460" height="180" viewBox="0 0 460 180">
  <g fill="none" fill-rule="evenodd">
    <polygon fill="#555" points="448.5 131 454 142 443 142" transform="rotate(90 448.5 136.5)"/>
    <rect width="434" height="3" x="9" y="135" fill="#555"/>
    <rect width="2" height="11" x="162" y="131" fill="#555"/>
    <polygon fill="#555" points="448.5 41 454 52 443 52" transform="rotate(90 448.5 46.5)"/>
    <rect width="434" height="3" x="9" y="45" fill="#555"/>
    <rect width="2" height="11" x="162" y="41" fill="#555"/>
    <rect width="254" height="7" x="165" y="133" fill="#41BA63" fill-opacity=".6"/>
    <rect width="254" height="7" x="38" y="43" fill="#41BA63" fill-opacity=".6"/>
    <path fill="#555" d="M19.972 17.744L19.972 16.528 28.228 16.528 28.228 17.744 19.972 17.744zM30.212 22L30.212 20.816 33.332 20.816 33.332 11.824 33.22 11.824 30.404 14.448 29.62 13.6 32.58 10.832 34.676 10.832 34.676 20.816 37.556 20.816 37.556 22 30.212 22zM46.932 22L39.604 22 39.604 20.624 43.252 17.264C43.7746693 16.7839976 44.2119982 16.2746694 44.564 15.736 44.9160018 15.1973306 45.092 14.6560027 45.092 14.112L45.092 13.92C45.092 13.3013302 44.921335 12.8000019 44.58 12.416 44.238665 12.0319981 43.7213368 11.84 43.028 11.84 42.686665 11.84 42.3880013 11.8879995 42.132 11.984 41.8759987 12.0800005 41.6546676 12.2133325 41.468 12.384 41.2813324 12.5546675 41.1266673 12.7546655 41.004 12.984 40.8813327 13.2133345 40.782667 13.461332 40.708 13.728L39.508 13.264C39.6146672 12.9333317 39.7613324 12.6106682 39.948 12.296 40.1346676 11.9813318 40.3693319 11.7013346 40.652 11.456 40.9346681 11.2106654 41.275998 11.0133341 41.676 10.864 42.076002 10.7146659 42.5479973 10.64 43.092 10.64 43.6360027 10.64 44.1213312 10.7199992 44.548 10.88 44.9746688 11.0400008 45.3319986 11.2639986 45.62 11.552 45.9080014 11.8400014 46.1293326 12.1813314 46.284 12.576 46.4386674 12.9706686 46.516 13.4079976 46.516 13.888 46.516 14.3253355 46.4546673 14.7306648 46.332 15.104 46.2093327 15.4773352 46.0413344 15.8319983 45.828 16.168 45.6146656 16.5040017 45.3560015 16.8319984 45.052 17.152 44.7479985 17.4720016 44.4200018 17.7919984 44.068 18.112L41.06 20.816 46.932 20.816 46.932 22zM52.82 22.192C52.2439971 22.192 51.7240023 22.0933343 51.26 21.896 50.7959977 21.6986657 50.401335 21.4160018 50.076 21.048 49.750665 20.6799982 49.5026675 20.229336 49.332 19.696 49.1613325 19.162664 49.076 18.5653366 49.076 17.904 49.076 17.0719958 49.1986654 16.2906703 49.444 15.56 49.6893346 14.8293297 50.0066647 14.1626697 50.396 13.56 50.7853353 12.9573303 51.2146643 12.4240023 51.684 11.96 52.1533357 11.4959977 52.6119978 11.1200014 53.06 10.832L54.788 10.832C54.1906637 11.2693355 53.6573357 11.6959979 53.188 12.112 52.7186643 12.5280021 52.3080018 12.9626644 51.956 13.416 51.6039982 13.8693356 51.3053346 14.3546641 51.06 14.872 50.8146654 15.3893359 50.6173341 15.9733301 50.468 16.624L50.548 16.656C50.814668 16.197331 51.1586646 15.8160015 51.58 15.512 52.0013354 15.2079985 52.5533299 15.056 53.236 15.056 53.7160024 15.056 54.1586646 15.1359992 54.564 15.296 54.9693354 15.4560008 55.3159986 15.6853318 55.604 15.984 55.8920014 16.2826682 56.1186658 16.6453312 56.284 17.072 56.4493342 17.4986688 56.532 17.9733307 56.532 18.496 56.532 19.0400027 56.4440009 19.5386644 56.268 19.992 56.0919991 20.4453356 55.841335 20.834665 55.516 21.16 55.190665 21.485335 54.798669 21.7386658 54.34 21.92 53.881331 22.1013342 53.3746694 22.192 52.82 22.192zM52.804 21.024C53.5400037 21.024 54.1133313 20.8213354 54.524 20.416 54.9346687 20.0106646 55.14 19.4293371 55.14 18.672L55.14 18.544C55.14 17.7866629 54.9346687 17.2053354 54.524 16.8 54.1133313 16.3946646 53.5400037 16.192 52.804 16.192 52.0679963 16.192 51.4946687 16.3946646 51.084 16.8 50.6733313 17.2053354 50.468 17.7866629 50.468 18.544L50.468 18.672C50.468 19.4293371 50.6733313 20.0106646 51.084 20.416 51.4946687 20.8213354 52.0679963 21.024 52.804 21.024zM277.508 22L277.508 20.816 280.628 20.816 280.628 11.824 280.516 11.824 277.7 14.448 276.916 13.6 279.876 10.832 281.972 10.832 281.972 20.816 284.852 20.816 284.852 22 277.508 22zM294.228 22L286.9 22 286.9 20.624 290.548 17.264C291.070669 16.7839976 291.507998 16.2746694 291.86 15.736 292.212002 15.1973306 292.388 14.6560027 292.388 14.112L292.388 13.92C292.388 13.3013302 292.217335 12.8000019 291.876 12.416 291.534665 12.0319981 291.017337 11.84 290.324 11.84 289.982665 11.84 289.684001 11.8879995 289.428 11.984 289.171999 12.0800005 288.950668 12.2133325 288.764 12.384 288.577332 12.5546675 288.422667 12.7546655 288.3 12.984 288.177333 13.2133345 288.078667 13.461332 288.004 13.728L286.804 13.264C286.910667 12.9333317 287.057332 12.6106682 287.244 12.296 287.430668 11.9813318 287.665332 11.7013346 287.948 11.456 288.230668 11.2106654 288.571998 11.0133341 288.972 10.864 289.372002 10.7146659 289.843997 10.64 290.388 10.64 290.932003 10.64 291.417331 10.7199992 291.844 10.88 292.270669 11.0400008 292.627999 11.2639986 292.916 11.552 293.204001 11.8400014 293.425333 12.1813314 293.58 12.576 293.734667 12.9706686 293.812 13.4079976 293.812 13.888 293.812 14.3253355 293.750667 14.7306648 293.628 15.104 293.505333 15.4773352 293.337334 15.8319983 293.124 16.168 292.910666 16.5040017 292.652002 16.8319984 292.348 17.152 292.043998 17.4720016 291.716002 17.7919984 291.364 18.112L288.356 20.816 294.228 20.816 294.228 22zM298.1 22L302.372 11.984 297.604 11.984 297.604 14.064 296.404 14.064 296.404 10.832 303.732 10.832 303.732 12.016 299.54 22 298.1 22z"/>
    <polygon fill="#555" points="162.108 170 162.108 168.816 165.228 168.816 165.228 159.824 165.116 159.824 162.3 162.448 161.516 161.6 164.476 158.832 166.572 158.832 166.572 168.816 169.452 168.816 169.452 170"/>
    <path fill="#555" d="M411.628,170 L404.3,170 L404.3,168.624 L407.948,165.264 C408.470669,164.783998 408.907998,164.274669 409.26,163.736 C409.612002,163.197331 409.788,162.656003 409.788,162.112 L409.788,161.92 C409.788,161.30133 409.617335,160.800002 409.276,160.416 C408.934665,160.031998 408.417337,159.84 407.724,159.84 C407.382665,159.84 407.084001,159.888 406.828,159.984 C406.571999,160.08 406.350668,160.213332 406.164,160.384 C405.977332,160.554668 405.822667,160.754666 405.7,160.984 C405.577333,161.213334 405.478667,161.461332 405.404,161.728 L404.204,161.264 C404.310667,160.933332 404.457332,160.610668 404.644,160.296 C404.830668,159.981332 405.065332,159.701335 405.348,159.456 C405.630668,159.210665 405.971998,159.013334 406.372,158.864 C406.772002,158.714666 407.243997,158.64 407.788,158.64 C408.332003,158.64 408.817331,158.719999 409.244,158.88 C409.670669,159.040001 410.027999,159.263999 410.316,159.552 C410.604001,159.840001 410.825333,160.181331 410.98,160.576 C411.134667,160.970669 411.212,161.407998 411.212,161.888 C411.212,162.325336 411.150667,162.730665 411.028,163.104 C410.905333,163.477335 410.737334,163.831998 410.524,164.168 C410.310666,164.504002 410.052002,164.831998 409.748,165.152 C409.443998,165.472002 409.116002,165.791998 408.764,166.112 L405.756,168.816 L411.628,168.816 L411.628,170 Z M420.668,160.016 L415.772,160.016 L415.452,164.272 L415.564,164.272 C415.830668,163.898665 416.131998,163.600001 416.468,163.376 C416.804002,163.151999 417.26533,163.04 417.852,163.04 C418.332002,163.04 418.774665,163.119999 419.18,163.28 C419.585335,163.440001 419.937332,163.666665 420.236,163.96 C420.534668,164.253335 420.766666,164.613331 420.932,165.04 C421.097334,165.466669 421.18,165.951997 421.18,166.496 C421.18,167.040003 421.094668,167.538664 420.924,167.992 C420.753332,168.445336 420.505335,168.834665 420.18,169.16 C419.854665,169.485335 419.460002,169.738666 418.996,169.92 C418.531998,170.101334 418.00667,170.192 417.42,170.192 C416.950664,170.192 416.537335,170.138667 416.18,170.032 C415.822665,169.925333 415.505335,169.781334 415.228,169.6 C414.950665,169.418666 414.708001,169.216001 414.5,168.992 C414.291999,168.767999 414.102668,168.533335 413.932,168.288 L414.94,167.52 C415.078667,167.744001 415.225333,167.946666 415.38,168.128 C415.534667,168.309334 415.705332,168.463999 415.892,168.592 C416.078668,168.720001 416.294665,168.818666 416.54,168.888 C416.785335,168.957334 417.078665,168.992 417.42,168.992 C418.188004,168.992 418.769331,168.789335 419.164,168.384 C419.558669,167.978665 419.756,167.408004 419.756,166.672 L419.756,166.512 C419.756,165.775996 419.558669,165.205335 419.164,164.8 C418.769331,164.394665 418.188004,164.192 417.42,164.192 C416.907997,164.192 416.505335,164.285332 416.212,164.472 C415.918665,164.658668 415.654668,164.879999 415.42,165.136 L414.284,164.976 L414.684,158.832 L420.668,158.832 L420.668,160.016 Z M428.3,170 L428.3,167.808 L422.908,167.808 L422.908,166.624 L427.58,158.832 L429.58,158.832 L429.58,166.688 L431.196,166.688 L431.196,167.808 L429.58,167.808 L429.58,170 L428.3,170 Z M424.172,166.688 L428.3,166.688 L428.3,159.872 L428.22,159.872 L424.172,166.688 Z"/>
    <path fill="#41BA63" fill-opacity=".2" d="M38.5,46.5 C72.5507813,46.5 228.749258,46.5 292,46.5 C291.5,91.5 419,91.5 419,136.5 C379.558594,136.5 228.75,136.5 165.5,136.5 C165.5,91.5 38,91.5 38.5,46.5 Z"/>
  </g>
</svg>
