<svg xmlns="http://www.w3.org/2000/svg" width="560" height="400" viewBox="0 0 560 400">
  <g fill="none" fill-rule="evenodd">
    <rect width="18" height="18" x="59" y="278" fill="#F39C12" opacity=".8" rx="5"/>
    <rect width="18" height="18" x="519" y="258" fill="#556F88" opacity=".8" rx="5"/>
    <rect width="18" height="18" x="59" y="58" fill="#2ECC71" opacity=".8" rx="5"/>
    <rect width="18" height="18" x="59" y="78" fill="#D683D8" opacity=".8" rx="5"/>
    <rect width="458" height="18" x="79" y="278" fill="#E74C3C" opacity=".8" rx="5"/>
    <rect width="458" height="18" x="79" y="58" fill="#3498DB" opacity=".8" rx="5"/>
    <rect width="18" height="18" x="238" y="366" fill="#F39C12" fill-opacity=".8" rx="5"/>
    <rect width="18" height="18" x="388" y="337" fill="#556F88" fill-opacity=".8" rx="5"/>
    <rect width="18" height="18" x="88" y="337" fill="#2ECC71" fill-opacity=".8" rx="5"/>
    <rect width="18" height="18" x="88" y="367" fill="#D683D8" fill-opacity=".8" rx="5"/>
    <rect width="18" height="18" x="388" y="367" fill="#E74C3C" fill-opacity=".8" rx="5"/>
    <rect width="18" height="18" x="238" y="337" fill="#3498DB" fill-opacity=".8" rx="5"/>
    <circle cx="148" cy="287" r="3" fill="#000" fill-opacity=".5" transform="rotate(-180 148 287)"/>
    <circle cx="128" cy="287" r="3" fill="#000" fill-opacity=".5" transform="rotate(-180 128 287)"/>
    <circle cx="108" cy="287" r="3" fill="#000" fill-opacity=".5" transform="rotate(-180 108 287)"/>
    <circle cx="88" cy="287" r="3" fill="#000" fill-opacity=".5" transform="rotate(-180 88 287)"/>
    <circle cx="68" cy="287" r="3" fill="#000" fill-opacity=".5" transform="rotate(-180 68 287)"/>
    <circle cx="248" cy="287" r="3" fill="#000" fill-opacity=".1" transform="rotate(-180 248 287)"/>
    <circle cx="228" cy="287" r="3" fill="#000" fill-opacity=".3" transform="rotate(-180 228 287)"/>
    <circle cx="208" cy="287" r="3" fill="#000" fill-opacity=".5" transform="rotate(-180 208 287)"/>
    <circle cx="188" cy="287" r="3" fill="#000" fill-opacity=".5" transform="rotate(-180 188 287)"/>
    <circle cx="168" cy="287" r="3" fill="#000" fill-opacity=".5" transform="rotate(-180 168 287)"/>
    <circle cx="148" cy="267" r="3" fill="#000" fill-opacity=".5" transform="rotate(-180 148 267)"/>
    <circle cx="128" cy="267" r="3" fill="#000" fill-opacity=".5" transform="rotate(-180 128 267)"/>
    <circle cx="108" cy="267" r="3" fill="#000" fill-opacity=".5" transform="rotate(-180 108 267)"/>
    <circle cx="88" cy="267" r="3" fill="#000" fill-opacity=".5" transform="rotate(-180 88 267)"/>
    <circle cx="68" cy="267" r="3" fill="#000" fill-opacity=".5" transform="rotate(-180 68 267)"/>
    <circle cx="248" cy="267" r="3" fill="#000" fill-opacity=".1" transform="rotate(-180 248 267)"/>
    <circle cx="228" cy="267" r="3" fill="#000" fill-opacity=".3" transform="rotate(-180 228 267)"/>
    <circle cx="208" cy="267" r="3" fill="#000" fill-opacity=".5" transform="rotate(-180 208 267)"/>
    <circle cx="188" cy="267" r="3" fill="#000" fill-opacity=".5" transform="rotate(-180 188 267)"/>
    <circle cx="168" cy="267" r="3" fill="#000" fill-opacity=".5" transform="rotate(-180 168 267)"/>
    <circle cx="148" cy="247" r="3" fill="#000" fill-opacity=".3" transform="rotate(-180 148 247)"/>
    <circle cx="128" cy="247" r="3" fill="#000" fill-opacity=".3" transform="rotate(-180 128 247)"/>
    <circle cx="108" cy="247" r="3" fill="#000" fill-opacity=".3" transform="rotate(-180 108 247)"/>
    <circle cx="88" cy="247" r="3" fill="#000" fill-opacity=".3" transform="rotate(-180 88 247)"/>
    <circle cx="68" cy="247" r="3" fill="#000" fill-opacity=".3" transform="rotate(-180 68 247)"/>
    <circle cx="248" cy="247" r="3" fill="#000" fill-opacity=".06" transform="rotate(-180 248 247)"/>
    <circle cx="228" cy="247" r="3" fill="#000" fill-opacity=".18" transform="rotate(-180 228 247)"/>
    <circle cx="208" cy="247" r="3" fill="#000" fill-opacity=".3" transform="rotate(-180 208 247)"/>
    <circle cx="188" cy="247" r="3" fill="#000" fill-opacity=".3" transform="rotate(-180 188 247)"/>
    <circle cx="168" cy="247" r="3" fill="#000" fill-opacity=".3" transform="rotate(-180 168 247)"/>
    <circle cx="148" cy="227" r="3" fill="#000" fill-opacity=".1" transform="rotate(-180 148 227)"/>
    <circle cx="128" cy="227" r="3" fill="#000" fill-opacity=".1" transform="rotate(-180 128 227)"/>
    <circle cx="108" cy="227" r="3" fill="#000" fill-opacity=".1" transform="rotate(-180 108 227)"/>
    <circle cx="88" cy="227" r="3" fill="#000" fill-opacity=".1" transform="rotate(-180 88 227)"/>
    <circle cx="68" cy="227" r="3" fill="#000" fill-opacity=".1" transform="rotate(-180 68 227)"/>
    <circle cx="248" cy="227" r="3" fill="#000" fill-opacity=".02" transform="rotate(-180 248 227)"/>
    <circle cx="228" cy="227" r="3" fill="#000" fill-opacity=".06" transform="rotate(-180 228 227)"/>
    <circle cx="208" cy="227" r="3" fill="#000" fill-opacity=".1" transform="rotate(-180 208 227)"/>
    <circle cx="188" cy="227" r="3" fill="#000" fill-opacity=".1" transform="rotate(-180 188 227)"/>
    <circle cx="168" cy="227" r="3" fill="#000" fill-opacity=".1" transform="rotate(-180 168 227)"/>
    <circle cx="148" cy="207" r="3" fill="#000" fill-opacity=".05" transform="rotate(-180 148 207)"/>
    <circle cx="128" cy="207" r="3" fill="#000" fill-opacity=".05" transform="rotate(-180 128 207)"/>
    <circle cx="108" cy="207" r="3" fill="#000" fill-opacity=".05" transform="rotate(-180 108 207)"/>
    <circle cx="88" cy="207" r="3" fill="#000" fill-opacity=".05" transform="rotate(-180 88 207)"/>
    <circle cx="68" cy="207" r="3" fill="#000" fill-opacity=".05" transform="rotate(-180 68 207)"/>
    <circle cx="248" cy="207" r="3" fill="#000" fill-opacity=".01" transform="rotate(-180 248 207)"/>
    <circle cx="267" cy="287" r="3" fill="#000" fill-opacity=".05" transform="rotate(-180 267 287)"/>
    <circle cx="268" cy="267" r="3" fill="#000" fill-opacity=".05" transform="rotate(-180 268 267)"/>
    <circle cx="268" cy="247" r="3" fill="#000" fill-opacity=".03" transform="rotate(-180 268 247)"/>
    <circle cx="268" cy="227" r="3" fill="#000" fill-opacity=".01" transform="rotate(-180 268 227)"/>
    <circle cx="228" cy="207" r="3" fill="#000" fill-opacity=".03" transform="rotate(-180 228 207)"/>
    <circle cx="208" cy="207" r="3" fill="#000" fill-opacity=".05" transform="rotate(-180 208 207)"/>
    <circle cx="188" cy="207" r="3" fill="#000" fill-opacity=".05" transform="rotate(-180 188 207)"/>
    <circle cx="168" cy="207" r="3" fill="#000" fill-opacity=".05" transform="rotate(-180 168 207)"/>
    <circle cx="148" cy="67" r="3" fill="#000" fill-opacity=".5" transform="rotate(-180 148 67)"/>
    <circle cx="128" cy="67" r="3" fill="#000" fill-opacity=".5" transform="rotate(-180 128 67)"/>
    <circle cx="108" cy="67" r="3" fill="#000" fill-opacity=".5" transform="rotate(-180 108 67)"/>
    <circle cx="88" cy="67" r="3" fill="#000" fill-opacity=".5" transform="rotate(-180 88 67)"/>
    <circle cx="68" cy="67" r="3" fill="#000" fill-opacity=".5" transform="rotate(-180 68 67)"/>
    <circle cx="248" cy="67" r="3" fill="#000" fill-opacity=".1" transform="rotate(-180 248 67)"/>
    <circle cx="228" cy="67" r="3" fill="#000" fill-opacity=".3" transform="rotate(-180 228 67)"/>
    <circle cx="208" cy="67" r="3" fill="#000" fill-opacity=".5" transform="rotate(-180 208 67)"/>
    <circle cx="188" cy="67" r="3" fill="#000" fill-opacity=".5" transform="rotate(-180 188 67)"/>
    <circle cx="168" cy="67" r="3" fill="#000" fill-opacity=".5" transform="rotate(-180 168 67)"/>
    <circle cx="148" cy="87" r="3" fill="#000" fill-opacity=".5" transform="rotate(-180 148 87)"/>
    <circle cx="128" cy="87" r="3" fill="#000" fill-opacity=".5" transform="rotate(-180 128 87)"/>
    <circle cx="108" cy="87" r="3" fill="#000" fill-opacity=".5" transform="rotate(-180 108 87)"/>
    <circle cx="88" cy="87" r="3" fill="#000" fill-opacity=".5" transform="rotate(-180 88 87)"/>
    <circle cx="68" cy="87" r="3" fill="#000" fill-opacity=".5" transform="rotate(-180 68 87)"/>
    <circle cx="248" cy="87" r="3" fill="#000" fill-opacity=".1" transform="rotate(-180 248 87)"/>
    <circle cx="228" cy="87" r="3" fill="#000" fill-opacity=".3" transform="rotate(-180 228 87)"/>
    <circle cx="208" cy="87" r="3" fill="#000" fill-opacity=".5" transform="rotate(-180 208 87)"/>
    <circle cx="188" cy="87" r="3" fill="#000" fill-opacity=".5" transform="rotate(-180 188 87)"/>
    <circle cx="168" cy="87" r="3" fill="#000" fill-opacity=".5" transform="rotate(-180 168 87)"/>
    <circle cx="148" cy="107" r="3" fill="#000" fill-opacity=".3" transform="rotate(-180 148 107)"/>
    <circle cx="128" cy="107" r="3" fill="#000" fill-opacity=".3" transform="rotate(-180 128 107)"/>
    <circle cx="108" cy="107" r="3" fill="#000" fill-opacity=".3" transform="rotate(-180 108 107)"/>
    <circle cx="88" cy="107" r="3" fill="#000" fill-opacity=".3" transform="rotate(-180 88 107)"/>
    <circle cx="68" cy="107" r="3" fill="#000" fill-opacity=".3" transform="rotate(-180 68 107)"/>
    <circle cx="248" cy="107" r="3" fill="#000" fill-opacity=".06" transform="rotate(-180 248 107)"/>
    <circle cx="228" cy="107" r="3" fill="#000" fill-opacity=".18" transform="rotate(-180 228 107)"/>
    <circle cx="208" cy="107" r="3" fill="#000" fill-opacity=".3" transform="rotate(-180 208 107)"/>
    <circle cx="188" cy="107" r="3" fill="#000" fill-opacity=".3" transform="rotate(-180 188 107)"/>
    <circle cx="168" cy="107" r="3" fill="#000" fill-opacity=".3" transform="rotate(-180 168 107)"/>
    <circle cx="148" cy="127" r="3" fill="#000" fill-opacity=".1" transform="rotate(-180 148 127)"/>
    <circle cx="128" cy="127" r="3" fill="#000" fill-opacity=".1" transform="rotate(-180 128 127)"/>
    <circle cx="108" cy="127" r="3" fill="#000" fill-opacity=".1" transform="rotate(-180 108 127)"/>
    <circle cx="88" cy="127" r="3" fill="#000" fill-opacity=".1" transform="rotate(-180 88 127)"/>
    <circle cx="68" cy="127" r="3" fill="#000" fill-opacity=".1" transform="rotate(-180 68 127)"/>
    <circle cx="248" cy="127" r="3" fill="#000" fill-opacity=".02" transform="rotate(-180 248 127)"/>
    <circle cx="228" cy="127" r="3" fill="#000" fill-opacity=".06" transform="rotate(-180 228 127)"/>
    <circle cx="208" cy="127" r="3" fill="#000" fill-opacity=".1" transform="rotate(-180 208 127)"/>
    <circle cx="188" cy="127" r="3" fill="#000" fill-opacity=".1" transform="rotate(-180 188 127)"/>
    <circle cx="168" cy="127" r="3" fill="#000" fill-opacity=".1" transform="rotate(-180 168 127)"/>
    <circle cx="148" cy="147" r="3" fill="#000" fill-opacity=".05" transform="rotate(-180 148 147)"/>
    <circle cx="128" cy="147" r="3" fill="#000" fill-opacity=".05" transform="rotate(-180 128 147)"/>
    <circle cx="108" cy="147" r="3" fill="#000" fill-opacity=".05" transform="rotate(-180 108 147)"/>
    <circle cx="88" cy="147" r="3" fill="#000" fill-opacity=".05" transform="rotate(-180 88 147)"/>
    <circle cx="68" cy="147" r="3" fill="#000" fill-opacity=".05" transform="rotate(-180 68 147)"/>
    <circle cx="248" cy="147" r="3" fill="#000" fill-opacity=".01" transform="rotate(-180 248 147)"/>
    <circle cx="267" cy="67" r="3" fill="#000" fill-opacity=".05" transform="rotate(-180 267 67)"/>
    <circle cx="268" cy="87" r="3" fill="#000" fill-opacity=".05" transform="rotate(-180 268 87)"/>
    <circle cx="268" cy="107" r="3" fill="#000" fill-opacity=".03" transform="rotate(-180 268 107)"/>
    <circle cx="268" cy="127" r="3" fill="#000" fill-opacity=".01" transform="rotate(-180 268 127)"/>
    <circle cx="228" cy="147" r="3" fill="#000" fill-opacity=".03" transform="rotate(-180 228 147)"/>
    <circle cx="208" cy="147" r="3" fill="#000" fill-opacity=".05" transform="rotate(-180 208 147)"/>
    <circle cx="188" cy="147" r="3" fill="#000" fill-opacity=".05" transform="rotate(-180 188 147)"/>
    <circle cx="168" cy="147" r="3" fill="#000" fill-opacity=".05" transform="rotate(-180 168 147)"/>
    <circle cx="448" cy="67" r="3" fill="#000" fill-opacity=".5" transform="matrix(1 0 0 -1 0 134)"/>
    <circle cx="468" cy="67" r="3" fill="#000" fill-opacity=".5" transform="matrix(1 0 0 -1 0 134)"/>
    <circle cx="488" cy="67" r="3" fill="#000" fill-opacity=".5" transform="matrix(1 0 0 -1 0 134)"/>
    <circle cx="508" cy="67" r="3" fill="#000" fill-opacity=".5" transform="matrix(1 0 0 -1 0 134)"/>
    <circle cx="528" cy="67" r="3" fill="#000" fill-opacity=".5" transform="matrix(1 0 0 -1 0 134)"/>
    <circle cx="348" cy="67" r="3" fill="#000" fill-opacity=".1" transform="matrix(1 0 0 -1 0 134)"/>
    <circle cx="368" cy="67" r="3" fill="#000" fill-opacity=".3" transform="matrix(1 0 0 -1 0 134)"/>
    <circle cx="388" cy="67" r="3" fill="#000" fill-opacity=".5" transform="matrix(1 0 0 -1 0 134)"/>
    <circle cx="408" cy="67" r="3" fill="#000" fill-opacity=".5" transform="matrix(1 0 0 -1 0 134)"/>
    <circle cx="428" cy="67" r="3" fill="#000" fill-opacity=".5" transform="matrix(1 0 0 -1 0 134)"/>
    <circle cx="448" cy="87" r="3" fill="#000" fill-opacity=".5" transform="matrix(1 0 0 -1 0 174)"/>
    <circle cx="468" cy="87" r="3" fill="#000" fill-opacity=".5" transform="matrix(1 0 0 -1 0 174)"/>
    <circle cx="488" cy="87" r="3" fill="#000" fill-opacity=".5" transform="matrix(1 0 0 -1 0 174)"/>
    <circle cx="508" cy="87" r="3" fill="#000" fill-opacity=".5" transform="matrix(1 0 0 -1 0 174)"/>
    <circle cx="528" cy="87" r="3" fill="#000" fill-opacity=".5" transform="matrix(1 0 0 -1 0 174)"/>
    <circle cx="348" cy="87" r="3" fill="#000" fill-opacity=".1" transform="matrix(1 0 0 -1 0 174)"/>
    <circle cx="368" cy="87" r="3" fill="#000" fill-opacity=".3" transform="matrix(1 0 0 -1 0 174)"/>
    <circle cx="388" cy="87" r="3" fill="#000" fill-opacity=".5" transform="matrix(1 0 0 -1 0 174)"/>
    <circle cx="408" cy="87" r="3" fill="#000" fill-opacity=".5" transform="matrix(1 0 0 -1 0 174)"/>
    <circle cx="428" cy="87" r="3" fill="#000" fill-opacity=".5" transform="matrix(1 0 0 -1 0 174)"/>
    <circle cx="448" cy="107" r="3" fill="#000" fill-opacity=".3" transform="matrix(1 0 0 -1 0 214)"/>
    <circle cx="468" cy="107" r="3" fill="#000" fill-opacity=".3" transform="matrix(1 0 0 -1 0 214)"/>
    <circle cx="488" cy="107" r="3" fill="#000" fill-opacity=".3" transform="matrix(1 0 0 -1 0 214)"/>
    <circle cx="508" cy="107" r="3" fill="#000" fill-opacity=".3" transform="matrix(1 0 0 -1 0 214)"/>
    <circle cx="528" cy="107" r="3" fill="#000" fill-opacity=".3" transform="matrix(1 0 0 -1 0 214)"/>
    <circle cx="348" cy="107" r="3" fill="#000" fill-opacity=".06" transform="matrix(1 0 0 -1 0 214)"/>
    <circle cx="368" cy="107" r="3" fill="#000" fill-opacity=".18" transform="matrix(1 0 0 -1 0 214)"/>
    <circle cx="388" cy="107" r="3" fill="#000" fill-opacity=".3" transform="matrix(1 0 0 -1 0 214)"/>
    <circle cx="408" cy="107" r="3" fill="#000" fill-opacity=".3" transform="matrix(1 0 0 -1 0 214)"/>
    <circle cx="428" cy="107" r="3" fill="#000" fill-opacity=".3" transform="matrix(1 0 0 -1 0 214)"/>
    <circle cx="448" cy="127" r="3" fill="#000" fill-opacity=".1" transform="matrix(1 0 0 -1 0 254)"/>
    <circle cx="468" cy="127" r="3" fill="#000" fill-opacity=".1" transform="matrix(1 0 0 -1 0 254)"/>
    <circle cx="488" cy="127" r="3" fill="#000" fill-opacity=".1" transform="matrix(1 0 0 -1 0 254)"/>
    <circle cx="508" cy="127" r="3" fill="#000" fill-opacity=".1" transform="matrix(1 0 0 -1 0 254)"/>
    <circle cx="528" cy="127" r="3" fill="#000" fill-opacity=".1" transform="matrix(1 0 0 -1 0 254)"/>
    <circle cx="348" cy="127" r="3" fill="#000" fill-opacity=".02" transform="matrix(1 0 0 -1 0 254)"/>
    <circle cx="368" cy="127" r="3" fill="#000" fill-opacity=".06" transform="matrix(1 0 0 -1 0 254)"/>
    <circle cx="388" cy="127" r="3" fill="#000" fill-opacity=".1" transform="matrix(1 0 0 -1 0 254)"/>
    <circle cx="408" cy="127" r="3" fill="#000" fill-opacity=".1" transform="matrix(1 0 0 -1 0 254)"/>
    <circle cx="428" cy="127" r="3" fill="#000" fill-opacity=".1" transform="matrix(1 0 0 -1 0 254)"/>
    <circle cx="448" cy="147" r="3" fill="#000" fill-opacity=".05" transform="matrix(1 0 0 -1 0 294)"/>
    <circle cx="468" cy="147" r="3" fill="#000" fill-opacity=".05" transform="matrix(1 0 0 -1 0 294)"/>
    <circle cx="488" cy="147" r="3" fill="#000" fill-opacity=".05" transform="matrix(1 0 0 -1 0 294)"/>
    <circle cx="508" cy="147" r="3" fill="#000" fill-opacity=".05" transform="matrix(1 0 0 -1 0 294)"/>
    <circle cx="528" cy="147" r="3" fill="#000" fill-opacity=".05" transform="matrix(1 0 0 -1 0 294)"/>
    <circle cx="348" cy="147" r="3" fill="#000" fill-opacity=".01" transform="matrix(1 0 0 -1 0 294)"/>
    <circle cx="329" cy="67" r="3" fill="#000" fill-opacity=".05" transform="matrix(1 0 0 -1 0 134)"/>
    <circle cx="328" cy="87" r="3" fill="#000" fill-opacity=".05" transform="matrix(1 0 0 -1 0 174)"/>
    <circle cx="328" cy="107" r="3" fill="#000" fill-opacity=".03" transform="matrix(1 0 0 -1 0 214)"/>
    <circle cx="328" cy="127" r="3" fill="#000" fill-opacity=".01" transform="matrix(1 0 0 -1 0 254)"/>
    <circle cx="368" cy="147" r="3" fill="#000" fill-opacity=".03" transform="matrix(1 0 0 -1 0 294)"/>
    <circle cx="388" cy="147" r="3" fill="#000" fill-opacity=".05" transform="matrix(1 0 0 -1 0 294)"/>
    <circle cx="408" cy="147" r="3" fill="#000" fill-opacity=".05" transform="matrix(1 0 0 -1 0 294)"/>
    <circle cx="428" cy="147" r="3" fill="#000" fill-opacity=".05" transform="matrix(1 0 0 -1 0 294)"/>
    <circle cx="448" cy="287" r="3" fill="#000" fill-opacity=".5"/>
    <circle cx="468" cy="287" r="3" fill="#000" fill-opacity=".5"/>
    <circle cx="488" cy="287" r="3" fill="#000" fill-opacity=".5"/>
    <circle cx="508" cy="287" r="3" fill="#000" fill-opacity=".5"/>
    <circle cx="528" cy="287" r="3" fill="#000" fill-opacity=".5"/>
    <circle cx="348" cy="287" r="3" fill="#000" fill-opacity=".1"/>
    <circle cx="368" cy="287" r="3" fill="#000" fill-opacity=".3"/>
    <circle cx="388" cy="287" r="3" fill="#000" fill-opacity=".5"/>
    <circle cx="408" cy="287" r="3" fill="#000" fill-opacity=".5"/>
    <circle cx="428" cy="287" r="3" fill="#000" fill-opacity=".5"/>
    <circle cx="448" cy="267" r="3" fill="#000" fill-opacity=".5"/>
    <circle cx="468" cy="267" r="3" fill="#000" fill-opacity=".5"/>
    <circle cx="488" cy="267" r="3" fill="#000" fill-opacity=".5"/>
    <circle cx="508" cy="267" r="3" fill="#000" fill-opacity=".5"/>
    <circle cx="528" cy="267" r="3" fill="#000" fill-opacity=".5"/>
    <circle cx="348" cy="267" r="3" fill="#000" fill-opacity=".1"/>
    <circle cx="368" cy="267" r="3" fill="#000" fill-opacity=".3"/>
    <circle cx="388" cy="267" r="3" fill="#000" fill-opacity=".5"/>
    <circle cx="408" cy="267" r="3" fill="#000" fill-opacity=".5"/>
    <circle cx="428" cy="267" r="3" fill="#000" fill-opacity=".5"/>
    <circle cx="448" cy="247" r="3" fill="#000" fill-opacity=".3"/>
    <circle cx="468" cy="247" r="3" fill="#000" fill-opacity=".3"/>
    <circle cx="488" cy="247" r="3" fill="#000" fill-opacity=".3"/>
    <circle cx="508" cy="247" r="3" fill="#000" fill-opacity=".3"/>
    <circle cx="528" cy="247" r="3" fill="#000" fill-opacity=".3"/>
    <circle cx="348" cy="247" r="3" fill="#000" fill-opacity=".06"/>
    <circle cx="368" cy="247" r="3" fill="#000" fill-opacity=".18"/>
    <circle cx="388" cy="247" r="3" fill="#000" fill-opacity=".3"/>
    <circle cx="408" cy="247" r="3" fill="#000" fill-opacity=".3"/>
    <circle cx="428" cy="247" r="3" fill="#000" fill-opacity=".3"/>
    <circle cx="448" cy="227" r="3" fill="#000" fill-opacity=".1"/>
    <circle cx="468" cy="227" r="3" fill="#000" fill-opacity=".1"/>
    <circle cx="488" cy="227" r="3" fill="#000" fill-opacity=".1"/>
    <circle cx="508" cy="227" r="3" fill="#000" fill-opacity=".1"/>
    <circle cx="528" cy="227" r="3" fill="#000" fill-opacity=".1"/>
    <circle cx="348" cy="227" r="3" fill="#000" fill-opacity=".02"/>
    <circle cx="368" cy="227" r="3" fill="#000" fill-opacity=".06"/>
    <circle cx="388" cy="227" r="3" fill="#000" fill-opacity=".1"/>
    <circle cx="408" cy="227" r="3" fill="#000" fill-opacity=".1"/>
    <circle cx="428" cy="227" r="3" fill="#000" fill-opacity=".1"/>
    <circle cx="448" cy="207" r="3" fill="#000" fill-opacity=".05"/>
    <circle cx="468" cy="207" r="3" fill="#000" fill-opacity=".05"/>
    <circle cx="488" cy="207" r="3" fill="#000" fill-opacity=".05"/>
    <circle cx="508" cy="207" r="3" fill="#000" fill-opacity=".05"/>
    <circle cx="528" cy="207" r="3" fill="#000" fill-opacity=".05"/>
    <circle cx="348" cy="207" r="3" fill="#000" fill-opacity=".01"/>
    <circle cx="329" cy="287" r="3" fill="#000" fill-opacity=".05"/>
    <circle cx="328" cy="267" r="3" fill="#000" fill-opacity=".05"/>
    <circle cx="328" cy="247" r="3" fill="#000" fill-opacity=".03"/>
    <circle cx="328" cy="227" r="3" fill="#000" fill-opacity=".01"/>
    <circle cx="368" cy="207" r="3" fill="#000" fill-opacity=".03"/>
    <circle cx="388" cy="207" r="3" fill="#000" fill-opacity=".05"/>
    <circle cx="408" cy="207" r="3" fill="#000" fill-opacity=".05"/>
    <circle cx="428" cy="207" r="3" fill="#000" fill-opacity=".05"/>
    <path fill="#555" d="M67.5 40.168C66.3333275 40.168 65.4816694 39.7246711 64.945 38.838 64.4083306 37.9513289 64.14 36.710008 64.14 35.114 64.14 33.517992 64.4083306 32.2766711 64.945 31.39 65.4816694 30.5033289 66.3333275 30.06 67.5 30.06 68.6666725 30.06 69.5183306 30.5033289 70.055 31.39 70.5916694 32.2766711 70.86 33.517992 70.86 35.114 70.86 36.710008 70.5916694 37.9513289 70.055 38.838 69.5183306 39.7246711 68.6666725 40.168 67.5 40.168zM67.5 39.146C67.8826686 39.146 68.209332 39.0666675 68.48 38.908 68.750668 38.7493325 68.9699992 38.5253348 69.138 38.236 69.3060008 37.9466652 69.4296663 37.606002 69.509 37.214 69.5883337 36.821998 69.628 36.3880024 69.628 35.912L69.628 34.316C69.628 33.8399976 69.5883337 33.406002 69.509 33.014 69.4296663 32.621998 69.3060008 32.2813348 69.138 31.992 68.9699992 31.7026652 68.750668 31.4786675 68.48 31.32 68.209332 31.1613325 67.8826686 31.082 67.5 31.082 67.1173314 31.082 66.790668 31.1613325 66.52 31.32 66.249332 31.4786675 66.0300008 31.7026652 65.862 31.992 65.6939992 32.2813348 65.5703337 32.621998 65.491 33.014 65.4116663 33.406002 65.372 33.8399976 65.372 34.316L65.372 35.912C65.372 36.3880024 65.4116663 36.821998 65.491 37.214 65.5703337 37.606002 65.6939992 37.9466652 65.862 38.236 66.0300008 38.5253348 66.249332 38.7493325 66.52 38.908 66.790668 39.0666675 67.1173314 39.146 67.5 39.146zM515.298 40L508.886 40 508.886 38.796 512.078 35.856C512.535336 35.4359979 512.917998 34.9903357 513.226 34.519 513.534002 34.0476643 513.688 33.5740024 513.688 33.098L513.688 32.93C513.688 32.388664 513.538668 31.9500017 513.24 31.614 512.941332 31.2779983 512.48867 31.11 511.882 31.11 511.583332 31.11 511.322001 31.1519996 511.098 31.236 510.873999 31.3200004 510.680334 31.4366659 510.517 31.586 510.353666 31.7353341 510.218334 31.9103323 510.111 32.111 510.003666 32.3116677 509.917334 32.5286655 509.852 32.762L508.802 32.356C508.895334 32.0666652 509.023666 31.7843347 509.187 31.509 509.350334 31.2336653 509.555665 30.9886677 509.803 30.774 510.050335 30.5593323 510.348998 30.3866673 510.699 30.256 511.049002 30.1253327 511.461998 30.06 511.938 30.06 512.414002 30.06 512.838665 30.1299993 513.212 30.27 513.585335 30.4100007 513.897999 30.6059987 514.15 30.858 514.402001 31.1100013 514.595666 31.4086649 514.731 31.754 514.866334 32.0993351 514.934 32.4819979 514.934 32.902 514.934 33.2846686 514.880334 33.6393317 514.773 33.966 514.665666 34.2926683 514.518668 34.6029985 514.332 34.897 514.145332 35.1910015 513.919001 35.4779986 513.653 35.758 513.386999 36.0380014 513.100002 36.3179986 512.792 36.598L510.16 38.964 515.298 38.964 515.298 40zM520.59 35.394L516.782 35.394 516.782 34.596 518.602 33.126C518.872668 32.9019989 519.084999 32.6803344 519.239 32.461 519.393001 32.2416656 519.47 32.0060013 519.47 31.754L519.47 31.67C519.47 31.4273321 519.393001 31.2336674 519.239 31.089 519.084999 30.9443326 518.858668 30.872 518.56 30.872 518.233332 30.872 517.988334 30.9513325 517.825 31.11 517.661666 31.2686675 517.542667 31.4599989 517.468 31.684L516.712 31.404C516.768 31.2359992 516.845 31.0773341 516.943 30.928 517.041 30.7786659 517.166999 30.6456673 517.321 30.529 517.475001 30.4123327 517.659332 30.3190004 517.874 30.249 518.088668 30.1789997 518.335999 30.144 518.616 30.144 519.19467 30.144 519.637998 30.2863319 519.946 30.571 520.254002 30.8556681 520.408 31.2219978 520.408 31.67 520.408 32.0806687 520.284335 32.4376651 520.037 32.741 519.789665 33.0443349 519.470002 33.3453318 519.078 33.644L517.72 34.694 520.59 34.694 520.59 35.394zM523.25 32.356C523.604668 32.356 523.868332 32.288334 524.041 32.153 524.213668 32.017666 524.3 31.8426677 524.3 31.628L524.3 31.572C524.3 31.3386655 524.218334 31.1590006 524.055 31.033 523.891666 30.9069994 523.670001 30.844 523.39 30.844 523.119332 30.844 522.890668 30.8999994 522.704 31.012 522.517332 31.1240006 522.358667 31.277999 522.228 31.474L521.626 30.998C521.784667 30.7646655 522.006332 30.5640008 522.291 30.396 522.575668 30.2279992 522.951331 30.144 523.418 30.144 523.950003 30.144 524.386332 30.2606655 524.727 30.494 525.067668 30.7273345 525.238 31.0539979 525.238 31.474 525.238 31.8100017 525.130668 32.075999 524.916 32.272 524.701332 32.468001 524.444668 32.5986663 524.146 32.664L524.146 32.706C524.463335 32.7620003 524.738666 32.8926656 524.972 33.098 525.205335 33.3033344 525.322 33.5926648 525.322 33.966 525.322 34.4233356 525.142335 34.7896653 524.783 35.065 524.423665 35.3403347 523.936003 35.478 523.32 35.478 522.806664 35.478 522.405335 35.3846676 522.116 35.198 521.826665 35.0113324 521.593334 34.7966679 521.416 34.554L522.074 34.078C522.204667 34.2833344 522.363332 34.4513327 522.55 34.582 522.736668 34.7126673 522.993332 34.778 523.32 34.778 523.674668 34.778 523.942999 34.7033341 524.125 34.554 524.307001 34.4046659 524.398 34.194668 524.398 33.924L524.398 33.84C524.398 33.3266641 524.03867 33.07 523.32 33.07L522.69 33.07 522.69 32.356 523.25 32.356zM529.732 36.276L529.732 35.212 536.956 35.212 536.956 36.276 529.732 36.276zM541.996 40L541.996 38.964 544.726 38.964 544.726 31.096 544.628 31.096 542.164 33.392 541.478 32.65 544.068 30.228 545.902 30.228 545.902 38.964 548.422 38.964 548.422 40 541.996 40zM30.362 291L23.95 291 23.95 289.796 27.142 286.856C27.5993356 286.435998 27.9819985 285.990336 28.29 285.519 28.5980015 285.047664 28.752 284.574002 28.752 284.098L28.752 283.93C28.752 283.388664 28.6026682 282.950002 28.304 282.614 28.0053318 282.277998 27.5526697 282.11 26.946 282.11 26.6473318 282.11 26.3860011 282.152 26.162 282.236 25.9379989 282.32 25.7443341 282.436666 25.581 282.586 25.4176658 282.735334 25.2823339 282.910332 25.175 283.111 25.0676661 283.311668 24.9813337 283.528665 24.916 283.762L23.866 283.356C23.9593338 283.066665 24.0876659 282.784335 24.251 282.509 24.4143342 282.233665 24.6196654 281.988668 24.867 281.774 25.1143346 281.559332 25.4129982 281.386667 25.763 281.256 26.1130018 281.125333 26.5259976 281.06 27.002 281.06 27.4780024 281.06 27.9026648 281.129999 28.276 281.27 28.6493352 281.410001 28.9619987 281.605999 29.214 281.858 29.4660013 282.110001 29.659666 282.408665 29.795 282.754 29.930334 283.099335 29.998 283.481998 29.998 283.902 29.998 284.284669 29.9443339 284.639332 29.837 284.966 29.7296661 285.292668 29.5826676 285.602999 29.396 285.897 29.2093324 286.191001 28.9830013 286.477999 28.717 286.758 28.4509987 287.038001 28.1640015 287.317999 27.856 287.598L25.224 289.964 30.362 289.964 30.362 291zM38.272 282.264L33.988 282.264 33.708 285.988 33.806 285.988C34.0393345 285.661332 34.3029985 285.400001 34.597 285.204 34.8910015 285.007999 35.2946641 284.91 35.808 284.91 36.2280021 284.91 36.6153316 284.979999 36.97 285.12 37.3246684 285.260001 37.6326654 285.458332 37.894 285.715 38.1553346 285.971668 38.3583326 286.286665 38.503 286.66 38.6476674 287.033335 38.72 287.457998 38.72 287.934 38.72 288.410002 38.6453341 288.846331 38.496 289.243 38.3466659 289.639669 38.1296681 289.980332 37.845 290.265 37.5603319 290.549668 37.215002 290.771333 36.809 290.93 36.402998 291.088667 35.9433359 291.168 35.43 291.168 35.0193313 291.168 34.6576682 291.121334 34.345 291.028 34.0323318 290.934666 33.7546679 290.808667 33.512 290.65 33.2693321 290.491333 33.0570009 290.314001 32.875 290.118 32.6929991 289.921999 32.5273341 289.716668 32.378 289.502L33.26 288.83C33.3813339 289.026001 33.509666 289.203333 33.645 289.362 33.780334 289.520667 33.9296658 289.655999 34.093 289.768 34.2563341 289.880001 34.4453323 289.966333 34.66 290.027 34.8746677 290.087667 35.1313318 290.118 35.43 290.118 36.1020034 290.118 36.6106649 289.940668 36.956 289.586 37.3013351 289.231332 37.474 288.732003 37.474 288.088L37.474 287.948C37.474 287.303997 37.3013351 286.804668 36.956 286.45 36.6106649 286.095332 36.1020034 285.918 35.43 285.918 34.9819978 285.918 34.6296679 285.999666 34.373 286.163 34.116332 286.326334 33.8853344 286.519999 33.68 286.744L32.686 286.604 33.036 281.228 38.272 281.228 38.272 282.264zM46.672 282.264L42.388 282.264 42.108 285.988 42.206 285.988C42.4393345 285.661332 42.7029985 285.400001 42.997 285.204 43.2910015 285.007999 43.6946641 284.91 44.208 284.91 44.6280021 284.91 45.0153316 284.979999 45.37 285.12 45.7246684 285.260001 46.0326654 285.458332 46.294 285.715 46.5553346 285.971668 46.7583326 286.286665 46.903 286.66 47.0476674 287.033335 47.12 287.457998 47.12 287.934 47.12 288.410002 47.0453341 288.846331 46.896 289.243 46.7466659 289.639669 46.5296681 289.980332 46.245 290.265 45.9603319 290.549668 45.615002 290.771333 45.209 290.93 44.802998 291.088667 44.3433359 291.168 43.83 291.168 43.4193313 291.168 43.0576682 291.121334 42.745 291.028 42.4323318 290.934666 42.1546679 290.808667 41.912 290.65 41.6693321 290.491333 41.4570009 290.314001 41.275 290.118 41.0929991 289.921999 40.9273341 289.716668 40.778 289.502L41.66 288.83C41.7813339 289.026001 41.909666 289.203333 42.045 289.362 42.180334 289.520667 42.3296658 289.655999 42.493 289.768 42.6563342 289.880001 42.8453323 289.966333 43.06 290.027 43.2746677 290.087667 43.5313318 290.118 43.83 290.118 44.5020034 290.118 45.0106649 289.940668 45.356 289.586 45.7013351 289.231332 45.874 288.732003 45.874 288.088L45.874 287.948C45.874 287.303997 45.7013351 286.804668 45.356 286.45 45.0106649 286.095332 44.5020034 285.918 43.83 285.918 43.3819978 285.918 43.0296679 285.999666 42.773 286.163 42.5163321 286.326334 42.2853344 286.519999 42.08 286.744L41.086 286.604 41.436 281.228 46.672 281.228 46.672 282.264zM35.8 73.168C34.6333275 73.168 33.7816694 72.7246711 33.245 71.838 32.7083306 70.9513289 32.44 69.710008 32.44 68.114 32.44 66.517992 32.7083306 65.2766711 33.245 64.39 33.7816694 63.5033289 34.6333275 63.06 35.8 63.06 36.9666725 63.06 37.8183307 63.5033289 38.355 64.39 38.8916694 65.2766711 39.16 66.517992 39.16 68.114 39.16 69.710008 38.8916694 70.9513289 38.355 71.838 37.8183307 72.7246711 36.9666725 73.168 35.8 73.168zM35.8 72.146C36.1826686 72.146 36.509332 72.0666675 36.78 71.908 37.050668 71.7493325 37.2699992 71.5253348 37.438 71.236 37.6060008 70.9466652 37.7296663 70.606002 37.809 70.214 37.8883337 69.821998 37.928 69.3880024 37.928 68.912L37.928 67.316C37.928 66.8399976 37.8883337 66.406002 37.809 66.014 37.7296663 65.621998 37.6060008 65.2813348 37.438 64.992 37.2699992 64.7026652 37.050668 64.4786675 36.78 64.32 36.509332 64.1613325 36.1826686 64.082 35.8 64.082 35.4173314 64.082 35.090668 64.1613325 34.82 64.32 34.549332 64.4786675 34.3300008 64.7026652 34.162 64.992 33.9939992 65.2813348 33.8703337 65.621998 33.791 66.014 33.7116663 66.406002 33.672 66.8399976 33.672 67.316L33.672 68.912C33.672 69.3880024 33.7116663 69.821998 33.791 70.214 33.8703337 70.606002 33.9939992 70.9466652 34.162 71.236 34.3300008 71.5253348 34.549332 71.7493325 34.82 71.908 35.090668 72.0666675 35.4173314 72.146 35.8 72.146zM111.528 351L111.528 349.928 116.216 343.864 111.672 343.864 111.672 342.744 117.768 342.744 117.768 343.704 112.984 349.88 117.896 349.88 117.896 351 111.528 351zM122.728 351.192C122.162664 351.192 121.653336 351.090668 121.2 350.888 120.746664 350.685332 120.357335 350.394669 120.032 350.016 119.706665 349.637331 119.456001 349.184003 119.28 348.656 119.103999 348.127997 119.016 347.533337 119.016 346.872 119.016 346.22133 119.103999 345.629336 119.28 345.096 119.456001 344.562664 119.706665 344.106669 120.032 343.728 120.357335 343.349331 120.746664 343.058668 121.2 342.856 121.653336 342.653332 122.162664 342.552 122.728 342.552 123.282669 342.552 123.778664 342.653332 124.216 342.856 124.653336 343.058668 125.026665 343.338665 125.336 343.696 125.645335 344.053335 125.882666 344.477331 126.048 344.968 126.213334 345.458669 126.296 345.99733 126.296 346.584L126.296 347.192 120.36 347.192 120.36 347.576C120.36 347.928002 120.415999 348.255998 120.528 348.56 120.640001 348.864002 120.799999 349.127999 121.008 349.352 121.216001 349.576001 121.471998 349.751999 121.776 349.88 122.080002 350.008001 122.423998 350.072 122.808 350.072 123.330669 350.072 123.786665 349.949335 124.176 349.704 124.565335 349.458665 124.866666 349.106669 125.08 348.648L125.992 349.304C125.725332 349.869336 125.309336 350.325332 124.744 350.672 124.178664 351.018668 123.506671 351.192 122.728 351.192zM122.728 343.624C122.375998 343.624 122.056001 343.685333 121.768 343.808 121.479999 343.930667 121.232001 344.103999 121.024 344.328 120.815999 344.552001 120.653334 344.815998 120.536 345.12 120.418666 345.424002 120.36 345.757332 120.36 346.12L120.36 346.232 124.92 346.232 124.92 346.056C124.92 345.319996 124.720002 344.730669 124.32 344.288 123.919998 343.845331 123.389337 343.624 122.728 343.624zM128.408 351L128.408 342.744 129.688 342.744 129.688 344.264 129.768 344.264C129.917334 343.869331 130.183998 343.517335 130.568 343.208 130.952002 342.898665 131.479997 342.744 132.152 342.744L132.648 342.744 132.648 344.024 131.896 344.024C131.202663 344.024 130.661335 344.154665 130.272 344.416 129.882665 344.677335 129.688 345.005331 129.688 345.4L129.688 351 128.408 351zM137.32 351.192C136.765331 351.192 136.258669 351.090668 135.8 350.888 135.341331 350.685332 134.949335 350.394669 134.624 350.016 134.298665 349.637331 134.045334 349.184003 133.864 348.656 133.682666 348.127997 133.592 347.533337 133.592 346.872 133.592 346.22133 133.682666 345.629336 133.864 345.096 134.045334 344.562664 134.298665 344.106669 134.624 343.728 134.949335 343.349331 135.341331 343.058668 135.8 342.856 136.258669 342.653332 136.765331 342.552 137.32 342.552 137.874669 342.552 138.378664 342.653332 138.832 342.856 139.285336 343.058668 139.677332 343.349331 140.008 343.728 140.338668 344.106669 140.594666 344.562664 140.776 345.096 140.957334 345.629336 141.048 346.22133 141.048 346.872 141.048 347.533337 140.957334 348.127997 140.776 348.656 140.594666 349.184003 140.338668 349.637331 140.008 350.016 139.677332 350.394669 139.285336 350.685332 138.832 350.888 138.378664 351.090668 137.874669 351.192 137.32 351.192zM137.32 350.056C138.013337 350.056 138.578664 349.842669 139.016 349.416 139.453336 348.989331 139.672 348.338671 139.672 347.464L139.672 346.28C139.672 345.405329 139.453336 344.754669 139.016 344.328 138.578664 343.901331 138.013337 343.688 137.32 343.688 136.626663 343.688 136.061336 343.901331 135.624 344.328 135.186664 344.754669 134.968 345.405329 134.968 346.28L134.968 347.464C134.968 348.338671 135.186664 348.989331 135.624 349.416 136.061336 349.842669 136.626663 350.056 137.32 350.056zM263 370.808C262.722665 370.808 262.522667 370.741334 262.4 370.608 262.277333 370.474666 262.216 370.301334 262.216 370.088L262.216 369.88C262.216 369.666666 262.277333 369.493334 262.4 369.36 262.522667 369.226666 262.722665 369.16 263 369.16 263.277335 369.16 263.477333 369.226666 263.6 369.36 263.722667 369.493334 263.784 369.666666 263.784 369.88L263.784 370.088C263.784 370.301334 263.722667 370.474666 263.6 370.608 263.477333 370.741334 263.277335 370.808 263 370.808zM262.36 372.744L263.64 372.744 263.64 381 262.36 381 262.36 372.744zM266.36 381L266.36 372.744 267.64 372.744 267.64 374.088 267.704 374.088C267.906668 373.618664 268.191998 373.245335 268.56 372.968 268.928002 372.690665 269.42133 372.552 270.04 372.552 270.893338 372.552 271.567998 372.826664 272.064 373.376 272.560002 373.925336 272.808 374.701328 272.808 375.704L272.808 381 271.528 381 271.528 375.928C271.528 374.445326 270.904006 373.704 269.656 373.704 269.399999 373.704 269.152001 373.736 268.912 373.8 268.671999 373.864 268.456001 373.959999 268.264 374.088 268.071999 374.216001 267.920001 374.378666 267.808 374.576 267.695999 374.773334 267.64 375.005332 267.64 375.272L267.64 381 266.36 381zM275.896 373.864L274.552 373.864 274.552 372.744 275.896 372.744 275.896 371.08C275.896 370.503997 276.045332 370.040002 276.344 369.688 276.642668 369.335998 277.095997 369.16 277.704 369.16L278.952 369.16 278.952 370.28 277.176 370.28 277.176 372.744 281.8 372.744 281.8 381 280.52 381 280.52 373.864 277.176 373.864 277.176 381 275.896 381 275.896 373.864zM281.16 370.808C280.882665 370.808 280.682667 370.741334 280.56 370.608 280.437333 370.474666 280.376 370.301334 280.376 370.088L280.376 369.88C280.376 369.666666 280.437333 369.493334 280.56 369.36 280.682667 369.226666 280.882665 369.16 281.16 369.16 281.437335 369.16 281.637333 369.226666 281.76 369.36 281.882667 369.493334 281.944 369.666666 281.944 369.88L281.944 370.088C281.944 370.301334 281.882667 370.474666 281.76 370.608 281.637333 370.741334 281.437335 370.808 281.16 370.808zM284.52 381L284.52 372.744 285.8 372.744 285.8 374.088 285.864 374.088C286.066668 373.618664 286.351998 373.245335 286.72 372.968 287.088002 372.690665 287.58133 372.552 288.2 372.552 289.053338 372.552 289.727998 372.826664 290.224 373.376 290.720002 373.925336 290.968 374.701328 290.968 375.704L290.968 381 289.688 381 289.688 375.928C289.688 374.445326 289.064006 373.704 287.816 373.704 287.559999 373.704 287.312001 373.736 287.072 373.8 286.831999 373.864 286.616001 373.959999 286.424 374.088 286.231999 374.216001 286.080001 374.378666 285.968 374.576 285.855999 374.773334 285.8 375.005332 285.8 375.272L285.8 381 284.52 381zM294.248 370.808C293.970665 370.808 293.770667 370.741334 293.648 370.608 293.525333 370.474666 293.464 370.301334 293.464 370.088L293.464 369.88C293.464 369.666666 293.525333 369.493334 293.648 369.36 293.770667 369.226666 293.970665 369.16 294.248 369.16 294.525335 369.16 294.725333 369.226666 294.848 369.36 294.970667 369.493334 295.032 369.666666 295.032 369.88L295.032 370.088C295.032 370.301334 294.970667 370.474666 294.848 370.608 294.725333 370.741334 294.525335 370.808 294.248 370.808zM293.608 372.744L294.888 372.744 294.888 381 293.608 381 293.608 372.744zM299.432 381C298.983998 381 298.645334 380.874668 298.416 380.624 298.186666 380.373332 298.072 380.045335 298.072 379.64L298.072 373.864 296.712 373.864 296.712 372.744 297.48 372.744C297.757335 372.744 297.946666 372.688001 298.048 372.576 298.149334 372.463999 298.2 372.269335 298.2 371.992L298.2 370.456 299.352 370.456 299.352 372.744 301.16 372.744 301.16 373.864 299.352 373.864 299.352 379.88 301.032 379.88 301.032 381 299.432 381zM308.312 372.744L309.576 372.744 305.88 382.92C305.784 383.165335 305.688 383.370666 305.592 383.536 305.496 383.701334 305.378667 383.832 305.24 383.928 305.101333 384.024 304.928001 384.093333 304.72 384.136 304.511999 384.178667 304.258668 384.2 303.96 384.2L303.304 384.2 303.304 383.08 304.6 383.08 305.224 381.32 302.136 372.744 303.416 372.744 305.4 378.36 305.784 379.704 305.864 379.704 306.312 378.36 308.312 372.744zM264.84 351.192C264.071996 351.192 263.429336 351.045335 262.912 350.752 262.394664 350.458665 261.949335 350.066669 261.576 349.576L262.488 348.84C262.808002 349.245335 263.165331 349.557332 263.56 349.776 263.954669 349.994668 264.413331 350.104 264.936 350.104 265.480003 350.104 265.903998 349.986668 266.208 349.752 266.512002 349.517332 266.664 349.186669 266.664 348.76 266.664 348.439998 266.560001 348.165334 266.352 347.936 266.143999 347.706666 265.768003 347.549334 265.224 347.464L264.568 347.368C264.183998 347.314666 263.832002 347.232001 263.512 347.12 263.191998 347.007999 262.912001 346.858668 262.672 346.672 262.431999 346.485332 262.245334 346.253335 262.112 345.976 261.978666 345.698665 261.912 345.368002 261.912 344.984 261.912 344.578665 261.986666 344.224002 262.136 343.92 262.285334 343.615998 262.490665 343.362668 262.752 343.16 263.013335 342.957332 263.325332 342.805334 263.688 342.704 264.050668 342.602666 264.439998 342.552 264.856 342.552 265.528003 342.552 266.090664 342.669332 266.544 342.904 266.997336 343.138668 267.394665 343.463998 267.736 343.88L266.888 344.648C266.706666 344.391999 266.440002 344.160001 266.088 343.952 265.735998 343.743999 265.293336 343.64 264.76 343.64 264.226664 343.64 263.824001 343.754666 263.552 343.984 263.279999 344.213334 263.144 344.525331 263.144 344.92 263.144 345.325335 263.279999 345.618666 263.552 345.8 263.824001 345.981334 264.215997 346.114666 264.728 346.2L265.368 346.296C266.285338 346.434667 266.935998 346.698665 267.32 347.088 267.704002 347.477335 267.896 347.986664 267.896 348.616 267.896 349.416004 267.624003 350.045331 267.08 350.504 266.535997 350.962669 265.789338 351.192 264.84 351.192zM275.24 349.656L275.176 349.656C275.090666 349.848001 274.986667 350.037332 274.864 350.224 274.741333 350.410668 274.589334 350.575999 274.408 350.72 274.226666 350.864001 274.008001 350.978666 273.752 351.064 273.495999 351.149334 273.197335 351.192 272.856 351.192 272.002662 351.192 271.325336 350.917336 270.824 350.368 270.322664 349.818664 270.072 349.042672 270.072 348.04L270.072 342.744 271.352 342.744 271.352 347.816C271.352 349.298674 271.981327 350.04 273.24 350.04 273.496001 350.04 273.743999 350.008 273.984 349.944 274.224001 349.88 274.437332 349.784001 274.624 349.656 274.810668 349.527999 274.959999 349.365334 275.072 349.168 275.184001 348.970666 275.24 348.733335 275.24 348.456L275.24 342.744 276.52 342.744 276.52 351 275.24 351 275.24 349.656zM279.24 339.16L280.52 339.16 280.52 344.088 280.584 344.088C280.797334 343.565331 281.109331 343.178668 281.52 342.928 281.930669 342.677332 282.423997 342.552 283 342.552 283.512003 342.552 283.975998 342.653332 284.392 342.856 284.808002 343.058668 285.162665 343.346665 285.456 343.72 285.749335 344.093335 285.973333 344.546664 286.128 345.08 286.282667 345.613336 286.36 346.210663 286.36 346.872 286.36 347.533337 286.282667 348.130664 286.128 348.664 285.973333 349.197336 285.749335 349.650665 285.456 350.024 285.162665 350.397335 284.808002 350.685332 284.392 350.888 283.975998 351.090668 283.512003 351.192 283 351.192 281.879994 351.192 281.074669 350.680005 280.584 349.656L280.52 349.656 280.52 351 279.24 351 279.24 339.16zM282.648 350.04C283.373337 350.04 283.943998 349.813336 284.36 349.36 284.776002 348.906664 284.984 348.312004 284.984 347.576L284.984 346.168C284.984 345.431996 284.776002 344.837336 284.36 344.384 283.943998 343.930664 283.373337 343.704 282.648 343.704 282.359999 343.704 282.085335 343.744 281.824 343.824 281.562665 343.904 281.336001 344.013333 281.144 344.152 280.951999 344.290667 280.800001 344.458666 280.688 344.656 280.575999 344.853334 280.52 345.063999 280.52 345.288L280.52 348.36C280.52 348.626668 280.575999 348.863999 280.688 349.072 280.800001 349.280001 280.951999 349.455999 281.144 349.6 281.336001 349.744001 281.562665 349.853333 281.824 349.928 282.085335 350.002667 282.359999 350.04 282.648 350.04zM288.52 351L288.52 342.744 289.8 342.744 289.8 344.088 289.864 344.088C290.066668 343.618664 290.351998 343.245335 290.72 342.968 291.088002 342.690665 291.58133 342.552 292.2 342.552 293.053338 342.552 293.727998 342.826664 294.224 343.376 294.720002 343.925336 294.968 344.701328 294.968 345.704L294.968 351 293.688 351 293.688 345.928C293.688 344.445326 293.064006 343.704 291.816 343.704 291.559999 343.704 291.312001 343.736 291.072 343.8 290.831999 343.864 290.616001 343.959999 290.424 344.088 290.231999 344.216001 290.080001 344.378666 289.968 344.576 289.855999 344.773334 289.8 345.005332 289.8 345.272L289.8 351 288.52 351zM300.728 351.192C300.173331 351.192 299.666669 351.090668 299.208 350.888 298.749331 350.685332 298.357335 350.394669 298.032 350.016 297.706665 349.637331 297.453334 349.184003 297.272 348.656 297.090666 348.127997 297 347.533337 297 346.872 297 346.22133 297.090666 345.629336 297.272 345.096 297.453334 344.562664 297.706665 344.106669 298.032 343.728 298.357335 343.349331 298.749331 343.058668 299.208 342.856 299.666669 342.653332 300.173331 342.552 300.728 342.552 301.282669 342.552 301.786664 342.653332 302.24 342.856 302.693336 343.058668 303.085332 343.349331 303.416 343.728 303.746668 344.106669 304.002666 344.562664 304.184 345.096 304.365334 345.629336 304.456 346.22133 304.456 346.872 304.456 347.533337 304.365334 348.127997 304.184 348.656 304.002666 349.184003 303.746668 349.637331 303.416 350.016 303.085332 350.394669 302.693336 350.685332 302.24 350.888 301.786664 351.090668 301.282669 351.192 300.728 351.192zM300.728 350.056C301.421337 350.056 301.986664 349.842669 302.424 349.416 302.861336 348.989331 303.08 348.338671 303.08 347.464L303.08 346.28C303.08 345.405329 302.861336 344.754669 302.424 344.328 301.986664 343.901331 301.421337 343.688 300.728 343.688 300.034663 343.688 299.469336 343.901331 299.032 344.328 298.594664 344.754669 298.376 345.405329 298.376 346.28L298.376 347.464C298.376 348.338671 298.594664 348.989331 299.032 349.416 299.469336 349.842669 300.034663 350.056 300.728 350.056zM306.568 351L306.568 342.744 307.848 342.744 307.848 344.264 307.928 344.264C308.077334 343.869331 308.343998 343.517335 308.728 343.208 309.112002 342.898665 309.639997 342.744 310.312 342.744L310.808 342.744 310.808 344.024 310.056 344.024C309.362663 344.024 308.821335 344.154665 308.432 344.416 308.042665 344.677335 307.848 345.005331 307.848 345.4L307.848 351 306.568 351zM312.44 351L312.44 342.744 313.72 342.744 313.72 344.088 313.784 344.088C313.88 343.874666 313.989333 343.674668 314.112 343.488 314.234667 343.301332 314.383999 343.138667 314.56 343 314.736001 342.861333 314.941332 342.752 315.176 342.672 315.410668 342.592 315.687998 342.552 316.008 342.552 316.552003 342.552 317.053331 342.682665 317.512 342.944 317.970669 343.205335 318.311999 343.634664 318.536 344.232L318.568 344.232C318.717334 343.783998 318.997331 343.392002 319.408 343.056 319.818669 342.719998 320.375996 342.552 321.08 342.552 321.922671 342.552 322.581331 342.826664 323.056 343.376 323.530669 343.925336 323.768 344.701328 323.768 345.704L323.768 351 322.488 351 322.488 345.928C322.488 345.191996 322.344001 344.637335 322.056 344.264 321.767999 343.890665 321.309336 343.704 320.68 343.704 320.423999 343.704 320.181334 343.736 319.952 343.8 319.722666 343.864 319.517334 343.959999 319.336 344.088 319.154666 344.216001 319.010667 344.378666 318.904 344.576 318.797333 344.773334 318.744 345.005332 318.744 345.272L318.744 351 317.464 351 317.464 345.928C317.464 345.191996 317.320001 344.637335 317.032 344.264 316.743999 343.890665 316.296003 343.704 315.688 343.704 315.431999 343.704 315.186668 343.736 314.952 343.8 314.717332 343.864 314.509334 343.959999 314.328 344.088 314.146666 344.216001 314.000001 344.378666 313.888 344.576 313.775999 344.773334 313.72 345.005332 313.72 345.272L313.72 351 312.44 351zM332.408 351C331.927998 351 331.584001 350.872001 331.376 350.616 331.167999 350.359999 331.037334 350.040002 330.984 349.656L330.904 349.656C330.722666 350.168003 330.424002 350.551999 330.008 350.808 329.591998 351.064001 329.096003 351.192 328.52 351.192 327.645329 351.192 326.965336 350.968002 326.48 350.52 325.994664 350.071998 325.752 349.464004 325.752 348.696 325.752 347.917329 326.03733 347.320002 326.608 346.904 327.17867 346.487998 328.066661 346.28 329.272 346.28L330.904 346.28 330.904 345.464C330.904 344.87733 330.744002 344.429335 330.424 344.12 330.103998 343.810665 329.613337 343.656 328.952 343.656 328.450664 343.656 328.032002 343.767999 327.696 343.992 327.359998 344.216001 327.080001 344.514665 326.856 344.888L326.088 344.168C326.312001 343.719998 326.669331 343.338668 327.16 343.024 327.650669 342.709332 328.26933 342.552 329.016 342.552 330.018672 342.552 330.797331 342.797331 331.352 343.288 331.906669 343.778669 332.184 344.461329 332.184 345.336L332.184 349.88 333.128 349.88 333.128 351 332.408 351zM328.728 350.104C329.048002 350.104 329.341332 350.066667 329.608 349.992 329.874668 349.917333 330.103999 349.810667 330.296 349.672 330.488001 349.533333 330.637333 349.373334 330.744 349.192 330.850667 349.010666 330.904 348.813334 330.904 348.6L330.904 347.24 329.208 347.24C328.471996 347.24 327.936002 347.346666 327.6 347.56 327.263998 347.773334 327.096 348.082665 327.096 348.488L327.096 348.824C327.096 349.229335 327.242665 349.543999 327.536 349.768 327.829335 349.992001 328.226664 350.104 328.728 350.104zM336.312 351C335.863998 351 335.525334 350.874668 335.296 350.624 335.066666 350.373332 334.952 350.056002 334.952 349.672L334.952 339.16 336.232 339.16 336.232 349.88 337.448 349.88 337.448 351 336.312 351zM341.784 351.192C341.015996 351.192 340.373336 351.045335 339.856 350.752 339.338664 350.458665 338.893335 350.066669 338.52 349.576L339.432 348.84C339.752002 349.245335 340.109331 349.557332 340.504 349.776 340.898669 349.994668 341.357331 350.104 341.88 350.104 342.424003 350.104 342.847998 349.986668 343.152 349.752 343.456002 349.517332 343.608 349.186669 343.608 348.76 343.608 348.439998 343.504001 348.165334 343.296 347.936 343.087999 347.706666 342.712003 347.549334 342.168 347.464L341.512 347.368C341.127998 347.314666 340.776002 347.232001 340.456 347.12 340.135998 347.007999 339.856001 346.858668 339.616 346.672 339.375999 346.485332 339.189334 346.253335 339.056 345.976 338.922666 345.698665 338.856 345.368002 338.856 344.984 338.856 344.578665 338.930666 344.224002 339.08 343.92 339.229334 343.615998 339.434665 343.362668 339.696 343.16 339.957335 342.957332 340.269332 342.805334 340.632 342.704 340.994668 342.602666 341.383998 342.552 341.8 342.552 342.472003 342.552 343.034664 342.669332 343.488 342.904 343.941336 343.138668 344.338665 343.463998 344.68 343.88L343.832 344.648C343.650666 344.391999 343.384002 344.160001 343.032 343.952 342.679998 343.743999 342.237336 343.64 341.704 343.64 341.170664 343.64 340.768001 343.754666 340.496 343.984 340.223999 344.213334 340.088 344.525331 340.088 344.92 340.088 345.325335 340.223999 345.618666 340.496 345.8 340.768001 345.981334 341.159997 346.114666 341.672 346.2L342.312 346.296C343.229338 346.434667 343.879998 346.698665 344.264 347.088 344.648002 347.477335 344.84 347.986664 344.84 348.616 344.84 349.416004 344.568003 350.045331 344.024 350.504 343.479997 350.962669 342.733338 351.192 341.784 351.192zM415.192 374.184L413.848 371.704 413.8 371.704 413.8 381 412.488 381 412.488 369.832 414.04 369.832 418.12 376.648 419.464 379.128 419.512 379.128 419.512 369.832 420.824 369.832 420.824 381 419.272 381 415.192 374.184zM429.672 381C429.191998 381 428.848001 380.872001 428.64 380.616 428.431999 380.359999 428.301334 380.040002 428.248 379.656L428.168 379.656C427.986666 380.168003 427.688002 380.551999 427.272 380.808 426.855998 381.064001 426.360003 381.192 425.784 381.192 424.909329 381.192 424.229336 380.968002 423.744 380.52 423.258664 380.071998 423.016 379.464004 423.016 378.696 423.016 377.917329 423.30133 377.320002 423.872 376.904 424.44267 376.487998 425.330661 376.28 426.536 376.28L428.168 376.28 428.168 375.464C428.168 374.87733 428.008002 374.429335 427.688 374.12 427.367998 373.810665 426.877337 373.656 426.216 373.656 425.714664 373.656 425.296002 373.767999 424.96 373.992 424.623998 374.216001 424.344001 374.514665 424.12 374.888L423.352 374.168C423.576001 373.719998 423.933331 373.338668 424.424 373.024 424.914669 372.709332 425.53333 372.552 426.28 372.552 427.282672 372.552 428.061331 372.797331 428.616 373.288 429.170669 373.778669 429.448 374.461329 429.448 375.336L429.448 379.88 430.392 379.88 430.392 381 429.672 381zM425.992 380.104C426.312002 380.104 426.605332 380.066667 426.872 379.992 427.138668 379.917333 427.367999 379.810667 427.56 379.672 427.752001 379.533333 427.901333 379.373334 428.008 379.192 428.114667 379.010666 428.168 378.813334 428.168 378.6L428.168 377.24 426.472 377.24C425.735996 377.24 425.200002 377.346666 424.864 377.56 424.527998 377.773334 424.36 378.082665 424.36 378.488L424.36 378.824C424.36 379.229335 424.506665 379.543999 424.8 379.768 425.093335 379.992001 425.490664 380.104 425.992 380.104zM435.048 374.184L433.704 371.704 433.656 371.704 433.656 381 432.344 381 432.344 369.832 433.896 369.832 437.976 376.648 439.32 379.128 439.368 379.128 439.368 369.832 440.68 369.832 440.68 381 439.128 381 435.048 374.184zM446.008 381.192C445.239996 381.192 444.597336 381.045335 444.08 380.752 443.562664 380.458665 443.117335 380.066669 442.744 379.576L443.656 378.84C443.976002 379.245335 444.333331 379.557332 444.728 379.776 445.122669 379.994668 445.581331 380.104 446.104 380.104 446.648003 380.104 447.071998 379.986668 447.376 379.752 447.680002 379.517332 447.832 379.186669 447.832 378.76 447.832 378.439998 447.728001 378.165334 447.52 377.936 447.311999 377.706666 446.936003 377.549334 446.392 377.464L445.736 377.368C445.351998 377.314666 445.000002 377.232001 444.68 377.12 444.359998 377.007999 444.080001 376.858668 443.84 376.672 443.599999 376.485332 443.413334 376.253335 443.28 375.976 443.146666 375.698665 443.08 375.368002 443.08 374.984 443.08 374.578665 443.154666 374.224002 443.304 373.92 443.453334 373.615998 443.658665 373.362668 443.92 373.16 444.181335 372.957332 444.493332 372.805334 444.856 372.704 445.218668 372.602666 445.607998 372.552 446.024 372.552 446.696003 372.552 447.258664 372.669332 447.712 372.904 448.165336 373.138668 448.562665 373.463998 448.904 373.88L448.056 374.648C447.874666 374.391999 447.608002 374.160001 447.256 373.952 446.903998 373.743999 446.461336 373.64 445.928 373.64 445.394664 373.64 444.992001 373.754666 444.72 373.984 444.447999 374.213334 444.312 374.525331 444.312 374.92 444.312 375.325335 444.447999 375.618666 444.72 375.8 444.992001 375.981334 445.383997 376.114666 445.896 376.2L446.536 376.296C447.453338 376.434667 448.103998 376.698665 448.488 377.088 448.872002 377.477335 449.064 377.986664 449.064 378.616 449.064 379.416004 448.792003 380.045331 448.248 380.504 447.703997 380.962669 446.957338 381.192 446.008 381.192zM112.36 381L112.36 372.744 113.64 372.744 113.64 374.088 113.704 374.088C113.8 373.874666 113.909333 373.674668 114.032 373.488 114.154667 373.301332 114.303999 373.138667 114.48 373 114.656001 372.861333 114.861332 372.752 115.096 372.672 115.330668 372.592 115.607998 372.552 115.928 372.552 116.472003 372.552 116.973331 372.682665 117.432 372.944 117.890669 373.205335 118.231999 373.634664 118.456 374.232L118.488 374.232C118.637334 373.783998 118.917331 373.392002 119.328 373.056 119.738669 372.719998 120.295996 372.552 121 372.552 121.842671 372.552 122.501331 372.826664 122.976 373.376 123.450669 373.925336 123.688 374.701328 123.688 375.704L123.688 381 122.408 381 122.408 375.928C122.408 375.191996 122.264001 374.637335 121.976 374.264 121.687999 373.890665 121.229336 373.704 120.6 373.704 120.343999 373.704 120.101334 373.736 119.872 373.8 119.642666 373.864 119.437334 373.959999 119.256 374.088 119.074666 374.216001 118.930667 374.378666 118.824 374.576 118.717333 374.773334 118.664 375.005332 118.664 375.272L118.664 381 117.384 381 117.384 375.928C117.384 375.191996 117.240001 374.637335 116.952 374.264 116.663999 373.890665 116.216003 373.704 115.608 373.704 115.351999 373.704 115.106668 373.736 114.872 373.8 114.637332 373.864 114.429334 373.959999 114.248 374.088 114.066666 374.216001 113.920001 374.378666 113.808 374.576 113.695999 374.773334 113.64 375.005332 113.64 375.272L113.64 381 112.36 381zM126.968 370.808C126.690665 370.808 126.490667 370.741334 126.368 370.608 126.245333 370.474666 126.184 370.301334 126.184 370.088L126.184 369.88C126.184 369.666666 126.245333 369.493334 126.368 369.36 126.490667 369.226666 126.690665 369.16 126.968 369.16 127.245335 369.16 127.445333 369.226666 127.568 369.36 127.690667 369.493334 127.752 369.666666 127.752 369.88L127.752 370.088C127.752 370.301334 127.690667 370.474666 127.568 370.608 127.445333 370.741334 127.245335 370.808 126.968 370.808zM126.328 372.744L127.608 372.744 127.608 381 126.328 381 126.328 372.744zM130.328 381L130.328 372.744 131.608 372.744 131.608 374.088 131.672 374.088C131.874668 373.618664 132.159998 373.245335 132.528 372.968 132.896002 372.690665 133.38933 372.552 134.008 372.552 134.861338 372.552 135.535998 372.826664 136.032 373.376 136.528002 373.925336 136.776 374.701328 136.776 375.704L136.776 381 135.496 381 135.496 375.928C135.496 374.445326 134.872006 373.704 133.624 373.704 133.367999 373.704 133.120001 373.736 132.88 373.8 132.639999 373.864 132.424001 373.959999 132.232 374.088 132.039999 374.216001 131.888001 374.378666 131.776 374.576 131.663999 374.773334 131.608 375.005332 131.608 375.272L131.608 381 130.328 381zM140.056 370.808C139.778665 370.808 139.578667 370.741334 139.456 370.608 139.333333 370.474666 139.272 370.301334 139.272 370.088L139.272 369.88C139.272 369.666666 139.333333 369.493334 139.456 369.36 139.578667 369.226666 139.778665 369.16 140.056 369.16 140.333335 369.16 140.533333 369.226666 140.656 369.36 140.778667 369.493334 140.84 369.666666 140.84 369.88L140.84 370.088C140.84 370.301334 140.778667 370.474666 140.656 370.608 140.533333 370.741334 140.333335 370.808 140.056 370.808zM139.416 372.744L140.696 372.744 140.696 381 139.416 381 139.416 372.744zM143.416 381L143.416 372.744 144.696 372.744 144.696 374.088 144.76 374.088C144.856 373.874666 144.965333 373.674668 145.088 373.488 145.210667 373.301332 145.359999 373.138667 145.536 373 145.712001 372.861333 145.917332 372.752 146.152 372.672 146.386668 372.592 146.663998 372.552 146.984 372.552 147.528003 372.552 148.029331 372.682665 148.488 372.944 148.946669 373.205335 149.287999 373.634664 149.512 374.232L149.544 374.232C149.693334 373.783998 149.973331 373.392002 150.384 373.056 150.794669 372.719998 151.351996 372.552 152.056 372.552 152.898671 372.552 153.557331 372.826664 154.032 373.376 154.506669 373.925336 154.744 374.701328 154.744 375.704L154.744 381 153.464 381 153.464 375.928C153.464 375.191996 153.320001 374.637335 153.032 374.264 152.743999 373.890665 152.285336 373.704 151.656 373.704 151.399999 373.704 151.157334 373.736 150.928 373.8 150.698666 373.864 150.493334 373.959999 150.312 374.088 150.130666 374.216001 149.986667 374.378666 149.88 374.576 149.773333 374.773334 149.72 375.005332 149.72 375.272L149.72 381 148.44 381 148.44 375.928C148.44 375.191996 148.296001 374.637335 148.008 374.264 147.719999 373.890665 147.272003 373.704 146.664 373.704 146.407999 373.704 146.162668 373.736 145.928 373.8 145.693332 373.864 145.485334 373.959999 145.304 374.088 145.122666 374.216001 144.976001 374.378666 144.864 374.576 144.751999 374.773334 144.696 375.005332 144.696 375.272L144.696 381 143.416 381zM162.472 379.656L162.408 379.656C162.322666 379.848001 162.218667 380.037332 162.096 380.224 161.973333 380.410668 161.821334 380.575999 161.64 380.72 161.458666 380.864001 161.240001 380.978666 160.984 381.064 160.727999 381.149334 160.429335 381.192 160.088 381.192 159.234662 381.192 158.557336 380.917336 158.056 380.368 157.554664 379.818664 157.304 379.042672 157.304 378.04L157.304 372.744 158.584 372.744 158.584 377.816C158.584 379.298674 159.213327 380.04 160.472 380.04 160.728001 380.04 160.975999 380.008 161.216 379.944 161.456001 379.88 161.669332 379.784001 161.856 379.656 162.042668 379.527999 162.191999 379.365334 162.304 379.168 162.416001 378.970666 162.472 378.733335 162.472 378.456L162.472 372.744 163.752 372.744 163.752 381 162.472 381 162.472 379.656zM166.472 381L166.472 372.744 167.752 372.744 167.752 374.088 167.816 374.088C167.912 373.874666 168.021333 373.674668 168.144 373.488 168.266667 373.301332 168.415999 373.138667 168.592 373 168.768001 372.861333 168.973332 372.752 169.208 372.672 169.442668 372.592 169.719998 372.552 170.04 372.552 170.584003 372.552 171.085331 372.682665 171.544 372.944 172.002669 373.205335 172.343999 373.634664 172.568 374.232L172.6 374.232C172.749334 373.783998 173.029331 373.392002 173.44 373.056 173.850669 372.719998 174.407996 372.552 175.112 372.552 175.954671 372.552 176.613331 372.826664 177.088 373.376 177.562669 373.925336 177.8 374.701328 177.8 375.704L177.8 381 176.52 381 176.52 375.928C176.52 375.191996 176.376001 374.637335 176.088 374.264 175.799999 373.890665 175.341336 373.704 174.712 373.704 174.455999 373.704 174.213334 373.736 173.984 373.8 173.754666 373.864 173.549334 373.959999 173.368 374.088 173.186666 374.216001 173.042667 374.378666 172.936 374.576 172.829333 374.773334 172.776 375.005332 172.776 375.272L172.776 381 171.496 381 171.496 375.928C171.496 375.191996 171.352001 374.637335 171.064 374.264 170.775999 373.890665 170.328003 373.704 169.72 373.704 169.463999 373.704 169.218668 373.736 168.984 373.8 168.749332 373.864 168.541334 373.959999 168.36 374.088 168.178666 374.216001 168.032001 374.378666 167.92 374.576 167.807999 374.773334 167.752 375.005332 167.752 375.272L167.752 381 166.472 381zM412.36 351L412.36 342.744 413.64 342.744 413.64 344.088 413.704 344.088C413.8 343.874666 413.909333 343.674668 414.032 343.488 414.154667 343.301332 414.303999 343.138667 414.48 343 414.656001 342.861333 414.861332 342.752 415.096 342.672 415.330668 342.592 415.607998 342.552 415.928 342.552 416.472003 342.552 416.973331 342.682665 417.432 342.944 417.890669 343.205335 418.231999 343.634664 418.456 344.232L418.488 344.232C418.637334 343.783998 418.917331 343.392002 419.328 343.056 419.738669 342.719998 420.295996 342.552 421 342.552 421.842671 342.552 422.501331 342.826664 422.976 343.376 423.450669 343.925336 423.688 344.701328 423.688 345.704L423.688 351 422.408 351 422.408 345.928C422.408 345.191996 422.264001 344.637335 421.976 344.264 421.687999 343.890665 421.229336 343.704 420.6 343.704 420.343999 343.704 420.101334 343.736 419.872 343.8 419.642666 343.864 419.437334 343.959999 419.256 344.088 419.074666 344.216001 418.930667 344.378666 418.824 344.576 418.717333 344.773334 418.664 345.005332 418.664 345.272L418.664 351 417.384 351 417.384 345.928C417.384 345.191996 417.240001 344.637335 416.952 344.264 416.663999 343.890665 416.216003 343.704 415.608 343.704 415.351999 343.704 415.106668 343.736 414.872 343.8 414.637332 343.864 414.429334 343.959999 414.248 344.088 414.066666 344.216001 413.920001 344.378666 413.808 344.576 413.695999 344.773334 413.64 345.005332 413.64 345.272L413.64 351 412.36 351zM432.328 351C431.847998 351 431.504001 350.872001 431.296 350.616 431.087999 350.359999 430.957334 350.040002 430.904 349.656L430.824 349.656C430.642666 350.168003 430.344002 350.551999 429.928 350.808 429.511998 351.064001 429.016003 351.192 428.44 351.192 427.565329 351.192 426.885336 350.968002 426.4 350.52 425.914664 350.071998 425.672 349.464004 425.672 348.696 425.672 347.917329 425.95733 347.320002 426.528 346.904 427.09867 346.487998 427.986661 346.28 429.192 346.28L430.824 346.28 430.824 345.464C430.824 344.87733 430.664002 344.429335 430.344 344.12 430.023998 343.810665 429.533337 343.656 428.872 343.656 428.370664 343.656 427.952002 343.767999 427.616 343.992 427.279998 344.216001 427.000001 344.514665 426.776 344.888L426.008 344.168C426.232001 343.719998 426.589331 343.338668 427.08 343.024 427.570669 342.709332 428.18933 342.552 428.936 342.552 429.938672 342.552 430.717331 342.797331 431.272 343.288 431.826669 343.778669 432.104 344.461329 432.104 345.336L432.104 349.88 433.048 349.88 433.048 351 432.328 351zM428.648 350.104C428.968002 350.104 429.261332 350.066667 429.528 349.992 429.794668 349.917333 430.023999 349.810667 430.216 349.672 430.408001 349.533333 430.557333 349.373334 430.664 349.192 430.770667 349.010666 430.824 348.813334 430.824 348.6L430.824 347.24 429.128 347.24C428.391996 347.24 427.856002 347.346666 427.52 347.56 427.183998 347.773334 427.016 348.082665 427.016 348.488L427.016 348.824C427.016 349.229335 427.162665 349.543999 427.456 349.768 427.749335 349.992001 428.146664 350.104 428.648 350.104zM433.848 351L436.904 346.84 433.976 342.744 435.48 342.744 437.576 345.816 437.624 345.816 439.8 342.744 441.224 342.744 438.312 346.744 441.288 351 439.784 351 437.64 347.768 437.592 347.768 435.272 351 433.848 351zM443.624 340.808C443.346665 340.808 443.146667 340.741334 443.024 340.608 442.901333 340.474666 442.84 340.301334 442.84 340.088L442.84 339.88C442.84 339.666666 442.901333 339.493334 443.024 339.36 443.146667 339.226666 443.346665 339.16 443.624 339.16 443.901335 339.16 444.101333 339.226666 444.224 339.36 444.346667 339.493334 444.408 339.666666 444.408 339.88L444.408 340.088C444.408 340.301334 444.346667 340.474666 444.224 340.608 444.101333 340.741334 443.901335 340.808 443.624 340.808zM442.984 342.744L444.264 342.744 444.264 351 442.984 351 442.984 342.744zM446.984 351L446.984 342.744 448.264 342.744 448.264 344.088 448.328 344.088C448.424 343.874666 448.533333 343.674668 448.656 343.488 448.778667 343.301332 448.927999 343.138667 449.104 343 449.280001 342.861333 449.485332 342.752 449.72 342.672 449.954668 342.592 450.231998 342.552 450.552 342.552 451.096003 342.552 451.597331 342.682665 452.056 342.944 452.514669 343.205335 452.855999 343.634664 453.08 344.232L453.112 344.232C453.261334 343.783998 453.541331 343.392002 453.952 343.056 454.362669 342.719998 454.919996 342.552 455.624 342.552 456.466671 342.552 457.125331 342.826664 457.6 343.376 458.074669 343.925336 458.312 344.701328 458.312 345.704L458.312 351 457.032 351 457.032 345.928C457.032 345.191996 456.888001 344.637335 456.6 344.264 456.311999 343.890665 455.853336 343.704 455.224 343.704 454.967999 343.704 454.725334 343.736 454.496 343.8 454.266666 343.864 454.061334 343.959999 453.88 344.088 453.698666 344.216001 453.554667 344.378666 453.448 344.576 453.341333 344.773334 453.288 345.005332 453.288 345.272L453.288 351 452.008 351 452.008 345.928C452.008 345.191996 451.864001 344.637335 451.576 344.264 451.287999 343.890665 450.840003 343.704 450.232 343.704 449.975999 343.704 449.730668 343.736 449.496 343.8 449.261332 343.864 449.053334 343.959999 448.872 344.088 448.690666 344.216001 448.544001 344.378666 448.432 344.576 448.319999 344.773334 448.264 345.005332 448.264 345.272L448.264 351 446.984 351zM466.04 349.656L465.976 349.656C465.890666 349.848001 465.786667 350.037332 465.664 350.224 465.541333 350.410668 465.389334 350.575999 465.208 350.72 465.026666 350.864001 464.808001 350.978666 464.552 351.064 464.295999 351.149334 463.997335 351.192 463.656 351.192 462.802662 351.192 462.125336 350.917336 461.624 350.368 461.122664 349.818664 460.872 349.042672 460.872 348.04L460.872 342.744 462.152 342.744 462.152 347.816C462.152 349.298674 462.781327 350.04 464.04 350.04 464.296001 350.04 464.543999 350.008 464.784 349.944 465.024001 349.88 465.237332 349.784001 465.424 349.656 465.610668 349.527999 465.759999 349.365334 465.872 349.168 465.984001 348.970666 466.04 348.733335 466.04 348.456L466.04 342.744 467.32 342.744 467.32 351 466.04 351 466.04 349.656zM470.04 351L470.04 342.744 471.32 342.744 471.32 344.088 471.384 344.088C471.48 343.874666 471.589333 343.674668 471.712 343.488 471.834667 343.301332 471.983999 343.138667 472.16 343 472.336001 342.861333 472.541332 342.752 472.776 342.672 473.010668 342.592 473.287998 342.552 473.608 342.552 474.152003 342.552 474.653331 342.682665 475.112 342.944 475.570669 343.205335 475.911999 343.634664 476.136 344.232L476.168 344.232C476.317334 343.783998 476.597331 343.392002 477.008 343.056 477.418669 342.719998 477.975996 342.552 478.68 342.552 479.522671 342.552 480.181331 342.826664 480.656 343.376 481.130669 343.925336 481.368 344.701328 481.368 345.704L481.368 351 480.088 351 480.088 345.928C480.088 345.191996 479.944001 344.637335 479.656 344.264 479.367999 343.890665 478.909336 343.704 478.28 343.704 478.023999 343.704 477.781334 343.736 477.552 343.8 477.322666 343.864 477.117334 343.959999 476.936 344.088 476.754666 344.216001 476.610667 344.378666 476.504 344.576 476.397333 344.773334 476.344 345.005332 476.344 345.272L476.344 351 475.064 351 475.064 345.928C475.064 345.191996 474.920001 344.637335 474.632 344.264 474.343999 343.890665 473.896003 343.704 473.288 343.704 473.031999 343.704 472.786668 343.736 472.552 343.8 472.317332 343.864 472.109334 343.959999 471.928 344.088 471.746666 344.216001 471.600001 344.378666 471.488 344.576 471.375999 344.773334 471.32 345.005332 471.32 345.272L471.32 351 470.04 351zM263.16 25.192C262.391996 25.192 261.749336 25.0453348 261.232 24.752 260.714664 24.4586652 260.269335 24.0666691 259.896 23.576L260.808 22.84C261.128002 23.2453354 261.485331 23.5573322 261.88 23.776 262.274669 23.9946678 262.733331 24.104 263.256 24.104 263.800003 24.104 264.223998 23.9866678 264.528 23.752 264.832002 23.5173322 264.984 23.1866688 264.984 22.76 264.984 22.4399984 264.880001 22.1653345 264.672 21.936 264.463999 21.7066655 264.088003 21.5493338 263.544 21.464L262.888 21.368C262.503998 21.3146664 262.152002 21.2320006 261.832 21.12 261.511998 21.0079994 261.232001 20.8586676 260.992 20.672 260.751999 20.4853324 260.565334 20.2533347 260.432 19.976 260.298666 19.6986653 260.232 19.3680019 260.232 18.984 260.232 18.5786646 260.306666 18.2240015 260.456 17.92 260.605334 17.6159985 260.810665 17.3626677 261.072 17.16 261.333335 16.9573323 261.645332 16.8053338 262.008 16.704 262.370668 16.6026662 262.759998 16.552 263.176 16.552 263.848003 16.552 264.410664 16.6693322 264.864 16.904 265.317336 17.1386678 265.714665 17.4639979 266.056 17.88L265.208 18.648C265.026666 18.3919987 264.760002 18.160001 264.408 17.952 264.055998 17.743999 263.613336 17.64 263.08 17.64 262.546664 17.64 262.144001 17.7546655 261.872 17.984 261.599999 18.2133345 261.464 18.5253314 261.464 18.92 261.464 19.3253354 261.599999 19.6186658 261.872 19.8 262.144001 19.9813342 262.535997 20.1146662 263.048 20.2L263.688 20.296C264.605338 20.4346674 265.255998 20.6986647 265.64 21.088 266.024002 21.4773353 266.216 21.9866635 266.216 22.616 266.216 23.416004 265.944003 24.045331 265.4 24.504 264.855997 24.962669 264.109338 25.192 263.16 25.192zM269.112 14.808C268.834665 14.808 268.634667 14.741334 268.512 14.608 268.389333 14.474666 268.328 14.3013344 268.328 14.088L268.328 13.88C268.328 13.6666656 268.389333 13.493334 268.512 13.36 268.634667 13.226666 268.834665 13.16 269.112 13.16 269.389335 13.16 269.589333 13.226666 269.712 13.36 269.834667 13.493334 269.896 13.6666656 269.896 13.88L269.896 14.088C269.896 14.3013344 269.834667 14.474666 269.712 14.608 269.589333 14.741334 269.389335 14.808 269.112 14.808zM268.472 16.744L269.752 16.744 269.752 25 268.472 25 268.472 16.744zM279.432 25.912C279.432 26.7653376 279.09867 27.391998 278.432 27.792 277.76533 28.192002 276.76534 28.392 275.432 28.392 274.141327 28.392 273.213336 28.2160018 272.648 27.864 272.082664 27.5119982 271.8 27.0106699 271.8 26.36 271.8 25.9119978 271.917332 25.5626679 272.152 25.312 272.386668 25.0613321 272.706665 24.8773339 273.112 24.76L273.112 24.584C272.621331 24.3493322 272.376 23.965336 272.376 23.432 272.376 23.0159979 272.509332 22.6986678 272.776 22.48 273.042668 22.2613322 273.383998 22.0986672 273.8 21.992L273.8 21.928C273.309331 21.6933322 272.928001 21.3573355 272.656 20.92 272.383999 20.4826645 272.248 19.9760029 272.248 19.4 272.248 18.9839979 272.322666 18.6000018 272.472 18.248 272.621334 17.8959982 272.831999 17.5946679 273.104 17.344 273.376001 17.0933321 273.701331 16.8986674 274.08 16.76 274.458669 16.6213326 274.882664 16.552 275.352 16.552 275.93867 16.552 276.461331 16.6586656 276.92 16.872L276.92 16.728C276.92 16.4079984 276.994666 16.144001 277.144 15.936 277.293334 15.727999 277.538665 15.624 277.88 15.624L279.112 15.624 279.112 16.744 277.544 16.744 277.544 17.272C277.842668 17.5280013 278.074666 17.8346649 278.24 18.192 278.405334 18.5493351 278.488 18.9519978 278.488 19.4 278.488 19.8160021 278.413334 20.1999982 278.264 20.552 278.114666 20.9040018 277.904001 21.2053321 277.632 21.456 277.359999 21.7066679 277.032002 21.9013326 276.648 22.04 276.263998 22.1786674 275.837336 22.248 275.368 22.248 275.101332 22.248 274.834668 22.2213336 274.568 22.168 274.290665 22.242667 274.040001 22.3519993 273.816 22.496 273.591999 22.6400007 273.48 22.8399987 273.48 23.096 273.48 23.3413346 273.597332 23.5066662 273.832 23.592 274.066668 23.6773338 274.370665 23.72 274.744 23.72L276.504 23.72C277.528005 23.72 278.271998 23.9146647 278.736 24.304 279.200002 24.6933353 279.432 25.2293299 279.432 25.912zM278.232 26.008C278.232 25.6773317 278.106668 25.4133343 277.856 25.216 277.605332 25.0186657 277.160003 24.92 276.52 24.92L273.768 24.92C273.255997 25.1546678 273 25.5279974 273 26.04 273 26.4026685 273.135999 26.7119987 273.408 26.968 273.680001 27.2240013 274.14133 27.352 274.792 27.352L275.976 27.352C276.69067 27.352 277.245331 27.2400011 277.64 27.016 278.034669 26.7919989 278.232 26.4560022 278.232 26.008zM275.368 21.224C275.912003 21.224 276.343998 21.0933346 276.664 20.832 276.984002 20.5706654 277.144 20.1680027 277.144 19.624L277.144 19.176C277.144 18.6319973 276.984002 18.2293346 276.664 17.968 276.343998 17.7066654 275.912003 17.576 275.368 17.576 274.823997 17.576 274.392002 17.7066654 274.072 17.968 273.751998 18.2293346 273.592 18.6319973 273.592 19.176L273.592 19.624C273.592 20.1680027 273.751998 20.5706654 274.072 20.832 274.392002 21.0933346 274.823997 21.224 275.368 21.224zM280.92 25L280.92 16.744 282.2 16.744 282.2 18.088 282.264 18.088C282.466668 17.6186643 282.751998 17.2453347 283.12 16.968 283.488002 16.6906653 283.98133 16.552 284.6 16.552 285.453338 16.552 286.127998 16.8266639 286.624 17.376 287.120002 17.9253361 287.368 18.7013283 287.368 19.704L287.368 25 286.088 25 286.088 19.928C286.088 18.4453259 285.464006 17.704 284.216 17.704 283.959999 17.704 283.712001 17.7359997 283.472 17.8 283.231999 17.8640003 283.016001 17.9599994 282.824 18.088 282.631999 18.2160006 282.480001 18.3786657 282.368 18.576 282.255999 18.7733343 282.2 19.005332 282.2 19.272L282.2 25 280.92 25zM290.648 14.808C290.370665 14.808 290.170667 14.741334 290.048 14.608 289.925333 14.474666 289.864 14.3013344 289.864 14.088L289.864 13.88C289.864 13.6666656 289.925333 13.493334 290.048 13.36 290.170667 13.226666 290.370665 13.16 290.648 13.16 290.925335 13.16 291.125333 13.226666 291.248 13.36 291.370667 13.493334 291.432 13.6666656 291.432 13.88L291.432 14.088C291.432 14.3013344 291.370667 14.474666 291.248 14.608 291.125333 14.741334 290.925335 14.808 290.648 14.808zM290.008 16.744L291.288 16.744 291.288 25 290.008 25 290.008 16.744zM294.456 17.864L293.112 17.864 293.112 16.744 294.456 16.744 294.456 15.08C294.456 14.5039971 294.605332 14.0400018 294.904 13.688 295.202668 13.3359982 295.655997 13.16 296.264 13.16L297.512 13.16 297.512 14.28 295.736 14.28 295.736 16.744 300.36 16.744 300.36 25 299.08 25 299.08 17.864 295.736 17.864 295.736 25 294.456 25 294.456 17.864zM299.72 14.808C299.442665 14.808 299.242667 14.741334 299.12 14.608 298.997333 14.474666 298.936 14.3013344 298.936 14.088L298.936 13.88C298.936 13.6666656 298.997333 13.493334 299.12 13.36 299.242667 13.226666 299.442665 13.16 299.72 13.16 299.997335 13.16 300.197333 13.226666 300.32 13.36 300.442667 13.493334 300.504 13.6666656 300.504 13.88L300.504 14.088C300.504 14.3013344 300.442667 14.474666 300.32 14.608 300.197333 14.741334 299.997335 14.808 299.72 14.808zM306.152 25.192C305.575997 25.192 305.058669 25.0906677 304.6 24.888 304.141331 24.6853323 303.754668 24.3973352 303.44 24.024 303.125332 23.6506648 302.885334 23.197336 302.72 22.664 302.554666 22.130664 302.472 21.5333366 302.472 20.872 302.472 20.2106634 302.554666 19.613336 302.72 19.08 302.885334 18.546664 303.125332 18.0933352 303.44 17.72 303.754668 17.3466648 304.141331 17.0586677 304.6 16.856 305.058669 16.6533323 305.575997 16.552 306.152 16.552 306.973337 16.552 307.631998 16.7306649 308.128 17.088 308.624002 17.4453351 308.994665 17.9119971 309.24 18.488L308.168 19.032C308.018666 18.6053312 307.773335 18.2746678 307.432 18.04 307.090665 17.8053322 306.664003 17.688 306.152 17.688 305.767998 17.688 305.432001 17.7493327 305.144 17.872 304.855999 17.9946673 304.616001 18.1653322 304.424 18.384 304.231999 18.6026678 304.088 18.8639985 303.992 19.168 303.896 19.4720015 303.848 19.8053315 303.848 20.168L303.848 21.576C303.848 22.301337 304.042665 22.8959977 304.432 23.36 304.821335 23.8240023 305.394663 24.056 306.152 24.056 307.186672 24.056 307.933331 23.5760048 308.392 22.616L309.32 23.24C309.053332 23.8373363 308.656003 24.3119982 308.128 24.664 307.599997 25.0160018 306.941337 25.192 306.152 25.192zM317.128 25C316.647998 25 316.304001 24.8720013 316.096 24.616 315.887999 24.3599987 315.757334 24.0400019 315.704 23.656L315.624 23.656C315.442666 24.1680026 315.144002 24.5519987 314.728 24.808 314.311998 25.0640013 313.816003 25.192 313.24 25.192 312.365329 25.192 311.685336 24.9680022 311.2 24.52 310.714664 24.0719978 310.472 23.4640038 310.472 22.696 310.472 21.9173294 310.75733 21.3200021 311.328 20.904 311.89867 20.4879979 312.786661 20.28 313.992 20.28L315.624 20.28 315.624 19.464C315.624 18.8773304 315.464002 18.4293349 315.144 18.12 314.823998 17.8106651 314.333337 17.656 313.672 17.656 313.170664 17.656 312.752002 17.7679989 312.416 17.992 312.079998 18.2160011 311.800001 18.5146648 311.576 18.888L310.808 18.168C311.032001 17.7199978 311.389331 17.3386682 311.88 17.024 312.370669 16.7093318 312.98933 16.552 313.736 16.552 314.738672 16.552 315.517331 16.7973309 316.072 17.288 316.626669 17.7786691 316.904 18.461329 316.904 19.336L316.904 23.88 317.848 23.88 317.848 25 317.128 25zM313.448 24.104C313.768002 24.104 314.061332 24.066667 314.328 23.992 314.594668 23.917333 314.823999 23.8106674 315.016 23.672 315.208001 23.5333326 315.357333 23.3733342 315.464 23.192 315.570667 23.0106658 315.624 22.8133344 315.624 22.6L315.624 21.24 313.928 21.24C313.191996 21.24 312.656002 21.3466656 312.32 21.56 311.983998 21.7733344 311.816 22.0826646 311.816 22.488L311.816 22.824C311.816 23.2293354 311.962665 23.5439989 312.256 23.768 312.549335 23.9920011 312.946664 24.104 313.448 24.104zM319.672 25L319.672 16.744 320.952 16.744 320.952 18.088 321.016 18.088C321.218668 17.6186643 321.503998 17.2453347 321.872 16.968 322.240002 16.6906653 322.73333 16.552 323.352 16.552 324.205338 16.552 324.879998 16.8266639 325.376 17.376 325.872002 17.9253361 326.12 18.7013283 326.12 19.704L326.12 25 324.84 25 324.84 19.928C324.84 18.4453259 324.216006 17.704 322.968 17.704 322.711999 17.704 322.464001 17.7359997 322.224 17.8 321.983999 17.8640003 321.768001 17.9599994 321.576 18.088 321.383999 18.2160006 321.232001 18.3786657 321.12 18.576 321.007999 18.7733343 320.952 19.005332 320.952 19.272L320.952 25 319.672 25zM334.04 23.656L333.976 23.656C333.474664 24.6800051 332.669339 25.192 331.56 25.192 331.047997 25.192 330.584002 25.0906677 330.168 24.888 329.751998 24.6853323 329.397335 24.3973352 329.104 24.024 328.810665 23.6506648 328.586667 23.197336 328.432 22.664 328.277333 22.130664 328.2 21.5333366 328.2 20.872 328.2 20.2106634 328.277333 19.613336 328.432 19.08 328.586667 18.546664 328.810665 18.0933352 329.104 17.72 329.397335 17.3466648 329.751998 17.0586677 330.168 16.856 330.584002 16.6533323 331.047997 16.552 331.56 16.552 332.136003 16.552 332.629331 16.6773321 333.04 16.928 333.450669 17.1786679 333.762666 17.5653307 333.976 18.088L334.04 18.088 334.04 13.16 335.32 13.16 335.32 25 334.04 25 334.04 23.656zM331.912 24.04C332.200001 24.04 332.474665 24.002667 332.736 23.928 332.997335 23.853333 333.223999 23.7440007 333.416 23.6 333.608001 23.4559993 333.759999 23.280001 333.872 23.072 333.984001 22.863999 334.04 22.626668 334.04 22.36L334.04 19.288C334.04 19.0639989 333.984001 18.8533343 333.872 18.656 333.759999 18.4586657 333.608001 18.2906674 333.416 18.152 333.223999 18.0133326 332.997335 17.9040004 332.736 17.824 332.474665 17.7439996 332.200001 17.704 331.912 17.704 331.186663 17.704 330.616002 17.9306644 330.2 18.384 329.783998 18.8373356 329.576 19.4319963 329.576 20.168L329.576 21.576C329.576 22.3120037 329.783998 22.9066644 330.2 23.36 330.616002 23.8133356 331.186663 24.04 331.912 24.04z"/>
    <path fill="#555" d="M-40.128,169.66 L-38.848,169.66 L-38.848,174.588 L-38.784,174.588 C-38.5706656,174.065331 -38.2586687,173.678668 -37.848,173.428 C-37.4373313,173.177332 -36.9440029,173.052 -36.368,173.052 C-35.8559974,173.052 -35.3920021,173.153332 -34.976,173.356 C-34.5599979,173.558668 -34.2053348,173.846665 -33.912,174.22 C-33.6186652,174.593335 -33.3946674,175.046664 -33.24,175.58 C-33.0853326,176.113336 -33.008,176.710663 -33.008,177.372 C-33.008,178.033337 -33.0853326,178.630664 -33.24,179.164 C-33.3946674,179.697336 -33.6186652,180.150665 -33.912,180.524 C-34.2053348,180.897335 -34.5599979,181.185332 -34.976,181.388 C-35.3920021,181.590668 -35.8559974,181.692 -36.368,181.692 C-37.4880056,181.692 -38.2933309,181.180005 -38.784,180.156 L-38.848,180.156 L-38.848,181.5 L-40.128,181.5 L-40.128,169.66 Z M-36.72,180.54 C-35.994663,180.54 -35.4240021,180.313336 -35.008,179.86 C-34.5919979,179.406664 -34.384,178.812004 -34.384,178.076 L-34.384,176.668 C-34.384,175.931996 -34.5919979,175.337336 -35.008,174.884 C-35.4240021,174.430664 -35.994663,174.204 -36.72,174.204 C-37.0080014,174.204 -37.2826654,174.244 -37.544,174.324 C-37.8053346,174.404 -38.031999,174.513333 -38.224,174.652 C-38.416001,174.790667 -38.5679994,174.958666 -38.68,175.156 C-38.7920006,175.353334 -38.848,175.563999 -38.848,175.788 L-38.848,178.86 C-38.848,179.126668 -38.7920006,179.363999 -38.68,179.572 C-38.5679994,179.780001 -38.416001,179.955999 -38.224,180.1 C-38.031999,180.244001 -37.8053346,180.353333 -37.544,180.428 C-37.2826654,180.502667 -37.0080014,180.54 -36.72,180.54 Z M-30.208,171.308 C-30.4853347,171.308 -30.6853327,171.241334 -30.808,171.108 C-30.9306673,170.974666 -30.992,170.801334 -30.992,170.588 L-30.992,170.38 C-30.992,170.166666 -30.9306673,169.993334 -30.808,169.86 C-30.6853327,169.726666 -30.4853347,169.66 -30.208,169.66 C-29.9306653,169.66 -29.7306673,169.726666 -29.608,169.86 C-29.4853327,169.993334 -29.424,170.166666 -29.424,170.38 L-29.424,170.588 C-29.424,170.801334 -29.4853327,170.974666 -29.608,171.108 C-29.7306673,171.241334 -29.9306653,171.308 -30.208,171.308 Z M-30.848,173.244 L-29.568,173.244 L-29.568,181.5 L-30.848,181.5 L-30.848,173.244 Z M-20.848,181.5 C-21.3280024,181.5 -21.671999,181.372001 -21.88,181.116 C-22.088001,180.859999 -22.2186664,180.540002 -22.272,180.156 L-22.352,180.156 C-22.5333342,180.668003 -22.8319979,181.051999 -23.248,181.308 C-23.6640021,181.564001 -24.1599971,181.692 -24.736,181.692 C-25.610671,181.692 -26.2906642,181.468002 -26.776,181.02 C-27.2613358,180.571998 -27.504,179.964004 -27.504,179.196 C-27.504,178.417329 -27.2186695,177.820002 -26.648,177.404 C-26.0773305,176.987998 -25.1893394,176.78 -23.984,176.78 L-22.352,176.78 L-22.352,175.964 C-22.352,175.37733 -22.5119984,174.929335 -22.832,174.62 C-23.1520016,174.310665 -23.6426634,174.156 -24.304,174.156 C-24.8053358,174.156 -25.2239983,174.267999 -25.56,174.492 C-25.8960017,174.716001 -26.1759989,175.014665 -26.4,175.388 L-27.168,174.668 C-26.9439989,174.219998 -26.5866691,173.838668 -26.096,173.524 C-25.6053309,173.209332 -24.9866704,173.052 -24.24,173.052 C-23.2373283,173.052 -22.4586694,173.297331 -21.904,173.788 C-21.3493306,174.278669 -21.072,174.961329 -21.072,175.836 L-21.072,180.38 L-20.128,180.38 L-20.128,181.5 L-20.848,181.5 Z M-24.528,180.604 C-24.2079984,180.604 -23.914668,180.566667 -23.648,180.492 C-23.381332,180.417333 -23.152001,180.310667 -22.96,180.172 C-22.767999,180.033333 -22.6186672,179.873334 -22.512,179.692 C-22.4053328,179.510666 -22.352,179.313334 -22.352,179.1 L-22.352,177.74 L-24.048,177.74 C-24.7840037,177.74 -25.3199983,177.846666 -25.656,178.06 C-25.9920017,178.273334 -26.16,178.582665 -26.16,178.988 L-26.16,179.324 C-26.16,179.729335 -26.0133348,180.043999 -25.72,180.268 C-25.4266652,180.492001 -25.0293358,180.604 -24.528,180.604 Z M-15.824,181.692 C-16.5920038,181.692 -17.2346641,181.545335 -17.752,181.252 C-18.2693359,180.958665 -18.7146648,180.566669 -19.088,180.076 L-18.176,179.34 C-17.8559984,179.745335 -17.4986686,180.057332 -17.104,180.276 C-16.7093314,180.494668 -16.2506693,180.604 -15.728,180.604 C-15.1839973,180.604 -14.7600015,180.486668 -14.456,180.252 C-14.1519985,180.017332 -14,179.686669 -14,179.26 C-14,178.939998 -14.103999,178.665334 -14.312,178.436 C-14.520001,178.206666 -14.8959973,178.049334 -15.44,177.964 L-16.096,177.868 C-16.4800019,177.814666 -16.8319984,177.732001 -17.152,177.62 C-17.4720016,177.507999 -17.7519988,177.358668 -17.992,177.172 C-18.2320012,176.985332 -18.418666,176.753335 -18.552,176.476 C-18.685334,176.198665 -18.752,175.868002 -18.752,175.484 C-18.752,175.078665 -18.6773341,174.724002 -18.528,174.42 C-18.3786659,174.115998 -18.1733346,173.862668 -17.912,173.66 C-17.6506654,173.457332 -17.3386685,173.305334 -16.976,173.204 C-16.6133315,173.102666 -16.2240021,173.052 -15.808,173.052 C-15.1359966,173.052 -14.5733356,173.169332 -14.12,173.404 C-13.6666644,173.638668 -13.269335,173.963998 -12.928,174.38 L-13.776,175.148 C-13.9573342,174.891999 -14.2239982,174.660001 -14.576,174.452 C-14.9280018,174.243999 -15.370664,174.14 -15.904,174.14 C-16.437336,174.14 -16.8399986,174.254666 -17.112,174.484 C-17.3840014,174.713334 -17.52,175.025331 -17.52,175.42 C-17.52,175.825335 -17.3840014,176.118666 -17.112,176.3 C-16.8399986,176.481334 -16.4480026,176.614666 -15.936,176.7 L-15.296,176.796 C-14.3786621,176.934667 -13.7280019,177.198665 -13.344,177.588 C-12.9599981,177.977335 -12.768,178.486664 -12.768,179.116 C-12.768,179.916004 -13.0399973,180.545331 -13.584,181.004 C-14.1280027,181.462669 -14.8746619,181.692 -15.824,181.692 Z M-7.408,181.692 C-7.97333616,181.692 -8.4826644,181.590668 -8.936,181.388 C-9.3893356,181.185332 -9.77866504,180.894669 -10.104,180.516 C-10.429335,180.137331 -10.6799991,179.684003 -10.856,179.156 C-11.0320009,178.627997 -11.12,178.033337 -11.12,177.372 C-11.12,176.72133 -11.0320009,176.129336 -10.856,175.596 C-10.6799991,175.062664 -10.429335,174.606669 -10.104,174.228 C-9.77866504,173.849331 -9.3893356,173.558668 -8.936,173.356 C-8.4826644,173.153332 -7.97333616,173.052 -7.408,173.052 C-6.85333056,173.052 -6.35733552,173.153332 -5.92,173.356 C-5.48266448,173.558668 -5.10933488,173.838665 -4.8,174.196 C-4.49066512,174.553335 -4.25333416,174.977331 -4.088,175.468 C-3.92266584,175.958669 -3.84,176.49733 -3.84,177.084 L-3.84,177.692 L-9.776,177.692 L-9.776,178.076 C-9.776,178.428002 -9.72000056,178.755998 -9.608,179.06 C-9.49599944,179.364002 -9.33600104,179.627999 -9.128,179.852 C-8.91999896,180.076001 -8.66400152,180.251999 -8.36,180.38 C-8.05599848,180.508001 -7.71200192,180.572 -7.328,180.572 C-6.80533072,180.572 -6.34933528,180.449335 -5.96,180.204 C-5.57066472,179.958665 -5.2693344,179.606669 -5.056,179.148 L-4.144,179.804 C-4.410668,180.369336 -4.82666384,180.825332 -5.392,181.172 C-5.95733616,181.518668 -6.62932944,181.692 -7.408,181.692 Z M-7.408,174.124 C-7.76000176,174.124 -8.07999856,174.185333 -8.368,174.308 C-8.65600144,174.430667 -8.90399896,174.603999 -9.112,174.828 C-9.32000104,175.052001 -9.48266608,175.315998 -9.6,175.62 C-9.71733392,175.924002 -9.776,176.257332 -9.776,176.62 L-9.776,176.732 L-5.216,176.732 L-5.216,176.556 C-5.216,175.819996 -5.415998,175.230669 -5.816,174.788 C-6.216002,174.345331 -6.74666336,174.124 -7.408,174.124 Z M3.552,180.156 L3.488,180.156 C2.98666416,181.180005 2.18133888,181.692 1.072,181.692 C0.55999744,181.692 0.09600208,181.590668 -0.32,181.388 C-0.73600208,181.185332 -1.0906652,180.897335 -1.384,180.524 C-1.6773348,180.150665 -1.90133256,179.697336 -2.056,179.164 C-2.21066744,178.630664 -2.288,178.033337 -2.288,177.372 C-2.288,176.710663 -2.21066744,176.113336 -2.056,175.58 C-1.90133256,175.046664 -1.6773348,174.593335 -1.384,174.22 C-1.0906652,173.846665 -0.73600208,173.558668 -0.32,173.356 C0.09600208,173.153332 0.55999744,173.052 1.072,173.052 C1.64800288,173.052 2.14133128,173.177332 2.552,173.428 C2.96266872,173.678668 3.2746656,174.065331 3.488,174.588 L3.552,174.588 L3.552,169.66 L4.832,169.66 L4.832,181.5 L3.552,181.5 L3.552,180.156 Z M1.424,180.54 C1.71200144,180.54 1.98666536,180.502667 2.248,180.428 C2.50933464,180.353333 2.73599904,180.244001 2.928,180.1 C3.12000096,179.955999 3.27199944,179.780001 3.384,179.572 C3.49600056,179.363999 3.552,179.126668 3.552,178.86 L3.552,175.788 C3.552,175.563999 3.49600056,175.353334 3.384,175.156 C3.27199944,174.958666 3.12000096,174.790667 2.928,174.652 C2.73599904,174.513333 2.50933464,174.404 2.248,174.324 C1.98666536,174.244 1.71200144,174.204 1.424,174.204 C0.69866304,174.204 0.12800208,174.430664 -0.288,174.884 C-0.70400208,175.337336 -0.912,175.931996 -0.912,176.668 L-0.912,178.076 C-0.912,178.812004 -0.70400208,179.406664 -0.288,179.86 C0.12800208,180.313336 0.69866304,180.54 1.424,180.54 Z M14.432,181.692 C13.8666638,181.692 13.3573356,181.590668 12.904,181.388 C12.4506644,181.185332 12.061335,180.894669 11.736,180.516 C11.410665,180.137331 11.1600009,179.684003 10.984,179.156 C10.8079991,178.627997 10.72,178.033337 10.72,177.372 C10.72,176.72133 10.8079991,176.129336 10.984,175.596 C11.1600009,175.062664 11.410665,174.606669 11.736,174.228 C12.061335,173.849331 12.4506644,173.558668 12.904,173.356 C13.3573356,173.153332 13.8666638,173.052 14.432,173.052 C14.9866694,173.052 15.4826645,173.153332 15.92,173.356 C16.3573355,173.558668 16.7306651,173.838665 17.04,174.196 C17.3493349,174.553335 17.5866658,174.977331 17.752,175.468 C17.9173342,175.958669 18,176.49733 18,177.084 L18,177.692 L12.064,177.692 L12.064,178.076 C12.064,178.428002 12.1199994,178.755998 12.232,179.06 C12.3440006,179.364002 12.503999,179.627999 12.712,179.852 C12.920001,180.076001 13.1759985,180.251999 13.48,180.38 C13.7840015,180.508001 14.1279981,180.572 14.512,180.572 C15.0346693,180.572 15.4906647,180.449335 15.88,180.204 C16.2693353,179.958665 16.5706656,179.606669 16.784,179.148 L17.696,179.804 C17.429332,180.369336 17.0133362,180.825332 16.448,181.172 C15.8826638,181.518668 15.2106706,181.692 14.432,181.692 Z M14.432,174.124 C14.0799982,174.124 13.7600014,174.185333 13.472,174.308 C13.1839986,174.430667 12.936001,174.603999 12.728,174.828 C12.519999,175.052001 12.3573339,175.315998 12.24,175.62 C12.1226661,175.924002 12.064,176.257332 12.064,176.62 L12.064,176.732 L16.624,176.732 L16.624,176.556 C16.624,175.819996 16.424002,175.230669 16.024,174.788 C15.623998,174.345331 15.0933366,174.124 14.432,174.124 Z M18.896,181.5 L21.952,177.34 L19.024,173.244 L20.528,173.244 L22.624,176.316 L22.672,176.316 L24.848,173.244 L26.272,173.244 L23.36,177.244 L26.336,181.5 L24.832,181.5 L22.688,178.268 L22.64,178.268 L20.32,181.5 L18.896,181.5 Z M28.032,173.244 L29.312,173.244 L29.312,174.588 L29.376,174.588 C29.5893344,174.065331 29.9013313,173.678668 30.312,173.428 C30.7226687,173.177332 31.2159971,173.052 31.792,173.052 C32.3040026,173.052 32.7679979,173.153332 33.184,173.356 C33.6000021,173.558668 33.9546652,173.846665 34.248,174.22 C34.5413348,174.593335 34.7653326,175.046664 34.92,175.58 C35.0746674,176.113336 35.152,176.710663 35.152,177.372 C35.152,178.033337 35.0746674,178.630664 34.92,179.164 C34.7653326,179.697336 34.5413348,180.150665 34.248,180.524 C33.9546652,180.897335 33.6000021,181.185332 33.184,181.388 C32.7679979,181.590668 32.3040026,181.692 31.792,181.692 C30.6719944,181.692 29.8666691,181.180005 29.376,180.156 L29.312,180.156 L29.312,184.7 L28.032,184.7 L28.032,173.244 Z M31.44,180.54 C32.165337,180.54 32.7359979,180.313336 33.152,179.86 C33.5680021,179.406664 33.776,178.812004 33.776,178.076 L33.776,176.668 C33.776,175.931996 33.5680021,175.337336 33.152,174.884 C32.7359979,174.430664 32.165337,174.204 31.44,174.204 C31.1519986,174.204 30.8773346,174.244 30.616,174.324 C30.3546654,174.404 30.128001,174.513333 29.936,174.652 C29.743999,174.790667 29.5920006,174.958666 29.48,175.156 C29.3679994,175.353334 29.312,175.563999 29.312,175.788 L29.312,178.86 C29.312,179.126668 29.3679994,179.363999 29.48,179.572 C29.5920006,179.780001 29.743999,179.955999 29.936,180.1 C30.128001,180.244001 30.3546654,180.353333 30.616,180.428 C30.8773346,180.502667 31.1519986,180.54 31.44,180.54 Z M40.432,181.692 C39.8773306,181.692 39.370669,181.590668 38.912,181.388 C38.453331,181.185332 38.061335,180.894669 37.736,180.516 C37.410665,180.137331 37.1573342,179.684003 36.976,179.156 C36.7946658,178.627997 36.704,178.033337 36.704,177.372 C36.704,176.72133 36.7946658,176.129336 36.976,175.596 C37.1573342,175.062664 37.410665,174.606669 37.736,174.228 C38.061335,173.849331 38.453331,173.558668 38.912,173.356 C39.370669,173.153332 39.8773306,173.052 40.432,173.052 C40.9866694,173.052 41.4906644,173.153332 41.944,173.356 C42.3973356,173.558668 42.7893317,173.849331 43.12,174.228 C43.4506683,174.606669 43.7066658,175.062664 43.888,175.596 C44.0693342,176.129336 44.16,176.72133 44.16,177.372 C44.16,178.033337 44.0693342,178.627997 43.888,179.156 C43.7066658,179.684003 43.4506683,180.137331 43.12,180.516 C42.7893317,180.894669 42.3973356,181.185332 41.944,181.388 C41.4906644,181.590668 40.9866694,181.692 40.432,181.692 Z M40.432,180.556 C41.1253368,180.556 41.6906645,180.342669 42.128,179.916 C42.5653355,179.489331 42.784,178.838671 42.784,177.964 L42.784,176.78 C42.784,175.905329 42.5653355,175.254669 42.128,174.828 C41.6906645,174.401331 41.1253368,174.188 40.432,174.188 C39.7386632,174.188 39.1733355,174.401331 38.736,174.828 C38.2986645,175.254669 38.08,175.905329 38.08,176.78 L38.08,177.964 C38.08,178.838671 38.2986645,179.489331 38.736,179.916 C39.1733355,180.342669 39.7386632,180.556 40.432,180.556 Z M46.272,181.5 L46.272,173.244 L47.552,173.244 L47.552,174.588 L47.616,174.588 C47.8186677,174.118664 48.1039982,173.745335 48.472,173.468 C48.8400018,173.190665 49.3333302,173.052 49.952,173.052 C50.8053376,173.052 51.4799975,173.326664 51.976,173.876 C52.4720025,174.425336 52.72,175.201328 52.72,176.204 L52.72,181.5 L51.44,181.5 L51.44,176.428 C51.44,174.945326 50.8160062,174.204 49.568,174.204 C49.3119987,174.204 49.0640012,174.236 48.824,174.3 C48.5839988,174.364 48.368001,174.459999 48.176,174.588 C47.983999,174.716001 47.8320006,174.878666 47.72,175.076 C47.6079994,175.273334 47.552,175.505332 47.552,175.772 L47.552,181.5 L46.272,181.5 Z M58.464,181.692 C57.8986638,181.692 57.3893356,181.590668 56.936,181.388 C56.4826644,181.185332 56.093335,180.894669 55.768,180.516 C55.442665,180.137331 55.1920009,179.684003 55.016,179.156 C54.8399991,178.627997 54.752,178.033337 54.752,177.372 C54.752,176.72133 54.8399991,176.129336 55.016,175.596 C55.1920009,175.062664 55.442665,174.606669 55.768,174.228 C56.093335,173.849331 56.4826644,173.558668 56.936,173.356 C57.3893356,173.153332 57.8986638,173.052 58.464,173.052 C59.0186694,173.052 59.5146645,173.153332 59.952,173.356 C60.3893355,173.558668 60.7626651,173.838665 61.072,174.196 C61.3813349,174.553335 61.6186658,174.977331 61.784,175.468 C61.9493342,175.958669 62.032,176.49733 62.032,177.084 L62.032,177.692 L56.096,177.692 L56.096,178.076 C56.096,178.428002 56.1519994,178.755998 56.264,179.06 C56.3760006,179.364002 56.535999,179.627999 56.744,179.852 C56.952001,180.076001 57.2079985,180.251999 57.512,180.38 C57.8160015,180.508001 58.1599981,180.572 58.544,180.572 C59.0666693,180.572 59.5226647,180.449335 59.912,180.204 C60.3013353,179.958665 60.6026656,179.606669 60.816,179.148 L61.728,179.804 C61.461332,180.369336 61.0453362,180.825332 60.48,181.172 C59.9146638,181.518668 59.2426706,181.692 58.464,181.692 Z M58.464,174.124 C58.1119982,174.124 57.7920014,174.185333 57.504,174.308 C57.2159986,174.430667 56.968001,174.603999 56.76,174.828 C56.551999,175.052001 56.3893339,175.315998 56.272,175.62 C56.1546661,175.924002 56.096,176.257332 56.096,176.62 L56.096,176.732 L60.656,176.732 L60.656,176.556 C60.656,175.819996 60.456002,175.230669 60.056,174.788 C59.655998,174.345331 59.1253366,174.124 58.464,174.124 Z M64.144,181.5 L64.144,173.244 L65.424,173.244 L65.424,174.588 L65.488,174.588 C65.6906677,174.118664 65.9759982,173.745335 66.344,173.468 C66.7120018,173.190665 67.2053302,173.052 67.824,173.052 C68.6773376,173.052 69.3519975,173.326664 69.848,173.876 C70.3440025,174.425336 70.592,175.201328 70.592,176.204 L70.592,181.5 L69.312,181.5 L69.312,176.428 C69.312,174.945326 68.6880062,174.204 67.44,174.204 C67.1839987,174.204 66.9360012,174.236 66.696,174.3 C66.4559988,174.364 66.240001,174.459999 66.048,174.588 C65.855999,174.716001 65.7040006,174.878666 65.592,175.076 C65.4799994,175.273334 65.424,175.505332 65.424,175.772 L65.424,181.5 L64.144,181.5 Z M75.056,181.5 C74.6079978,181.5 74.2693345,181.374668 74.04,181.124 C73.8106655,180.873332 73.696,180.545335 73.696,180.14 L73.696,174.364 L72.336,174.364 L72.336,173.244 L73.104,173.244 C73.3813347,173.244 73.5706662,173.188001 73.672,173.076 C73.7733338,172.963999 73.824,172.769335 73.824,172.492 L73.824,170.956 L74.976,170.956 L74.976,173.244 L76.784,173.244 L76.784,174.364 L74.976,174.364 L74.976,180.38 L76.656,180.38 L76.656,181.5 L75.056,181.5 Z" transform="rotate(90 18.328 177.18)"/>
    <polygon fill="#AAA" points="490.5 28 496 39 485 39" transform="rotate(90 490.5 33.5)"/>
    <rect width="397" height="3" x="88" y="32" fill="#AAA"/>
    <polygon fill="#AAA" points="35.5 257 41 268 30 268" transform="rotate(-180 35.5 262.5)"/>
    <rect width="170" height="3" x="-49.5" y="171.5" fill="#AAA" transform="rotate(90 35.5 173)"/>
  </g>
</svg>
