<svg xmlns="http://www.w3.org/2000/svg" width="460" height="170" viewBox="0 0 460 170">
  <defs>
    <linearGradient id="float_space_integers-a" x1="100%" x2="0%" y1="50%" y2="50%">
      <stop offset="0%" stop-color="#555"/>
      <stop offset="100%" stop-color="#555" stop-opacity="0"/>
    </linearGradient>
  </defs>
  <g fill="none" fill-rule="evenodd">
    <path fill="#555" d="M153.008,156 L153.008,154.816 L156.128,154.816 L156.128,145.824 L156.016,145.824 L153.2,148.448 L152.416,147.6 L155.376,144.832 L157.472,144.832 L157.472,154.816 L160.352,154.816 L160.352,156 L153.008,156 Z M166.016,156.192 C165.439997,156.192 164.920002,156.093334 164.456,155.896 C163.991998,155.698666 163.597335,155.416002 163.272,155.048 C162.946665,154.679998 162.698668,154.229336 162.528,153.696 C162.357332,153.162664 162.272,152.565337 162.272,151.904 C162.272,151.071996 162.394665,150.29067 162.64,149.56 C162.885335,148.82933 163.202665,148.16267 163.592,147.56 C163.981335,146.95733 164.410664,146.424002 164.88,145.96 C165.349336,145.495998 165.807998,145.120001 166.256,144.832 L167.984,144.832 C167.386664,145.269336 166.853336,145.695998 166.384,146.112 C165.914664,146.528002 165.504002,146.962664 165.152,147.416 C164.799998,147.869336 164.501335,148.354664 164.256,148.872 C164.010665,149.389336 163.813334,149.97333 163.664,150.624 L163.744,150.656 C164.010668,150.197331 164.354665,149.816002 164.776,149.512 C165.197335,149.207998 165.74933,149.056 166.432,149.056 C166.912002,149.056 167.354665,149.135999 167.76,149.296 C168.165335,149.456001 168.511999,149.685332 168.8,149.984 C169.088001,150.282668 169.314666,150.645331 169.48,151.072 C169.645334,151.498669 169.728,151.973331 169.728,152.496 C169.728,153.040003 169.640001,153.538664 169.464,153.992 C169.287999,154.445336 169.037335,154.834665 168.712,155.16 C168.386665,155.485335 167.994669,155.738666 167.536,155.92 C167.077331,156.101334 166.570669,156.192 166.016,156.192 Z M166,155.024 C166.736004,155.024 167.309331,154.821335 167.72,154.416 C168.130669,154.010665 168.336,153.429337 168.336,152.672 L168.336,152.544 C168.336,151.786663 168.130669,151.205335 167.72,150.8 C167.309331,150.394665 166.736004,150.192 166,150.192 C165.263996,150.192 164.690669,150.394665 164.28,150.8 C163.869331,151.205335 163.664,151.786663 163.664,152.544 L163.664,152.672 C163.664,153.429337 163.869331,154.010665 164.28,154.416 C164.690669,154.821335 165.263996,155.024 166,155.024 Z M173.6,156 L177.872,145.984 L173.104,145.984 L173.104,148.064 L171.904,148.064 L171.904,144.832 L179.232,144.832 L179.232,146.016 L175.04,156 L173.6,156 Z M183.2,156 L187.472,145.984 L182.704,145.984 L182.704,148.064 L181.504,148.064 L181.504,144.832 L188.832,144.832 L188.832,146.016 L184.64,156 L183.2,156 Z M192.8,156 L197.072,145.984 L192.304,145.984 L192.304,148.064 L191.104,148.064 L191.104,144.832 L198.432,144.832 L198.432,146.016 L194.24,156 L192.8,156 Z M208.128,156 L200.8,156 L200.8,154.624 L204.448,151.264 C204.970669,150.783998 205.407998,150.274669 205.76,149.736 C206.112002,149.197331 206.288,148.656003 206.288,148.112 L206.288,147.92 C206.288,147.30133 206.117335,146.800002 205.776,146.416 C205.434665,146.031998 204.917337,145.84 204.224,145.84 C203.882665,145.84 203.584001,145.888 203.328,145.984 C203.071999,146.08 202.850668,146.213332 202.664,146.384 C202.477332,146.554668 202.322667,146.754666 202.2,146.984 C202.077333,147.213334 201.978667,147.461332 201.904,147.728 L200.704,147.264 C200.810667,146.933332 200.957332,146.610668 201.144,146.296 C201.330668,145.981332 201.565332,145.701335 201.848,145.456 C202.130668,145.210665 202.471998,145.013334 202.872,144.864 C203.272002,144.714666 203.743997,144.64 204.288,144.64 C204.832003,144.64 205.317331,144.719999 205.744,144.88 C206.170669,145.040001 206.527999,145.263999 206.816,145.552 C207.104001,145.840001 207.325333,146.181331 207.48,146.576 C207.634667,146.970669 207.712,147.407998 207.712,147.888 C207.712,148.325336 207.650667,148.730665 207.528,149.104 C207.405333,149.477335 207.237334,149.831998 207.024,150.168 C206.810666,150.504002 206.552002,150.831998 206.248,151.152 C205.943998,151.472002 205.616002,151.791998 205.264,152.112 L202.256,154.816 L208.128,154.816 L208.128,156 Z M210.608,156 L210.608,154.816 L213.728,154.816 L213.728,145.824 L213.616,145.824 L210.8,148.448 L210.016,147.6 L212.976,144.832 L215.072,144.832 L215.072,154.816 L217.952,154.816 L217.952,156 L210.608,156 Z M223.616,156.192 C223.039997,156.192 222.520002,156.093334 222.056,155.896 C221.591998,155.698666 221.197335,155.416002 220.872,155.048 C220.546665,154.679998 220.298668,154.229336 220.128,153.696 C219.957332,153.162664 219.872,152.565337 219.872,151.904 C219.872,151.071996 219.994665,150.29067 220.24,149.56 C220.485335,148.82933 220.802665,148.16267 221.192,147.56 C221.581335,146.95733 222.010664,146.424002 222.48,145.96 C222.949336,145.495998 223.407998,145.120001 223.856,144.832 L225.584,144.832 C224.986664,145.269336 224.453336,145.695998 223.984,146.112 C223.514664,146.528002 223.104002,146.962664 222.752,147.416 C222.399998,147.869336 222.101335,148.354664 221.856,148.872 C221.610665,149.389336 221.413334,149.97333 221.264,150.624 L221.344,150.656 C221.610668,150.197331 221.954665,149.816002 222.376,149.512 C222.797335,149.207998 223.34933,149.056 224.032,149.056 C224.512002,149.056 224.954665,149.135999 225.36,149.296 C225.765335,149.456001 226.111999,149.685332 226.4,149.984 C226.688001,150.282668 226.914666,150.645331 227.08,151.072 C227.245334,151.498669 227.328,151.973331 227.328,152.496 C227.328,153.040003 227.240001,153.538664 227.064,153.992 C226.887999,154.445336 226.637335,154.834665 226.312,155.16 C225.986665,155.485335 225.594669,155.738666 225.136,155.92 C224.677331,156.101334 224.170669,156.192 223.616,156.192 Z M223.6,155.024 C224.336004,155.024 224.909331,154.821335 225.32,154.416 C225.730669,154.010665 225.936,153.429337 225.936,152.672 L225.936,152.544 C225.936,151.786663 225.730669,151.205335 225.32,150.8 C224.909331,150.394665 224.336004,150.192 223.6,150.192 C222.863996,150.192 222.290669,150.394665 221.88,150.8 C221.469331,151.205335 221.264,151.786663 221.264,152.544 L221.264,152.672 C221.264,153.429337 221.469331,154.010665 221.88,154.416 C222.290669,154.821335 222.863996,155.024 223.6,155.024 Z"/>
    <rect width="20" height="3" x="33" y="122" fill="url(#float_space_integers-a)" transform="matrix(1 0 0 -1 0 247)"/>
    <rect width="380" height="3" x="53" y="122" fill="#555" transform="matrix(1 0 0 -1 0 247)"/>
    <rect width="2" height="11" x="81" y="118" fill="#555"/>
    <rect width="2" height="11" x="191" y="118" fill="#555"/>
    <rect width="2" height="11" x="411" y="118" fill="#555"/>
    <path fill="#577EC7" fill-opacity=".3" d="M221.017314,35 C221.012939,25.7773437 221.012939,10 221.012939,10 C249.317016,10 395.305908,10 443.012939,10 C443.012939,17.8515625 443.012939,24.0664063 443.012939,35 C442.512939,80 413.012939,80 413.012939,125 C393.312254,125 353.93478,125 311.570312,125 C269.11975,125 223.670041,125 192.012939,125 C192.012939,80 220.517314,80 221.017314,35 Z"/>
    <path fill="#555" d="M267.292,32 L267.292,30.816 L270.412,30.816 L270.412,21.824 L270.3,21.824 L267.484,24.448 L266.7,23.6 L269.66,20.832 L271.756,20.832 L271.756,30.816 L274.636,30.816 L274.636,32 L267.292,32 Z M280.62,20.16 L281.9,20.16 L281.9,25.088 L281.964,25.088 C282.177334,24.5653307 282.489331,24.1786679 282.9,23.928 C283.310669,23.6773321 283.803997,23.552 284.38,23.552 C284.892003,23.552 285.355998,23.6533323 285.772,23.856 C286.188002,24.0586677 286.542665,24.3466648 286.836,24.72 C287.129335,25.0933352 287.353333,25.546664 287.508,26.08 C287.662667,26.613336 287.74,27.2106634 287.74,27.872 C287.74,28.5333366 287.662667,29.130664 287.508,29.664 C287.353333,30.197336 287.129335,30.6506648 286.836,31.024 C286.542665,31.3973352 286.188002,31.6853323 285.772,31.888 C285.355998,32.0906677 284.892003,32.192 284.38,32.192 C283.259994,32.192 282.454669,31.6800051 281.964,30.656 L281.9,30.656 L281.9,32 L280.62,32 L280.62,20.16 Z M284.028,31.04 C284.753337,31.04 285.323998,30.8133356 285.74,30.36 C286.156002,29.9066644 286.364,29.3120037 286.364,28.576 L286.364,27.168 C286.364,26.4319963 286.156002,25.8373356 285.74,25.384 C285.323998,24.9306644 284.753337,24.704 284.028,24.704 C283.739999,24.704 283.465335,24.7439996 283.204,24.824 C282.942665,24.9040004 282.716001,25.0133326 282.524,25.152 C282.331999,25.2906674 282.180001,25.4586657 282.068,25.656 C281.955999,25.8533343 281.9,26.0639989 281.9,26.288 L281.9,29.36 C281.9,29.626668 281.955999,29.863999 282.068,30.072 C282.180001,30.280001 282.331999,30.4559993 282.524,30.6 C282.716001,30.7440007 282.942665,30.853333 283.204,30.928 C283.465335,31.002667 283.739999,31.04 284.028,31.04 Z M290.54,21.808 C290.262665,21.808 290.062667,21.741334 289.94,21.608 C289.817333,21.474666 289.756,21.3013344 289.756,21.088 L289.756,20.88 C289.756,20.6666656 289.817333,20.493334 289.94,20.36 C290.062667,20.226666 290.262665,20.16 290.54,20.16 C290.817335,20.16 291.017333,20.226666 291.14,20.36 C291.262667,20.493334 291.324,20.6666656 291.324,20.88 L291.324,21.088 C291.324,21.3013344 291.262667,21.474666 291.14,21.608 C291.017333,21.741334 290.817335,21.808 290.54,21.808 Z M289.9,23.744 L291.18,23.744 L291.18,32 L289.9,32 L289.9,23.744 Z M295.724,32 C295.275998,32 294.937334,31.8746679 294.708,31.624 C294.478666,31.3733321 294.364,31.0453354 294.364,30.64 L294.364,24.864 L293.004,24.864 L293.004,23.744 L293.772,23.744 C294.049335,23.744 294.238666,23.6880006 294.34,23.576 C294.441334,23.4639994 294.492,23.2693347 294.492,22.992 L294.492,21.456 L295.644,21.456 L295.644,23.744 L297.452,23.744 L297.452,24.864 L295.644,24.864 L295.644,30.88 L297.324,30.88 L297.324,32 L295.724,32 Z M306.412,32.192 C305.857331,32.192 305.350669,32.0906677 304.892,31.888 C304.433331,31.6853323 304.041335,31.3946686 303.716,31.016 C303.390665,30.6373314 303.137334,30.1840026 302.956,29.656 C302.774666,29.1279974 302.684,28.5333366 302.684,27.872 C302.684,27.2213301 302.774666,26.629336 302.956,26.096 C303.137334,25.562664 303.390665,25.1066686 303.716,24.728 C304.041335,24.3493314 304.433331,24.0586677 304.892,23.856 C305.350669,23.6533323 305.857331,23.552 306.412,23.552 C306.966669,23.552 307.470664,23.6533323 307.924,23.856 C308.377336,24.0586677 308.769332,24.3493314 309.1,24.728 C309.430668,25.1066686 309.686666,25.562664 309.868,26.096 C310.049334,26.629336 310.14,27.2213301 310.14,27.872 C310.14,28.5333366 310.049334,29.1279974 309.868,29.656 C309.686666,30.1840026 309.430668,30.6373314 309.1,31.016 C308.769332,31.3946686 308.377336,31.6853323 307.924,31.888 C307.470664,32.0906677 306.966669,32.192 306.412,32.192 Z M306.412,31.056 C307.105337,31.056 307.670664,30.8426688 308.108,30.416 C308.545336,29.9893312 308.764,29.338671 308.764,28.464 L308.764,27.28 C308.764,26.405329 308.545336,25.7546688 308.108,25.328 C307.670664,24.9013312 307.105337,24.688 306.412,24.688 C305.718663,24.688 305.153336,24.9013312 304.716,25.328 C304.278664,25.7546688 304.06,26.405329 304.06,27.28 L304.06,28.464 C304.06,29.338671 304.278664,29.9893312 304.716,30.416 C305.153336,30.8426688 305.718663,31.056 306.412,31.056 Z M312.604,24.864 L311.26,24.864 L311.26,23.744 L312.604,23.744 L312.604,22.08 C312.604,21.5039971 312.753332,21.0400018 313.052,20.688 C313.350668,20.3359982 313.803997,20.16 314.412,20.16 L315.66,20.16 L315.66,21.28 L313.884,21.28 L313.884,23.744 L315.66,23.744 L315.66,24.864 L313.884,24.864 L313.884,32 L312.604,32 L312.604,24.864 Z M323.596,32.192 C322.827996,32.192 322.185336,32.0453348 321.668,31.752 C321.150664,31.4586652 320.705335,31.0666691 320.332,30.576 L321.244,29.84 C321.564002,30.2453354 321.921331,30.5573322 322.316,30.776 C322.710669,30.9946678 323.169331,31.104 323.692,31.104 C324.236003,31.104 324.659998,30.9866678 324.964,30.752 C325.268002,30.5173322 325.42,30.1866688 325.42,29.76 C325.42,29.4399984 325.316001,29.1653345 325.108,28.936 C324.899999,28.7066655 324.524003,28.5493338 323.98,28.464 L323.324,28.368 C322.939998,28.3146664 322.588002,28.2320006 322.268,28.12 C321.947998,28.0079994 321.668001,27.8586676 321.428,27.672 C321.187999,27.4853324 321.001334,27.2533347 320.868,26.976 C320.734666,26.6986653 320.668,26.3680019 320.668,25.984 C320.668,25.5786646 320.742666,25.2240015 320.892,24.92 C321.041334,24.6159985 321.246665,24.3626677 321.508,24.16 C321.769335,23.9573323 322.081332,23.8053338 322.444,23.704 C322.806668,23.6026662 323.195998,23.552 323.612,23.552 C324.284003,23.552 324.846664,23.6693322 325.3,23.904 C325.753336,24.1386678 326.150665,24.4639979 326.492,24.88 L325.644,25.648 C325.462666,25.3919987 325.196002,25.160001 324.844,24.952 C324.491998,24.743999 324.049336,24.64 323.516,24.64 C322.982664,24.64 322.580001,24.7546655 322.308,24.984 C322.035999,25.2133345 321.9,25.5253314 321.9,25.92 C321.9,26.3253354 322.035999,26.6186658 322.308,26.8 C322.580001,26.9813342 322.971997,27.1146662 323.484,27.2 L324.124,27.296 C325.041338,27.4346674 325.691998,27.6986647 326.076,28.088 C326.460002,28.4773353 326.652,28.9866635 326.652,29.616 C326.652,30.416004 326.380003,31.045331 325.836,31.504 C325.291997,31.962669 324.545338,32.192 323.596,32.192 Z M329.548,21.808 C329.270665,21.808 329.070667,21.741334 328.948,21.608 C328.825333,21.474666 328.764,21.3013344 328.764,21.088 L328.764,20.88 C328.764,20.6666656 328.825333,20.493334 328.948,20.36 C329.070667,20.226666 329.270665,20.16 329.548,20.16 C329.825335,20.16 330.025333,20.226666 330.148,20.36 C330.270667,20.493334 330.332,20.6666656 330.332,20.88 L330.332,21.088 C330.332,21.3013344 330.270667,21.474666 330.148,21.608 C330.025333,21.741334 329.825335,21.808 329.548,21.808 Z M328.908,23.744 L330.188,23.744 L330.188,32 L328.908,32 L328.908,23.744 Z M339.868,32.912 C339.868,33.7653376 339.53467,34.391998 338.868,34.792 C338.20133,35.192002 337.20134,35.392 335.868,35.392 C334.577327,35.392 333.649336,35.2160018 333.084,34.864 C332.518664,34.5119982 332.236,34.0106699 332.236,33.36 C332.236,32.9119978 332.353332,32.5626679 332.588,32.312 C332.822668,32.0613321 333.142665,31.8773339 333.548,31.76 L333.548,31.584 C333.057331,31.3493322 332.812,30.965336 332.812,30.432 C332.812,30.0159979 332.945332,29.6986678 333.212,29.48 C333.478668,29.2613322 333.819998,29.0986672 334.236,28.992 L334.236,28.928 C333.745331,28.6933322 333.364001,28.3573355 333.092,27.92 C332.819999,27.4826645 332.684,26.9760029 332.684,26.4 C332.684,25.9839979 332.758666,25.6000018 332.908,25.248 C333.057334,24.8959982 333.267999,24.5946679 333.54,24.344 C333.812001,24.0933321 334.137331,23.8986674 334.516,23.76 C334.894669,23.6213326 335.318664,23.552 335.788,23.552 C336.37467,23.552 336.897331,23.6586656 337.356,23.872 L337.356,23.728 C337.356,23.4079984 337.430666,23.144001 337.58,22.936 C337.729334,22.727999 337.974665,22.624 338.316,22.624 L339.548,22.624 L339.548,23.744 L337.98,23.744 L337.98,24.272 C338.278668,24.5280013 338.510666,24.8346649 338.676,25.192 C338.841334,25.5493351 338.924,25.9519978 338.924,26.4 C338.924,26.8160021 338.849334,27.1999982 338.7,27.552 C338.550666,27.9040018 338.340001,28.2053321 338.068,28.456 C337.795999,28.7066679 337.468002,28.9013326 337.084,29.04 C336.699998,29.1786674 336.273336,29.248 335.804,29.248 C335.537332,29.248 335.270668,29.2213336 335.004,29.168 C334.726665,29.242667 334.476001,29.3519993 334.252,29.496 C334.027999,29.6400007 333.916,29.8399987 333.916,30.096 C333.916,30.3413346 334.033332,30.5066662 334.268,30.592 C334.502668,30.6773338 334.806665,30.72 335.18,30.72 L336.94,30.72 C337.964005,30.72 338.707998,30.9146647 339.172,31.304 C339.636002,31.6933353 339.868,32.2293299 339.868,32.912 Z M338.668,33.008 C338.668,32.6773317 338.542668,32.4133343 338.292,32.216 C338.041332,32.0186657 337.596003,31.92 336.956,31.92 L334.204,31.92 C333.691997,32.1546678 333.436,32.5279974 333.436,33.04 C333.436,33.4026685 333.571999,33.7119987 333.844,33.968 C334.116001,34.2240013 334.57733,34.352 335.228,34.352 L336.412,34.352 C337.12667,34.352 337.681331,34.2400011 338.076,34.016 C338.470669,33.7919989 338.668,33.4560022 338.668,33.008 Z M335.804,28.224 C336.348003,28.224 336.779998,28.0933346 337.1,27.832 C337.420002,27.5706654 337.58,27.1680027 337.58,26.624 L337.58,26.176 C337.58,25.6319973 337.420002,25.2293346 337.1,24.968 C336.779998,24.7066654 336.348003,24.576 335.804,24.576 C335.259997,24.576 334.828002,24.7066654 334.508,24.968 C334.187998,25.2293346 334.028,25.6319973 334.028,26.176 L334.028,26.624 C334.028,27.1680027 334.187998,27.5706654 334.508,27.832 C334.828002,28.0933346 335.259997,28.224 335.804,28.224 Z M341.356,32 L341.356,23.744 L342.636,23.744 L342.636,25.088 L342.7,25.088 C342.902668,24.6186643 343.187998,24.2453347 343.556,23.968 C343.924002,23.6906653 344.41733,23.552 345.036,23.552 C345.889338,23.552 346.563998,23.8266639 347.06,24.376 C347.556002,24.9253361 347.804,25.7013283 347.804,26.704 L347.804,32 L346.524,32 L346.524,26.928 C346.524,25.4453259 345.900006,24.704 344.652,24.704 C344.395999,24.704 344.148001,24.7359997 343.908,24.8 C343.667999,24.8640003 343.452001,24.9599994 343.26,25.088 C343.067999,25.2160006 342.916001,25.3786657 342.804,25.576 C342.691999,25.7733343 342.636,26.005332 342.636,26.272 L342.636,32 L341.356,32 Z M351.084,21.808 C350.806665,21.808 350.606667,21.741334 350.484,21.608 C350.361333,21.474666 350.3,21.3013344 350.3,21.088 L350.3,20.88 C350.3,20.6666656 350.361333,20.493334 350.484,20.36 C350.606667,20.226666 350.806665,20.16 351.084,20.16 C351.361335,20.16 351.561333,20.226666 351.684,20.36 C351.806667,20.493334 351.868,20.6666656 351.868,20.88 L351.868,21.088 C351.868,21.3013344 351.806667,21.474666 351.684,21.608 C351.561333,21.741334 351.361335,21.808 351.084,21.808 Z M350.444,23.744 L351.724,23.744 L351.724,32 L350.444,32 L350.444,23.744 Z M354.892,24.864 L353.548,24.864 L353.548,23.744 L354.892,23.744 L354.892,22.08 C354.892,21.5039971 355.041332,21.0400018 355.34,20.688 C355.638668,20.3359982 356.091997,20.16 356.7,20.16 L357.948,20.16 L357.948,21.28 L356.172,21.28 L356.172,23.744 L360.796,23.744 L360.796,32 L359.516,32 L359.516,24.864 L356.172,24.864 L356.172,32 L354.892,32 L354.892,24.864 Z M360.156,21.808 C359.878665,21.808 359.678667,21.741334 359.556,21.608 C359.433333,21.474666 359.372,21.3013344 359.372,21.088 L359.372,20.88 C359.372,20.6666656 359.433333,20.493334 359.556,20.36 C359.678667,20.226666 359.878665,20.16 360.156,20.16 C360.433335,20.16 360.633333,20.226666 360.756,20.36 C360.878667,20.493334 360.94,20.6666656 360.94,20.88 L360.94,21.088 C360.94,21.3013344 360.878667,21.474666 360.756,21.608 C360.633333,21.741334 360.433335,21.808 360.156,21.808 Z M366.588,32.192 C366.011997,32.192 365.494669,32.0906677 365.036,31.888 C364.577331,31.6853323 364.190668,31.3973352 363.876,31.024 C363.561332,30.6506648 363.321334,30.197336 363.156,29.664 C362.990666,29.130664 362.908,28.5333366 362.908,27.872 C362.908,27.2106634 362.990666,26.613336 363.156,26.08 C363.321334,25.546664 363.561332,25.0933352 363.876,24.72 C364.190668,24.3466648 364.577331,24.0586677 365.036,23.856 C365.494669,23.6533323 366.011997,23.552 366.588,23.552 C367.409337,23.552 368.067998,23.7306649 368.564,24.088 C369.060002,24.4453351 369.430665,24.9119971 369.676,25.488 L368.604,26.032 C368.454666,25.6053312 368.209335,25.2746678 367.868,25.04 C367.526665,24.8053322 367.100003,24.688 366.588,24.688 C366.203998,24.688 365.868001,24.7493327 365.58,24.872 C365.291999,24.9946673 365.052001,25.1653322 364.86,25.384 C364.667999,25.6026678 364.524,25.8639985 364.428,26.168 C364.332,26.4720015 364.284,26.8053315 364.284,27.168 L364.284,28.576 C364.284,29.301337 364.478665,29.8959977 364.868,30.36 C365.257335,30.8240023 365.830663,31.056 366.588,31.056 C367.622672,31.056 368.369331,30.5760048 368.828,29.616 L369.756,30.24 C369.489332,30.8373363 369.092003,31.3119982 368.564,31.664 C368.035997,32.0160018 367.377337,32.192 366.588,32.192 Z M377.564,32 C377.083998,32 376.740001,31.8720013 376.532,31.616 C376.323999,31.3599987 376.193334,31.0400019 376.14,30.656 L376.06,30.656 C375.878666,31.1680026 375.580002,31.5519987 375.164,31.808 C374.747998,32.0640013 374.252003,32.192 373.676,32.192 C372.801329,32.192 372.121336,31.9680022 371.636,31.52 C371.150664,31.0719978 370.908,30.4640038 370.908,29.696 C370.908,28.9173294 371.19333,28.3200021 371.764,27.904 C372.33467,27.4879979 373.222661,27.28 374.428,27.28 L376.06,27.28 L376.06,26.464 C376.06,25.8773304 375.900002,25.4293349 375.58,25.12 C375.259998,24.8106651 374.769337,24.656 374.108,24.656 C373.606664,24.656 373.188002,24.7679989 372.852,24.992 C372.515998,25.2160011 372.236001,25.5146648 372.012,25.888 L371.244,25.168 C371.468001,24.7199978 371.825331,24.3386682 372.316,24.024 C372.806669,23.7093318 373.42533,23.552 374.172,23.552 C375.174672,23.552 375.953331,23.7973309 376.508,24.288 C377.062669,24.7786691 377.34,25.461329 377.34,26.336 L377.34,30.88 L378.284,30.88 L378.284,32 L377.564,32 Z M373.884,31.104 C374.204002,31.104 374.497332,31.066667 374.764,30.992 C375.030668,30.917333 375.259999,30.8106674 375.452,30.672 C375.644001,30.5333326 375.793333,30.3733342 375.9,30.192 C376.006667,30.0106658 376.06,29.8133344 376.06,29.6 L376.06,28.24 L374.364,28.24 C373.627996,28.24 373.092002,28.3466656 372.756,28.56 C372.419998,28.7733344 372.252,29.0826646 372.252,29.488 L372.252,29.824 C372.252,30.2293354 372.398665,30.5439989 372.692,30.768 C372.985335,30.9920011 373.382664,31.104 373.884,31.104 Z M380.108,32 L380.108,23.744 L381.388,23.744 L381.388,25.088 L381.452,25.088 C381.654668,24.6186643 381.939998,24.2453347 382.308,23.968 C382.676002,23.6906653 383.16933,23.552 383.788,23.552 C384.641338,23.552 385.315998,23.8266639 385.812,24.376 C386.308002,24.9253361 386.556,25.7013283 386.556,26.704 L386.556,32 L385.276,32 L385.276,26.928 C385.276,25.4453259 384.652006,24.704 383.404,24.704 C383.147999,24.704 382.900001,24.7359997 382.66,24.8 C382.419999,24.8640003 382.204001,24.9599994 382.012,25.088 C381.819999,25.2160006 381.668001,25.3786657 381.556,25.576 C381.443999,25.7733343 381.388,26.005332 381.388,26.272 L381.388,32 L380.108,32 Z M394.476,30.656 L394.412,30.656 C393.910664,31.6800051 393.105339,32.192 391.996,32.192 C391.483997,32.192 391.020002,32.0906677 390.604,31.888 C390.187998,31.6853323 389.833335,31.3973352 389.54,31.024 C389.246665,30.6506648 389.022667,30.197336 388.868,29.664 C388.713333,29.130664 388.636,28.5333366 388.636,27.872 C388.636,27.2106634 388.713333,26.613336 388.868,26.08 C389.022667,25.546664 389.246665,25.0933352 389.54,24.72 C389.833335,24.3466648 390.187998,24.0586677 390.604,23.856 C391.020002,23.6533323 391.483997,23.552 391.996,23.552 C392.572003,23.552 393.065331,23.6773321 393.476,23.928 C393.886669,24.1786679 394.198666,24.5653307 394.412,25.088 L394.476,25.088 L394.476,20.16 L395.756,20.16 L395.756,32 L394.476,32 L394.476,30.656 Z M392.348,31.04 C392.636001,31.04 392.910665,31.002667 393.172,30.928 C393.433335,30.853333 393.659999,30.7440007 393.852,30.6 C394.044001,30.4559993 394.195999,30.280001 394.308,30.072 C394.420001,29.863999 394.476,29.626668 394.476,29.36 L394.476,26.288 C394.476,26.0639989 394.420001,25.8533343 394.308,25.656 C394.195999,25.4586657 394.044001,25.2906674 393.852,25.152 C393.659999,25.0133326 393.433335,24.9040004 393.172,24.824 C392.910665,24.7439996 392.636001,24.704 392.348,24.704 C391.622663,24.704 391.052002,24.9306644 390.636,25.384 C390.219998,25.8373356 390.012,26.4319963 390.012,27.168 L390.012,28.576 C390.012,29.3120037 390.219998,29.9066644 390.636,30.36 C391.052002,30.8133356 391.622663,31.04 392.348,31.04 Z"/>
    <path fill="#577EC7" fill-opacity=".3" d="M11.0173136,35 C11.0129391,25.7773437 11.0112317,10 11.0112317,10 C39.317016,10 125.305908,10 173.012939,10 C173.012939,17.8515625 173.012939,24.0664063 173.012939,35 C172.512939,80 192.012939,80 192.012939,125 C152.571533,125 144.262939,125 81.0129391,125 C81.0129391,80 10.5173136,80 11.0173136,35 Z"/>
    <path fill="#555" d="M26.292,32 L26.292,30.816 L29.412,30.816 L29.412,21.824 L29.3,21.824 L26.484,24.448 L25.7,23.6 L28.66,20.832 L30.756,20.832 L30.756,30.816 L33.636,30.816 L33.636,32 L26.292,32 Z M39.62,20.16 L40.9,20.16 L40.9,25.088 L40.964,25.088 C41.1773344,24.5653307 41.4893313,24.1786679 41.9,23.928 C42.3106687,23.6773321 42.8039971,23.552 43.38,23.552 C43.8920026,23.552 44.3559979,23.6533323 44.772,23.856 C45.1880021,24.0586677 45.5426652,24.3466648 45.836,24.72 C46.1293348,25.0933352 46.3533326,25.546664 46.508,26.08 C46.6626674,26.613336 46.74,27.2106634 46.74,27.872 C46.74,28.5333366 46.6626674,29.130664 46.508,29.664 C46.3533326,30.197336 46.1293348,30.6506648 45.836,31.024 C45.5426652,31.3973352 45.1880021,31.6853323 44.772,31.888 C44.3559979,32.0906677 43.8920026,32.192 43.38,32.192 C42.2599944,32.192 41.4546691,31.6800051 40.964,30.656 L40.9,30.656 L40.9,32 L39.62,32 L39.62,20.16 Z M43.028,31.04 C43.753337,31.04 44.3239979,30.8133356 44.74,30.36 C45.1560021,29.9066644 45.364,29.3120037 45.364,28.576 L45.364,27.168 C45.364,26.4319963 45.1560021,25.8373356 44.74,25.384 C44.3239979,24.9306644 43.753337,24.704 43.028,24.704 C42.7399986,24.704 42.4653346,24.7439996 42.204,24.824 C41.9426654,24.9040004 41.716001,25.0133326 41.524,25.152 C41.331999,25.2906674 41.1800006,25.4586657 41.068,25.656 C40.9559994,25.8533343 40.9,26.0639989 40.9,26.288 L40.9,29.36 C40.9,29.626668 40.9559994,29.863999 41.068,30.072 C41.1800006,30.280001 41.331999,30.4559993 41.524,30.6 C41.716001,30.7440007 41.9426654,30.853333 42.204,30.928 C42.4653346,31.002667 42.7399986,31.04 43.028,31.04 Z M49.54,21.808 C49.2626653,21.808 49.0626673,21.741334 48.94,21.608 C48.8173327,21.474666 48.756,21.3013344 48.756,21.088 L48.756,20.88 C48.756,20.6666656 48.8173327,20.493334 48.94,20.36 C49.0626673,20.226666 49.2626653,20.16 49.54,20.16 C49.8173347,20.16 50.0173327,20.226666 50.14,20.36 C50.2626673,20.493334 50.324,20.6666656 50.324,20.88 L50.324,21.088 C50.324,21.3013344 50.2626673,21.474666 50.14,21.608 C50.0173327,21.741334 49.8173347,21.808 49.54,21.808 Z M48.9,23.744 L50.18,23.744 L50.18,32 L48.9,32 L48.9,23.744 Z M54.724,32 C54.2759978,32 53.9373345,31.8746679 53.708,31.624 C53.4786655,31.3733321 53.364,31.0453354 53.364,30.64 L53.364,24.864 L52.004,24.864 L52.004,23.744 L52.772,23.744 C53.0493347,23.744 53.2386662,23.6880006 53.34,23.576 C53.4413338,23.4639994 53.492,23.2693347 53.492,22.992 L53.492,21.456 L54.644,21.456 L54.644,23.744 L56.452,23.744 L56.452,24.864 L54.644,24.864 L54.644,30.88 L56.324,30.88 L56.324,32 L54.724,32 Z M65.412,32.192 C64.8573306,32.192 64.350669,32.0906677 63.892,31.888 C63.433331,31.6853323 63.041335,31.3946686 62.716,31.016 C62.390665,30.6373314 62.1373342,30.1840026 61.956,29.656 C61.7746658,29.1279974 61.684,28.5333366 61.684,27.872 C61.684,27.2213301 61.7746658,26.629336 61.956,26.096 C62.1373342,25.562664 62.390665,25.1066686 62.716,24.728 C63.041335,24.3493314 63.433331,24.0586677 63.892,23.856 C64.350669,23.6533323 64.8573306,23.552 65.412,23.552 C65.9666694,23.552 66.4706644,23.6533323 66.924,23.856 C67.3773356,24.0586677 67.7693317,24.3493314 68.1,24.728 C68.4306683,25.1066686 68.6866658,25.562664 68.868,26.096 C69.0493342,26.629336 69.14,27.2213301 69.14,27.872 C69.14,28.5333366 69.0493342,29.1279974 68.868,29.656 C68.6866658,30.1840026 68.4306683,30.6373314 68.1,31.016 C67.7693317,31.3946686 67.3773356,31.6853323 66.924,31.888 C66.4706644,32.0906677 65.9666694,32.192 65.412,32.192 Z M65.412,31.056 C66.1053368,31.056 66.6706645,30.8426688 67.108,30.416 C67.5453355,29.9893312 67.764,29.338671 67.764,28.464 L67.764,27.28 C67.764,26.405329 67.5453355,25.7546688 67.108,25.328 C66.6706645,24.9013312 66.1053368,24.688 65.412,24.688 C64.7186632,24.688 64.1533355,24.9013312 63.716,25.328 C63.2786645,25.7546688 63.06,26.405329 63.06,27.28 L63.06,28.464 C63.06,29.338671 63.2786645,29.9893312 63.716,30.416 C64.1533355,30.8426688 64.7186632,31.056 65.412,31.056 Z M71.604,24.864 L70.26,24.864 L70.26,23.744 L71.604,23.744 L71.604,22.08 C71.604,21.5039971 71.7533318,21.0400018 72.052,20.688 C72.3506682,20.3359982 72.803997,20.16 73.412,20.16 L74.66,20.16 L74.66,21.28 L72.884,21.28 L72.884,23.744 L74.66,23.744 L74.66,24.864 L72.884,24.864 L72.884,32 L71.604,32 L71.604,24.864 Z M82.596,32.192 C81.8279962,32.192 81.1853359,32.0453348 80.668,31.752 C80.1506641,31.4586652 79.7053352,31.0666691 79.332,30.576 L80.244,29.84 C80.5640016,30.2453354 80.9213314,30.5573322 81.316,30.776 C81.7106686,30.9946678 82.1693307,31.104 82.692,31.104 C83.2360027,31.104 83.6599985,30.9866678 83.964,30.752 C84.2680015,30.5173322 84.42,30.1866688 84.42,29.76 C84.42,29.4399984 84.316001,29.1653345 84.108,28.936 C83.899999,28.7066655 83.5240027,28.5493338 82.98,28.464 L82.324,28.368 C81.9399981,28.3146664 81.5880016,28.2320006 81.268,28.12 C80.9479984,28.0079994 80.6680012,27.8586676 80.428,27.672 C80.1879988,27.4853324 80.001334,27.2533347 79.868,26.976 C79.734666,26.6986653 79.668,26.3680019 79.668,25.984 C79.668,25.5786646 79.7426659,25.2240015 79.892,24.92 C80.0413341,24.6159985 80.2466654,24.3626677 80.508,24.16 C80.7693346,23.9573323 81.0813315,23.8053338 81.444,23.704 C81.8066685,23.6026662 82.1959979,23.552 82.612,23.552 C83.2840034,23.552 83.8466644,23.6693322 84.3,23.904 C84.7533356,24.1386678 85.150665,24.4639979 85.492,24.88 L84.644,25.648 C84.4626658,25.3919987 84.1960018,25.160001 83.844,24.952 C83.4919982,24.743999 83.049336,24.64 82.516,24.64 C81.982664,24.64 81.5800014,24.7546655 81.308,24.984 C81.0359986,25.2133345 80.9,25.5253314 80.9,25.92 C80.9,26.3253354 81.0359986,26.6186658 81.308,26.8 C81.5800014,26.9813342 81.9719974,27.1146662 82.484,27.2 L83.124,27.296 C84.0413379,27.4346674 84.6919981,27.6986647 85.076,28.088 C85.4600019,28.4773353 85.652,28.9866635 85.652,29.616 C85.652,30.416004 85.3800027,31.045331 84.836,31.504 C84.2919973,31.962669 83.5453381,32.192 82.596,32.192 Z M88.548,21.808 C88.2706653,21.808 88.0706673,21.741334 87.948,21.608 C87.8253327,21.474666 87.764,21.3013344 87.764,21.088 L87.764,20.88 C87.764,20.6666656 87.8253327,20.493334 87.948,20.36 C88.0706673,20.226666 88.2706653,20.16 88.548,20.16 C88.8253347,20.16 89.0253327,20.226666 89.148,20.36 C89.2706673,20.493334 89.332,20.6666656 89.332,20.88 L89.332,21.088 C89.332,21.3013344 89.2706673,21.474666 89.148,21.608 C89.0253327,21.741334 88.8253347,21.808 88.548,21.808 Z M87.908,23.744 L89.188,23.744 L89.188,32 L87.908,32 L87.908,23.744 Z M98.868,32.912 C98.868,33.7653376 98.53467,34.391998 97.868,34.792 C97.20133,35.192002 96.20134,35.392 94.868,35.392 C93.5773269,35.392 92.6493362,35.2160018 92.084,34.864 C91.5186638,34.5119982 91.236,34.0106699 91.236,33.36 C91.236,32.9119978 91.3533322,32.5626679 91.588,32.312 C91.8226678,32.0613321 92.1426646,31.8773339 92.548,31.76 L92.548,31.584 C92.0573309,31.3493322 91.812,30.965336 91.812,30.432 C91.812,30.0159979 91.945332,29.6986678 92.212,29.48 C92.478668,29.2613322 92.8199979,29.0986672 93.236,28.992 L93.236,28.928 C92.7453309,28.6933322 92.3640014,28.3573355 92.092,27.92 C91.8199986,27.4826645 91.684,26.9760029 91.684,26.4 C91.684,25.9839979 91.7586659,25.6000018 91.908,25.248 C92.0573341,24.8959982 92.2679986,24.5946679 92.54,24.344 C92.8120014,24.0933321 93.1373314,23.8986674 93.516,23.76 C93.8946686,23.6213326 94.3186643,23.552 94.788,23.552 C95.3746696,23.552 95.897331,23.6586656 96.356,23.872 L96.356,23.728 C96.356,23.4079984 96.4306659,23.144001 96.58,22.936 C96.7293341,22.727999 96.974665,22.624 97.316,22.624 L98.548,22.624 L98.548,23.744 L96.98,23.744 L96.98,24.272 C97.2786682,24.5280013 97.5106658,24.8346649 97.676,25.192 C97.8413342,25.5493351 97.924,25.9519978 97.924,26.4 C97.924,26.8160021 97.8493341,27.1999982 97.7,27.552 C97.5506659,27.9040018 97.3400014,28.2053321 97.068,28.456 C96.7959986,28.7066679 96.4680019,28.9013326 96.084,29.04 C95.6999981,29.1786674 95.2733357,29.248 94.804,29.248 C94.537332,29.248 94.270668,29.2213336 94.004,29.168 C93.7266653,29.242667 93.4760011,29.3519993 93.252,29.496 C93.0279989,29.6400007 92.916,29.8399987 92.916,30.096 C92.916,30.3413346 93.0333322,30.5066662 93.268,30.592 C93.5026678,30.6773338 93.8066648,30.72 94.18,30.72 L95.94,30.72 C96.9640051,30.72 97.7079977,30.9146647 98.172,31.304 C98.6360023,31.6933353 98.868,32.2293299 98.868,32.912 Z M97.668,33.008 C97.668,32.6773317 97.5426679,32.4133343 97.292,32.216 C97.0413321,32.0186657 96.5960032,31.92 95.956,31.92 L93.204,31.92 C92.6919974,32.1546678 92.436,32.5279974 92.436,33.04 C92.436,33.4026685 92.5719986,33.7119987 92.844,33.968 C93.1160014,34.2240013 93.5773301,34.352 94.228,34.352 L95.412,34.352 C96.1266702,34.352 96.6813314,34.2400011 97.076,34.016 C97.4706686,33.7919989 97.668,33.4560022 97.668,33.008 Z M94.804,28.224 C95.3480027,28.224 95.7799984,28.0933346 96.1,27.832 C96.4200016,27.5706654 96.58,27.1680027 96.58,26.624 L96.58,26.176 C96.58,25.6319973 96.4200016,25.2293346 96.1,24.968 C95.7799984,24.7066654 95.3480027,24.576 94.804,24.576 C94.2599973,24.576 93.8280016,24.7066654 93.508,24.968 C93.1879984,25.2293346 93.028,25.6319973 93.028,26.176 L93.028,26.624 C93.028,27.1680027 93.1879984,27.5706654 93.508,27.832 C93.8280016,28.0933346 94.2599973,28.224 94.804,28.224 Z M100.356,32 L100.356,23.744 L101.636,23.744 L101.636,25.088 L101.7,25.088 C101.902668,24.6186643 102.187998,24.2453347 102.556,23.968 C102.924002,23.6906653 103.41733,23.552 104.036,23.552 C104.889338,23.552 105.563998,23.8266639 106.06,24.376 C106.556002,24.9253361 106.804,25.7013283 106.804,26.704 L106.804,32 L105.524,32 L105.524,26.928 C105.524,25.4453259 104.900006,24.704 103.652,24.704 C103.395999,24.704 103.148001,24.7359997 102.908,24.8 C102.667999,24.8640003 102.452001,24.9599994 102.26,25.088 C102.067999,25.2160006 101.916001,25.3786657 101.804,25.576 C101.691999,25.7733343 101.636,26.005332 101.636,26.272 L101.636,32 L100.356,32 Z M110.084,21.808 C109.806665,21.808 109.606667,21.741334 109.484,21.608 C109.361333,21.474666 109.3,21.3013344 109.3,21.088 L109.3,20.88 C109.3,20.6666656 109.361333,20.493334 109.484,20.36 C109.606667,20.226666 109.806665,20.16 110.084,20.16 C110.361335,20.16 110.561333,20.226666 110.684,20.36 C110.806667,20.493334 110.868,20.6666656 110.868,20.88 L110.868,21.088 C110.868,21.3013344 110.806667,21.474666 110.684,21.608 C110.561333,21.741334 110.361335,21.808 110.084,21.808 Z M109.444,23.744 L110.724,23.744 L110.724,32 L109.444,32 L109.444,23.744 Z M113.892,24.864 L112.548,24.864 L112.548,23.744 L113.892,23.744 L113.892,22.08 C113.892,21.5039971 114.041332,21.0400018 114.34,20.688 C114.638668,20.3359982 115.091997,20.16 115.7,20.16 L116.948,20.16 L116.948,21.28 L115.172,21.28 L115.172,23.744 L119.796,23.744 L119.796,32 L118.516,32 L118.516,24.864 L115.172,24.864 L115.172,32 L113.892,32 L113.892,24.864 Z M119.156,21.808 C118.878665,21.808 118.678667,21.741334 118.556,21.608 C118.433333,21.474666 118.372,21.3013344 118.372,21.088 L118.372,20.88 C118.372,20.6666656 118.433333,20.493334 118.556,20.36 C118.678667,20.226666 118.878665,20.16 119.156,20.16 C119.433335,20.16 119.633333,20.226666 119.756,20.36 C119.878667,20.493334 119.94,20.6666656 119.94,20.88 L119.94,21.088 C119.94,21.3013344 119.878667,21.474666 119.756,21.608 C119.633333,21.741334 119.433335,21.808 119.156,21.808 Z M125.588,32.192 C125.011997,32.192 124.494669,32.0906677 124.036,31.888 C123.577331,31.6853323 123.190668,31.3973352 122.876,31.024 C122.561332,30.6506648 122.321334,30.197336 122.156,29.664 C121.990666,29.130664 121.908,28.5333366 121.908,27.872 C121.908,27.2106634 121.990666,26.613336 122.156,26.08 C122.321334,25.546664 122.561332,25.0933352 122.876,24.72 C123.190668,24.3466648 123.577331,24.0586677 124.036,23.856 C124.494669,23.6533323 125.011997,23.552 125.588,23.552 C126.409337,23.552 127.067998,23.7306649 127.564,24.088 C128.060002,24.4453351 128.430665,24.9119971 128.676,25.488 L127.604,26.032 C127.454666,25.6053312 127.209335,25.2746678 126.868,25.04 C126.526665,24.8053322 126.100003,24.688 125.588,24.688 C125.203998,24.688 124.868001,24.7493327 124.58,24.872 C124.291999,24.9946673 124.052001,25.1653322 123.86,25.384 C123.667999,25.6026678 123.524,25.8639985 123.428,26.168 C123.332,26.4720015 123.284,26.8053315 123.284,27.168 L123.284,28.576 C123.284,29.301337 123.478665,29.8959977 123.868,30.36 C124.257335,30.8240023 124.830663,31.056 125.588,31.056 C126.622672,31.056 127.369331,30.5760048 127.828,29.616 L128.756,30.24 C128.489332,30.8373363 128.092003,31.3119982 127.564,31.664 C127.035997,32.0160018 126.377337,32.192 125.588,32.192 Z M136.564,32 C136.083998,32 135.740001,31.8720013 135.532,31.616 C135.323999,31.3599987 135.193334,31.0400019 135.14,30.656 L135.06,30.656 C134.878666,31.1680026 134.580002,31.5519987 134.164,31.808 C133.747998,32.0640013 133.252003,32.192 132.676,32.192 C131.801329,32.192 131.121336,31.9680022 130.636,31.52 C130.150664,31.0719978 129.908,30.4640038 129.908,29.696 C129.908,28.9173294 130.19333,28.3200021 130.764,27.904 C131.33467,27.4879979 132.222661,27.28 133.428,27.28 L135.06,27.28 L135.06,26.464 C135.06,25.8773304 134.900002,25.4293349 134.58,25.12 C134.259998,24.8106651 133.769337,24.656 133.108,24.656 C132.606664,24.656 132.188002,24.7679989 131.852,24.992 C131.515998,25.2160011 131.236001,25.5146648 131.012,25.888 L130.244,25.168 C130.468001,24.7199978 130.825331,24.3386682 131.316,24.024 C131.806669,23.7093318 132.42533,23.552 133.172,23.552 C134.174672,23.552 134.953331,23.7973309 135.508,24.288 C136.062669,24.7786691 136.34,25.461329 136.34,26.336 L136.34,30.88 L137.284,30.88 L137.284,32 L136.564,32 Z M132.884,31.104 C133.204002,31.104 133.497332,31.066667 133.764,30.992 C134.030668,30.917333 134.259999,30.8106674 134.452,30.672 C134.644001,30.5333326 134.793333,30.3733342 134.9,30.192 C135.006667,30.0106658 135.06,29.8133344 135.06,29.6 L135.06,28.24 L133.364,28.24 C132.627996,28.24 132.092002,28.3466656 131.756,28.56 C131.419998,28.7733344 131.252,29.0826646 131.252,29.488 L131.252,29.824 C131.252,30.2293354 131.398665,30.5439989 131.692,30.768 C131.985335,30.9920011 132.382664,31.104 132.884,31.104 Z M139.108,32 L139.108,23.744 L140.388,23.744 L140.388,25.088 L140.452,25.088 C140.654668,24.6186643 140.939998,24.2453347 141.308,23.968 C141.676002,23.6906653 142.16933,23.552 142.788,23.552 C143.641338,23.552 144.315998,23.8266639 144.812,24.376 C145.308002,24.9253361 145.556,25.7013283 145.556,26.704 L145.556,32 L144.276,32 L144.276,26.928 C144.276,25.4453259 143.652006,24.704 142.404,24.704 C142.147999,24.704 141.900001,24.7359997 141.66,24.8 C141.419999,24.8640003 141.204001,24.9599994 141.012,25.088 C140.819999,25.2160006 140.668001,25.3786657 140.556,25.576 C140.443999,25.7733343 140.388,26.005332 140.388,26.272 L140.388,32 L139.108,32 Z M153.476,30.656 L153.412,30.656 C152.910664,31.6800051 152.105339,32.192 150.996,32.192 C150.483997,32.192 150.020002,32.0906677 149.604,31.888 C149.187998,31.6853323 148.833335,31.3973352 148.54,31.024 C148.246665,30.6506648 148.022667,30.197336 147.868,29.664 C147.713333,29.130664 147.636,28.5333366 147.636,27.872 C147.636,27.2106634 147.713333,26.613336 147.868,26.08 C148.022667,25.546664 148.246665,25.0933352 148.54,24.72 C148.833335,24.3466648 149.187998,24.0586677 149.604,23.856 C150.020002,23.6533323 150.483997,23.552 150.996,23.552 C151.572003,23.552 152.065331,23.6773321 152.476,23.928 C152.886669,24.1786679 153.198666,24.5653307 153.412,25.088 L153.476,25.088 L153.476,20.16 L154.756,20.16 L154.756,32 L153.476,32 L153.476,30.656 Z M151.348,31.04 C151.636001,31.04 151.910665,31.002667 152.172,30.928 C152.433335,30.853333 152.659999,30.7440007 152.852,30.6 C153.044001,30.4559993 153.195999,30.280001 153.308,30.072 C153.420001,29.863999 153.476,29.626668 153.476,29.36 L153.476,26.288 C153.476,26.0639989 153.420001,25.8533343 153.308,25.656 C153.195999,25.4586657 153.044001,25.2906674 152.852,25.152 C152.659999,25.0133326 152.433335,24.9040004 152.172,24.824 C151.910665,24.7439996 151.636001,24.704 151.348,24.704 C150.622663,24.704 150.052002,24.9306644 149.636,25.384 C149.219998,25.8373356 149.012,26.4319963 149.012,27.168 L149.012,28.576 C149.012,29.3120037 149.219998,29.9066644 149.636,30.36 C150.052002,30.8133356 150.622663,31.04 151.348,31.04 Z"/>
    <polygon fill="#555" points="438.5 118 444 129 433 129" transform="rotate(90 438.5 123.5)"/>
    <path fill="#555" d="M374.008 154L374.008 152.816 377.128 152.816 377.128 143.824 377.016 143.824 374.2 146.448 373.416 145.6 376.376 142.832 378.472 142.832 378.472 152.816 381.352 152.816 381.352 154 374.008 154zM387.016 154.192C386.439997 154.192 385.920002 154.093334 385.456 153.896 384.991998 153.698666 384.597335 153.416002 384.272 153.048 383.946665 152.679998 383.698668 152.229336 383.528 151.696 383.357332 151.162664 383.272 150.565337 383.272 149.904 383.272 149.071996 383.394665 148.29067 383.64 147.56 383.885335 146.82933 384.202665 146.16267 384.592 145.56 384.981335 144.95733 385.410664 144.424002 385.88 143.96 386.349336 143.495998 386.807998 143.120001 387.256 142.832L388.984 142.832C388.386664 143.269336 387.853336 143.695998 387.384 144.112 386.914664 144.528002 386.504002 144.962664 386.152 145.416 385.799998 145.869336 385.501335 146.354664 385.256 146.872 385.010665 147.389336 384.813334 147.97333 384.664 148.624L384.744 148.656C385.010668 148.197331 385.354665 147.816002 385.776 147.512 386.197335 147.207998 386.74933 147.056 387.432 147.056 387.912002 147.056 388.354665 147.135999 388.76 147.296 389.165335 147.456001 389.511999 147.685332 389.8 147.984 390.088001 148.282668 390.314666 148.645331 390.48 149.072 390.645334 149.498669 390.728 149.973331 390.728 150.496 390.728 151.040003 390.640001 151.538664 390.464 151.992 390.287999 152.445336 390.037335 152.834665 389.712 153.16 389.386665 153.485335 388.994669 153.738666 388.536 153.92 388.077331 154.101334 387.570669 154.192 387.016 154.192zM387 153.024C387.736004 153.024 388.309331 152.821335 388.72 152.416 389.130669 152.010665 389.336 151.429337 389.336 150.672L389.336 150.544C389.336 149.786663 389.130669 149.205335 388.72 148.8 388.309331 148.394665 387.736004 148.192 387 148.192 386.263996 148.192 385.690669 148.394665 385.28 148.8 384.869331 149.205335 384.664 149.786663 384.664 150.544L384.664 150.672C384.664 151.429337 384.869331 152.010665 385.28 152.416 385.690669 152.821335 386.263996 153.024 387 153.024zM394.6 154L398.872 143.984 394.104 143.984 394.104 146.064 392.904 146.064 392.904 142.832 400.232 142.832 400.232 144.016 396.04 154 394.6 154zM404.2 154L408.472 143.984 403.704 143.984 403.704 146.064 402.504 146.064 402.504 142.832 409.832 142.832 409.832 144.016 405.64 154 404.2 154zM413.8 154L418.072 143.984 413.304 143.984 413.304 146.064 412.104 146.064 412.104 142.832 419.432 142.832 419.432 144.016 415.24 154 413.8 154zM429.128 154L421.8 154 421.8 152.624 425.448 149.264C425.970669 148.783998 426.407998 148.274669 426.76 147.736 427.112002 147.197331 427.288 146.656003 427.288 146.112L427.288 145.92C427.288 145.30133 427.117335 144.800002 426.776 144.416 426.434665 144.031998 425.917337 143.84 425.224 143.84 424.882665 143.84 424.584001 143.888 424.328 143.984 424.071999 144.08 423.850668 144.213332 423.664 144.384 423.477332 144.554668 423.322667 144.754666 423.2 144.984 423.077333 145.213334 422.978667 145.461332 422.904 145.728L421.704 145.264C421.810667 144.933332 421.957332 144.610668 422.144 144.296 422.330668 143.981332 422.565332 143.701335 422.848 143.456 423.130668 143.210665 423.471998 143.013334 423.872 142.864 424.272002 142.714666 424.743997 142.64 425.288 142.64 425.832003 142.64 426.317331 142.719999 426.744 142.88 427.170669 143.040001 427.527999 143.263999 427.816 143.552 428.104001 143.840001 428.325333 144.181331 428.48 144.576 428.634667 144.970669 428.712 145.407998 428.712 145.888 428.712 146.325336 428.650667 146.730665 428.528 147.104 428.405333 147.477335 428.237334 147.831998 428.024 148.168 427.810666 148.504002 427.552002 148.831998 427.248 149.152 426.943998 149.472002 426.616002 149.791998 426.264 150.112L423.256 152.816 429.128 152.816 429.128 154zM431.608 154L431.608 152.816 434.728 152.816 434.728 143.824 434.616 143.824 431.8 146.448 431.016 145.6 433.976 142.832 436.072 142.832 436.072 152.816 438.952 152.816 438.952 154 431.608 154zM444.6 154.192C443.959997 154.192 443.400002 154.109334 442.92 153.944 442.439998 153.778666 442.037335 153.552001 441.712 153.264 441.386665 152.975999 441.141334 152.634669 440.976 152.24 440.810666 151.845331 440.728 151.418669 440.728 150.96 440.728 150.191996 440.935998 149.584002 441.352 149.136 441.768002 148.687998 442.311997 148.373334 442.984 148.192L442.984 148.064C442.39733 147.861332 441.930668 147.533336 441.584 147.08 441.237332 146.626664 441.064 146.080003 441.064 145.44 441.064 144.586662 441.37333 143.906669 441.992 143.4 442.61067 142.893331 443.479994 142.64 444.6 142.64 445.720006 142.64 446.58933 142.893331 447.208 143.4 447.82667 143.906669 448.136 144.586662 448.136 145.44 448.136 146.080003 447.962668 146.626664 447.616 147.08 447.269332 147.533336 446.80267 147.861332 446.216 148.064L446.216 148.192C446.888003 148.373334 447.431998 148.687998 447.848 149.136 448.264002 149.584002 448.472 150.191996 448.472 150.96 448.472 151.418669 448.389334 151.845331 448.224 152.24 448.058666 152.634669 447.813335 152.975999 447.488 153.264 447.162665 153.552001 446.760002 153.778666 446.28 153.944 445.799998 154.109334 445.240003 154.192 444.6 154.192zM444.6 153.024C445.378671 153.024 445.981331 152.850668 446.408 152.504 446.834669 152.157332 447.048 151.664003 447.048 151.024L447.048 150.688C447.048 150.047997 446.834669 149.554668 446.408 149.208 445.981331 148.861332 445.378671 148.688 444.6 148.688 443.821329 148.688 443.218669 148.861332 442.792 149.208 442.365331 149.554668 442.152 150.047997 442.152 150.688L442.152 151.024C442.152 151.664003 442.365331 152.157332 442.792 152.504 443.218669 152.850668 443.821329 153.024 444.6 153.024zM444.6 147.568C445.304004 147.568 445.837332 147.418668 446.2 147.12 446.562668 146.821332 446.744 146.384003 446.744 145.808L446.744 145.568C446.744 144.991997 446.562668 144.554668 446.2 144.256 445.837332 143.957332 445.304004 143.808 444.6 143.808 443.895996 143.808 443.362668 143.957332 443 144.256 442.637332 144.554668 442.456 144.991997 442.456 145.568L442.456 145.808C442.456 146.384003 442.637332 146.821332 443 147.12 443.362668 147.418668 443.895996 147.568 444.6 147.568zM44.008 156L44.008 154.816 47.128 154.816 47.128 145.824 47.016 145.824 44.2 148.448 43.416 147.6 46.376 144.832 48.472 144.832 48.472 154.816 51.352 154.816 51.352 156 44.008 156zM57.016 156.192C56.4399971 156.192 55.9200023 156.093334 55.456 155.896 54.9919977 155.698666 54.597335 155.416002 54.272 155.048 53.946665 154.679998 53.6986675 154.229336 53.528 153.696 53.3573325 153.162664 53.272 152.565337 53.272 151.904 53.272 151.071996 53.3946654 150.29067 53.64 149.56 53.8853346 148.82933 54.2026647 148.16267 54.592 147.56 54.9813353 146.95733 55.4106643 146.424002 55.88 145.96 56.3493357 145.495998 56.8079978 145.120001 57.256 144.832L58.984 144.832C58.3866637 145.269336 57.8533357 145.695998 57.384 146.112 56.9146643 146.528002 56.5040018 146.962664 56.152 147.416 55.7999982 147.869336 55.5013346 148.354664 55.256 148.872 55.0106654 149.389336 54.8133341 149.97333 54.664 150.624L54.744 150.656C55.010668 150.197331 55.3546646 149.816002 55.776 149.512 56.1973354 149.207998 56.7493299 149.056 57.432 149.056 57.9120024 149.056 58.3546646 149.135999 58.76 149.296 59.1653354 149.456001 59.5119986 149.685332 59.8 149.984 60.0880014 150.282668 60.3146658 150.645331 60.48 151.072 60.6453342 151.498669 60.728 151.973331 60.728 152.496 60.728 153.040003 60.6400009 153.538664 60.464 153.992 60.2879991 154.445336 60.037335 154.834665 59.712 155.16 59.386665 155.485335 58.994669 155.738666 58.536 155.92 58.077331 156.101334 57.5706694 156.192 57.016 156.192zM57 155.024C57.7360037 155.024 58.3093313 154.821335 58.72 154.416 59.1306687 154.010665 59.336 153.429337 59.336 152.672L59.336 152.544C59.336 151.786663 59.1306687 151.205335 58.72 150.8 58.3093313 150.394665 57.7360037 150.192 57 150.192 56.2639963 150.192 55.6906687 150.394665 55.28 150.8 54.8693313 151.205335 54.664 151.786663 54.664 152.544L54.664 152.672C54.664 153.429337 54.8693313 154.010665 55.28 154.416 55.6906687 154.821335 56.2639963 155.024 57 155.024zM64.6 156L68.872 145.984 64.104 145.984 64.104 148.064 62.904 148.064 62.904 144.832 70.232 144.832 70.232 146.016 66.04 156 64.6 156zM74.2 156L78.472 145.984 73.704 145.984 73.704 148.064 72.504 148.064 72.504 144.832 79.832 144.832 79.832 146.016 75.64 156 74.2 156zM83.8 156L88.072 145.984 83.304 145.984 83.304 148.064 82.104 148.064 82.104 144.832 89.432 144.832 89.432 146.016 85.24 156 83.8 156zM99.128 156L91.8 156 91.8 154.624 95.448 151.264C95.9706693 150.783998 96.4079982 150.274669 96.76 149.736 97.1120018 149.197331 97.288 148.656003 97.288 148.112L97.288 147.92C97.288 147.30133 97.117335 146.800002 96.776 146.416 96.434665 146.031998 95.9173368 145.84 95.224 145.84 94.882665 145.84 94.5840013 145.888 94.328 145.984 94.0719987 146.08 93.8506676 146.213332 93.664 146.384 93.4773324 146.554668 93.3226673 146.754666 93.2 146.984 93.0773327 147.213334 92.978667 147.461332 92.904 147.728L91.704 147.264C91.8106672 146.933332 91.9573324 146.610668 92.144 146.296 92.3306676 145.981332 92.5653319 145.701335 92.848 145.456 93.1306681 145.210665 93.471998 145.013334 93.872 144.864 94.272002 144.714666 94.7439973 144.64 95.288 144.64 95.8320027 144.64 96.3173312 144.719999 96.744 144.88 97.1706688 145.040001 97.5279986 145.263999 97.816 145.552 98.1040014 145.840001 98.3253326 146.181331 98.48 146.576 98.6346674 146.970669 98.712 147.407998 98.712 147.888 98.712 148.325336 98.6506673 148.730665 98.528 149.104 98.4053327 149.477335 98.2373344 149.831998 98.024 150.168 97.8106656 150.504002 97.5520015 150.831998 97.248 151.152 96.9439985 151.472002 96.6160018 151.791998 96.264 152.112L93.256 154.816 99.128 154.816 99.128 156zM101.608 156L101.608 154.816 104.728 154.816 104.728 145.824 104.616 145.824 101.8 148.448 101.016 147.6 103.976 144.832 106.072 144.832 106.072 154.816 108.952 154.816 108.952 156 101.608 156zM117.768 146.016L112.872 146.016 112.552 150.272 112.664 150.272C112.930668 149.898665 113.231998 149.600001 113.568 149.376 113.904002 149.151999 114.36533 149.04 114.952 149.04 115.432002 149.04 115.874665 149.119999 116.28 149.28 116.685335 149.440001 117.037332 149.666665 117.336 149.96 117.634668 150.253335 117.866666 150.613331 118.032 151.04 118.197334 151.466669 118.28 151.951997 118.28 152.496 118.28 153.040003 118.194668 153.538664 118.024 153.992 117.853332 154.445336 117.605335 154.834665 117.28 155.16 116.954665 155.485335 116.560002 155.738666 116.096 155.92 115.631998 156.101334 115.10667 156.192 114.52 156.192 114.050664 156.192 113.637335 156.138667 113.28 156.032 112.922665 155.925333 112.605335 155.781334 112.328 155.6 112.050665 155.418666 111.808001 155.216001 111.6 154.992 111.391999 154.767999 111.202668 154.533335 111.032 154.288L112.04 153.52C112.178667 153.744001 112.325333 153.946666 112.48 154.128 112.634667 154.309334 112.805332 154.463999 112.992 154.592 113.178668 154.720001 113.394665 154.818666 113.64 154.888 113.885335 154.957334 114.178665 154.992 114.52 154.992 115.288004 154.992 115.869331 154.789335 116.264 154.384 116.658669 153.978665 116.856 153.408004 116.856 152.672L116.856 152.512C116.856 151.775996 116.658669 151.205335 116.264 150.8 115.869331 150.394665 115.288004 150.192 114.52 150.192 114.007997 150.192 113.605335 150.285332 113.312 150.472 113.018665 150.658668 112.754668 150.879999 112.52 151.136L111.384 150.976 111.784 144.832 117.768 144.832 117.768 146.016z"/>
  </g>
</svg>
